<svg width="172" height="312" viewBox="0 0 172 312" fill="none" xmlns="http://www.w3.org/2000/svg">
<path fill-rule="evenodd" clip-rule="evenodd" d="M33.7718 47.0196C23.6383 31.9917 6.41142 1.5601 18.5716 0.057306C30.7317 -1.44549 57.8387 26.9824 69.8721 41.3841C70.2945 41.3841 70.6865 41.3877 71.0557 41.391C74.0075 41.4178 75.4973 41.4314 79.3722 39.5057C79.3722 33.8702 81.8568 32.5536 86.9723 31.9917C100.652 30.4889 129.406 31.3655 142.073 31.9917C137.006 27.6085 127.633 18.4665 130.673 16.9638C133.713 15.461 144.606 23.8516 149.673 28.2347C152.84 23.8516 159.933 14.7096 162.973 13.2068C166.773 11.3283 166.773 16.9638 162.973 24.4777C162.409 25.5926 161.846 26.5834 161.331 27.4869C158.38 32.6732 157.065 34.985 166.773 41.3841C178.173 48.8981 168.673 52.6551 159.173 47.0196C149.673 41.3841 102.173 54.5336 96.4724 60.1691C90.7724 65.8045 90.7724 69.5615 102.173 80.8325C113.573 92.1034 142.073 125.916 134.473 133.43C131.53 136.339 125.206 133.793 118.385 129.325L76.1484 133.831L65.7455 150.302L115.311 154.533C116.298 154.617 117.103 155.272 117.422 156.151L117.542 156.161L117.424 156.155C117.529 156.447 117.581 156.765 117.567 157.093C117.511 158.468 116.342 159.528 114.967 159.48C106.716 159.191 96.2884 159.711 86.4653 164.437C80.0382 167.529 73.9115 171.698 68.8311 177.043V308.177C68.8311 309.834 67.4879 311.177 65.8311 311.177H54.639C52.9822 311.177 51.639 309.834 51.639 308.177V181.221C50.6108 179.664 49.627 178.151 48.6742 176.686L48.672 176.683C48.2862 176.089 47.9054 175.504 47.5289 174.926C44.5522 170.361 41.8493 166.319 38.9374 162.816C33.1875 155.9 26.6285 154.09 15.6111 151.898L2.79748 150.804C1.19105 150.667 -0.0328468 149.306 0.000672223 147.694C0.0123175 147.134 0.17409 146.611 0.447051 146.165L0.062793 146.133C0.197984 146.133 0.332718 146.133 0.467005 146.133C1.00866 145.273 1.96794 144.71 3.05777 144.738C7.92686 144.866 12.2051 145.31 16.0118 146.056L54.634 149.353L45.0022 137.153L17.5429 140.082C15.9694 140.25 14.5577 139.11 14.3898 137.537C14.222 135.963 15.3615 134.551 16.9351 134.384L111.447 124.302C106.462 120.389 101.729 116.086 98.3725 112.767L50.8718 67.683C47.0719 67.683 38.3319 66.9316 33.7718 63.9261C32.8218 63.2999 31.7135 62.7259 30.6051 62.152C25.0633 59.282 19.5216 56.4121 33.7718 47.0196Z" fill="#58C5AF"/>
</svg>
