<svg width="1446" height="364" viewBox="0 0 1446 364" fill="none" xmlns="http://www.w3.org/2000/svg">
<path d="M353.689 170.982C338.279 170.982 332.809 168.494 286.662 156.037C266.72 150.654 275.634 158.618 241.172 167.777C224.859 169.521 220.698 173.725 191.146 179.724C171.574 183.696 156.927 182.18 148.238 167.777C139.549 153.375 140.026 137.735 151.984 126.426C143.295 89.2859 146.884 85.6244 162.811 72.1563C178.739 58.6883 189.176 58.4988 191.146 44.1603C192.872 31.605 217.591 11.0205 238.27 15.3134C258.95 19.6062 260.198 29.8884 280.546 22.7171C288.806 19.8061 315.99 11.7679 326.106 29.7328C336.222 47.6977 320.683 53.7568 345.492 58.6883C370.3 63.6197 363.197 76.0619 366.153 92.3756C369.108 108.689 382.857 107.589 385.469 132.899C387.393 151.549 375.829 168.615 353.689 170.982Z" fill="#58C5AF"/>
<path d="M271.192 222.002C270.12 202.857 269.089 151.028 273.553 134.504L245.56 135.581L244.483 237.386C252.071 240.235 272.263 241.146 271.192 222.002Z" fill="black"/>
<path d="M245.562 178.646L221.876 132.07L225.721 130.104L229.566 129.121L249.869 162.497L245.562 178.646Z" fill="black"/>
<path d="M268.174 194.849L294.014 146.4L284.324 139.887L264.944 177.623L268.174 194.849Z" fill="black"/>
<path d="M323.031 171.111C281.292 158.308 278.669 144.293 254.992 144.195C248.598 144.168 241.477 147.79 228.043 152.957C192.713 168.238 198.618 106.687 212.4 95.8215C240.935 73.3268 367.254 123.727 381.685 152.957C376.571 168.082 356.423 181.352 323.031 171.111Z" fill="#58C5AF"/>
<mask id="mask0_435_1532" style="mask-type:alpha" maskUnits="userSpaceOnUse" x="0" y="179" width="698" height="161">
<rect y="179" width="698" height="161" fill="#7B75A8"/>
</mask>
<g mask="url(#mask0_435_1532)">
<path d="M675.146 305.099C629.15 250.521 625.764 256.876 585.646 243.654C582.983 242.776 580.241 242.139 577.455 241.817C531.007 236.447 488.28 235.077 476.379 241.166C472.826 242.983 472.864 247.737 472.345 251.694C468.963 277.485 466.697 310.157 489.603 331.208C514.313 353.918 530.263 346.907 639.475 346.907C679.372 350.963 716.129 353.731 675.146 305.099Z" fill="#7B75A8"/>
<path d="M598.682 292.192C539.024 244.531 556.672 249.074 518.761 232.94C515.671 231.625 512.394 230.705 509.069 230.236C460.401 223.373 415.983 221.926 406.878 230.77C404.546 233.036 405.039 236.807 404.685 240.04C401.159 272.211 398.145 313.952 421.73 340.598C446.521 368.608 462.523 359.961 572.093 359.961C612.121 364.963 660.661 341.709 598.682 292.192Z" fill="#595480"/>
<path d="M609.461 339.757C532.359 284.646 462.865 233.254 407.299 211.086C404.465 209.956 401.502 209.218 398.472 208.861C334.099 201.276 267.533 212.676 255.684 226.323C253.303 229.065 253.631 233.078 253.281 236.693C249.386 276.912 252.305 362.762 282.508 393.292C314.144 425.27 398.319 403.285 538.139 403.285C589.218 408.995 688.551 396.29 609.461 339.757Z" fill="#7B75A8"/>
<path d="M315.178 216.823C367.666 239.123 382.374 279.019 459.182 335.978C538.094 394.499 438.984 407.651 388.02 401.74C331.655 401.74 311.138 405.455 304.62 407.7C303.07 410.331 299.464 409.476 304.62 407.7C305.961 405.424 305.764 400.543 297.042 391.395C266.806 359.687 169.529 262.378 165.52 220.253C165.188 216.767 164.802 212.663 167.46 210.383C179.276 200.243 242.437 205.805 306.076 214.39C309.198 214.811 312.278 215.591 315.178 216.823Z" fill="#595480"/>
<path d="M420.559 338.959C346.26 280.123 279.377 225.376 224.968 200.503C222.193 199.234 219.27 198.351 216.261 197.846C152.339 187.104 85.2932 195.218 72.7877 208.265C70.2746 210.887 70.4043 214.911 69.877 218.505C64.0096 258.484 62.7027 344.373 91.3684 376.351C121.394 409.846 206.547 392.027 346.198 398.903C396.935 407.118 496.773 399.312 420.559 338.959Z" fill="#7B75A8"/>
<path d="M263.243 335.977C185.595 278.395 171.413 238.252 117.504 216.096C115.748 215.375 113.911 214.798 112.052 214.416C81.9413 208.231 50.7165 215.594 45.6716 228.557C44.4016 231.821 44.8296 235.509 44.5039 238.995C41.1745 274.636 49.9802 297.886 80.0902 329.462C111.655 362.565 161.806 359.338 206.165 364.483C257.129 370.394 342.155 394.497 263.243 335.977Z" fill="#595480"/>
<path d="M219.123 336.969C141.386 285.782 99.2964 226.092 47.3699 201.81C42.7859 199.666 37.7539 198.607 32.6937 198.553C21.2316 198.429 4.53022 200.469 1.87128 222.753C-2.75305 261.508 -1.15042 303.793 29.9251 336.969C61.0006 370.146 39.356 362.977 176.699 362.977C226.873 368.902 279.898 376.988 219.123 336.969Z" fill="#7B75A8"/>
<path d="M23.2624 344.015C23.5183 335.899 30.8148 332.788 37.9779 334.191C38.9285 334.371 39.7091 333.264 39.1801 332.454C38.6351 331.619 38.1063 330.773 37.5969 329.911C34.0942 324.014 29.9438 314.935 37.5588 310.241C43.5707 306.535 51.6945 308.792 57.7527 311.155C59.8875 311.988 62.3756 309.586 61.9764 307.329C61.8634 306.691 61.7931 306.054 61.7752 305.423C61.5547 296.32 71.8204 294.732 78.4855 297.367C84.6706 299.812 91.1331 303.022 96.7593 307.188C98.6756 308.607 101.722 307.7 103.537 306.155C109.672 300.931 119.731 307.152 125.168 310.598C136.319 317.693 145.12 327.829 150.586 339.726C152.917 344.8 155.871 349.644 158.194 354.722C162.454 364.032 162.529 375.644 161.719 385.381C161.09 392.896 159.131 400.221 154.158 406.073C149.935 411.043 143.953 414.23 137.807 416.158C123.571 420.644 106.967 420.283 92.3818 418.029C77.6282 415.747 63.2312 409.817 52.315 399.446C47.4162 394.789 40.1198 387.145 40.6477 379.812C40.9258 375.833 41.8263 369.593 38.9524 366.827C37.6249 365.549 36.3237 364.244 35.0495 362.913C30.0554 357.768 23.0229 351.884 23.2624 344.015Z" fill="#595480"/>
<path d="M472.512 277.848C480.625 278.201 483.648 285.534 482.159 292.68C481.968 293.628 483.066 294.422 483.882 293.903C484.723 293.368 485.575 292.849 486.443 292.35C492.382 288.919 501.511 284.878 506.112 292.549C509.746 298.605 507.391 306.701 504.956 312.73C504.097 314.855 506.469 317.371 508.73 316.999C509.37 316.894 510.008 316.831 510.639 316.821C519.744 316.71 521.209 326.994 518.494 333.627C515.975 339.782 512.687 346.206 508.454 351.781C507.012 353.681 507.882 356.737 509.406 358.572C514.555 364.768 508.214 374.752 504.704 380.148C497.475 391.213 487.233 399.891 475.272 405.213C470.171 407.483 465.291 410.379 460.186 412.641C450.826 416.789 439.213 416.725 429.487 415.797C421.98 415.078 414.679 413.031 408.887 407.989C403.968 403.706 400.853 397.686 398.999 391.518C394.684 377.229 395.245 360.63 397.674 346.073C400.132 331.348 406.235 317.023 416.736 306.233C421.452 301.39 429.183 294.186 436.509 294.802C440.485 295.128 446.714 296.103 449.514 293.263C450.807 291.951 452.128 290.665 453.474 289.407C458.679 284.475 464.647 277.514 472.512 277.848Z" fill="#595480"/>
</g>
<path d="M1140.17 328.53C1140.62 333.455 1140.09 345.527 1140.31 350.482C1140.4 352.561 1140.76 356.683 1138.44 357.314C1136.64 357.802 1135.97 355.459 1135.64 353.74C1134.7 348.898 1132.32 327.464 1132.02 322.464C1131.96 321.525 1140.08 327.569 1140.17 328.53Z" fill="#D95F5F"/>
<path d="M1133.52 354.739C1133.86 354.598 1134.15 354.364 1134.36 354.064C1134.56 353.765 1134.68 353.413 1134.7 353.049C1134.74 352.749 1134.58 351.593 1134.79 351.405C1134.99 351.218 1134.89 351.27 1135.28 351.203C1136.61 350.977 1138.87 350.842 1139.72 350.797C1140.1 350.797 1140.17 350.797 1140.31 351.548C1140.31 351.593 1140.61 354.303 1140.7 355.737C1140.81 357.434 1140.6 357.929 1139.12 358.342C1135.54 359.356 1131.29 360.152 1127.58 360.955C1127.49 360.971 1127.41 360.97 1127.32 360.953C1127.24 360.936 1127.16 360.902 1127.09 360.854C1127.02 360.805 1126.96 360.744 1126.92 360.672C1126.87 360.601 1126.84 360.521 1126.83 360.437C1126.17 358.087 1126.34 358.23 1128.25 357.306C1129.38 356.811 1132.59 355.167 1133.52 354.739Z" fill="#1C1C1C"/>
<path d="M1175.52 323.469C1178.2 327.629 1183.31 338.582 1185.8 342.884C1186.85 344.686 1189.07 348.139 1187.31 349.799C1185.94 351.06 1184.25 349.296 1183.17 347.922C1180.09 344.055 1168.06 326.15 1165.49 321.84C1165 321.037 1175 322.659 1175.52 323.469Z" fill="#D95F5F"/>
<path d="M1181.75 349.784C1181.98 349.503 1182.13 349.162 1182.18 348.801C1182.22 348.439 1182.16 348.072 1182.01 347.742C1181.91 347.456 1181.26 346.503 1181.33 346.24C1181.41 345.977 1181.33 346.067 1181.68 345.827C1182.75 345.009 1184.69 343.853 1185.44 343.425C1185.76 343.23 1185.85 343.237 1186.32 343.845C1186.32 343.89 1187.83 346.15 1188.58 347.389C1189.46 348.845 1189.5 349.371 1188.38 350.392C1185.67 352.937 1182.27 355.602 1179.35 358.027C1179.22 358.121 1179.05 358.159 1178.89 358.134C1178.73 358.109 1178.58 358.022 1178.48 357.892C1176.81 356.113 1177.04 356.158 1178.3 354.453C1179.03 353.53 1181.11 350.594 1181.75 349.784Z" fill="#1C1C1C"/>
<path d="M1182.21 331.623C1178.03 320.703 1175.78 309.143 1175.56 297.456C1175.37 288.447 1175.07 260.969 1172.15 252.41C1170.82 248.544 1168.81 258.506 1164.62 257.245C1161.49 256.307 1157.59 258.168 1154.09 260.488C1149.57 259.189 1143.39 260.353 1139.71 260.916C1138.75 260.165 1137.28 260.331 1137.02 261.945C1132.89 287.884 1123.57 313.312 1129.29 339.889C1129.37 340.297 1129.59 340.667 1129.9 340.94C1130.22 341.212 1130.61 341.371 1131.03 341.39C1134.58 340.91 1138.07 340.317 1141.57 339.573C1141.96 339.427 1142.3 339.161 1142.54 338.812C1142.78 338.464 1142.9 338.05 1142.89 337.629C1143.59 325.987 1146.31 314.555 1150.93 303.845C1151.72 302.013 1152.53 300.234 1153.31 298.454C1156.93 313.635 1161.51 328.319 1170.99 340.639C1171.24 340.956 1171.59 341.174 1171.99 341.252C1172.38 341.331 1172.79 341.265 1173.14 341.067C1176.1 338.815 1178.96 336.51 1181.78 334.055C1182.09 333.735 1182.29 333.335 1182.36 332.903C1182.44 332.471 1182.39 332.026 1182.21 331.623V331.623Z" fill="#58C5AF"/>
<path d="M1152.37 200.743C1152.42 200.435 1152.45 200.135 1152.51 199.835C1152.54 199.682 1152.62 199.545 1152.75 199.452C1152.76 199.323 1152.81 199.2 1152.88 199.094C1152.96 198.989 1153.06 198.904 1153.17 198.849C1153.29 198.794 1153.42 198.77 1153.55 198.779C1153.68 198.789 1153.8 198.832 1153.91 198.904C1153.87 198.326 1153.84 197.748 1153.79 197.17C1153.8 196.983 1153.88 196.805 1154 196.667C1154.13 196.529 1154.3 196.441 1154.49 196.417C1154.67 196.392 1154.86 196.434 1155.02 196.535C1155.18 196.636 1155.29 196.788 1155.35 196.967C1155.35 197.034 1155.35 197.102 1155.35 197.17C1155.35 197.17 1155.35 197.23 1155.35 197.26C1155.44 197.145 1155.56 197.058 1155.7 197.007C1155.84 196.956 1155.99 196.942 1156.13 196.968C1156.27 196.995 1156.41 197.059 1156.52 197.155C1156.63 197.252 1156.71 197.376 1156.76 197.515C1156.76 197.387 1156.76 197.26 1156.76 197.132C1156.78 196.935 1156.87 196.753 1157.01 196.62C1157.16 196.487 1157.35 196.413 1157.55 196.413C1157.75 196.413 1157.94 196.487 1158.09 196.62C1158.23 196.753 1158.33 196.935 1158.34 197.132V197.275C1158.55 197.277 1158.75 197.355 1158.9 197.494C1159.05 197.632 1159.14 197.822 1159.16 198.025C1159.16 198.243 1159.16 198.461 1159.21 198.679C1159.39 198.683 1159.57 198.755 1159.71 198.881C1159.82 198.788 1159.97 198.729 1160.11 198.71C1160.26 198.69 1160.42 198.712 1160.55 198.772C1160.69 198.832 1160.81 198.929 1160.9 199.051C1160.98 199.174 1161.03 199.317 1161.05 199.467C1161.21 202.59 1161.37 205.716 1161.53 208.844C1161.61 210.345 1162.36 212.973 1161.6 214.339C1161.42 214.574 1161.18 214.765 1160.91 214.901C1160.65 215.037 1160.35 215.114 1160.05 215.128C1160.05 215.398 1160.05 215.668 1160.05 215.931C1160.05 216.14 1159.97 216.341 1159.82 216.488C1159.67 216.636 1159.47 216.719 1159.26 216.719C1159.05 216.719 1158.85 216.636 1158.7 216.488C1158.56 216.341 1158.47 216.14 1158.47 215.931V215.488H1158.43C1158.43 215.946 1158.43 216.411 1158.43 216.869C1158.43 217.002 1158.41 217.133 1158.35 217.251C1158.29 217.369 1158.19 217.469 1158.08 217.54C1157.97 217.612 1157.84 217.653 1157.71 217.659C1157.58 217.665 1157.45 217.636 1157.33 217.575C1157.21 217.744 1157.03 217.86 1156.82 217.898C1156.62 217.935 1156.4 217.892 1156.23 217.778C1156.16 217.879 1156.06 217.961 1155.95 218.017C1155.84 218.074 1155.72 218.103 1155.59 218.103C1155.47 218.103 1155.34 218.074 1155.23 218.017C1155.12 217.961 1155.02 217.879 1154.95 217.778C1154.87 217.931 1154.75 218.055 1154.59 218.132C1154.44 218.208 1154.27 218.233 1154.1 218.203C1153.93 218.172 1153.77 218.088 1153.66 217.963C1153.54 217.838 1153.47 217.678 1153.45 217.508C1153.45 217.35 1153.45 217.192 1153.45 217.035C1153.3 217.108 1153.13 217.134 1152.96 217.107C1152.8 217.08 1152.65 217.002 1152.53 216.884L1151.47 217.117C1151.02 217.222 1150.41 216.884 1150.47 216.366C1151.03 211.2 1151.15 205.996 1150.82 200.811C1150.74 199.835 1152.22 199.82 1152.37 200.743Z" fill="#D95F5F"/>
<path d="M1201.86 228.341C1201.38 228.769 1200.83 229.112 1200.23 229.355C1199.37 229.812 1198.8 229.91 1198.14 230.856C1197.79 231.344 1197.53 231.93 1197.21 232.44C1195.34 235.406 1193.51 238.634 1189.8 236.404C1189.69 236.335 1189.6 236.243 1189.53 236.133C1189.46 236.023 1189.41 235.899 1189.4 235.77C1189.38 235.64 1189.39 235.509 1189.43 235.385C1189.47 235.261 1189.54 235.147 1189.63 235.053C1189.49 234.948 1189.4 234.792 1189.37 234.619C1189.35 234.446 1189.39 234.27 1189.5 234.129C1190.17 233.086 1190.84 232.027 1191.6 231.036C1192.15 230.378 1192.65 229.681 1193.1 228.949C1193.76 227.748 1193.66 226.794 1193.85 225.488C1193.89 224.808 1194.05 224.141 1194.35 223.526C1194.64 222.911 1195.05 222.361 1195.56 221.907C1196.61 221.014 1198.29 220.368 1199.58 221.081C1200.91 221.981 1201.96 223.228 1202.63 224.685C1202.86 225.304 1202.91 225.977 1202.77 226.624C1202.64 227.271 1202.32 227.867 1201.86 228.341V228.341Z" fill="#D95F5F"/>
<path d="M1120.35 284.903C1120.67 284.349 1121.08 283.856 1121.57 283.446C1122.25 282.733 1122.75 282.47 1123.08 281.374C1123.25 280.804 1123.32 280.173 1123.46 279.588C1124.32 276.179 1125.04 272.546 1129.26 273.514C1129.39 273.545 1129.51 273.604 1129.61 273.686C1129.71 273.768 1129.79 273.872 1129.85 273.99C1129.91 274.108 1129.93 274.237 1129.93 274.368C1129.93 274.498 1129.91 274.627 1129.85 274.745C1130.01 274.802 1130.15 274.921 1130.23 275.077C1130.31 275.233 1130.32 275.413 1130.26 275.579C1129.95 276.78 1129.65 277.988 1129.24 279.167C1128.91 279.965 1128.65 280.786 1128.44 281.622C1128.19 282.974 1128.59 283.874 1128.85 285.136C1129.03 285.793 1129.08 286.48 1128.99 287.157C1128.91 287.833 1128.69 288.486 1128.34 289.077C1127.59 290.248 1126.23 291.382 1124.79 291.112C1123.24 290.662 1121.85 289.803 1120.76 288.627C1120.34 288.109 1120.08 287.484 1120.01 286.825C1119.94 286.165 1120.05 285.499 1120.35 284.903V284.903Z" fill="#D95F5F"/>
<path d="M1157.88 179.264C1157.22 178.915 1156.52 178.638 1155.79 178.438C1155.5 178.939 1155.15 179.403 1154.74 179.819C1153.4 181.117 1151.62 181.854 1149.75 181.876H1148.43C1147.82 181.871 1147.21 181.782 1146.63 181.614C1145 183.637 1143.96 186.067 1143.62 188.641C1143.53 189.324 1143.44 191.126 1143.38 191.847C1142.63 193.753 1141.87 194.639 1141.35 196.614C1140.97 198.115 1142.44 198.446 1143.6 198.784C1143.85 200.405 1143.78 202.77 1144.42 204.189C1145.78 207.192 1148.47 207.267 1152.18 207.44C1160.38 207.823 1163.88 203.423 1164.92 197.32C1167.1 190.743 1164.93 183.01 1157.88 179.264Z" fill="#D95F5F"/>
<path d="M1198.31 236.607C1194.51 245.406 1186.9 252.373 1177.04 251.179C1176.88 257.275 1177.11 263.394 1176.28 269.438C1175.94 271.908 1175.98 272.133 1173.71 272.891C1171.84 273.514 1169.75 273.529 1167.87 273.754C1159.65 274.76 1151.37 274.182 1143.13 273.754C1140 273.52 1136.89 273.097 1133.81 272.486C1133.35 274.182 1132.85 275.879 1132.31 277.568C1132.23 277.821 1132.06 278.035 1131.83 278.166C1131.6 278.297 1131.33 278.335 1131.07 278.274C1128.46 277.801 1124.42 278.131 1123.08 275.661C1122.32 274.242 1123.52 273.034 1123.03 271.48C1122.58 270.076 1120.92 267.944 1121.02 266.419C1121.53 258.634 1125.48 250.864 1129.01 243.701C1132.45 234.91 1136.58 224.557 1143.53 217.65C1144.43 214.444 1146.12 210.143 1149.16 209.392C1151.49 208.821 1154.58 209.895 1157.08 211.344L1157.63 211.284C1159.07 209.932 1160.58 208.656 1162.14 207.417C1163.53 206.321 1165 204.85 1166.86 204.737C1170.41 204.519 1173.44 208.761 1175.24 211.269C1177.16 213.949 1179.53 217.65 1176.35 220.323C1175.53 220.963 1174.62 221.49 1173.66 221.892C1174.23 223.038 1174.79 224.192 1175.33 225.353C1176.24 227.477 1177.32 229.525 1178.55 231.479C1180.09 234.325 1182.73 235.368 1186.45 234.632C1187.95 233.443 1189.2 231.975 1190.13 230.308C1190.26 230.078 1190.48 229.911 1190.74 229.844C1191 229.776 1191.27 229.814 1191.51 229.948C1193.84 231.63 1196.08 233.444 1198.21 235.383C1198.35 235.55 1198.44 235.758 1198.46 235.978C1198.48 236.198 1198.43 236.418 1198.31 236.607V236.607Z" fill="#F9B34A"/>
<path d="M1171.75 194.572C1170.44 195.828 1169.3 197.252 1168.35 198.806C1166.69 201.539 1165.4 202.935 1162.23 203.941C1162.1 204.086 1161.93 204.194 1161.74 204.253C1161.55 204.312 1161.35 204.321 1161.16 204.279C1159.74 203.949 1158.53 202.447 1157.92 201.178C1156.41 198.003 1158.12 196.283 1155.5 193.115C1154.62 192.042 1154.1 192.072 1153.9 190.51C1153.62 188.43 1155.05 187.732 1152.39 185.698C1150.78 184.459 1148.25 184.414 1146.37 184.459C1146.23 184.464 1146.08 184.434 1145.95 184.372C1145.82 184.309 1145.71 184.215 1145.62 184.099C1143.98 183.903 1142.78 182.717 1143.36 180.81C1143.72 179.662 1144.42 179.309 1145.36 178.686C1146.95 177.54 1148.61 176.487 1150.33 175.532C1151.74 174.87 1153.34 174.727 1154.85 175.127C1157.01 175.66 1157.86 176.629 1160.11 176.583C1163.33 176.516 1165.56 177.192 1166.95 180.135C1167.85 182.064 1166.95 181.163 1168.81 182.469C1170.02 183.26 1171.09 184.236 1171.99 185.36C1174.05 188.243 1174.36 191.914 1171.75 194.572Z" fill="#1C1C1C"/>
<path d="M1195.93 220.173C1195.07 220.901 1194.72 222.057 1194.32 223.086C1193.62 224.902 1191.79 227.868 1193.81 229.452C1195.06 230.458 1198.89 231.261 1200.23 230.255C1201.08 229.61 1201.8 228.487 1202.06 227.061C1202.26 225.92 1202.02 225.248 1202.24 224.453C1202.38 223.086 1202.24 222.376 1202.06 220.879C1202.11 220.725 1202.17 220.575 1202.24 220.428C1203.21 218.887 1203.17 216.234 1204.12 214.697L1198.56 217.492C1198.32 218.018 1198.05 218.498 1197.8 218.994C1197.19 219.422 1196.53 219.685 1195.93 220.173Z" fill="#D95F5F"/>
<path d="M1202.06 204.394C1202.06 204.394 1197.93 216.757 1197.93 218.818C1197.93 218.818 1201.46 221.055 1202.06 220.879C1202.66 220.703 1205.98 215.6 1205.98 215.6C1209.2 211.246 1218.84 194.219 1220.02 188.01C1222.2 176.598 1222.55 162.372 1216.07 152.229C1216 152.112 1215.9 152.011 1215.79 151.932C1215.67 151.853 1215.54 151.798 1215.41 151.768C1215.27 151.739 1215.13 151.737 1215 151.762C1214.86 151.787 1214.73 151.838 1214.61 151.913C1215.71 148.352 1217.23 144.932 1219.13 141.726C1219.8 140.63 1218.1 139.518 1217.43 140.63C1210.66 151.921 1210.38 170.9 1208.41 183.603C1206.19 192.03 1202.06 204.394 1202.06 204.394Z" fill="black"/>
<path d="M1239.96 310.339C1240.3 316.968 1237.22 340.91 1237.26 347.576C1237.26 350.362 1237.54 355.91 1234.4 356.631C1231.96 357.194 1231.18 354.01 1230.82 351.691C1229.82 345.144 1228.73 318.049 1228.56 311.352C1228.57 310.053 1239.9 309.055 1239.96 310.339Z" fill="black"/>
<path d="M1227.92 352.922C1228.38 352.75 1228.78 352.451 1229.08 352.06C1229.38 351.669 1229.55 351.203 1229.59 350.715C1229.67 350.317 1229.52 348.763 1229.81 348.523C1230.09 348.282 1229.95 348.342 1230.48 348.267C1232.27 348.035 1235.31 347.974 1236.46 347.959C1236.96 347.959 1237.07 348.02 1237.21 349.041C1237.21 349.101 1237.47 352.749 1237.51 354.679C1237.56 356.931 1237.26 357.614 1235.25 358.095C1230.4 359.258 1224.66 360.107 1219.63 360.985C1219.41 361.006 1219.19 360.939 1219.02 360.799C1218.84 360.658 1218.73 360.456 1218.71 360.234C1217.95 357.051 1218.18 357.231 1220.78 356.113C1222.26 355.482 1226.65 353.448 1227.92 352.922Z" fill="#58C5AF"/>
<path d="M1278.59 306.602C1280.45 312.971 1283.71 335.832 1285.28 342.306C1285.94 345.023 1287.48 350.354 1284.59 351.785C1282.35 352.891 1281.28 349.771 1279.97 347.803C1276.83 342.999 1265.12 312.834 1266.1 300.895C1266.2 299.63 1278.23 305.364 1278.59 306.602Z" fill="black"/>
<path d="M1277.44 349.661C1277.85 349.387 1278.17 349.004 1278.36 348.556C1278.56 348.108 1278.63 347.613 1278.55 347.13C1278.53 346.729 1278.03 345.249 1278.25 344.948C1278.47 344.647 1278.32 344.726 1278.85 344.546C1280.54 343.905 1283.48 343.149 1284.59 342.869C1285.08 342.747 1285.19 342.783 1285.57 343.75C1285.55 343.807 1286.66 347.298 1287.16 349.17C1287.74 351.38 1287.6 352.076 1285.76 353.009C1281.3 355.256 1275.91 357.406 1271.22 359.421C1271.02 359.491 1270.79 359.478 1270.59 359.385C1270.39 359.291 1270.23 359.125 1270.15 358.919C1268.71 356.002 1268.95 356.133 1271.22 354.423C1272.51 353.451 1276.32 350.466 1277.44 349.661Z" fill="#58C5AF"/>
<path d="M1219.23 115.277C1219.84 112.747 1221.14 110.389 1222.07 107.934C1222.13 107.018 1222.21 106.11 1222.3 105.239C1223.23 97.0332 1229.83 88.1142 1239.61 93.1067C1248.64 97.7539 1251.6 107.574 1248.93 115.997C1247.72 123.805 1243.35 129.511 1232.88 129.151C1228.13 129.008 1224.71 129.008 1222.91 125.157C1222.07 123.362 1222.12 120.344 1221.78 118.28C1220.24 117.859 1218.77 117.154 1219.23 115.277Z" fill="#D95F5F"/>
<path d="M1233.14 120.539C1233.14 120.149 1233.18 119.789 1233.22 119.368C1233.24 119.175 1233.33 118.997 1233.48 118.865C1233.48 118.698 1233.52 118.534 1233.61 118.39C1233.69 118.246 1233.81 118.126 1233.95 118.042C1234.1 117.958 1234.26 117.914 1234.43 117.914C1234.6 117.913 1234.76 117.957 1234.91 118.039C1234.79 117.289 1234.7 116.538 1234.57 115.855C1234.55 115.612 1234.62 115.371 1234.77 115.176C1234.91 114.982 1235.13 114.846 1235.36 114.794C1235.6 114.742 1235.85 114.777 1236.07 114.893C1236.28 115.01 1236.45 115.199 1236.53 115.427C1236.53 115.509 1236.53 115.599 1236.58 115.682V115.795C1236.69 115.639 1236.83 115.514 1237 115.434C1237.17 115.353 1237.36 115.32 1237.55 115.338C1237.73 115.356 1237.91 115.423 1238.06 115.534C1238.21 115.645 1238.33 115.795 1238.41 115.967C1238.41 115.81 1238.41 115.644 1238.41 115.479C1238.41 115.226 1238.5 114.981 1238.67 114.795C1238.85 114.608 1239.08 114.492 1239.33 114.471C1239.59 114.449 1239.84 114.523 1240.04 114.677C1240.24 114.832 1240.38 115.057 1240.42 115.306C1240.42 115.367 1240.42 115.427 1240.42 115.487C1240.69 115.466 1240.95 115.544 1241.16 115.705C1241.36 115.866 1241.51 116.098 1241.55 116.358C1241.6 116.635 1241.63 116.906 1241.67 117.183C1241.91 117.165 1242.14 117.237 1242.33 117.386C1242.84 116.883 1244.82 115.502 1244.95 116.44C1245.49 120.397 1247.21 135.014 1246.38 136.823C1246.17 137.142 1245.89 137.412 1245.57 137.615C1245.24 137.818 1244.88 137.95 1244.5 138.002C1244.5 138.34 1244.56 138.678 1244.58 139.015C1244.58 139.269 1244.49 139.513 1244.32 139.7C1244.14 139.887 1243.91 140.002 1243.65 140.024C1243.4 140.046 1243.15 139.972 1242.95 139.817C1242.75 139.662 1242.61 139.438 1242.57 139.188C1242.57 139 1242.52 138.82 1242.49 138.633H1242.44C1242.44 139.218 1242.5 139.804 1242.56 140.397C1242.57 140.561 1242.54 140.726 1242.48 140.876C1242.41 141.027 1242.31 141.159 1242.18 141.259C1242.05 141.36 1241.89 141.426 1241.73 141.453C1241.57 141.479 1241.4 141.465 1241.24 141.41C1241.1 141.635 1240.88 141.799 1240.63 141.867C1240.37 141.936 1240.1 141.904 1239.87 141.778C1239.78 141.913 1239.66 142.025 1239.53 142.106C1239.39 142.188 1239.24 142.236 1239.08 142.247C1238.92 142.258 1238.76 142.231 1238.61 142.169C1238.47 142.108 1238.34 142.012 1238.23 141.891C1238.16 142.109 1238.02 142.296 1237.83 142.421C1237.63 142.547 1237.4 142.604 1237.18 142.583C1236.95 142.562 1236.73 142.465 1236.57 142.306C1236.4 142.148 1236.29 141.938 1236.26 141.711C1236.26 141.508 1236.22 141.305 1236.19 141.11C1236.01 141.219 1235.8 141.269 1235.59 141.251C1235.38 141.234 1235.17 141.15 1235.01 141.013L1233.7 141.425C1233.55 141.476 1233.39 141.493 1233.24 141.475C1233.09 141.457 1232.94 141.405 1232.81 141.321C1232.68 141.238 1232.57 141.127 1232.49 140.995C1232.41 140.863 1232.36 140.715 1232.35 140.562C1232.51 133.938 1232.1 127.312 1231.12 120.757C1230.99 119.556 1232.85 119.361 1233.14 120.539Z" fill="#D95F5F"/>
<path d="M1218.26 140.172C1220.22 138.55 1222.46 137.322 1224.88 136.553C1225.46 137.457 1226.26 138.197 1227.2 138.703C1228.15 139.21 1229.21 139.464 1230.28 139.443C1237.05 139.556 1243.78 140.389 1250.52 139.443C1252.61 139.151 1254.12 137.484 1254.89 135.532C1262.17 136.883 1268.64 140.412 1269.82 148.423C1270.05 150.014 1266.45 152.552 1266.14 156.02C1265.04 168.258 1264.86 189.219 1264.37 195.81C1264.37 196.208 1266.76 197.027 1266.31 196.944C1259.2 195.623 1252.1 195.885 1244.94 196.591C1239.46 197.124 1233.08 198.798 1227.59 198.145C1226.34 198.003 1226.08 197.92 1225.33 197.019C1223.57 194.864 1214.58 159.331 1214.24 153.393C1214 148.588 1214.25 143.437 1218.26 140.172Z" fill="#58C5AF"/>
<path d="M1244.85 185.795C1244.82 185.676 1244.81 185.551 1244.82 185.428C1245.17 181.764 1249.78 181.937 1252.62 181.298C1259.3 179.764 1265.88 177.818 1272.33 175.472C1269.92 167.959 1266.76 160.705 1262.9 153.821C1262.08 152.319 1260.88 150.547 1259.74 148.715C1260.86 148.362 1261.88 147.749 1262.72 146.925C1263.55 146.102 1264.18 145.092 1264.55 143.978C1264.98 142.633 1265.23 141.241 1265.31 139.834C1276.5 148.025 1280.99 163.498 1284.15 176.283C1284.67 178.333 1285.83 182.74 1284.56 184.774C1283.12 187.094 1278.45 186.831 1276.25 187.027C1266.17 187.943 1255.44 187.207 1245.34 186.606C1244.54 186.569 1244.67 186.366 1244.85 185.795Z" fill="black"/>
<path fill-rule="evenodd" clip-rule="evenodd" d="M1217.18 231.831C1215.76 236.298 1214.35 240.747 1214.3 245.721C1214.27 249.411 1214.57 252.905 1214.87 256.342C1214.99 257.825 1215.12 259.298 1215.22 260.772C1214.69 263.132 1214.32 265.557 1214.3 268.116C1214.28 270.406 1214.38 272.621 1214.53 274.795C1214.44 275.23 1214.34 275.667 1214.23 276.107C1212.75 282.053 1211.45 287.835 1213.23 293.861C1213.58 295.046 1214.14 296.184 1214.69 297.323C1214.56 298.046 1214.41 298.777 1214.23 299.516C1212.75 305.659 1211.45 311.634 1213.23 317.862C1213.59 319.101 1214.15 320.291 1214.71 321.481C1215.39 322.914 1216.07 324.348 1216.38 325.869C1216.6 326.954 1216.47 328.595 1216.34 330.326C1216.17 332.449 1216 334.705 1216.44 336.231C1216.52 336.48 1216.58 336.758 1216.64 337.048C1216.85 337.96 1217.08 338.985 1217.7 339.567C1221.05 342.604 1251.55 336.43 1260.4 334.62C1267.79 333.103 1274.69 332.766 1281.81 332.418C1285.5 332.239 1289.24 332.056 1293.15 331.706C1294.02 331.629 1294.53 330.586 1294.65 329.819C1295.79 322.401 1293.82 314.745 1291.84 307.366C1292.28 307.332 1292.71 307.297 1293.15 307.259C1294.02 307.184 1294.53 306.175 1294.65 305.433C1295.82 298.024 1293.7 290.37 1291.65 283.019C1290.74 279.743 1289.85 276.528 1289.27 273.421C1288.73 270.469 1288.45 267.497 1288.19 264.54C1287.66 258.832 1287.15 253.177 1284.67 247.828C1283.67 245.645 1282.39 243.621 1281.11 241.597C1279.76 239.452 1278.4 237.307 1277.37 234.973C1274.89 229.378 1274.61 223.672 1274.32 217.788C1274.27 216.866 1274.23 215.939 1274.17 215.007C1273.77 208.134 1269.2 197.209 1263.32 192.161C1262.83 191.745 1257.74 192.385 1251.54 193.163C1246.13 193.842 1239.88 194.627 1235.11 194.908C1233.24 195.017 1231.81 194.152 1230.58 193.414C1228.82 192.35 1227.5 191.551 1225.92 194.306C1222.71 199.897 1220.95 213.037 1220 220.084C1219.94 220.578 1219.88 221.042 1219.82 221.472C1219.33 225.089 1218.25 228.465 1217.18 231.831Z" fill="#58C5AF"/>
<path d="M1256.03 147.98C1255.44 144.303 1255.42 140.559 1255.97 136.876C1256.06 136.29 1256.72 136.125 1257.21 136.17C1260.63 136.628 1262.67 137.582 1266.14 139.924C1266.4 140.045 1266.63 140.239 1266.78 140.483C1266.94 140.727 1267.02 141.01 1267.01 141.298C1266.34 149.747 1265.66 158.195 1264.99 166.644C1264.89 167.927 1262.86 167.942 1262.97 166.644C1263.25 163.045 1263.54 159.451 1263.83 155.863C1263.69 155.944 1263.52 155.987 1263.36 155.987C1263.19 155.987 1263.03 155.944 1262.88 155.863C1262.57 155.628 1262.31 155.322 1262.13 154.969C1261.92 155.081 1261.67 155.113 1261.43 155.059C1260.68 154.849 1260.53 154.504 1260.17 153.821C1260.17 153.821 1260.17 153.821 1260.17 153.783C1260.07 153.81 1259.95 153.812 1259.84 153.79C1259.73 153.767 1259.63 153.72 1259.54 153.653C1259.45 153.585 1259.38 153.498 1259.33 153.399C1259.27 153.299 1259.25 153.189 1259.24 153.077C1259.01 151.335 1258.89 149.58 1258.89 147.822C1258.68 147.77 1258.5 147.652 1258.36 147.487C1258.23 147.323 1258.15 147.119 1258.14 146.906C1258.14 146.681 1258.14 146.456 1258.08 146.23C1258.08 146.816 1258.05 147.402 1258.05 147.995C1258.05 149.083 1256.25 149.421 1256.06 148.265C1256.06 148.175 1256.06 148.085 1256.02 147.995L1256.03 147.98Z" fill="#58C5AF"/>
<path d="M1223.97 97.3858C1225.18 95.4167 1226.92 93.83 1229 92.8096C1231.08 91.7892 1233.4 91.3767 1235.7 91.62C1238.88 91.8978 1244.21 94.5029 1246.24 96.2447C1254.52 103.182 1253.76 114.413 1251.41 123.85C1250.87 125.982 1249.91 127.303 1247.49 128.151C1244.75 129.12 1242.01 127.938 1241.3 126.091C1240.35 123.606 1241.02 124.466 1240.47 121.876C1240.03 119.841 1239.63 117.551 1238.58 115.704C1237.35 113.535 1235.57 112.611 1233.8 111.087C1232.45 109.908 1232.3 110.644 1231.47 108.602C1229.76 104.3 1230.05 100.344 1224.34 99.3528C1223.47 99.1876 1223.39 97.8738 1223.97 97.3858Z" fill="#301824"/>
<path d="M1245.98 180.945C1244.88 180.607 1243.74 180.983 1242.67 181.223C1240.78 181.673 1237.27 181.771 1237.05 184.361C1236.94 185.968 1238.36 189.586 1239.95 190.142C1240.96 190.495 1242.27 190.157 1243.61 189.579C1244.42 189.462 1245.23 189.272 1246.01 189.008C1247.28 188.565 1248.14 187.462 1249.43 187.064C1249.59 187.017 1249.75 186.982 1249.91 186.959L1249.56 181.727L1248 181.846C1247.32 181.576 1246.74 181.178 1245.98 180.945Z" fill="#D95F5F"/>
<path d="M1243.36 109.606C1235.56 105.538 1226.84 101.364 1222.71 99.303C1218.58 97.2424 1226.84 89 1235.1 89C1244.28 89 1253.58 90.6238 1255.76 99.3032C1257.82 107.545 1255.33 112.365 1252.08 121.97C1252.73 118.58 1251.16 113.674 1243.36 109.606Z" fill="black"/>
<path d="M1228.91 128.152C1230.96 126.091 1235.1 117.848 1228.91 101.364C1229.6 100.677 1243.78 101.364 1245.43 101.364C1247.49 101.364 1257.81 99.3031 1255.76 111.667C1254.95 116.546 1249.55 124.03 1251.63 132.273C1254.38 133.646 1257.82 132.273 1259.89 136.394C1262.18 138.455 1257.91 145.463 1245.66 146.697C1235.13 147.757 1218.81 146.697 1216.74 140.515C1218.81 134.333 1230.96 136.394 1228.91 128.152Z" fill="black"/>
<path d="M1384.15 136.853C1384.52 135.63 1386.51 135.968 1386.14 137.214C1378.69 162.276 1377 188.695 1381.22 214.497C1381.43 215.773 1379.41 215.953 1379.21 214.677C1374.97 188.696 1376.65 162.094 1384.15 136.853V136.853Z" fill="#9E4D4D"/>
<path d="M1361.86 235.39C1361.66 234.271 1361.77 233.113 1362.18 232.032C1362.56 231.326 1363.09 230.813 1363.49 230.144C1363.55 228.907 1363.63 227.671 1363.78 226.466C1363.77 225.362 1363.94 224.26 1364.29 223.199C1364.98 221.844 1367.1 222.25 1368.34 222.648C1368.5 221.562 1370.26 221.694 1370.09 222.791L1369.14 229.057C1369.13 229.225 1369.14 229.393 1369.16 229.559C1369.33 230.908 1370.32 231.933 1370.54 233.265C1370.67 234.089 1370.72 234.924 1370.69 235.76C1371.05 237.171 1371.16 238.544 1370.6 239.502C1369.75 240.996 1365.73 241.902 1364.1 241.527C1361.42 240.876 1361.96 237.358 1361.86 235.39Z" fill="#794343"/>
<path d="M1381.54 332.081C1381.54 332.787 1381.54 333.485 1381.54 334.183C1381.71 332.682 1381.89 331.18 1382.08 329.678C1382.09 329.575 1382.11 329.473 1382.16 329.379C1382.2 329.285 1382.26 329.201 1382.34 329.131C1382.42 329.061 1382.51 329.007 1382.6 328.971C1382.7 328.936 1382.8 328.92 1382.91 328.924C1383.01 328.928 1383.11 328.953 1383.21 328.997C1383.3 329.041 1383.39 329.102 1383.46 329.179C1383.53 329.255 1383.58 329.344 1383.62 329.442C1383.65 329.539 1383.67 329.643 1383.66 329.746C1383.7 330.677 1383.71 331.615 1383.73 332.546C1383.75 332.467 1383.77 332.39 1383.8 332.314C1383.8 332.096 1383.86 331.871 1383.88 331.653C1383.88 331.507 1383.92 331.363 1384 331.238C1384.07 331.112 1384.18 331.01 1384.31 330.941C1384.44 330.872 1384.58 330.84 1384.73 330.848C1384.88 330.855 1385.02 330.903 1385.14 330.985C1385.14 330.474 1385.19 329.971 1385.22 329.483C1385.29 328.199 1389.79 318.74 1389.74 320.031C1389.38 326.66 1386.35 342.554 1385.69 349.221C1385.41 351.999 1385.1 357.539 1381.93 357.937C1379.44 358.245 1379 354.994 1378.92 352.682C1378.6 346.068 1379.38 339.048 1379.95 332.411C1380.03 331.022 1381.51 330.782 1381.54 332.081Z" fill="#794343"/>
<path d="M1375.88 353.515C1376.35 353.392 1376.78 353.137 1377.12 352.779C1377.45 352.422 1377.68 351.976 1377.77 351.495C1377.89 351.105 1377.89 349.543 1378.2 349.333C1378.51 349.123 1378.37 349.168 1378.9 349.153C1380.71 349.108 1383.73 349.363 1384.88 349.461C1385.38 349.506 1385.47 349.581 1385.5 350.617C1385.5 350.67 1385.37 354.326 1385.21 356.255C1385.03 358.507 1384.67 359.146 1382.61 359.416C1377.67 360.069 1371.87 360.317 1366.81 360.67C1366.59 360.668 1366.38 360.581 1366.22 360.427C1366.06 360.273 1365.97 360.064 1365.96 359.844C1365.54 356.601 1365.75 356.841 1368.47 355.962C1369.97 355.467 1374.57 353.905 1375.88 353.515Z" fill="#1C1C1C"/>
<path d="M1426.49 324.671C1426.85 325.271 1427.19 325.88 1427.55 326.48C1426.96 325.076 1426.37 323.672 1425.79 322.253C1425.69 322.066 1425.67 321.847 1425.74 321.644C1425.8 321.442 1425.94 321.272 1426.13 321.172C1426.31 321.073 1426.53 321.052 1426.74 321.114C1426.94 321.176 1427.11 321.315 1427.21 321.503C1427.7 322.298 1428.16 323.109 1428.65 323.913C1428.62 323.837 1428.6 323.759 1428.59 323.68C1428.5 323.47 1428.42 323.267 1428.33 323.057C1428.26 322.93 1428.23 322.789 1428.23 322.645C1428.24 322.502 1428.28 322.363 1428.36 322.241C1428.43 322.12 1428.54 322.021 1428.67 321.955C1428.8 321.888 1428.94 321.857 1429.08 321.863C1428.85 321.405 1428.62 320.947 1428.4 320.489C1427.83 319.34 1427.08 308.897 1427.65 310.054C1430.61 316 1435.82 331.36 1438.51 337.464C1439.64 340.016 1442.09 344.971 1439.5 346.908C1437.49 348.41 1435.5 345.782 1434.23 343.8C1430.7 338.192 1427.92 331.698 1425.13 325.609C1424.64 324.483 1425.8 323.567 1426.49 324.671Z" fill="#794343"/>
<path d="M1432.1 346.09C1432.45 345.749 1432.7 345.316 1432.82 344.841C1432.93 344.365 1432.91 343.866 1432.76 343.402C1432.66 343.012 1431.9 341.638 1432.07 341.308C1432.24 340.977 1432.13 341.082 1432.59 340.805C1434.14 339.881 1436.9 338.62 1437.95 338.147C1438.41 337.944 1438.53 337.959 1439.06 338.845C1439.06 338.905 1440.77 342.141 1441.59 343.898C1442.54 345.97 1442.53 346.691 1440.88 347.929C1436.89 350.932 1431.97 353.98 1427.71 356.788C1427.51 356.893 1427.29 356.92 1427.07 356.863C1426.86 356.806 1426.68 356.669 1426.56 356.48C1424.6 353.86 1424.89 353.958 1426.83 351.871C1427.92 350.7 1431.14 347.088 1432.1 346.09Z" fill="#1C1C1C"/>
<path d="M1364.37 119.053C1364.55 116.415 1364.89 113.79 1365.38 111.192C1365.27 110.277 1365.16 109.376 1365.09 108.505C1364.41 100.246 1369.87 89.9985 1380.41 93.0241C1390.19 95.8319 1394.96 104.909 1393.95 113.685C1394.27 121.583 1391.08 127.949 1380.74 129.684C1376.06 130.434 1372.71 131.118 1370.21 127.687C1369.04 126.08 1368.5 123.107 1367.77 121.155C1366.23 121.042 1364.3 120.982 1364.37 119.053Z" fill="#794343"/>
<path d="M1378.65 121.268C1378.65 120.87 1378.65 120.517 1378.65 120.089C1378.65 119.895 1378.73 119.711 1378.86 119.571C1378.85 119.404 1378.88 119.237 1378.96 119.087C1379.03 118.937 1379.14 118.808 1379.28 118.715C1379.42 118.622 1379.58 118.568 1379.75 118.557C1379.92 118.546 1380.08 118.58 1380.23 118.655C1380.07 117.904 1379.92 117.206 1379.76 116.493C1379.5 115.389 1381.32 114.856 1381.69 115.937C1381.69 116.02 1381.72 116.11 1381.75 116.192C1381.76 116.232 1381.76 116.273 1381.75 116.313C1381.85 116.15 1381.98 116.016 1382.15 115.925C1382.31 115.834 1382.5 115.788 1382.68 115.794C1382.87 115.799 1383.05 115.855 1383.21 115.956C1383.37 116.056 1383.5 116.198 1383.58 116.365C1383.58 116.2 1383.58 116.035 1383.54 115.87C1383.53 115.616 1383.61 115.367 1383.77 115.169C1383.93 114.972 1384.16 114.841 1384.41 114.804C1384.66 114.766 1384.91 114.824 1385.13 114.965C1385.34 115.107 1385.49 115.323 1385.55 115.569V115.749C1385.81 115.712 1386.07 115.772 1386.29 115.919C1386.51 116.066 1386.67 116.289 1386.73 116.545C1386.8 116.816 1386.85 117.086 1386.91 117.356C1387.14 117.322 1387.38 117.379 1387.58 117.514C1387.71 117.374 1387.87 117.272 1388.06 117.22C1388.24 117.167 1388.44 117.166 1388.62 117.217C1388.81 117.267 1388.98 117.366 1389.11 117.505C1389.24 117.643 1389.33 117.815 1389.38 118.002C1390.18 121.911 1390.98 125.82 1391.78 129.729C1392.16 131.575 1393.61 134.789 1392.91 136.651C1392.72 136.982 1392.46 137.268 1392.15 137.491C1391.84 137.713 1391.48 137.867 1391.11 137.942C1391.15 138.28 1391.21 138.618 1391.26 138.955C1391.27 139.209 1391.19 139.458 1391.03 139.656C1390.87 139.853 1390.65 139.984 1390.39 140.021C1390.14 140.059 1389.89 140.001 1389.68 139.86C1389.46 139.718 1389.31 139.502 1389.25 139.256C1389.22 139.076 1389.19 138.895 1389.15 138.708H1389.09C1389.16 139.293 1389.23 139.879 1389.33 140.464C1389.35 140.628 1389.34 140.794 1389.28 140.948C1389.22 141.103 1389.13 141.241 1389 141.35C1388.88 141.459 1388.73 141.535 1388.57 141.572C1388.41 141.609 1388.24 141.605 1388.08 141.561C1387.96 141.795 1387.75 141.973 1387.5 142.059C1387.25 142.144 1386.97 142.129 1386.73 142.018C1386.66 142.158 1386.55 142.279 1386.42 142.369C1386.29 142.46 1386.14 142.518 1385.98 142.539C1385.82 142.56 1385.66 142.544 1385.51 142.491C1385.36 142.439 1385.23 142.351 1385.12 142.236C1385.06 142.462 1384.93 142.662 1384.75 142.803C1384.56 142.945 1384.33 143.018 1384.1 143.012C1383.87 143.006 1383.65 142.921 1383.47 142.77C1383.29 142.619 1383.17 142.412 1383.13 142.184C1383.13 141.988 1383.07 141.786 1383.02 141.591C1382.85 141.715 1382.65 141.781 1382.43 141.781C1382.22 141.781 1382.02 141.715 1381.84 141.591L1380.55 142.086C1380.41 142.146 1380.26 142.174 1380.1 142.167C1379.95 142.16 1379.8 142.119 1379.67 142.047C1379.53 141.975 1379.42 141.874 1379.33 141.75C1379.24 141.627 1379.18 141.485 1379.15 141.335C1378.87 134.716 1378.02 128.133 1376.62 121.658C1376.43 120.427 1378.28 120.111 1378.65 121.268Z" fill="#794343"/>
<path d="M1376.92 339.438C1378.36 322.539 1378.58 305.737 1378.51 288.8C1378.47 276.96 1381.81 266.945 1385.5 255.834C1390.02 242.223 1394.47 228.574 1399.04 214.993C1402.63 204.429 1409.89 204.61 1420.44 204.091C1420.11 202.455 1419.68 200.818 1419.26 199.204C1418.56 196.719 1422.34 195.285 1423.03 197.778C1426.17 208.904 1426.79 220.353 1424.06 231.637C1421.02 244.25 1411.9 254.009 1410.69 266.923C1410.23 271.735 1409.86 275.684 1406.75 279.58C1404.94 281.833 1402.24 283.402 1400.57 285.774C1397.05 290.759 1398.31 296.532 1398.38 301.96C1398.43 315.672 1395.82 329.263 1390.69 341.983C1390.55 342.306 1390.32 342.583 1390.03 342.785C1389.74 342.987 1389.4 343.107 1389.04 343.132C1385.49 343.171 1381.94 342.711 1378.51 341.766C1378 341.645 1377.56 341.34 1377.26 340.91C1376.97 340.48 1376.84 339.955 1376.92 339.438Z" fill="#F9B34A"/>
<path d="M1428.16 335.774C1419.53 321.165 1409.96 307.336 1400.08 293.559C1393.18 283.942 1390.08 273.844 1386.64 262.65C1382.43 248.934 1378.13 235.248 1374 221.509C1370.8 210.826 1376.82 206.787 1385.12 200.262C1383.9 199.121 1382.63 198.01 1381.35 196.959C1379.34 195.337 1381.59 191.982 1383.61 193.611C1392.64 200.871 1399.78 209.842 1404.11 220.638C1408.94 232.65 1407.18 245.901 1413.69 257.147C1416.11 261.329 1418.1 264.768 1417.83 269.738C1417.67 272.628 1416.37 275.458 1416.39 278.356C1416.39 284.468 1420.8 288.424 1424 292.823C1432 303.971 1437.75 316.561 1440.95 329.896C1441.02 330.242 1440.99 330.601 1440.87 330.934C1440.76 331.266 1440.55 331.562 1440.28 331.788C1437.4 333.873 1434.24 335.546 1430.89 336.758C1430.4 336.976 1429.84 336.996 1429.33 336.813C1428.82 336.629 1428.4 336.257 1428.16 335.774Z" fill="#F9B34A"/>
<path d="M1362.29 157.567C1361.66 149.804 1365.55 145.344 1371.32 140.299C1372.89 138.934 1374.56 137.68 1376.31 136.546C1377.24 137.012 1378.22 137.348 1379.24 137.544C1380.58 137.773 1381.95 137.856 1383.31 137.792C1384.73 137.792 1386.12 137.431 1387.52 137.281C1388.98 137.139 1390.37 136.644 1391.59 135.841C1392.8 135.037 1393.8 133.949 1394.5 132.672C1403.69 136.095 1412.56 138.775 1420.02 145.435C1427.49 152.094 1432.81 160.502 1437.28 169.234C1439.7 173.956 1442.45 178.911 1444.12 183.941C1444.97 186.554 1444.87 189.151 1442.85 191.238C1440.69 193.491 1437.3 194.241 1434.33 194.767C1431.34 195.26 1428.32 195.589 1425.3 195.75C1425.69 198.851 1426.05 201.952 1426.35 205.06C1426.77 209.414 1428.29 215.39 1427.32 219.692C1427.25 220.341 1426.99 220.954 1426.57 221.455C1426.15 221.956 1425.59 222.322 1424.97 222.508C1420.99 224.287 1414.92 224.264 1410.6 224.82C1401.01 226.121 1391.33 226.559 1381.66 226.126C1378.92 225.984 1373.68 226.532 1371.47 224.542C1369.65 222.905 1369.97 219.189 1369.74 217.034C1367.26 197.305 1363.89 177.432 1362.29 157.567Z" fill="#58C5AF"/>
<path d="M1365.39 99.8409C1365.18 96.6051 1367.92 87.8287 1371.96 91.3348C1373.51 89.9459 1375.3 88.8047 1377.52 89.0825C1379.53 89.3152 1380.41 90.584 1382.36 90.584C1386.25 90.584 1391.66 89.518 1391.6 94.4129C1396.15 94.2252 1399.7 97.8814 1398.47 102.754C1396.63 110.006 1396.57 114.075 1393.2 121.035C1392.99 121.463 1391.2 124.789 1390.84 124.879C1390.34 125.036 1388.1 121.928 1387.08 120.322C1385.99 118.542 1385.21 115.952 1383.15 114.758C1381.6 113.865 1380.01 114.901 1378.68 114.143C1377.68 113.633 1376.92 112.756 1376.55 111.695C1374.38 106.658 1373.16 101.785 1365.89 102.168C1364.9 102.168 1365.41 100.081 1365.39 99.8409Z" fill="#C4C4C4"/>
<path d="M1362.04 191.492C1363.06 201.683 1363.68 212.303 1360.47 222.198C1359.95 223.797 1358.65 227.159 1359.91 227.556C1362.49 228.365 1368.91 229.248 1371.4 229.584C1371.62 229.592 1371.84 229.531 1372.03 229.408C1372.21 229.286 1372.35 229.11 1372.43 228.903C1383.6 205.572 1387.01 170.772 1365.71 151.655C1365.58 151.531 1365.41 151.445 1365.23 151.408C1365.04 151.371 1364.86 151.384 1364.68 151.445L1363.14 151.656C1359.01 165.242 1360.42 175.054 1362.04 191.492Z" fill="#58C5AF"/>
<path fill-rule="evenodd" clip-rule="evenodd" d="M1413.5 198.108L1413.47 198.108C1409.62 198.108 1407.22 200.6 1405.9 202.709C1405.23 203.781 1404.78 204.838 1404.49 205.618C1404.35 206.011 1404.24 206.342 1404.17 206.581C1404.14 206.7 1404.11 206.797 1404.09 206.867C1404.08 206.902 1404.08 206.93 1404.07 206.952L1404.06 206.979L1404.06 206.988L1404.06 206.994C1404.06 206.994 1404.06 206.995 1405.89 207.425L1404.06 206.994C1403.82 208.003 1404.45 209.014 1405.46 209.252C1406.47 209.489 1407.48 208.865 1407.72 207.859M1413.46 201.861C1414.25 201.875 1415.03 202.091 1415.72 202.49C1416.42 202.89 1417 203.461 1417.4 204.149C1417.42 204.173 1417.43 204.197 1417.45 204.22C1418.43 205.706 1418.94 207.449 1418.92 209.227L1418.92 209.249V359.123C1418.92 360.16 1419.76 361 1420.8 361C1421.84 361 1422.68 360.16 1422.68 359.123V209.259C1422.71 206.753 1421.99 204.295 1420.62 202.195C1419.88 200.972 1418.84 199.955 1417.61 199.24C1416.36 198.518 1414.94 198.129 1413.5 198.108" fill="#442232"/>
<path d="M1411.68 204.317C1410.07 204.174 1408.86 201.682 1408.26 200.465C1406.22 196.321 1416.63 193.949 1417.5 194.024L1417.76 193.941C1419.88 193.258 1421.52 192.965 1423.48 191.772C1423.6 191.688 1423.75 191.634 1423.9 191.613C1424.05 191.592 1424.2 191.605 1424.34 191.65C1424.49 191.696 1424.62 191.773 1424.73 191.875C1424.84 191.978 1424.93 192.104 1424.98 192.245C1425.37 193.836 1426.19 194.392 1425.06 195.721C1423.94 197.049 1421.62 197.485 1419.89 198.198C1419.84 198.596 1419.99 200.248 1419.77 200.555C1419.13 201.449 1412.94 204.429 1411.68 204.317Z" fill="#794343"/>
<path d="M1431.16 200.09C1429.65 201.037 1427.92 201.556 1426.14 201.592C1425.58 201.651 1425 201.618 1424.45 201.494C1422.14 200.886 1420.63 197.387 1419.68 195.443C1418.47 192.913 1417.97 191.501 1419.86 189.354C1420.93 188.145 1422.06 186.974 1423.23 185.826C1423.22 185.686 1423.26 185.549 1423.32 185.426C1423.39 185.303 1423.49 185.2 1423.61 185.127C1423.9 184.947 1424.21 184.775 1424.52 184.609C1427.65 181.606 1430.95 178.776 1433.95 175.765C1434.86 174.857 1436.44 176.111 1435.52 177.034C1433.65 178.911 1431.76 180.778 1429.85 182.635C1434.15 181.666 1438.88 181.997 1442.24 184.707C1447.41 188.851 1437.25 196.584 1433.92 198.513L1432.84 199.122C1432.34 199.524 1431.79 199.855 1431.2 200.105L1431.16 200.09ZM1440.3 187.612C1439.35 182.74 1431.78 183.859 1427.17 185.63C1429.51 185.788 1432.37 185.323 1434.18 185.24C1434.37 185.234 1434.57 185.282 1434.74 185.378C1434.91 185.474 1435.05 185.615 1435.14 185.785C1435.24 185.956 1435.28 186.149 1435.28 186.344C1435.27 186.539 1435.21 186.729 1435.1 186.892H1435.2C1435.45 186.884 1435.7 186.972 1435.89 187.137C1436.09 187.302 1436.21 187.533 1436.24 187.784C1436.27 188.035 1436.2 188.289 1436.06 188.495C1435.91 188.7 1435.69 188.844 1435.44 188.896C1434.49 189.061 1433.55 189.197 1432.6 189.309C1434.11 189.309 1435.61 189.384 1437.12 189.534C1437.66 189.534 1438.2 189.572 1438.75 189.609C1438.92 189.616 1439.08 189.68 1439.21 189.79H1439.46C1439.68 189.814 1439.89 189.915 1440.05 190.075C1440.36 189.287 1440.45 188.426 1440.3 187.59V187.612Z" fill="#58C5AF"/>
<path d="M1312.95 131.576C1312.72 131.167 1313.42 130.682 1314.02 130.572C1319.62 129.591 1324.93 130.572 1329.42 134.035C1335.7 138.929 1334.86 147.412 1340.43 152.814C1342.72 155.035 1345.4 156.957 1347.26 159.56C1349.34 162.445 1349.65 165.868 1350.51 169.226C1351.63 173.647 1355.22 176.232 1357.22 180.191C1358.73 183.263 1359.42 186.656 1359.22 190.054C1359.22 190.258 1359.13 190.454 1358.98 190.599C1358.83 190.744 1358.63 190.826 1358.42 190.827C1352.93 190.68 1347.43 190.952 1341.99 191.641C1339.17 191.993 1336.29 192.478 1333.62 191.191C1330.82 189.829 1328.84 187.041 1327.05 184.629C1324.49 181.095 1322.29 177.332 1320.48 173.393C1316.98 165.989 1314.24 158.163 1311.74 150.396C1309.78 144.226 1307.84 136.69 1312.95 131.576Z" fill="black"/>
<path d="M1319.53 130.782C1318.76 130.381 1317.95 130.061 1317.11 129.829C1316.77 130.411 1316.36 130.948 1315.89 131.428C1314.34 132.941 1312.26 133.802 1310.09 133.83H1308.59C1307.88 133.821 1307.18 133.717 1306.5 133.522C1304.6 135.868 1303.38 138.688 1302.98 141.676C1302.88 142.471 1302.77 144.566 1302.7 145.429C1301.83 147.682 1300.93 148.673 1300.34 150.97C1299.9 152.674 1301.61 153.095 1302.97 153.485C1303.25 155.362 1303.17 158.117 1303.91 159.761C1305.5 163.29 1308.61 163.335 1312.94 163.515C1322.47 163.958 1326.53 158.853 1327.74 151.758C1330.24 144.123 1327.72 135.136 1319.53 130.782Z" fill="#D95F5F"/>
<path d="M1323.3 154.311C1323.49 157.937 1324.97 176.361 1324.09 177.945C1323.75 178.546 1311 180.903 1311.06 180.287C1311.71 174.281 1311.7 161.909 1311.31 155.858C1311.25 154.671 1323.25 153.41 1323.3 154.311Z" fill="#D95F5F"/>
<path d="M1308.46 295.579C1302.06 303.905 1295.95 312.366 1293.65 322.674C1291.46 332.516 1289.23 342.637 1287.71 352.599C1287.62 353.147 1289.21 353.583 1288.68 353.68L1283.84 354.626C1283.01 354.784 1282.53 353.943 1282.57 353.26C1283.46 337.404 1283.24 320.977 1285.79 305.271C1288.05 291.3 1294.24 278.387 1300.31 265.736C1300.97 264.377 1303.1 265.353 1302.45 266.72C1301.79 268.086 1301.14 269.445 1300.49 270.811C1306.37 271.923 1313.54 275.541 1315.82 281.547C1317.84 286.885 1311.31 291.87 1308.46 295.579Z" fill="#D95F5F"/>
<path d="M1280.7 354.108C1281.1 353.997 1281.47 353.774 1281.76 353.463C1282.05 353.152 1282.24 352.767 1282.32 352.352C1282.42 352.014 1282.43 350.662 1282.69 350.482C1282.95 350.302 1282.82 350.332 1283.29 350.317C1284.86 350.272 1287.47 350.475 1288.46 350.557C1288.9 350.557 1288.98 350.655 1289.01 351.548C1289.01 351.601 1288.91 354.761 1288.79 356.436C1288.64 358.403 1288.33 358.936 1286.53 359.183C1282.26 359.777 1277.24 360.017 1272.84 360.355C1272.64 360.355 1272.45 360.276 1272.31 360.135C1272.17 359.994 1272.09 359.803 1272.09 359.604C1271.7 356.796 1271.89 356.991 1274.23 356.225C1275.6 355.85 1279.56 354.454 1280.7 354.108Z" fill="#F9B34A"/>
<path d="M1339.37 288.146C1339.65 298.657 1340.25 309.055 1344.98 318.5C1349.49 327.509 1354.15 336.781 1359.27 345.482C1359.55 345.955 1361.03 345.317 1360.7 345.715L1357.54 349.468C1357.41 349.593 1357.26 349.686 1357.08 349.741C1356.91 349.796 1356.73 349.811 1356.55 349.786C1356.38 349.761 1356.2 349.695 1356.06 349.595C1355.91 349.494 1355.78 349.361 1355.69 349.206C1346.38 336.323 1335.83 323.68 1327.9 309.911C1320.85 297.636 1317.5 283.724 1314.23 270.076C1313.89 268.612 1316.16 268.026 1316.49 269.497C1316.82 270.969 1317.2 272.433 1317.56 273.904C1322.82 271.074 1330.68 269.4 1336.24 272.613C1341.17 275.519 1339.24 283.477 1339.37 288.146Z" fill="#D95F5F"/>
<path d="M1354.75 351.06C1355 350.719 1355.15 350.312 1355.18 349.889C1355.21 349.465 1355.11 349.043 1354.9 348.673C1354.77 348.35 1353.92 347.299 1354.01 346.991C1354.1 346.683 1354.01 346.788 1354.37 346.488C1355.56 345.467 1357.72 343.981 1358.54 343.425C1358.9 343.177 1359.01 343.177 1359.6 343.845C1359.6 343.898 1361.55 346.405 1362.51 347.779C1363.63 349.401 1363.73 350.032 1362.51 351.315C1359.56 354.461 1355.82 357.802 1352.61 360.835C1352.46 360.949 1352.27 361.002 1352.08 360.984C1351.89 360.966 1351.72 360.878 1351.59 360.738C1349.52 358.801 1349.78 358.838 1351.12 356.773C1351.88 355.602 1354.08 352.044 1354.75 351.06Z" fill="#F9B34A"/>
<path d="M1347.01 306.381C1344.48 308.115 1340.52 308.97 1332.62 309.131C1327.77 309.617 1326.8 309.022 1321.93 309.349C1311.85 310.031 1296.92 305.52 1283.5 301.96C1276.91 301.856 1287.01 269.295 1292.92 253.849C1296.87 243.551 1300.74 234.904 1306.49 219.978C1306.49 219.844 1306.42 219.749 1306.38 219.586C1305.31 215.602 1301.95 210.345 1302.18 206.186C1302.67 197.309 1302.18 190.842 1304.84 182.307C1306.7 176.313 1313.84 171.477 1314.05 171.428C1322.87 169.603 1329.01 170.378 1333.42 176.178C1333.94 176.885 1334.4 177.638 1334.79 178.428C1337.27 182.04 1337.87 186.659 1338.22 191.015C1338.64 196.322 1338.79 201.679 1338.83 207.002C1338.86 210.783 1339.44 215.291 1338.68 219.051C1344.66 230.832 1348.09 243.707 1348.75 256.861C1348.98 261.077 1351.31 303.404 1347.01 306.381Z" fill="#F9B34A"/>
<path d="M1305.55 134.333C1306.58 132.832 1307.93 130.99 1309.69 130.212C1311.44 129.434 1316.01 127.966 1317.95 128.152C1324.14 128.744 1326.21 130.212 1330.34 134.333C1336.53 142.576 1336.46 151.864 1334.47 159.061C1334.02 160.687 1328.24 162.535 1326.21 163.182C1323.89 163.921 1321.91 156.512 1321.31 155.103C1320.51 153.208 1320.24 151.193 1319.78 149.217C1319.41 147.666 1317.95 146.697 1317.95 146.697C1316.17 145.111 1315.31 145.799 1313.82 144.636C1312.67 143.738 1312.05 143.261 1311.75 142.576C1310.31 139.295 1311 136.917 1306.18 136.161C1305.45 136.036 1305.07 134.706 1305.55 134.333Z" fill="black"/>
<path d="M1335.56 316.472C1333.5 316.472 1325.2 299.771 1323.9 295.06C1322.61 290.35 1321.84 286.818 1321.84 286.818L1319.77 282.697V286.818C1319.77 291.764 1320.81 296.234 1321.33 297.85C1322.95 300.376 1324.35 303.021 1325.53 305.762C1326.79 308.658 1328.51 311.345 1330.63 313.722C1332.85 316.219 1335.77 318.542 1337.14 321.508C1337.82 322.995 1338.26 324.561 1338.77 326.087C1339.17 327.271 1342.96 338.311 1345.21 345.121C1345.57 345.472 1345.98 345.779 1346.42 346.036C1347.26 346.512 1348.3 346.702 1348.89 347.562C1349.48 348.423 1349.7 349.607 1349.84 350.615C1349.91 351.167 1350.06 352.028 1349.26 352.083C1348.75 352.062 1348.24 351.973 1347.76 351.817C1347.08 351.67 1346.42 351.466 1345.78 351.207C1344.82 350.831 1343.97 350.222 1343.33 349.44C1342.82 348.796 1341.78 346.256 1341.71 345.801C1341.71 345.789 1341.71 345.777 1341.71 345.765C1341.35 344.782 1336.1 330.049 1335.56 329.032C1334.83 327.643 1334.04 326.233 1332.9 325.043C1330.85 322.891 1327.87 321.966 1325.2 320.794C1322.27 319.517 1319.42 318.074 1316.67 316.472C1313.53 314.632 1306.83 309.757 1302.25 305.994C1301.8 308.267 1301.2 310.51 1300.45 312.709C1299.45 315.614 1298.98 318.667 1299.06 321.728C1299.15 324.881 1299.94 328.26 1298.99 331.346C1298.51 332.89 1297.76 334.364 1297.1 335.845C1296.41 337.386 1288.3 356.045 1286.75 359.097C1286.31 359.93 1285.64 360.843 1284.73 361.178C1284.49 361.33 1284.22 361.455 1283.94 361.551C1283.38 361.71 1282.8 361.791 1282.22 361.792C1281.53 361.829 1280.87 361.935 1280.19 362.018C1279.71 362.073 1278.68 362.225 1278.57 361.594C1278.42 360.83 1278.86 359.634 1279.28 358.999C1279.82 358.202 1280.69 357.955 1281.49 357.494C1282.51 356.914 1283.19 355.962 1283.77 355.001C1284.22 354.262 1284.64 353.508 1285.05 352.754C1287.64 347.166 1292.01 337.588 1292.28 336.519C1292.66 335.021 1293 333.485 1292.89 331.941C1292.69 329.148 1290.83 326.85 1289.42 324.521C1287.86 321.98 1286.49 319.339 1285.31 316.616C1283.77 313.106 1282.7 309.425 1282.1 305.658C1281.75 305.777 1281.4 305.905 1281.06 306.046C1277.71 307.434 1275.39 310.282 1272.33 312.098C1268.92 314.116 1264.87 313.951 1261.17 315.111C1258.59 315.917 1256.28 317.309 1253.81 318.294C1254.04 318.758 1254.25 319.225 1254.45 319.695C1255.34 321.817 1255.2 323.968 1254.93 326.2C1254.32 331.135 1258.5 349.79 1259.37 354.332C1259.77 356.313 1260.07 358.45 1259.77 360.458C1259.56 361.896 1258.83 363.486 1257.24 363.861C1256.14 364.124 1254.69 363.782 1254.28 362.641C1253.67 360.91 1255.75 359.405 1256.12 357.83C1256.67 355.492 1255.3 353.108 1254.34 351.051C1253.46 349.201 1249.12 337.398 1247.78 333.372C1246.13 328.406 1244.4 323.431 1242.11 318.722C1240.83 318.413 1239.58 318.035 1238.35 317.617C1234.99 316.475 1231.75 315.138 1228.36 314.149L1226.89 316.53C1225.58 318.63 1224.42 321.008 1222.72 322.839C1221.13 324.558 1218.85 325.159 1216.69 325.931C1213.67 327.006 1206.03 332.03 1205.73 334.255C1205.21 338.122 1208.52 342.38 1209.69 343.717C1210.75 344.916 1212.3 345.655 1213.25 346.931C1213.89 347.788 1214.13 349.11 1213.4 350.001C1212.6 350.999 1211.12 350.572 1210.07 350.209C1208.73 349.727 1207.5 349.01 1206.42 348.093C1203.95 346.03 1202.24 343.225 1200.8 340.438C1200.03 338.964 1199.29 337.42 1199.12 335.759C1199 334.168 1199.36 332.577 1200.16 331.181C1201.65 328.397 1214.61 316.802 1218.54 308.848C1218.28 308.488 1218.04 308.118 1217.81 307.743C1215.75 304.382 1214.3 300.594 1212.88 296.95C1212.18 295.137 1211.52 293.306 1210.89 291.456C1210.52 290.87 1210.12 290.296 1209.7 289.741C1208.15 287.68 1206.26 286.17 1204.1 284.735C1203.18 284.155 1202.32 283.488 1201.53 282.742C1200.72 281.893 1200.09 280.9 1199.67 279.818C1199.33 278.905 1198.92 278.014 1198.46 277.15C1197.07 276.86 1195.7 276.484 1194.35 276.027C1192.54 275.433 1190.62 275.174 1188.7 275.264C1185.9 275.419 1183.22 275.771 1180.62 274.504C1180.46 274.431 1180.29 274.336 1180.16 274.269C1180.04 274.203 1179.92 274.133 1179.81 274.064L1179.8 274.061C1178.06 273.017 1176.69 271.486 1175.87 269.672L1175.87 269.669C1175.83 269.569 1175.78 269.47 1175.74 269.367C1175.36 268.442 1175.08 267.38 1175.27 266.409C1175.48 265.381 1176.28 264.734 1177.25 264.349C1177.51 264.245 1177.78 264.147 1178.05 264.059C1180.12 263.372 1182.38 263.091 1184.49 262.533C1186.97 261.874 1189.35 261.739 1190.69 259.554C1191.6 258.067 1193.4 255 1196.06 254.176C1199.57 253.089 1207.06 253.208 1210.75 255.192C1213.13 256.477 1216.8 259.42 1218.61 261.428C1219.56 262.484 1220.36 263.659 1221.34 264.697C1222.48 265.897 1223.91 266.805 1225.5 267.34C1226.99 267.871 1228.55 268.228 1230.03 268.787C1230.39 268.924 1230.75 269.071 1231.1 269.23L1231.66 269.3C1236.69 269.977 1241.68 271.204 1246.8 271.284C1252.02 271.363 1292.85 266.995 1297.72 267.3L1298.9 267.377C1304.4 266.458 1307.38 266.212 1313.57 266.212C1319.77 267.3 1322.69 271.15 1325.2 276.237C1327.23 280.374 1330.05 292.708 1330.63 295.06C1332.16 301.242 1337.63 316.472 1335.56 316.472Z" fill="#1C1C1C"/>
<path d="M1253.69 269.16C1255.65 269.16 1277.71 265.527 1277.71 269.159C1277.71 269.159 1278.7 274.454 1278.7 276.515C1278.7 278.576 1277.71 278.173 1276.64 278.576C1275.57 278.978 1260.49 280.637 1260.49 280.637C1261.17 288.879 1261.17 296.916 1261.17 304.199V304.199C1261.22 306.718 1260.99 309.235 1260.49 311.708C1260.12 313.482 1259.48 315.192 1258.57 316.778C1258.43 317.076 1258.21 317.334 1257.93 317.529C1257.66 317.724 1257.33 317.848 1256.99 317.892C1255.97 318.013 1254.97 318.294 1254.03 318.725C1254 318.739 1253.97 318.744 1253.94 318.739C1253.9 318.733 1253.87 318.718 1253.85 318.695C1253.82 318.671 1253.81 318.641 1253.8 318.609C1253.8 318.577 1253.8 318.543 1253.82 318.514C1255.82 314.075 1256.7 309.237 1256.38 304.404L1253.69 284.758C1253.69 284.758 1241.09 294.581 1231.64 297.973C1229.23 298.835 1227.9 299.458 1225.38 299.874C1223.48 300.188 1220.46 300.192 1220.46 300.192C1220.29 300.196 1220.12 300.179 1219.95 300.143C1218.61 299.868 1217.27 299.56 1215.96 299.194C1214.77 298.907 1213.61 298.498 1212.51 297.973C1211.5 297.432 1211.14 296.602 1210.77 295.586C1210.32 294.365 1209.72 293.031 1209.54 291.743C1209.44 291.087 1209.63 290.608 1210.39 290.678C1210.59 290.696 1211.52 291.63 1214.45 293L1218.58 295.061C1220.41 295.586 1224.8 294.705 1226.84 293L1230.85 290.247L1241.25 282.522C1241.13 282.128 1241.01 281.732 1240.89 281.338C1240.24 279.16 1239.37 277.049 1238.3 275.035C1237.74 274.021 1237.08 273.062 1236.33 272.172C1235.68 271.5 1234.97 270.887 1234.21 270.341L1233.33 270.078C1233.02 270.027 1232.72 269.936 1232.43 269.807C1232.09 269.523 1232.43 269.12 1232.75 268.97C1233.15 268.831 1233.57 268.776 1233.99 268.808L1236.03 268.757C1238.85 268.683 1243.2 269.233 1246.02 269.159C1251.67 269.013 1250.9 269.16 1253.69 269.16Z" fill="#F9B34A"/>
<path d="M1277.77 222.376L1287.02 229.318L1283.58 233.964L1274.33 227.022L1277.77 222.376Z" fill="#C4C4C4"/>
<path d="M1233.08 269.701L1276.74 224.13L1279.3 226.229L1237.21 269.701L1233.08 269.701Z" fill="black"/>
<path d="M1240.83 274.298L1287.02 229.318L1289.59 231.417L1243.41 275.883L1240.83 274.298Z" fill="black"/>
<path d="M1277.36 226.027C1277.72 225.701 1278.08 225.347 1278.48 225.04C1278.92 224.7 1279.41 224.418 1280 224.292C1280.78 224.144 1281.55 224.209 1282.32 224.115C1282.74 223.809 1283.18 223.525 1283.6 223.187C1294.65 214.962 1297.8 210.602 1305.29 199.2C1309.41 192.917 1307.78 192.88 1313.21 185.709C1314.32 184.833 1315.45 184.313 1316.57 184.214C1316.72 184.202 1316.87 184.215 1317.02 184.252C1317.16 184.29 1317.31 184.352 1317.43 184.435C1317.56 184.517 1317.67 184.619 1317.76 184.733C1317.85 184.848 1317.92 184.974 1317.95 185.103C1321.07 196.324 1317.3 202.843 1315.02 206.019C1311.68 210.681 1296.6 222.553 1291.82 224.797C1290.32 225.667 1288.81 226.537 1287.3 227.405C1287.18 227.497 1287.06 227.596 1286.96 227.702C1286.12 228.619 1286.12 229.909 1285.34 230.852C1284.85 231.421 1284.29 231.941 1283.67 232.405C1282.92 233.483 1282.01 234.358 1280.93 234.531C1279.21 234.794 1275.59 232.483 1274.65 231.107C1273.14 228.924 1276.02 227.239 1277.36 226.027Z" fill="#D95F5F"/>
</svg>
