<svg width="1398" height="302" viewBox="0 0 1398 302" fill="none" xmlns="http://www.w3.org/2000/svg">
<g clip-path="url(#clip0_387_1232)">
<path d="M1267.98 147.211H1277.54C1278.82 147.211 1279.85 148.245 1279.85 149.52V181.361C1279.85 182.637 1278.82 183.67 1277.54 183.67H1267.98C1266.71 183.67 1265.67 182.637 1265.67 181.361V149.52C1265.67 148.245 1266.71 147.211 1267.98 147.211Z" fill="black"/>
<path d="M927.523 132.357H942.836C944.387 132.357 945.645 133.615 945.645 135.166V166.008C945.645 167.559 944.387 168.817 942.836 168.817H927.523C925.972 168.817 924.714 167.559 924.714 166.008V135.166C924.714 133.615 925.972 132.357 927.523 132.357Z" fill="black"/>
<path d="M899.341 131.682H908.902C910.177 131.682 911.211 132.716 911.211 133.991V188.113C911.211 189.388 910.177 190.422 908.902 190.422H899.341C898.066 190.422 897.032 189.388 897.032 188.113V133.991C897.032 132.716 898.066 131.682 899.341 131.682Z" fill="black"/>
<path d="M1246.1 143.835L1207.46 153.679L1196.13 159.972L1212.72 177.594L1246.1 143.835Z" fill="black"/>
<path d="M1179.93 143.835L1141.29 153.679L1129.96 159.972L1158.32 161.39L1179.93 143.835Z" fill="black"/>
<path d="M1283.9 184.345L1246.09 145.186L1212.34 177.594L1180.21 145.186L1162.37 158.689V189.423H1185.42L1186.68 197.849H1283.9V184.345Z" fill="#EDECF3"/>
<path d="M1161.4 177.594H1273.1C1273.46 177.594 1273.8 177.451 1274.06 177.198C1274.31 176.945 1274.45 176.602 1274.45 176.243C1274.45 175.885 1274.31 175.542 1274.06 175.289C1273.8 175.035 1273.46 174.893 1273.1 174.893H1161.4C1161.04 174.893 1160.7 175.035 1160.45 175.289C1160.19 175.542 1160.05 175.885 1160.05 176.243C1160.05 176.602 1160.19 176.945 1160.45 177.198C1160.7 177.451 1161.04 177.594 1161.4 177.594Z" fill="black"/>
<path d="M1267.7 203.25C1268.06 203.25 1268.4 203.108 1268.66 202.855C1268.91 202.602 1269.05 202.258 1269.05 201.9V169.492C1269.05 169.134 1268.91 168.79 1268.66 168.537C1268.4 168.284 1268.06 168.141 1267.7 168.141C1267.34 168.141 1267 168.284 1266.75 168.537C1266.49 168.79 1266.35 169.134 1266.35 169.492V201.9C1266.35 202.258 1266.49 202.602 1266.75 202.855C1267 203.108 1267.34 203.25 1267.7 203.25Z" fill="black"/>
<path d="M1225.84 201.9C1226.2 201.9 1226.54 201.758 1226.8 201.504C1227.05 201.251 1227.19 200.908 1227.19 200.55V168.141C1227.19 167.783 1227.05 167.44 1226.8 167.187C1226.54 166.933 1226.2 166.791 1225.84 166.791C1225.48 166.791 1225.14 166.933 1224.89 167.187C1224.63 167.44 1224.49 167.783 1224.49 168.141V200.55C1224.49 200.908 1224.63 201.251 1224.89 201.504C1225.14 201.758 1225.48 201.9 1225.84 201.9Z" fill="black"/>
<path d="M1255.55 201.9C1255.91 201.9 1256.25 201.758 1256.5 201.504C1256.76 201.251 1256.9 200.908 1256.9 200.55V157.946C1256.9 157.588 1256.76 157.245 1256.5 156.991C1256.25 156.738 1255.91 156.596 1255.55 156.596C1255.19 156.596 1254.85 156.738 1254.59 156.991C1254.34 157.245 1254.2 157.588 1254.2 157.946V200.55C1254.2 200.908 1254.34 201.251 1254.59 201.504C1254.85 201.758 1255.19 201.9 1255.55 201.9Z" fill="black"/>
<path d="M1192.08 204.601C1192.44 204.601 1192.78 204.458 1193.04 204.205C1193.29 203.952 1193.43 203.608 1193.43 203.25V157.946C1193.43 157.588 1193.29 157.245 1193.04 156.991C1192.78 156.738 1192.44 156.596 1192.08 156.596C1191.72 156.596 1191.38 156.738 1191.13 156.991C1190.87 157.245 1190.73 157.588 1190.73 157.946V203.25C1190.73 203.608 1190.87 203.952 1191.13 204.205C1191.38 204.458 1191.72 204.601 1192.08 204.601Z" fill="black"/>
<path d="M1202.88 199.199C1203.24 199.199 1203.59 199.057 1203.84 198.804C1204.09 198.551 1204.23 198.207 1204.23 197.849V170.099C1204.23 169.741 1204.09 169.398 1203.84 169.145C1203.59 168.891 1203.24 168.749 1202.88 168.749C1202.53 168.749 1202.18 168.891 1201.93 169.145C1201.68 169.398 1201.53 169.741 1201.53 170.099V197.849C1201.53 198.207 1201.68 198.551 1201.93 198.804C1202.18 199.057 1202.53 199.199 1202.88 199.199Z" fill="black"/>
<path d="M1170.48 197.849C1170.83 197.849 1171.18 197.707 1171.43 197.453C1171.68 197.2 1171.83 196.857 1171.83 196.499V155.246C1171.83 154.887 1171.68 154.544 1171.43 154.291C1171.18 154.038 1170.83 153.895 1170.48 153.895C1170.12 153.895 1169.77 154.038 1169.52 154.291C1169.27 154.544 1169.13 154.887 1169.13 155.246V196.499C1169.13 196.857 1169.27 197.2 1169.52 197.453C1169.77 197.707 1170.12 197.849 1170.48 197.849Z" fill="black"/>
<path d="M1235.29 201.9C1235.65 201.9 1235.99 201.758 1236.25 201.504C1236.5 201.251 1236.64 200.908 1236.64 200.55V157.946C1236.64 157.588 1236.5 157.245 1236.25 156.991C1235.99 156.738 1235.65 156.596 1235.29 156.596C1234.93 156.596 1234.59 156.738 1234.34 156.991C1234.08 157.245 1233.94 157.588 1233.94 157.946V200.55C1233.94 200.908 1234.08 201.251 1234.34 201.504C1234.59 201.758 1234.93 201.9 1235.29 201.9Z" fill="black"/>
<path d="M1245.39 200.55C1245.75 200.55 1246.1 200.407 1246.35 200.154C1246.6 199.901 1246.74 199.557 1246.74 199.199V169.492C1247.3 163.739 1256.02 159.702 1256.1 159.675C1256.43 159.528 1256.69 159.257 1256.81 158.921C1256.94 158.586 1256.93 158.213 1256.78 157.885C1256.64 157.558 1256.37 157.302 1256.03 157.174C1255.7 157.046 1255.32 157.057 1254.99 157.204C1254.58 157.393 1244.76 161.916 1244.04 169.357V199.199C1244.04 199.557 1244.19 199.901 1244.44 200.154C1244.69 200.407 1245.04 200.55 1245.39 200.55Z" fill="black"/>
<path d="M1245.39 170.842C1245.73 170.844 1246.05 170.72 1246.3 170.495C1246.55 170.271 1246.71 169.961 1246.74 169.627C1247.47 162.024 1238.09 157.474 1237.7 157.217C1237.54 157.139 1237.36 157.094 1237.18 157.084C1237.01 157.073 1236.83 157.098 1236.66 157.157C1236.49 157.216 1236.34 157.308 1236.2 157.427C1236.07 157.546 1235.96 157.691 1235.89 157.852C1235.73 158.174 1235.71 158.544 1235.83 158.881C1235.95 159.217 1236.2 159.493 1236.52 159.648C1236.6 159.648 1244.62 163.699 1244.06 169.357C1244.04 169.534 1244.05 169.714 1244.1 169.884C1244.16 170.055 1244.24 170.215 1244.35 170.353C1244.47 170.491 1244.61 170.605 1244.76 170.689C1244.92 170.773 1245.09 170.825 1245.27 170.842H1245.39Z" fill="black"/>
<path d="M1179.93 191.097C1180.29 191.097 1180.63 190.955 1180.88 190.702C1181.14 190.448 1181.28 190.105 1181.28 189.747V169.492C1181.83 163.739 1190.56 159.702 1190.65 159.675C1190.81 159.601 1190.96 159.495 1191.08 159.365C1191.2 159.234 1191.29 159.081 1191.35 158.914C1191.42 158.747 1191.44 158.57 1191.44 158.392C1191.43 158.215 1191.39 158.04 1191.31 157.879C1191.16 157.553 1190.89 157.3 1190.56 157.173C1190.23 157.046 1189.86 157.057 1189.53 157.204C1189.11 157.393 1179.29 161.916 1178.58 169.357V189.747C1178.58 190.105 1178.72 190.448 1178.97 190.702C1179.23 190.955 1179.57 191.097 1179.93 191.097Z" fill="black"/>
<path d="M1179.93 170.842C1180.27 170.844 1180.59 170.72 1180.84 170.495C1181.09 170.271 1181.25 169.961 1181.28 169.627C1182 162.024 1172.61 157.474 1172.22 157.217C1171.9 157.064 1171.53 157.045 1171.19 157.164C1170.85 157.283 1170.58 157.53 1170.42 157.852C1170.27 158.173 1170.25 158.541 1170.36 158.878C1170.48 159.214 1170.72 159.491 1171.04 159.648C1171.12 159.648 1179.15 163.699 1178.58 169.357C1178.56 169.534 1178.58 169.714 1178.63 169.885C1178.68 170.056 1178.76 170.215 1178.88 170.353C1178.99 170.491 1179.13 170.605 1179.29 170.689C1179.44 170.773 1179.62 170.825 1179.79 170.842H1179.93Z" fill="black"/>
<path d="M1213.69 199.874C1214.22 199.874 1214.74 199.661 1215.12 199.281C1215.5 198.901 1215.71 198.386 1215.71 197.849V178.431L1246.09 148.075L1281.88 185.169V197.849C1281.88 198.386 1282.09 198.901 1282.47 199.281C1282.85 199.661 1283.37 199.874 1283.9 199.874C1284.44 199.874 1284.96 199.661 1285.34 199.281C1285.72 198.901 1285.93 198.386 1285.93 197.849V184.345C1285.92 183.84 1285.71 183.358 1285.36 182.995L1247.55 143.835C1247.37 143.628 1247.15 143.461 1246.89 143.344C1246.64 143.228 1246.37 143.165 1246.09 143.16C1245.83 143.155 1245.56 143.206 1245.31 143.308C1245.06 143.41 1244.84 143.562 1244.65 143.754L1212.24 176.162C1211.87 176.544 1211.66 177.059 1211.66 177.594V197.849C1211.66 198.386 1211.87 198.901 1212.25 199.281C1212.63 199.661 1213.15 199.874 1213.69 199.874Z" fill="black"/>
<path d="M1159.13 163.415C1159.58 163.417 1160.01 163.27 1160.36 162.997L1181.44 146.793C1181.69 146.605 1181.89 146.362 1182.03 146.083C1182.17 145.804 1182.24 145.497 1182.24 145.186C1182.24 144.741 1182.09 144.308 1181.82 143.957C1181.49 143.531 1181.01 143.252 1180.48 143.182C1179.95 143.111 1179.41 143.254 1178.98 143.579L1157.89 159.783C1157.65 159.974 1157.45 160.218 1157.31 160.496C1157.18 160.774 1157.11 161.08 1157.11 161.39C1157.11 161.927 1157.32 162.442 1157.7 162.822C1158.08 163.202 1158.6 163.415 1159.13 163.415Z" fill="black"/>
<path d="M1213.69 179.619C1214.09 179.609 1214.47 179.48 1214.8 179.25C1215.13 179.02 1215.38 178.699 1215.52 178.327C1215.67 177.954 1215.7 177.548 1215.61 177.158C1215.52 176.768 1215.33 176.412 1215.04 176.135L1181.56 143.727C1181.37 143.533 1181.15 143.38 1180.9 143.275C1180.65 143.17 1180.38 143.117 1180.11 143.118C1179.84 143.119 1179.57 143.175 1179.32 143.281C1179.07 143.388 1178.84 143.543 1178.66 143.739C1178.47 143.934 1178.32 144.165 1178.22 144.418C1178.13 144.671 1178.08 144.941 1178.09 145.212C1178.1 145.483 1178.16 145.749 1178.28 145.995C1178.39 146.241 1178.55 146.462 1178.75 146.644L1212.34 179.052C1212.7 179.405 1213.18 179.608 1213.69 179.619V179.619Z" fill="black"/>
<path d="M1162.38 158.689L935.517 154.638L981.28 197.849H1162.05L1162.38 158.689Z" fill="black"/>
<path d="M979.388 194.703L939.364 156.893C938.298 155.887 936.904 155.301 935.439 155.244C933.974 155.187 932.538 155.662 931.397 156.583L889.158 190.598C888.455 191.168 887.887 191.888 887.497 192.706C887.107 193.524 886.904 194.418 886.903 195.324V288.498C886.903 290.101 887.538 291.639 888.67 292.775C889.801 293.912 891.336 294.554 892.939 294.561L975.31 294.966C976.11 294.969 976.902 294.815 977.642 294.511C978.382 294.207 979.054 293.76 979.62 293.195C980.186 292.63 980.635 291.959 980.94 291.22C981.246 290.481 981.402 289.689 981.4 288.889L981.279 199.024C981.268 198.214 981.096 197.414 980.771 196.672C980.446 195.93 979.976 195.26 979.388 194.703V194.703Z" fill="#EDECF3"/>
<path d="M1315.69 197.849H1188.64C1188.09 197.849 1187.57 197.653 1187.16 197.299C1186.75 196.945 1186.48 196.455 1186.4 195.918L1185.71 191.354C1185.63 190.818 1185.36 190.328 1184.95 189.974C1184.54 189.619 1184.02 189.424 1183.48 189.423H983.629C983.027 189.423 982.45 189.662 982.025 190.087C981.599 190.513 981.36 191.09 981.36 191.691V292.265C981.36 292.864 981.597 293.439 982.02 293.864C982.442 294.289 983.016 294.53 983.615 294.534L1312.13 296.424C1312.71 296.428 1313.28 296.203 1313.7 295.797C1314.13 295.391 1314.37 294.836 1314.4 294.25L1317.95 200.212C1317.96 199.907 1317.91 199.602 1317.81 199.316C1317.7 199.03 1317.54 198.768 1317.33 198.547C1317.11 198.326 1316.86 198.15 1316.58 198.03C1316.3 197.91 1316 197.849 1315.69 197.849Z" fill="#EDECF3"/>
<path d="M1161.4 191.097H1282.55C1282.91 191.097 1283.26 190.955 1283.51 190.702C1283.76 190.448 1283.9 190.105 1283.9 189.747C1283.9 189.389 1283.76 189.045 1283.51 188.792C1283.26 188.539 1282.91 188.396 1282.55 188.396H1161.4C1161.04 188.396 1160.7 188.539 1160.45 188.792C1160.19 189.045 1160.05 189.389 1160.05 189.747C1160.05 190.105 1160.19 190.448 1160.45 190.702C1160.7 190.955 1161.04 191.097 1161.4 191.097Z" fill="black"/>
<path d="M1225.41 231.607H1245.18C1246.43 231.607 1247.45 232.623 1247.45 233.876V271.199C1247.45 272.452 1246.43 273.468 1245.18 273.468H1225.41C1224.15 273.468 1223.14 272.452 1223.14 271.199V233.876C1223.14 232.623 1224.15 231.607 1225.41 231.607Z" fill="black"/>
<path d="M1201.1 231.607H1215.47C1216.72 231.607 1217.74 232.623 1217.74 233.876V271.199C1217.74 272.452 1216.72 273.468 1215.47 273.468H1201.1C1199.85 273.468 1198.83 272.452 1198.83 271.199V233.876C1198.83 232.623 1199.85 231.607 1201.1 231.607Z" fill="black"/>
<path d="M1258.68 273.468H1255.12C1253.86 273.468 1252.85 272.453 1252.85 271.2V233.876C1252.85 232.623 1253.86 231.608 1255.12 231.608H1258.68C1259.93 231.608 1260.95 232.623 1260.95 233.876V271.2C1260.95 272.453 1259.93 273.468 1258.68 273.468Z" fill="black"/>
<path d="M1111.98 211.352H1131.75C1133 211.352 1134.02 212.368 1134.02 213.621V237.441C1134.02 238.694 1133 239.71 1131.75 239.71H1111.98C1110.73 239.71 1109.71 238.694 1109.71 237.441V213.621C1109.71 212.368 1110.73 211.352 1111.98 211.352Z" fill="black"/>
<path d="M1051.21 165.441H1070.98C1072.24 165.441 1073.25 166.456 1073.25 167.709V176.676C1073.25 177.928 1072.24 178.944 1070.98 178.944H1051.21C1049.96 178.944 1048.95 177.928 1048.95 176.676V167.709C1048.95 166.456 1049.96 165.441 1051.21 165.441Z" fill="#EDECF3"/>
<path d="M1002.6 165.441H1022.37C1023.62 165.441 1024.64 166.456 1024.64 167.709V176.676C1024.64 177.928 1023.62 178.944 1022.37 178.944H1002.6C1001.35 178.944 1000.33 177.928 1000.33 176.676V167.709C1000.33 166.456 1001.35 165.441 1002.6 165.441Z" fill="#EDECF3"/>
<path d="M1097.13 211.352H1104.74C1105.99 211.352 1107.01 212.368 1107.01 213.621V237.441C1107.01 238.694 1105.99 239.71 1104.74 239.71H1097.13C1095.87 239.71 1094.86 238.694 1094.86 237.441V213.621C1094.86 212.368 1095.87 211.352 1097.13 211.352Z" fill="black"/>
<path d="M1140.34 211.352H1147.95C1149.21 211.352 1150.22 212.368 1150.22 213.621V237.441C1150.22 238.694 1149.21 239.71 1147.95 239.71H1140.34C1139.08 239.71 1138.07 238.694 1138.07 237.441V213.621C1138.07 212.368 1139.08 211.352 1140.34 211.352Z" fill="black"/>
<path d="M1111.98 247.812H1131.75C1133 247.812 1134.02 248.827 1134.02 250.08V273.9C1134.02 275.153 1133 276.169 1131.75 276.169H1111.98C1110.73 276.169 1109.71 275.153 1109.71 273.9V250.08C1109.71 248.827 1110.73 247.812 1111.98 247.812Z" fill="black"/>
<path d="M1002.6 247.812H1022.37C1023.62 247.812 1024.64 248.827 1024.64 250.08V273.9C1024.64 275.153 1023.62 276.169 1022.37 276.169H1002.6C1001.35 276.169 1000.33 275.153 1000.33 273.9V250.08C1000.33 248.827 1001.35 247.812 1002.6 247.812Z" fill="black"/>
<path d="M1002.6 205.951H1022.37C1023.62 205.951 1024.64 206.967 1024.64 208.22V232.04C1024.64 233.292 1023.62 234.308 1022.37 234.308H1002.6C1001.35 234.308 1000.33 233.292 1000.33 232.04V208.22C1000.33 206.967 1001.35 205.951 1002.6 205.951Z" fill="black"/>
<path d="M1097.13 247.812H1104.74C1105.99 247.812 1107.01 248.827 1107.01 250.08V273.9C1107.01 275.153 1105.99 276.169 1104.74 276.169H1097.13C1095.87 276.169 1094.86 275.153 1094.86 273.9V250.08C1094.86 248.827 1095.87 247.812 1097.13 247.812Z" fill="black"/>
<path d="M1140.34 247.812H1147.95C1149.21 247.812 1150.22 248.827 1150.22 250.08V273.9C1150.22 275.153 1149.21 276.169 1147.95 276.169H1140.34C1139.08 276.169 1138.07 275.153 1138.07 273.9V250.08C1138.07 248.827 1139.08 247.812 1140.34 247.812Z" fill="black"/>
<path d="M912.007 226.206H953.624C954.81 226.206 955.771 227.167 955.771 228.353V294.277C955.771 295.463 954.81 296.424 953.624 296.424H912.007C910.821 296.424 909.86 295.463 909.86 294.277V228.353C909.86 227.167 910.821 226.206 912.007 226.206Z" fill="#F9B34A"/>
<path d="M1046.35 241.06H1074.59C1075.88 241.06 1076.92 242.106 1076.92 243.396V292.737C1076.92 294.028 1075.88 295.074 1074.59 295.074H1046.35C1045.06 295.074 1044.02 294.028 1044.02 292.737V243.396C1044.02 242.106 1045.06 241.06 1046.35 241.06Z" fill="#F9B34A"/>
<path d="M912.074 199.199H953.557C954.78 199.199 955.771 200.191 955.771 201.414V217.24C955.771 218.463 954.78 219.454 953.557 219.454H912.074C910.851 219.454 909.86 218.463 909.86 217.24V201.414C909.86 200.191 910.851 199.199 912.074 199.199Z" fill="#F9B34A"/>
<path d="M944.968 296.248V260.518C944.968 260.518 947.129 247.812 934.166 247.812C921.202 247.812 922.013 259.235 922.013 259.235V296.14L944.968 296.248Z" fill="black"/>
<path d="M1071.43 294.898V254.388C1071.43 254.388 1073.4 249.135 1061.59 249.135C1049.77 249.135 1050.58 253.186 1050.58 253.186V294.804L1071.43 294.898Z" fill="black"/>
<path d="M909.428 219.454H956.204C957.457 219.454 958.473 220.47 958.473 221.723V237.441C958.473 238.694 957.457 239.71 956.204 239.71H909.428C908.175 239.71 907.16 238.694 907.16 237.441V221.723C907.16 220.47 908.175 219.454 909.428 219.454Z" fill="black"/>
<path d="M915.491 181.645H950.141C950.601 181.644 951.05 181.789 951.423 182.058C951.797 182.327 952.076 182.707 952.22 183.144L957.514 199.024C957.622 199.352 957.652 199.701 957.6 200.042C957.548 200.384 957.416 200.708 957.214 200.989C957.013 201.269 956.747 201.498 956.44 201.656C956.133 201.815 955.793 201.898 955.448 201.9H910.184C909.839 201.898 909.499 201.815 909.192 201.656C908.885 201.498 908.619 201.269 908.418 200.989C908.216 200.708 908.084 200.384 908.032 200.042C907.98 199.701 908.009 199.352 908.118 199.024L913.412 183.144C913.556 182.707 913.835 182.327 914.209 182.058C914.582 181.789 915.031 181.644 915.491 181.645V181.645Z" fill="black"/>
<path d="M1131.6 144.51H1141.16C1142.43 144.51 1143.47 145.544 1143.47 146.82V178.661C1143.47 179.936 1142.43 180.97 1141.16 180.97H1131.6C1130.32 180.97 1129.29 179.936 1129.29 178.661V146.82C1129.29 145.544 1130.32 144.51 1131.6 144.51Z" fill="black"/>
<path d="M1061.68 225.409L1077.95 241.06C1078.8 241.884 1077.87 242.977 1076.32 242.977H1044.15C1042.6 242.977 1041.67 241.897 1042.5 241.073L1058.4 225.423C1058.87 225.061 1059.44 224.863 1060.04 224.861C1060.63 224.858 1061.21 225.051 1061.68 225.409V225.409Z" fill="black"/>
<path d="M1113.33 165.441H1133.1C1134.35 165.441 1135.37 166.456 1135.37 167.709V176.676C1135.37 177.928 1134.35 178.944 1133.1 178.944H1113.33C1112.08 178.944 1111.06 177.928 1111.06 176.676V167.709C1111.06 166.456 1112.08 165.441 1113.33 165.441Z" fill="#EDECF3"/>
<path d="M1317.23 222.83C1317.77 222.83 1318.28 222.617 1318.66 222.237C1319.04 221.857 1319.26 221.342 1319.26 220.805C1319.26 220.267 1319.04 219.752 1318.66 219.372C1318.28 218.993 1317.77 218.779 1317.23 218.779L1160.36 218.104C1159.83 218.104 1159.31 218.317 1158.93 218.697C1158.55 219.077 1158.34 219.592 1158.34 220.13C1158.34 220.667 1158.55 221.182 1158.93 221.562C1159.31 221.942 1159.83 222.155 1160.36 222.155L1317.25 222.83H1317.23Z" fill="black"/>
<path d="M1160.35 192.448C1160.89 192.448 1161.4 192.234 1161.78 191.854C1162.16 191.474 1162.38 190.959 1162.38 190.422V156.663C1162.38 156.126 1162.16 155.611 1161.78 155.231C1161.4 154.851 1160.89 154.638 1160.35 154.638C1159.81 154.638 1159.3 154.851 1158.92 155.231C1158.54 155.611 1158.32 156.126 1158.32 156.663V190.422C1158.32 190.959 1158.54 191.474 1158.92 191.854C1159.3 192.234 1159.81 192.448 1160.35 192.448Z" fill="black"/>
<path d="M979.402 293.723C979.939 293.723 980.455 293.51 980.834 293.13C981.214 292.75 981.428 292.235 981.428 291.698V183.67C981.428 183.133 981.214 182.618 980.834 182.238C980.455 181.858 979.939 181.645 979.402 181.645C978.865 181.645 978.35 181.858 977.97 182.238C977.59 182.618 977.377 183.133 977.377 183.67V291.698C977.377 292.235 977.59 292.75 977.97 293.13C978.35 293.51 978.865 293.723 979.402 293.723Z" fill="black"/>
<path d="M1191.76 200.874H1317.95C1318.48 200.874 1319 200.66 1319.38 200.281C1319.76 199.901 1319.97 199.385 1319.97 198.848C1319.97 198.311 1319.76 197.796 1319.38 197.416C1319 197.036 1318.48 196.823 1317.95 196.823H1191.76C1191.22 196.823 1190.71 197.036 1190.33 197.416C1189.95 197.796 1189.73 198.311 1189.73 198.848C1189.73 199.385 1189.95 199.901 1190.33 200.281C1190.71 200.66 1191.22 200.874 1191.76 200.874Z" fill="black"/>
<path d="M1160.35 293.723C1160.89 293.723 1161.4 293.51 1161.78 293.13C1162.16 292.75 1162.38 292.235 1162.38 291.698V183.67C1162.38 183.133 1162.16 182.618 1161.78 182.238C1161.4 181.858 1160.89 181.645 1160.35 181.645C1159.81 181.645 1159.3 181.858 1158.92 182.238C1158.54 182.618 1158.32 183.133 1158.32 183.67V291.698C1158.32 292.235 1158.54 292.75 1158.92 293.13C1159.3 293.51 1159.81 293.723 1160.35 293.723Z" fill="black"/>
</g>
<path fill-rule="evenodd" clip-rule="evenodd" d="M1300.76 33.1462C1293.63 22.5523 1281.51 1.09978 1290.07 0.0403975C1298.62 -1.01899 1317.69 19.021 1326.16 29.1735C1326.46 29.1735 1326.73 29.176 1326.99 29.1783C1329.07 29.1972 1330.12 29.2068 1332.84 27.8492C1332.84 23.8766 1334.59 22.9485 1338.19 22.5523C1347.81 21.4929 1368.04 22.1109 1376.96 22.5523C1373.39 19.4625 1366.8 13.0179 1368.94 11.9585C1371.07 10.8991 1378.74 16.814 1382.3 19.9039C1384.53 16.814 1389.52 10.3694 1391.66 9.31002C1394.33 7.98579 1394.33 11.9585 1391.66 17.2554C1391.26 18.0413 1390.87 18.7398 1390.51 19.3767C1388.43 23.0327 1387.5 24.6624 1394.33 29.1735C1402.36 34.4704 1395.67 37.1188 1388.99 33.1462C1382.3 29.1735 1348.88 38.4431 1344.87 42.4158C1340.86 46.3885 1340.86 49.0369 1348.88 56.9823C1356.9 64.9277 1376.96 88.7638 1371.61 94.0608C1369.54 96.1115 1365.09 94.3164 1360.29 91.1671L1330.57 94.343L1323.26 105.954L1358.13 108.937C1358.82 108.996 1359.39 109.458 1359.61 110.078L1359.7 110.085L1359.61 110.08C1359.69 110.287 1359.72 110.51 1359.72 110.742C1359.68 111.711 1358.85 112.458 1357.89 112.424C1352.08 112.221 1344.74 112.587 1337.83 115.919C1333.31 118.098 1329 121.037 1325.43 124.805V291.885C1325.43 293.053 1324.48 294 1323.32 294H1315.44C1314.28 294 1313.33 293.053 1313.33 291.885V127.751C1312.61 126.653 1311.92 125.586 1311.25 124.554L1311.24 124.551C1310.97 124.133 1310.7 123.72 1310.44 123.313C1308.35 120.095 1306.44 117.245 1304.39 114.776C1300.35 109.901 1295.73 108.625 1287.98 107.079L1278.97 106.308C1277.84 106.212 1276.98 105.252 1277 104.116C1277.01 103.721 1277.12 103.352 1277.31 103.038L1277.04 103.015C1277.14 103.015 1277.23 103.015 1277.33 103.016C1277.71 102.409 1278.38 102.012 1279.15 102.032C1282.58 102.122 1285.59 102.435 1288.27 102.961L1315.44 105.286L1308.66 96.685L1289.34 98.7498C1288.24 98.8681 1287.24 98.0648 1287.12 96.9555C1287.01 95.8462 1287.81 94.8511 1288.91 94.7328L1355.41 87.626C1351.9 84.8675 1348.57 81.8337 1346.21 79.4942L1312.79 47.7127C1310.12 47.7127 1303.97 47.183 1300.76 45.0642C1300.09 44.6228 1299.31 44.2182 1298.53 43.8136C1294.63 41.7905 1290.73 39.7673 1300.76 33.1462Z" fill="black"/>
<path d="M212.905 191.491C203.645 191.491 200.358 189.995 172.627 182.51C160.643 179.275 166 184.06 145.291 189.565C135.488 190.613 132.987 193.139 115.228 196.744C103.467 199.131 94.6648 198.22 89.4433 189.565C84.2218 180.91 84.5085 171.511 91.6946 164.715C86.4731 142.397 88.6301 140.197 98.2011 132.103C107.772 124.01 114.044 123.896 115.228 115.279C116.265 107.735 131.12 95.3647 143.547 97.9444C155.974 100.524 156.724 106.703 168.951 102.394C173.915 100.644 190.251 95.8139 196.33 106.61C202.409 117.405 193.071 121.046 207.979 124.01C222.888 126.973 218.619 134.45 220.395 144.254C222.171 154.057 230.433 153.396 232.003 168.606C233.159 179.813 226.21 190.068 212.905 191.491Z" fill="#58C5AF"/>
<path d="M163.329 222.15C162.685 210.645 162.066 179.499 164.748 169.57L147.926 170.217L147.279 231.395C151.839 233.107 163.973 233.655 163.329 222.15Z" fill="black"/>
<path d="M147.927 196.096L133.693 168.107L136.004 166.926L138.315 166.335L150.515 186.392L147.927 196.096Z" fill="black"/>
<path d="M161.515 205.833L177.043 176.719L171.22 172.805L159.574 195.481L161.515 205.833Z" fill="black"/>
<path d="M194.481 191.568C169.399 183.875 167.822 175.452 153.594 175.393C149.752 175.377 145.472 177.554 137.399 180.659C116.169 189.842 119.717 152.853 127.999 146.324C145.147 132.807 221.056 163.094 229.728 180.659C226.654 189.748 214.547 197.722 194.481 191.568Z" fill="#58C5AF"/>
<mask id="mask0_387_1232" style="mask-type:alpha" maskUnits="userSpaceOnUse" x="0" y="189" width="420" height="105">
<rect y="189" width="420" height="105" fill="#7B75A8"/>
</mask>
<g mask="url(#mask0_387_1232)">
<path d="M406.078 272.086C379.069 240.036 376.509 242.952 353.91 235.687C351.241 234.829 348.486 234.18 345.7 233.867C320.827 231.068 298.002 230.225 288.872 232.822C285.034 233.915 284.388 238.416 283.907 242.378C282.078 257.462 281.512 275.766 294.58 287.776C309.429 301.423 319.014 297.21 384.643 297.21C408.618 299.647 430.707 301.31 406.078 272.086Z" fill="#7B75A8"/>
<path d="M360.128 264.33C325.286 236.494 334.323 238.29 313.946 229.513C310.862 228.184 307.602 227.274 304.275 226.82C278.034 223.239 254.212 222.356 246.473 226.313C243.578 227.794 243.681 231.699 243.34 234.933C241.328 253.977 240.089 277.937 253.792 293.418C268.69 310.25 278.306 305.054 344.15 305.054C368.204 308.059 397.373 294.086 360.128 264.33Z" fill="#595480"/>
<path d="M366.606 292.913C321.053 260.353 279.92 229.953 246.815 216.279C243.995 215.114 241.028 214.376 237.995 214.047C202.217 210.163 165.772 215.888 155.647 223.282C152.714 225.424 152.666 229.537 152.372 233.157C150.341 258.123 152.507 307.271 170.129 325.084C189.14 344.3 239.723 331.089 323.746 331.089C354.441 334.52 414.133 326.885 366.606 292.913Z" fill="#7B75A8"/>
<path d="M191.5 219.798C221.646 233.335 231.001 257.051 276.298 290.642C323.719 325.809 264.161 333.712 233.534 330.16C199.663 330.16 187.334 332.393 183.417 333.742C182.486 335.323 180.319 334.809 183.417 333.742C184.223 332.374 184.105 329.441 178.863 323.944C161.177 305.397 105.323 249.501 100.138 223.192C99.4606 219.756 99.5861 215.502 102.788 214.085C112.912 209.602 147.333 212.646 182.416 217.324C185.539 217.741 188.626 218.507 191.5 219.798Z" fill="#595480"/>
<path d="M253.09 292.433C209.194 257.673 169.606 225.287 137.213 210.001C134.454 208.699 131.527 207.817 128.513 207.339C92.9694 201.7 56.287 205.626 45.8108 212.513C42.7761 214.508 42.5265 218.614 42.0544 222.215C38.7986 247.051 38.5452 296.246 55.2698 314.904C73.313 335.032 124.485 324.324 208.405 328.455C238.894 333.392 298.89 328.702 253.09 292.433Z" fill="#7B75A8"/>
<path d="M158.554 290.641C112.398 256.413 103.559 232.438 72.0175 219.037C70.2708 218.295 68.4469 217.721 66.5815 217.372C50.3057 214.332 33.7619 217.784 28.8455 224.266C26.7292 227.056 27.1847 230.967 26.9323 234.459C25.4691 254.707 30.9947 268.377 48.4914 286.726C67.4598 306.619 97.5968 304.679 124.254 307.771C154.88 311.323 205.975 325.808 158.554 290.641Z" fill="#595480"/>
<path d="M132.039 291.238C86.7012 261.384 61.5412 226.718 31.5718 211.361C27.0682 209.053 22.0003 207.796 16.9511 208.134C10.4669 208.569 2.85911 211.091 1.4857 222.601C-1.2932 245.891 -0.330131 271.301 18.3441 291.238C37.0183 311.174 24.0114 306.867 106.545 306.867C136.696 310.427 168.561 315.286 132.039 291.238Z" fill="#7B75A8"/>
<path d="M14.3403 295.472C14.494 290.594 18.8787 288.725 23.1832 289.568V289.568C23.7545 289.676 24.2236 289.011 23.9057 288.524C23.5781 288.022 23.2604 287.514 22.9543 286.996C20.8494 283.452 18.3553 277.996 22.9314 275.176C26.5441 272.949 31.426 274.305 35.0665 275.725V275.725C36.3494 276.226 37.8446 274.782 37.6047 273.426C37.5368 273.042 37.4946 272.66 37.4838 272.28C37.3513 266.81 43.5203 265.856 47.5255 267.439C51.2423 268.908 55.1259 270.838 58.5068 273.341C59.6584 274.194 61.4888 273.649 62.58 272.72V272.72C66.2664 269.581 72.3111 273.32 75.5787 275.39C81.3183 279.042 86.0218 284.035 89.3173 289.885C92.0578 294.75 95.0548 299.706 96.583 305.077C97.9837 309.998 97.9415 315.541 97.5431 320.329C97.1653 324.846 95.9877 329.248 92.9997 332.764C90.4615 335.751 86.8667 337.666 83.1738 338.824C74.6187 341.52 64.6407 341.303 55.8762 339.949C47.0104 338.578 38.3587 335.014 31.7989 328.782C28.855 325.983 24.4703 321.39 24.7876 316.983V316.983C24.9547 314.592 25.4959 310.842 23.7688 309.18C22.9711 308.412 22.1891 307.628 21.4235 306.828C18.4224 303.736 14.1963 300.2 14.3403 295.472Z" fill="#595480"/>
<path d="M284.309 255.709C289.184 255.922 291.001 260.328 290.106 264.623V264.623C289.991 265.193 290.651 265.67 291.141 265.358C291.647 265.036 292.159 264.724 292.681 264.425C296.25 262.362 301.735 259.934 304.5 264.544C306.684 268.183 305.269 273.048 303.805 276.671V276.671C303.29 277.948 304.715 279.46 306.074 279.237C306.458 279.174 306.841 279.136 307.221 279.13C312.692 279.063 313.573 285.243 311.941 289.229C310.427 292.928 308.451 296.788 305.908 300.138C305.041 301.28 305.564 303.117 306.48 304.219V304.219C309.574 307.943 305.763 313.942 303.654 317.185C299.933 322.88 294.884 327.523 288.995 330.748C284.098 333.43 279.106 336.367 273.717 337.831C268.779 339.172 263.237 339.064 258.454 338.608C253.943 338.176 249.555 336.945 246.075 333.915C243.119 331.341 241.247 327.724 240.133 324.017C237.54 315.43 237.877 305.456 239.337 296.708C240.814 287.859 244.481 279.251 250.792 272.767C253.626 269.857 258.271 265.527 262.674 265.898V265.898C265.063 266.093 268.806 266.68 270.489 264.973C271.266 264.184 272.059 263.412 272.869 262.656C275.996 259.692 279.582 255.509 284.309 255.709Z" fill="#595480"/>
</g>
<path d="M601.826 266.53C601.382 271.455 601.908 283.527 601.69 288.482C601.6 290.561 601.239 294.683 603.556 295.314C605.355 295.802 606.032 293.459 606.363 291.74C607.296 286.898 609.681 265.464 609.982 260.464C610.035 259.525 601.916 265.569 601.826 266.53Z" fill="#D95F5F"/>
<path d="M608.477 292.739C608.141 292.598 607.852 292.364 607.644 292.064C607.436 291.765 607.318 291.413 607.303 291.049C607.258 290.749 607.416 289.593 607.213 289.405C607.01 289.218 607.108 289.27 606.717 289.203C605.385 288.977 603.127 288.842 602.277 288.797C601.901 288.797 601.826 288.797 601.69 289.548C601.69 289.593 601.389 292.303 601.299 293.737C601.193 295.434 601.397 295.929 602.879 296.342C606.461 297.356 610.704 298.152 614.422 298.955C614.505 298.971 614.591 298.97 614.675 298.953C614.758 298.936 614.837 298.902 614.907 298.854C614.977 298.805 615.037 298.744 615.082 298.672C615.128 298.601 615.16 298.521 615.174 298.437C615.829 296.087 615.656 296.23 613.744 295.306C612.623 294.811 609.41 293.167 608.477 292.739Z" fill="#1C1C1C"/>
<path d="M566.476 261.469C563.797 265.629 558.688 276.582 556.197 280.884C555.151 282.686 552.932 286.139 554.692 287.799C556.062 289.06 557.747 287.296 558.831 285.922C561.908 282.055 573.94 264.15 576.513 259.84C576.995 259.037 566.995 260.659 566.476 261.469Z" fill="#D95F5F"/>
<path d="M560.254 287.784C560.02 287.503 559.871 287.162 559.825 286.801C559.778 286.439 559.836 286.072 559.99 285.742C560.088 285.456 560.743 284.503 560.668 284.24C560.592 283.977 560.668 284.067 560.321 283.827C559.253 283.009 557.312 281.853 556.559 281.425C556.236 281.23 556.145 281.237 555.679 281.845C555.679 281.89 554.174 284.15 553.421 285.389C552.541 286.845 552.496 287.371 553.617 288.392C556.326 290.937 559.727 293.602 562.646 296.027C562.781 296.121 562.947 296.159 563.11 296.134C563.273 296.109 563.419 296.022 563.519 295.892C565.19 294.113 564.964 294.158 563.7 292.453C562.97 291.53 560.886 288.594 560.254 287.784Z" fill="#1C1C1C"/>
<path d="M559.787 269.623C563.968 258.703 566.218 247.143 566.439 235.456C566.634 226.447 566.928 198.969 569.855 190.41C571.179 186.544 573.188 196.506 577.379 195.245C580.51 194.307 584.415 196.168 587.914 198.488C592.428 197.189 598.614 198.353 602.293 198.916C603.249 198.165 604.724 198.331 604.979 199.945C609.11 225.884 618.426 251.312 612.707 277.889C612.628 278.297 612.414 278.667 612.099 278.94C611.783 279.212 611.386 279.371 610.969 279.39C607.425 278.91 603.934 278.317 600.435 277.573C600.039 277.427 599.698 277.161 599.461 276.812C599.224 276.464 599.101 276.05 599.11 275.629C598.414 263.987 595.692 252.555 591.066 241.845C590.276 240.013 589.472 238.234 588.689 236.454C585.07 251.635 580.495 266.319 571.006 278.639C570.76 278.956 570.408 279.174 570.014 279.252C569.62 279.331 569.211 279.265 568.862 279.067C565.897 276.815 563.038 274.51 560.216 272.055C559.915 271.735 559.714 271.335 559.638 270.903C559.561 270.471 559.613 270.026 559.787 269.623V269.623Z" fill="#58C5AF"/>
<path d="M589.628 138.743C589.583 138.435 589.545 138.135 589.485 137.835C589.459 137.682 589.376 137.545 589.252 137.452C589.239 137.323 589.192 137.2 589.117 137.094C589.042 136.989 588.941 136.904 588.824 136.849C588.707 136.794 588.577 136.77 588.447 136.779C588.318 136.789 588.193 136.832 588.085 136.904C588.131 136.326 588.153 135.748 588.206 135.17C588.197 134.983 588.123 134.805 587.996 134.667C587.869 134.529 587.698 134.441 587.512 134.417C587.326 134.392 587.138 134.434 586.98 134.535C586.822 134.636 586.704 134.788 586.648 134.967C586.648 135.034 586.648 135.102 586.648 135.17C586.648 135.17 586.648 135.23 586.648 135.26C586.557 135.145 586.436 135.058 586.299 135.007C586.161 134.956 586.013 134.942 585.868 134.968C585.724 134.995 585.59 135.059 585.479 135.155C585.369 135.252 585.287 135.376 585.241 135.515C585.241 135.387 585.241 135.26 585.241 135.132C585.222 134.935 585.13 134.753 584.983 134.62C584.837 134.487 584.645 134.413 584.447 134.413C584.249 134.413 584.058 134.487 583.911 134.62C583.765 134.753 583.673 134.935 583.653 135.132V135.275C583.448 135.277 583.251 135.355 583.1 135.494C582.948 135.632 582.854 135.822 582.833 136.025C582.833 136.243 582.833 136.461 582.788 136.679C582.603 136.683 582.427 136.755 582.292 136.881C582.174 136.788 582.033 136.729 581.884 136.71C581.734 136.69 581.583 136.712 581.445 136.772C581.308 136.832 581.189 136.929 581.102 137.051C581.015 137.174 580.963 137.317 580.952 137.467C580.787 140.59 580.624 143.716 580.463 146.844C580.388 148.345 579.636 150.973 580.396 152.339C580.582 152.574 580.817 152.765 581.085 152.901C581.352 153.037 581.645 153.114 581.945 153.128C581.945 153.398 581.945 153.668 581.945 153.931C581.945 154.14 582.029 154.341 582.177 154.488C582.325 154.636 582.526 154.719 582.736 154.719C582.945 154.719 583.146 154.636 583.294 154.488C583.442 154.341 583.526 154.14 583.526 153.931V153.488H583.571C583.571 153.946 583.571 154.411 583.571 154.869C583.564 155.002 583.592 155.133 583.652 155.251C583.713 155.369 583.803 155.469 583.915 155.54C584.026 155.612 584.155 155.653 584.288 155.659C584.42 155.665 584.552 155.636 584.669 155.575C584.79 155.744 584.973 155.86 585.178 155.898C585.383 155.935 585.594 155.892 585.768 155.778C585.841 155.879 585.937 155.961 586.048 156.017C586.16 156.074 586.283 156.103 586.407 156.103C586.532 156.103 586.655 156.074 586.766 156.017C586.878 155.961 586.974 155.879 587.047 155.778C587.124 155.931 587.249 156.055 587.403 156.132C587.557 156.208 587.731 156.233 587.901 156.203C588.07 156.172 588.224 156.088 588.342 155.963C588.459 155.838 588.533 155.678 588.552 155.508C588.552 155.35 588.552 155.192 588.552 155.035C588.702 155.108 588.87 155.134 589.035 155.107C589.2 155.08 589.352 155.002 589.47 154.884L590.531 155.117C590.982 155.222 591.584 154.884 591.524 154.366C590.965 149.2 590.849 143.996 591.178 138.811C591.253 137.835 589.779 137.82 589.628 138.743Z" fill="#D95F5F"/>
<path d="M540.14 166.341C540.619 166.769 541.169 167.112 541.765 167.355C542.63 167.812 543.195 167.91 543.857 168.856C544.21 169.344 544.466 169.93 544.79 170.44C546.663 173.406 548.484 176.634 552.194 174.404C552.305 174.335 552.399 174.243 552.47 174.133C552.541 174.023 552.586 173.899 552.602 173.77C552.619 173.64 552.607 173.509 552.566 173.385C552.525 173.261 552.457 173.147 552.367 173.053C552.508 172.948 552.601 172.792 552.626 172.619C552.652 172.446 552.607 172.27 552.502 172.129C551.833 171.086 551.163 170.027 550.403 169.036C549.851 168.378 549.348 167.681 548.898 166.949C548.236 165.748 548.334 164.794 548.146 163.488C548.114 162.808 547.946 162.141 547.653 161.526C547.36 160.911 546.947 160.361 546.438 159.907C545.384 159.014 543.706 158.368 542.42 159.081C541.092 159.981 540.038 161.228 539.372 162.685C539.14 163.304 539.089 163.977 539.225 164.624C539.361 165.271 539.678 165.867 540.14 166.341V166.341Z" fill="#D95F5F"/>
<path d="M621.652 222.903C621.332 222.349 620.917 221.856 620.426 221.446C619.748 220.733 619.244 220.47 618.921 219.374C618.748 218.804 618.68 218.173 618.537 217.588C617.679 214.179 616.957 210.546 612.736 211.514C612.609 211.545 612.49 211.604 612.388 211.686C612.287 211.768 612.205 211.872 612.149 211.99C612.092 212.108 612.063 212.237 612.063 212.368C612.063 212.498 612.092 212.627 612.149 212.745C611.984 212.802 611.847 212.921 611.77 213.077C611.692 213.233 611.68 213.413 611.735 213.579C612.044 214.78 612.352 215.988 612.758 217.167C613.084 217.965 613.35 218.786 613.556 219.622C613.804 220.974 613.413 221.874 613.15 223.136C612.968 223.793 612.919 224.48 613.006 225.157C613.092 225.833 613.313 226.486 613.654 227.077C614.406 228.248 615.768 229.382 617.213 229.112C618.755 228.662 620.146 227.803 621.238 226.627C621.654 226.109 621.914 225.484 621.987 224.825C622.06 224.165 621.944 223.499 621.652 222.903V222.903Z" fill="#D95F5F"/>
<path d="M584.12 117.264C584.783 116.915 585.482 116.638 586.205 116.438C586.499 116.939 586.853 117.403 587.258 117.819C588.595 119.117 590.381 119.854 592.247 119.876H593.571C594.18 119.871 594.785 119.782 595.37 119.614C596.999 121.637 598.041 124.067 598.379 126.641C598.47 127.324 598.56 129.126 598.62 129.847C599.372 131.753 600.125 132.639 600.652 134.614C601.028 136.115 599.561 136.446 598.394 136.784C598.146 138.405 598.221 140.77 597.582 142.189C596.22 145.192 593.534 145.267 589.817 145.44C581.615 145.823 578.123 141.423 577.077 135.32C574.895 128.743 577.07 121.01 584.12 117.264Z" fill="#D95F5F"/>
<path d="M543.684 174.607C547.484 183.406 555.099 190.373 564.964 189.179C565.122 195.275 564.888 201.394 565.716 207.438C566.062 209.908 566.017 210.133 568.289 210.891C570.163 211.514 572.247 211.529 574.129 211.754C582.353 212.76 590.63 212.182 598.869 211.754C601.997 211.52 605.108 211.097 608.184 210.486C608.651 212.182 609.147 213.879 609.689 215.568C609.768 215.821 609.94 216.035 610.171 216.166C610.401 216.297 610.673 216.335 610.931 216.274C613.534 215.801 617.582 216.131 618.922 213.661C619.674 212.242 618.478 211.034 618.967 209.48C619.419 208.076 621.082 205.944 620.984 204.419C620.472 196.634 616.522 188.864 612.993 181.701C609.546 172.91 605.416 162.557 598.47 155.65C597.567 152.444 595.882 148.143 592.834 147.392C590.509 146.821 587.417 147.895 584.919 149.344L584.369 149.284C582.932 147.932 581.42 146.656 579.855 145.417C578.47 144.321 577.003 142.85 575.137 142.737C571.585 142.519 568.56 146.761 566.762 149.269C564.843 151.949 562.465 155.65 565.648 158.323C566.473 158.963 567.378 159.49 568.342 159.892C567.77 161.038 567.211 162.192 566.664 163.353C565.757 165.477 564.683 167.525 563.451 169.479C561.909 172.325 559.267 173.368 555.55 172.632C554.054 171.443 552.804 169.975 551.871 168.308C551.736 168.078 551.515 167.911 551.257 167.844C550.999 167.776 550.724 167.814 550.494 167.948C548.156 169.63 545.918 171.444 543.79 173.383C543.646 173.55 543.558 173.758 543.539 173.978C543.52 174.198 543.571 174.418 543.684 174.607V174.607Z" fill="#F9B34A"/>
<path d="M570.246 132.572C571.561 133.828 572.705 135.252 573.647 136.806C575.31 139.539 576.604 140.935 579.772 141.941C579.905 142.086 580.073 142.194 580.261 142.253C580.448 142.312 580.648 142.321 580.841 142.279C582.255 141.949 583.467 140.447 584.084 139.178C585.589 136.003 583.881 134.283 586.499 131.115C587.379 130.042 587.899 130.072 588.102 128.51C588.38 126.43 586.95 125.732 589.607 123.698C591.224 122.459 593.745 122.414 595.626 122.459C595.772 122.464 595.916 122.434 596.047 122.372C596.178 122.309 596.292 122.215 596.379 122.099C598.019 121.903 599.215 120.717 598.636 118.81C598.282 117.662 597.583 117.309 596.642 116.686C595.046 115.54 593.386 114.487 591.669 113.532C590.259 112.87 588.66 112.727 587.154 113.127C584.987 113.66 584.144 114.629 581.887 114.583C578.674 114.516 576.439 115.192 575.054 118.135C574.151 120.064 575.054 119.163 573.188 120.469C571.982 121.26 570.907 122.236 570.005 123.36C567.951 126.243 567.643 129.914 570.246 132.572Z" fill="#1C1C1C"/>
<path d="M546.069 158.173C546.927 158.901 547.281 160.057 547.679 161.086C548.379 162.902 550.208 165.868 548.191 167.452C546.935 168.458 543.104 169.261 541.765 168.255C540.915 167.61 540.196 166.487 539.94 165.061C539.736 163.92 539.976 163.248 539.76 162.453C539.618 161.086 539.76 160.376 539.94 158.879C539.889 158.725 539.829 158.575 539.76 158.428C538.792 156.887 538.828 154.234 537.875 152.697L543.443 155.492C543.677 156.018 543.947 156.498 544.196 156.994C544.805 157.422 545.467 157.685 546.069 158.173Z" fill="#D95F5F"/>
<path d="M539.941 142.394C539.941 142.394 544.072 154.757 544.072 156.818C544.072 156.818 540.541 159.055 539.941 158.879C539.341 158.703 536.017 153.6 536.017 153.6C532.797 149.246 523.158 132.219 521.977 126.01C519.802 114.598 519.448 100.372 525.927 90.2288C526.002 90.1122 526.099 90.0115 526.213 89.9325C526.327 89.8535 526.455 89.7977 526.591 89.7684C526.727 89.7391 526.867 89.7368 527.004 89.7617C527.14 89.7866 527.27 89.8382 527.387 89.9135C526.29 86.3516 524.775 82.9319 522.872 79.7257C522.202 78.6295 523.895 77.5184 524.565 78.6296C531.337 89.921 531.616 108.9 533.595 121.603C535.811 130.03 539.941 142.394 539.941 142.394Z" fill="black"/>
<path d="M502.045 248.339C501.699 254.968 504.776 278.91 504.746 285.576C504.746 288.362 504.46 293.91 507.605 294.631C510.043 295.194 510.826 292.01 511.179 289.691C512.18 283.144 513.271 256.049 513.437 249.352C513.429 248.053 502.105 247.055 502.045 248.339Z" fill="black"/>
<path d="M514.076 290.922C513.616 290.75 513.215 290.451 512.92 290.06C512.624 289.669 512.446 289.203 512.406 288.715C512.33 288.317 512.481 286.763 512.195 286.523C511.909 286.282 512.052 286.342 511.518 286.267C509.727 286.035 506.687 285.974 505.543 285.959C505.039 285.959 504.934 286.02 504.791 287.041C504.791 287.101 504.535 290.749 504.49 292.679C504.437 294.931 504.738 295.614 506.747 296.095C511.6 297.258 517.342 298.107 522.368 298.985C522.59 299.006 522.812 298.939 522.985 298.799C523.158 298.658 523.269 298.456 523.294 298.234C524.046 295.051 523.82 295.231 521.217 294.113C519.742 293.482 515.348 291.448 514.076 290.922Z" fill="#58C5AF"/>
<path d="M463.411 244.602C461.546 250.971 458.292 273.832 456.72 280.306C456.062 283.023 454.524 288.354 457.413 289.785C459.655 290.891 460.722 287.771 462.026 285.803C465.173 280.999 476.884 250.834 475.905 238.895C475.798 237.63 463.77 243.364 463.411 244.602Z" fill="black"/>
<path d="M464.561 287.661C464.154 287.387 463.833 287.004 463.636 286.556C463.439 286.108 463.374 285.613 463.447 285.13C463.471 284.729 463.975 283.249 463.754 282.948C463.533 282.647 463.684 282.726 463.154 282.546C461.461 281.905 458.525 281.149 457.411 280.869C456.923 280.747 456.808 280.783 456.435 281.75C456.453 281.807 455.336 285.298 454.838 287.17C454.265 289.38 454.405 290.076 456.246 291.009C460.7 293.256 466.087 295.406 470.777 297.421C470.986 297.491 471.214 297.478 471.414 297.385C471.613 297.291 471.769 297.125 471.849 296.919C473.296 294.002 473.053 294.133 470.779 292.423C469.486 291.451 465.682 288.466 464.561 287.661Z" fill="#58C5AF"/>
<path d="M522.773 53.2766C522.164 50.7466 520.855 48.3892 519.929 45.9342C519.869 45.0183 519.794 44.1099 519.696 43.239C518.77 35.0332 512.171 26.1142 502.389 31.1067C493.36 35.7539 490.403 45.5739 493.074 53.9974C494.278 61.8053 498.65 67.511 509.124 67.1506C513.864 67.008 517.288 67.008 519.086 63.1566C519.929 61.3623 519.876 58.3442 520.222 56.2797C521.757 55.8592 523.225 55.1535 522.773 53.2766Z" fill="#D95F5F"/>
<path d="M508.861 58.5393C508.861 58.1489 508.816 57.7886 508.779 57.3681C508.757 57.1753 508.666 56.9969 508.523 56.8651C508.522 56.6983 508.478 56.5345 508.395 56.39C508.311 56.2456 508.191 56.1256 508.046 56.042C507.901 55.9584 507.737 55.9142 507.57 55.9137C507.403 55.9132 507.238 55.9565 507.093 56.0393C507.214 55.2885 507.304 54.5378 507.432 53.8546C507.449 53.6118 507.378 53.371 507.231 53.1763C507.085 52.9815 506.874 52.8458 506.635 52.7939C506.397 52.742 506.148 52.7773 505.934 52.8935C505.719 53.0097 505.554 53.1989 505.468 53.4266C505.468 53.5092 505.468 53.5993 505.415 53.6819V53.7945C505.311 53.6388 505.167 53.5141 504.997 53.4337C504.828 53.3533 504.64 53.3202 504.453 53.3379C504.266 53.3556 504.088 53.4234 503.937 53.5342C503.785 53.645 503.667 53.7947 503.594 53.9672C503.594 53.8095 503.594 53.6444 503.594 53.4792C503.594 53.2256 503.498 52.9813 503.326 52.7946C503.154 52.6078 502.919 52.4922 502.665 52.4705C502.412 52.4488 502.16 52.5227 501.959 52.6774C501.757 52.8322 501.621 53.0567 501.578 53.3065C501.581 53.3665 501.581 53.4267 501.578 53.4867C501.315 53.4659 501.053 53.5435 500.845 53.7046C500.636 53.8656 500.495 54.0984 500.449 54.3576C500.396 54.6354 500.374 54.9056 500.329 55.1834C500.093 55.1649 499.858 55.2374 499.674 55.3861C499.162 54.8831 497.176 53.5017 497.048 54.4402C496.506 58.3967 494.791 73.014 495.618 74.8233C495.83 75.1419 496.107 75.4118 496.431 75.6151C496.756 75.8184 497.12 75.9502 497.499 76.002C497.499 76.3398 497.439 76.6776 497.417 77.0155C497.417 77.2691 497.512 77.5134 497.684 77.7001C497.856 77.8869 498.092 78.0025 498.346 78.0242C498.599 78.0459 498.851 77.972 499.052 77.8172C499.254 77.6625 499.39 77.438 499.433 77.1881C499.433 77.0005 499.478 76.8203 499.508 76.6326H499.561C499.561 77.2182 499.501 77.8038 499.441 78.3969C499.428 78.5611 499.456 78.7259 499.523 78.8765C499.59 79.027 499.694 79.1586 499.824 79.2592C499.955 79.3598 500.109 79.4263 500.272 79.4527C500.435 79.4791 500.602 79.4646 500.757 79.4104C500.897 79.6355 501.117 79.799 501.373 79.8674C501.629 79.9357 501.901 79.9039 502.135 79.7783C502.22 79.9125 502.336 80.0249 502.473 80.1063C502.609 80.1876 502.763 80.2357 502.922 80.2467C503.081 80.2576 503.241 80.2312 503.387 80.1694C503.534 80.1076 503.664 80.0122 503.767 79.8909C503.839 80.1086 503.983 80.2956 504.175 80.4214C504.367 80.5472 504.596 80.6042 504.825 80.5833C505.054 80.5624 505.269 80.4648 505.435 80.3063C505.601 80.1478 505.708 79.9379 505.739 79.7107C505.739 79.508 505.776 79.3053 505.807 79.1101C505.989 79.2193 506.201 79.2686 506.413 79.2511C506.625 79.2336 506.826 79.1501 506.988 79.0125L508.305 79.4254C508.45 79.4763 508.606 79.4933 508.759 79.4753C508.912 79.4573 509.059 79.4047 509.189 79.3215C509.319 79.2382 509.428 79.1266 509.508 78.995C509.588 78.8634 509.637 78.7154 509.652 78.562C509.492 71.9375 509.902 65.3115 510.878 58.757C511.006 57.5558 509.147 57.3606 508.861 58.5393Z" fill="#D95F5F"/>
<path d="M523.737 78.1717C521.784 76.5505 519.536 75.3217 517.115 74.553C516.541 75.4565 515.742 76.197 514.797 76.7033C513.852 77.2095 512.793 77.4644 511.72 77.4435C504.948 77.5561 498.221 78.3894 491.479 77.4435C489.388 77.1507 487.875 75.484 487.108 73.532C479.831 74.8833 473.36 78.4119 472.179 86.4225C471.946 88.0142 475.55 90.5517 475.858 94.0202C476.957 106.258 477.137 127.219 477.627 133.81C477.627 134.208 475.241 135.027 475.685 134.944C482.796 133.623 489.899 133.885 497.062 134.591C502.54 135.124 508.921 136.798 514.414 136.145C515.656 136.003 515.919 135.92 516.671 135.019C518.432 132.864 527.424 97.3311 527.755 91.3926C527.996 86.5877 527.755 81.4375 523.737 78.1717Z" fill="#58C5AF"/>
<path d="M497.146 123.795C497.182 123.676 497.194 123.551 497.183 123.428C496.83 119.764 492.217 119.937 489.38 119.298C482.697 117.764 476.116 115.818 469.674 113.472C472.083 105.959 475.242 98.7054 479.102 91.8206C479.922 90.3191 481.119 88.5473 482.262 86.7154C481.141 86.3625 480.12 85.749 479.283 84.9255C478.445 84.1019 477.816 83.0917 477.446 81.9781C477.023 80.6335 476.771 79.2413 476.694 77.834C465.497 86.0248 461.005 101.498 457.845 114.283C457.334 116.333 456.167 120.74 457.439 122.774C458.876 125.094 463.549 124.831 465.753 125.027C475.829 125.943 486.559 125.207 496.657 124.606C497.462 124.569 497.334 124.366 497.146 123.795Z" fill="black"/>
<path fill-rule="evenodd" clip-rule="evenodd" d="M524.819 169.831C526.239 174.298 527.654 178.747 527.698 183.721C527.73 187.411 527.43 190.905 527.134 194.342C527.006 195.825 526.879 197.298 526.781 198.772C527.314 201.132 527.676 203.557 527.698 206.116C527.717 208.406 527.617 210.621 527.469 212.795C527.561 213.23 527.66 213.667 527.769 214.107C529.247 220.053 530.548 225.835 528.766 231.861C528.417 233.046 527.864 234.184 527.308 235.323C527.44 236.046 527.592 236.777 527.769 237.516C529.247 243.659 530.548 249.634 528.766 255.862C528.413 257.101 527.85 258.291 527.288 259.481C526.61 260.914 525.932 262.348 525.619 263.869C525.397 264.954 525.525 266.595 525.661 268.326C525.827 270.449 526.003 272.705 525.555 274.231C525.484 274.48 525.422 274.758 525.357 275.048C525.154 275.96 524.925 276.985 524.297 277.567C520.952 280.604 490.45 274.43 481.603 272.62C474.214 271.103 467.313 270.766 460.185 270.418C456.501 270.239 452.757 270.056 448.853 269.706C447.983 269.629 447.474 268.586 447.347 267.819C446.214 260.401 448.175 252.745 450.157 245.366C449.724 245.332 449.289 245.297 448.853 245.259C447.983 245.184 447.474 244.175 447.347 243.433C446.178 236.024 448.304 228.37 450.347 221.019C451.257 217.743 452.151 214.528 452.728 211.421C453.274 208.469 453.545 205.497 453.815 202.54C454.336 196.832 454.852 191.177 457.325 185.828C458.334 183.645 459.612 181.621 460.889 179.597C462.243 177.452 463.597 175.307 464.631 172.973C467.107 167.378 467.389 161.672 467.681 155.788C467.727 154.866 467.772 153.939 467.827 153.007C468.23 146.134 472.799 135.209 478.683 130.161C479.17 129.745 484.261 130.385 490.456 131.163C495.867 131.842 502.121 132.627 506.886 132.908C508.761 133.017 510.194 132.152 511.417 131.414C513.178 130.35 514.501 129.551 516.079 132.306C519.291 137.897 521.051 151.037 521.995 158.084C522.062 158.578 522.124 159.042 522.182 159.472C522.675 163.089 523.748 166.465 524.819 169.831Z" fill="#58C5AF"/>
<path d="M485.972 85.9798C486.56 82.3033 486.581 78.5587 486.033 74.876C485.942 74.2905 485.28 74.1253 484.791 74.1703C481.375 74.6283 479.328 75.5818 475.859 77.9241C475.597 78.0453 475.375 78.2393 475.22 78.4829C475.065 78.7266 474.984 79.0095 474.986 79.298C475.664 87.7465 476.338 96.1951 477.011 104.644C477.116 105.927 479.14 105.942 479.035 104.644C478.749 101.045 478.46 97.4514 478.169 93.8627C478.314 93.9443 478.477 93.9872 478.643 93.9872C478.81 93.9872 478.973 93.9443 479.118 93.8627C479.435 93.6283 479.693 93.3222 479.87 92.9693C480.085 93.0812 480.333 93.1131 480.57 93.0594C481.322 92.8492 481.473 92.5039 481.826 91.8207C481.826 91.8207 481.826 91.8207 481.826 91.7831C481.935 91.8101 482.049 91.8123 482.159 91.7898C482.269 91.7672 482.372 91.7204 482.462 91.6527C482.551 91.585 482.624 91.4982 482.676 91.3987C482.727 91.2992 482.756 91.1894 482.759 91.0774C482.995 89.3355 483.113 87.5798 483.113 85.8221C483.32 85.7695 483.505 85.6522 483.64 85.4874C483.775 85.3226 483.854 85.119 483.865 84.9062C483.865 84.681 483.865 84.4557 483.918 84.2305C483.918 84.8161 483.956 85.4017 483.956 85.9948C483.956 87.0834 485.754 87.4212 485.942 86.2651C485.942 86.175 485.942 86.0849 485.98 85.9948L485.972 85.9798Z" fill="#58C5AF"/>
<path d="M518.034 35.3858C516.823 33.4167 515.077 31.83 513 30.8096C510.923 29.7892 508.598 29.3767 506.295 29.62C503.12 29.8978 497.793 32.5029 495.761 34.2447C487.484 41.1817 488.236 52.413 490.592 61.8501C491.126 63.9822 492.09 65.303 494.505 66.1514C497.252 67.1199 499.994 65.9377 500.701 64.0908C501.649 61.6058 500.983 62.4657 501.532 59.8756C501.969 57.841 502.375 55.5512 503.421 53.7044C504.647 51.5347 506.431 50.6112 508.199 49.0872C509.553 47.9085 509.704 48.6442 510.532 46.6022C512.24 42.3003 511.946 38.3438 517.665 37.3528C518.53 37.1876 518.605 35.8738 518.034 35.3858Z" fill="#301824"/>
<path d="M496.018 118.945C497.116 118.607 498.26 118.983 499.336 119.223C501.225 119.673 504.731 119.771 504.949 122.361C505.062 123.968 503.64 127.586 502.052 128.142C501.044 128.495 499.727 128.157 498.395 127.579C497.577 127.462 496.771 127.272 495.987 127.008C494.723 126.565 493.866 125.462 492.571 125.064C492.414 125.017 492.253 124.982 492.09 124.959L492.441 119.727L494.001 119.846C494.686 119.576 495.265 119.178 496.018 118.945Z" fill="#D95F5F"/>
<path d="M498.636 47.6061C506.436 43.538 515.158 39.3636 519.288 37.303C523.419 35.2424 515.158 27 506.897 27C497.722 27 488.419 28.6238 486.244 37.3032C484.179 45.5455 486.671 50.3647 489.922 59.9698C489.272 56.5798 490.835 51.6741 498.636 47.6061Z" fill="black"/>
<path d="M513.092 66.1516C511.041 64.091 506.897 55.8485 513.092 39.3636C512.404 38.6768 498.223 39.3636 496.57 39.3636C494.505 39.3636 484.191 37.3031 486.244 49.6667C487.055 54.5456 492.452 62.0304 490.375 70.2727C487.621 71.6465 484.179 70.2727 482.114 74.394C479.819 76.4546 484.091 83.4632 496.342 84.697C506.871 85.7575 523.192 84.697 525.257 78.5152C523.192 72.3334 511.041 74.394 513.092 66.1516Z" fill="black"/>
<path d="M357.854 74.8534C357.485 73.6297 355.491 73.9676 355.86 75.2138C363.314 100.276 364.996 126.695 360.781 152.497C360.57 153.773 362.587 153.953 362.79 152.677C367.034 126.696 365.347 100.094 357.854 74.8534V74.8534Z" fill="#9E4D4D"/>
<path d="M380.136 173.39C380.336 172.271 380.225 171.113 379.817 170.032C379.444 169.326 378.908 168.813 378.512 168.144C378.451 166.907 378.37 165.671 378.223 164.466C378.232 163.362 378.06 162.26 377.712 161.199C377.02 159.844 374.902 160.25 373.665 160.648C373.503 159.562 371.744 159.694 371.912 160.791L372.862 167.057C372.869 167.225 372.862 167.393 372.841 167.559C372.665 168.908 371.681 169.933 371.455 171.265C371.328 172.089 371.279 172.924 371.309 173.76C370.952 175.171 370.843 176.544 371.397 177.502C372.254 178.996 376.267 179.902 377.898 179.527C380.581 178.876 380.038 175.358 380.136 173.39Z" fill="#794343"/>
<path d="M360.466 270.081C360.466 270.787 360.466 271.485 360.466 272.183C360.295 270.682 360.112 269.18 359.917 267.678C359.912 267.575 359.887 267.473 359.843 267.379C359.8 267.285 359.738 267.201 359.661 267.131C359.585 267.061 359.495 267.007 359.398 266.971C359.3 266.936 359.196 266.92 359.093 266.924C358.989 266.928 358.887 266.953 358.793 266.997C358.699 267.041 358.614 267.102 358.544 267.179C358.474 267.255 358.419 267.344 358.384 267.442C358.348 267.539 358.332 267.643 358.336 267.746C358.299 268.677 358.291 269.615 358.269 270.546C358.252 270.467 358.229 270.39 358.201 270.314C358.201 270.096 358.141 269.871 358.118 269.653C358.119 269.507 358.079 269.363 358.004 269.238C357.929 269.112 357.821 269.01 357.692 268.941C357.562 268.872 357.417 268.84 357.27 268.848C357.124 268.855 356.983 268.903 356.862 268.985C356.862 268.474 356.809 267.971 356.779 267.483C356.711 266.199 352.211 256.74 352.264 258.031C352.618 264.66 355.65 280.554 356.312 287.221C356.591 289.999 356.899 295.539 360.074 295.937C362.558 296.245 363.002 292.994 363.084 290.682C363.4 284.068 362.618 277.048 362.054 270.411C361.971 269.022 360.496 268.782 360.466 270.081Z" fill="#794343"/>
<path d="M366.124 291.515C365.649 291.392 365.22 291.137 364.885 290.779C364.551 290.422 364.325 289.976 364.235 289.495C364.115 289.105 364.107 287.543 363.799 287.333C363.49 287.123 363.633 287.168 363.099 287.153C361.293 287.108 358.268 287.363 357.125 287.461C356.62 287.506 356.53 287.581 356.5 288.617C356.5 288.67 356.628 292.326 356.786 294.255C356.974 296.507 357.335 297.146 359.389 297.416C364.333 298.069 370.127 298.317 375.191 298.67C375.412 298.668 375.624 298.581 375.782 298.427C375.941 298.273 376.033 298.064 376.041 297.844C376.463 294.601 376.252 294.841 373.536 293.962C372.031 293.467 367.433 291.905 366.124 291.515Z" fill="#1C1C1C"/>
<path d="M315.513 262.671C315.152 263.271 314.806 263.88 314.445 264.48C315.039 263.076 315.626 261.672 316.206 260.253C316.305 260.066 316.327 259.847 316.265 259.644C316.203 259.442 316.062 259.272 315.875 259.172C315.687 259.073 315.468 259.052 315.264 259.114C315.061 259.176 314.891 259.315 314.791 259.503C314.302 260.298 313.835 261.109 313.354 261.913C313.38 261.837 313.4 261.759 313.414 261.68C313.497 261.47 313.58 261.267 313.67 261.057C313.738 260.93 313.771 260.789 313.766 260.645C313.761 260.502 313.718 260.363 313.642 260.241C313.565 260.12 313.458 260.021 313.331 259.955C313.204 259.888 313.061 259.857 312.918 259.863C313.151 259.405 313.376 258.947 313.602 258.489C314.174 257.34 314.919 246.897 314.355 248.054C311.39 254 306.183 269.36 303.489 275.464C302.361 278.016 299.908 282.971 302.504 284.908C304.513 286.41 306.499 283.782 307.771 281.8C311.3 276.192 314.076 269.698 316.868 263.609C317.365 262.483 316.198 261.567 315.513 262.671Z" fill="#794343"/>
<path d="M309.9 284.09C309.547 283.749 309.299 283.316 309.183 282.841C309.067 282.365 309.088 281.866 309.245 281.402C309.335 281.012 310.095 279.638 309.93 279.308C309.764 278.977 309.869 279.082 309.41 278.805C307.86 277.881 305.099 276.62 304.053 276.147C303.594 275.944 303.474 275.959 302.939 276.845C302.939 276.905 301.231 280.141 300.411 281.898C299.456 283.97 299.471 284.691 301.119 285.929C305.107 288.932 310.035 291.98 314.294 294.788C314.488 294.893 314.715 294.92 314.928 294.863C315.141 294.806 315.323 294.669 315.438 294.48C317.402 291.86 317.108 291.958 315.174 289.871C314.076 288.7 310.855 285.088 309.9 284.09Z" fill="#1C1C1C"/>
<path d="M377.629 57.0529C377.45 54.4151 377.113 51.7903 376.621 49.1925C376.734 48.2765 376.839 47.3756 376.907 46.5047C377.592 38.2464 372.129 27.9985 361.595 31.0241C351.813 33.8319 347.042 42.9086 348.05 51.685C347.727 59.583 350.917 65.9494 361.256 67.6837C365.936 68.4344 369.292 69.1176 371.79 65.6867C372.964 64.08 373.498 61.107 374.236 59.1551C375.771 59.0424 377.705 58.9824 377.629 57.0529Z" fill="#794343"/>
<path d="M363.355 59.2675C363.355 58.8696 363.355 58.5167 363.355 58.0888C363.348 57.8954 363.27 57.7113 363.137 57.5708C363.149 57.4041 363.117 57.2371 363.043 57.0868C362.97 56.9365 362.858 56.8083 362.719 56.7152C362.58 56.6221 362.418 56.5676 362.251 56.557C362.084 56.5463 361.917 56.5801 361.767 56.6549C361.933 55.9041 362.076 55.2059 362.241 54.4927C362.505 53.3891 360.684 52.856 360.315 53.9371C360.315 54.0197 360.277 54.1098 360.247 54.1924C360.244 54.2324 360.244 54.2725 360.247 54.3125C360.154 54.1502 360.018 54.0163 359.854 53.9249C359.69 53.8336 359.505 53.7881 359.317 53.7935C359.13 53.7989 358.947 53.8549 358.789 53.9556C358.631 54.0562 358.503 54.1977 358.419 54.3651C358.419 54.1999 358.419 54.0347 358.456 53.8695C358.472 53.6164 358.392 53.3665 358.233 53.1692C358.073 52.9719 357.845 52.8415 357.593 52.8038C357.342 52.766 357.086 52.8237 356.875 52.9655C356.664 53.1072 356.514 53.3226 356.455 53.5693V53.7494C356.193 53.7118 355.927 53.7723 355.707 53.9193C355.487 54.0663 355.33 54.2893 355.266 54.5452C355.198 54.8155 355.153 55.0858 355.093 55.3561C354.858 55.3224 354.618 55.3786 354.423 55.5137C354.292 55.3738 354.126 55.2722 353.941 55.2198C353.757 55.1675 353.561 55.1663 353.376 55.2165C353.191 55.2668 353.024 55.3664 352.891 55.5048C352.759 55.6431 352.667 55.815 352.625 56.0017C351.817 59.9107 351.017 63.8196 350.224 67.7286C349.841 69.5754 348.389 72.7887 349.088 74.6506C349.28 74.9816 349.54 75.2679 349.852 75.4906C350.163 75.7133 350.518 75.8672 350.894 75.9419C350.849 76.2797 350.789 76.6175 350.744 76.9554C350.728 77.2085 350.808 77.4585 350.967 77.6558C351.127 77.8531 351.355 77.9835 351.606 78.0212C351.858 78.0589 352.114 78.0012 352.325 77.8595C352.536 77.7178 352.686 77.5023 352.745 77.2557C352.783 77.0755 352.813 76.8954 352.851 76.7077H352.911C352.835 77.2933 352.768 77.8788 352.67 78.4644C352.646 78.6275 352.664 78.7939 352.721 78.9485C352.778 79.1031 352.873 79.241 352.997 79.3498C353.121 79.4587 353.27 79.5349 353.431 79.5717C353.592 79.6085 353.76 79.6047 353.919 79.5605C354.041 79.795 354.25 79.9733 354.501 80.0586C354.751 80.1439 355.025 80.1295 355.266 80.0185C355.341 80.1584 355.449 80.2786 355.58 80.369C355.711 80.4595 355.861 80.5178 356.019 80.539C356.177 80.5602 356.337 80.5439 356.488 80.4912C356.638 80.4386 356.774 80.3512 356.884 80.2362C356.938 80.4619 357.069 80.6622 357.253 80.8035C357.438 80.9448 357.666 81.0185 357.898 81.0123C358.131 81.0062 358.354 80.9205 358.531 80.7697C358.708 80.6188 358.828 80.412 358.87 80.1837C358.87 79.9885 358.93 79.7858 358.975 79.5906C359.147 79.7145 359.354 79.7813 359.566 79.7813C359.778 79.7813 359.985 79.7145 360.157 79.5906L361.451 80.0861C361.591 80.1461 361.743 80.1737 361.896 80.167C362.049 80.1603 362.198 80.1193 362.332 80.0471C362.467 79.975 362.583 79.8735 362.673 79.7503C362.763 79.6271 362.823 79.4852 362.851 79.3353C363.131 72.7164 363.977 66.1334 365.379 59.6579C365.574 58.4267 363.716 58.1113 363.355 59.2675Z" fill="#794343"/>
<path d="M365.085 277.438C363.64 260.539 363.422 243.737 363.49 226.8C363.535 214.96 360.194 204.945 356.499 193.834C351.985 180.223 347.53 166.574 342.955 152.993C339.373 142.429 332.112 142.61 321.563 142.091C321.894 140.455 322.315 138.818 322.737 137.204C323.444 134.719 319.659 133.285 318.975 135.778C315.829 146.904 315.212 158.353 317.936 169.637C320.984 182.25 330.096 192.009 331.315 204.923C331.766 209.735 332.142 213.684 335.25 217.58C337.056 219.833 339.765 221.402 341.428 223.774C344.949 228.759 343.685 234.532 343.617 239.96C343.565 253.672 346.177 267.263 351.307 279.983C351.452 280.306 351.682 280.583 351.972 280.785C352.262 280.987 352.602 281.107 352.955 281.132C356.514 281.171 360.06 280.711 363.49 279.766C363.998 279.645 364.443 279.34 364.738 278.91C365.033 278.48 365.157 277.955 365.085 277.438Z" fill="#F9B34A"/>
<path d="M313.835 273.774C322.466 259.165 332.037 245.336 341.925 231.559C348.825 221.942 351.917 211.844 355.356 200.65C359.569 186.934 363.866 173.248 367.997 159.509C371.202 148.826 365.183 144.787 356.883 138.262C358.102 137.121 359.366 136.01 360.645 134.959C362.662 133.337 360.412 129.982 358.388 131.611C349.359 138.871 342.218 147.842 337.891 158.638C333.061 170.65 334.821 183.901 328.313 195.147C325.89 199.329 323.903 202.768 324.174 207.738C324.332 210.628 325.626 213.458 325.611 216.356C325.611 222.468 321.202 226.424 318.004 230.823C310.003 241.971 304.246 254.561 301.051 267.896C300.982 268.242 301.008 268.601 301.126 268.934C301.244 269.266 301.449 269.562 301.721 269.788C304.604 271.873 307.764 273.546 311.111 274.758C311.605 274.976 312.164 274.996 312.672 274.813C313.179 274.629 313.596 274.257 313.835 273.774Z" fill="#F9B34A"/>
<path d="M379.713 95.5668C380.337 87.804 376.454 83.3445 370.683 78.2994C369.107 76.9341 367.437 75.6798 365.687 74.5456C364.762 75.0119 363.777 75.3479 362.76 75.5441C361.416 75.7729 360.051 75.856 358.689 75.7918C357.267 75.7918 355.882 75.4315 354.475 75.2813C353.024 75.1389 351.63 74.6444 350.414 73.841C349.198 73.0375 348.198 71.9494 347.5 70.6716C338.305 74.0951 329.441 76.7753 321.977 83.4345C314.513 90.0938 309.185 98.5023 304.715 107.234C302.3 111.956 299.546 116.911 297.883 121.941C297.026 124.554 297.131 127.151 299.155 129.238C301.307 131.491 304.701 132.241 307.673 132.767C310.662 133.26 313.676 133.589 316.702 133.75C316.311 136.851 315.95 139.952 315.649 143.06C315.235 147.414 313.707 153.39 314.678 157.692C314.749 158.341 315.01 158.954 315.429 159.455C315.848 159.956 316.406 160.322 317.033 160.508C321.014 162.287 327.078 162.264 331.398 162.82C340.985 164.121 350.671 164.559 360.337 164.126C363.083 163.984 368.32 164.532 370.525 162.542C372.346 160.905 372.03 157.189 372.263 155.034C374.739 135.305 378.11 115.432 379.713 95.5668Z" fill="#58C5AF"/>
<path d="M376.613 37.8409C376.823 34.6051 374.077 25.8287 370.036 29.3348C368.486 27.9459 366.695 26.8047 364.483 27.0825C362.474 27.3152 361.594 28.584 359.637 28.584C355.747 28.584 350.345 27.518 350.405 32.4129C345.845 32.2252 342.301 35.8814 343.535 40.7538C345.371 48.0062 345.431 52.0752 348.802 59.0348C349.013 59.4627 350.804 62.7886 351.157 62.8787C351.662 63.0363 353.904 59.9282 354.92 58.3216C356.011 56.5423 356.786 53.9522 358.847 52.7584C360.405 51.865 361.985 52.9011 363.317 52.1428C364.318 51.6333 365.081 50.7557 365.446 49.6953C367.621 44.6577 368.84 39.7853 376.109 40.1682C377.102 40.1682 376.59 38.0811 376.613 37.8409Z" fill="#C4C4C4"/>
<path d="M379.955 129.492C378.942 139.683 378.32 150.303 381.526 160.198C382.045 161.797 383.352 165.159 382.089 165.556C379.508 166.365 373.088 167.248 370.597 167.584C370.376 167.592 370.158 167.531 369.973 167.408C369.789 167.286 369.647 167.11 369.568 166.903C358.401 143.572 354.991 108.772 376.287 89.6555C376.424 89.5306 376.592 89.445 376.773 89.4079C376.955 89.3708 377.143 89.3836 377.318 89.4448L378.856 89.6557C382.987 103.242 381.58 113.054 379.955 129.492Z" fill="#58C5AF"/>
<path fill-rule="evenodd" clip-rule="evenodd" d="M328.504 136.108L328.531 136.108C332.38 136.108 334.776 138.6 336.098 140.709C336.771 141.781 337.225 142.838 337.51 143.618C337.654 144.011 337.758 144.342 337.828 144.581C337.863 144.7 337.889 144.797 337.907 144.867C337.916 144.902 337.924 144.93 337.929 144.952L337.936 144.979L337.938 144.988L337.939 144.994C337.939 144.994 337.94 144.995 336.108 145.425L337.939 144.994C338.177 146.003 337.55 147.014 336.539 147.252C335.529 147.489 334.518 146.865 334.278 145.859M328.545 139.861C327.748 139.875 326.967 140.091 326.278 140.49C325.584 140.89 325.005 141.461 324.595 142.149C324.581 142.173 324.566 142.197 324.551 142.22C323.573 143.706 323.062 145.449 323.083 147.227L323.083 147.249V297.123C323.083 298.16 322.241 299 321.202 299C320.163 299 319.321 298.16 319.321 297.123V147.259C319.294 144.753 320.011 142.295 321.383 140.195C322.119 138.972 323.155 137.955 324.393 137.24C325.644 136.518 327.059 136.129 328.504 136.108" fill="#442232"/>
<path d="M330.322 142.317C331.933 142.174 333.144 139.682 333.739 138.465C335.785 134.321 325.371 131.949 324.498 132.024L324.243 131.941C322.121 131.258 320.48 130.965 318.524 129.772C318.398 129.688 318.255 129.634 318.105 129.613C317.955 129.592 317.803 129.605 317.659 129.65C317.514 129.696 317.382 129.773 317.271 129.875C317.161 129.978 317.075 130.104 317.019 130.245C316.635 131.836 315.808 132.392 316.936 133.721C318.065 135.049 320.383 135.485 322.113 136.198C322.166 136.596 322.008 138.248 322.233 138.555C322.873 139.449 329.058 142.429 330.322 142.317Z" fill="#794343"/>
<path d="M310.84 138.09C312.345 139.037 314.08 139.556 315.859 139.592C316.425 139.651 316.997 139.618 317.552 139.494C319.862 138.886 321.367 135.387 322.315 133.443C323.534 130.913 324.031 129.501 322.142 127.354C321.074 126.145 319.945 124.974 318.771 123.826C318.776 123.686 318.743 123.549 318.677 123.426C318.611 123.303 318.514 123.2 318.395 123.127C318.101 122.947 317.793 122.775 317.485 122.609C314.354 119.606 311.051 116.776 308.049 113.765C307.138 112.857 305.558 114.111 306.476 115.034C308.352 116.911 310.243 118.778 312.15 120.635C307.846 119.666 303.12 119.997 299.757 122.707C294.595 126.851 304.753 134.584 308.079 136.513L309.162 137.122C309.658 137.524 310.207 137.855 310.795 138.105L310.84 138.09ZM301.698 125.612C302.653 120.74 310.223 121.859 314.828 123.63C312.488 123.788 309.629 123.323 307.823 123.24C307.627 123.234 307.434 123.282 307.264 123.378C307.093 123.474 306.953 123.615 306.857 123.785C306.762 123.956 306.715 124.149 306.722 124.344C306.729 124.539 306.79 124.729 306.897 124.892H306.8C306.546 124.884 306.299 124.972 306.107 125.137C305.915 125.302 305.791 125.533 305.761 125.784C305.731 126.035 305.796 126.289 305.944 126.495C306.091 126.7 306.311 126.844 306.559 126.896C307.507 127.061 308.448 127.197 309.396 127.309C307.891 127.309 306.386 127.384 304.881 127.534C304.339 127.534 303.797 127.572 303.248 127.609C303.079 127.616 302.917 127.68 302.789 127.79H302.541C302.318 127.814 302.11 127.915 301.954 128.075C301.635 127.287 301.547 126.426 301.698 125.59V125.612Z" fill="#58C5AF"/>
<path d="M429.049 69.5765C429.276 69.1667 428.577 68.682 427.98 68.5723C422.381 67.5913 417.07 68.5723 412.577 72.0349C406.304 76.9287 407.14 85.412 401.566 90.8136C399.277 93.0355 396.601 94.9572 394.736 97.5599C392.657 100.445 392.347 103.868 391.486 107.226C390.375 111.647 386.778 114.232 384.783 118.191C383.266 121.263 382.577 124.656 382.781 128.054C382.783 128.258 382.867 128.454 383.017 128.599C383.167 128.744 383.37 128.826 383.582 128.827C389.072 128.68 394.566 128.952 400.012 129.641C402.832 129.993 405.706 130.478 408.377 129.191C411.185 127.829 413.157 125.041 414.949 122.629C417.506 119.095 419.707 115.332 421.521 111.393C425.016 103.989 427.759 96.1633 430.262 88.3956C432.222 82.2264 434.163 74.6895 429.049 69.5765Z" fill="black"/>
<path d="M422.471 68.782C423.24 68.3805 424.05 68.061 424.886 67.8286C425.226 68.4109 425.638 68.9481 426.113 69.4277C427.663 70.9414 429.738 71.8017 431.907 71.8301H433.412C434.12 71.8205 434.823 71.717 435.504 71.5223C437.401 73.8679 438.616 76.6881 439.018 79.6756C439.123 80.4714 439.228 82.566 439.296 83.4294C440.169 85.6816 441.072 86.6727 441.659 88.97C442.095 90.6742 440.387 91.0946 439.033 91.485C438.747 93.3619 438.829 96.1172 438.092 97.7614C436.504 101.29 433.389 101.335 429.063 101.515C419.529 101.958 415.473 96.8529 414.262 89.7583C411.764 82.123 414.277 73.1365 422.471 68.782Z" fill="#D95F5F"/>
<path d="M418.702 92.3111C418.514 95.9373 417.031 114.361 417.912 115.945C418.25 116.546 431.005 118.903 430.937 118.287C430.29 112.281 430.305 99.9088 430.688 93.8577C430.749 92.6715 418.747 91.4102 418.702 92.3111Z" fill="#D95F5F"/>
<path d="M433.54 233.579C439.943 241.905 446.053 250.366 448.348 260.674C450.538 270.516 452.765 280.637 454.293 290.599C454.376 291.147 452.788 291.583 453.322 291.68L458.16 292.626C458.988 292.784 459.47 291.943 459.432 291.26C458.536 275.404 458.762 258.977 456.211 243.271C453.954 229.3 447.761 216.387 441.689 203.736C441.035 202.377 438.898 203.353 439.552 204.72C440.207 206.086 440.862 207.445 441.509 208.811C435.632 209.923 428.461 213.541 426.181 219.547C424.165 224.885 430.688 229.87 433.54 233.579Z" fill="#D95F5F"/>
<path d="M461.305 292.108C460.896 291.997 460.527 291.774 460.239 291.463C459.952 291.152 459.758 290.767 459.679 290.352C459.582 290.014 459.574 288.662 459.311 288.482C459.047 288.302 459.175 288.332 458.709 288.317C457.144 288.272 454.525 288.475 453.54 288.557C453.103 288.557 453.02 288.655 452.99 289.548C452.99 289.601 453.088 292.761 453.208 294.436C453.359 296.403 453.675 296.936 455.466 297.183C459.74 297.777 464.759 298.017 469.16 298.355C469.36 298.355 469.551 298.276 469.692 298.135C469.834 297.994 469.913 297.803 469.913 297.604C470.297 294.796 470.108 294.991 467.768 294.225C466.399 293.85 462.441 292.454 461.305 292.108Z" fill="#F9B34A"/>
<path d="M402.63 226.146C402.351 236.657 401.75 247.055 397.024 256.5C392.509 265.509 387.852 274.781 382.728 283.482C382.449 283.955 380.967 283.317 381.298 283.715L384.458 287.468C384.588 287.593 384.745 287.686 384.916 287.741C385.088 287.796 385.269 287.811 385.448 287.786C385.626 287.761 385.796 287.695 385.945 287.595C386.095 287.494 386.219 287.361 386.309 287.206C395.617 274.323 406.174 261.68 414.097 247.911C421.155 235.636 424.504 221.724 427.769 208.076C428.116 206.612 425.843 206.026 425.512 207.497C425.181 208.969 424.805 210.433 424.443 211.904C419.176 209.074 411.321 207.4 405.76 210.613C400.832 213.519 402.758 221.477 402.63 226.146Z" fill="#D95F5F"/>
<path d="M387.249 289.06C386.997 288.719 386.848 288.312 386.822 287.889C386.795 287.465 386.891 287.043 387.099 286.673C387.227 286.35 388.084 285.299 387.994 284.991C387.904 284.683 387.994 284.788 387.625 284.488C386.444 283.467 384.277 281.981 383.457 281.425C383.095 281.177 382.99 281.177 382.403 281.845C382.403 281.898 380.454 284.405 379.491 285.779C378.37 287.401 378.272 288.032 379.491 289.315C382.441 292.461 386.181 295.802 389.394 298.835C389.544 298.949 389.732 299.002 389.921 298.984C390.109 298.966 390.283 298.878 390.409 298.738C392.479 296.801 392.215 296.838 390.876 294.773C390.116 293.602 387.919 290.044 387.249 289.06Z" fill="#F9B34A"/>
<path d="M394.993 244.381C397.524 246.115 401.48 246.97 409.383 247.131C414.233 247.617 415.203 247.022 420.071 247.349C430.154 248.031 445.08 243.52 458.505 239.96C465.093 239.856 454.996 207.295 449.08 191.849C445.136 181.551 441.256 172.904 435.507 157.978C435.509 157.844 435.579 157.749 435.621 157.586C436.694 153.602 440.054 148.345 439.822 144.186C439.33 135.309 439.826 128.842 437.162 120.307C435.302 114.313 428.165 109.477 427.946 109.428C419.135 107.603 412.988 108.378 408.585 114.178C408.058 114.885 407.596 115.638 407.207 116.428C404.733 120.04 404.131 124.659 403.785 129.015C403.365 134.322 403.21 139.679 403.169 145.002C403.145 148.783 402.56 153.291 403.324 157.051C397.344 168.832 393.915 181.707 393.253 194.861C393.023 199.077 390.687 241.404 394.993 244.381Z" fill="#F9B34A"/>
<path d="M436.446 72.3334C435.425 70.8316 434.067 68.9904 432.315 68.2121C430.563 67.4339 425.995 65.966 424.053 66.1516C417.857 66.7436 415.792 68.2122 411.661 72.3334C405.465 80.5758 405.545 89.8635 407.53 97.0607C407.981 98.6868 413.755 100.535 415.792 101.182C418.108 101.921 420.09 94.5118 420.686 93.1033C421.486 91.2081 421.759 89.1926 422.222 87.2173C422.59 85.6656 424.053 84.6971 424.053 84.6971C425.829 83.1107 426.693 83.7988 428.184 82.6364C429.326 81.7375 429.949 81.2608 430.25 80.5758C431.69 77.295 431.003 74.9173 435.825 74.1615C436.555 74.0355 436.928 72.7056 436.446 72.3334Z" fill="black"/>
<path d="M406.44 254.472C408.505 254.472 416.805 237.771 418.099 233.06C419.394 228.35 420.165 224.818 420.165 224.818L422.23 220.697V224.818C422.23 229.764 421.189 234.234 420.668 235.85C419.054 238.376 417.65 241.021 416.47 243.762C415.215 246.658 413.495 249.345 411.371 251.722C409.147 254.219 406.232 256.542 404.857 259.508C404.178 260.995 403.739 262.561 403.231 264.087C402.832 265.271 399.042 276.311 396.792 283.121C396.426 283.472 396.018 283.779 395.576 284.036C394.739 284.512 393.7 284.702 393.112 285.562C392.524 286.423 392.3 287.607 392.164 288.615C392.088 289.167 391.937 290.028 392.739 290.083C393.251 290.062 393.757 289.973 394.243 289.817C394.919 289.67 395.581 289.466 396.221 289.207C397.182 288.831 398.027 288.222 398.675 287.44C399.177 286.796 400.22 284.256 400.289 283.801C400.288 283.789 400.288 283.777 400.289 283.765C400.646 282.782 405.903 268.049 406.44 267.032C407.17 265.643 407.96 264.233 409.097 263.043C411.153 260.891 414.136 259.966 416.805 258.794C419.734 257.517 422.582 256.074 425.334 254.472C428.475 252.632 435.172 247.757 439.746 243.994C440.199 246.267 440.803 248.51 441.553 250.709C442.555 253.614 443.024 256.667 442.94 259.728C442.848 262.881 442.058 266.26 443.006 269.346C443.486 270.89 444.245 272.364 444.902 273.845C445.587 275.386 453.706 294.045 455.254 297.097C455.687 297.93 456.366 298.843 457.266 299.178C457.516 299.33 457.782 299.455 458.059 299.551C458.618 299.71 459.198 299.791 459.781 299.792C460.466 299.829 461.133 299.935 461.812 300.018C462.292 300.073 463.319 300.225 463.436 299.594C463.578 298.83 463.142 297.634 462.719 296.999C462.179 296.202 461.307 295.955 460.508 295.494C459.493 294.914 458.811 293.962 458.23 293.001C457.784 292.262 457.364 291.508 456.947 290.754C454.357 285.166 449.988 275.588 449.719 274.519C449.34 273.021 449.002 271.485 449.11 269.941C449.312 267.148 451.172 264.85 452.585 262.521C454.139 259.98 455.512 257.339 456.691 254.616C458.228 251.106 459.306 247.425 459.898 243.658C460.248 243.777 460.599 243.905 460.943 244.046C464.289 245.434 466.611 248.282 469.675 250.098C473.084 252.116 477.134 251.951 480.836 253.111C483.411 253.917 485.717 255.309 488.187 256.294C487.966 256.758 487.754 257.225 487.555 257.695C486.658 259.817 486.803 261.968 487.072 264.2C487.682 269.135 483.505 287.79 482.627 292.332C482.235 294.313 481.935 296.45 482.235 298.458C482.444 299.896 483.167 301.486 484.763 301.861C485.865 302.124 487.315 301.782 487.716 300.641C488.326 298.91 486.251 297.405 485.881 295.83C485.335 293.492 486.696 291.108 487.663 289.051C488.538 287.201 492.885 275.398 494.224 271.372C495.867 266.406 497.601 261.431 499.892 256.722C501.168 256.413 502.425 256.035 503.651 255.617C507.009 254.475 510.253 253.138 513.643 252.149L515.115 254.53C516.417 256.63 517.579 259.008 519.279 260.839C520.874 262.558 523.152 263.159 525.316 263.931C528.326 265.006 535.971 270.03 536.271 272.255C536.792 276.122 533.482 280.38 532.307 281.717C531.251 282.916 529.7 283.655 528.753 284.931C528.108 285.788 527.871 287.11 528.598 288.001C529.4 288.999 530.885 288.572 531.927 288.209C533.268 287.727 534.505 287.01 535.576 286.093C538.047 284.03 539.759 281.225 541.206 278.438C541.97 276.964 542.716 275.42 542.883 273.759C543.002 272.168 542.64 270.577 541.841 269.181C540.35 266.397 527.394 254.802 523.461 246.848C523.717 246.488 523.96 246.118 524.191 245.743C526.248 242.382 527.701 238.594 529.119 234.95C529.816 233.137 530.481 231.306 531.113 229.456C531.485 228.87 531.877 228.296 532.297 227.741C533.848 225.68 535.744 224.17 537.898 222.735C538.823 222.155 539.686 221.488 540.473 220.742C541.282 219.893 541.912 218.9 542.327 217.818C542.673 216.905 543.078 216.014 543.54 215.15C544.932 214.86 546.304 214.484 547.647 214.027C549.465 213.433 551.382 213.174 553.299 213.264C556.098 213.419 558.786 213.771 561.386 212.504C561.537 212.431 561.714 212.336 561.838 212.269C561.959 212.203 562.077 212.133 562.196 212.064L562.201 212.061C563.941 211.017 565.311 209.486 566.131 207.672L566.132 207.669C566.176 207.569 566.22 207.47 566.26 207.367C566.639 206.442 566.924 205.38 566.731 204.409C566.526 203.381 565.717 202.734 564.753 202.349C564.491 202.245 564.226 202.147 563.954 202.059C561.882 201.372 559.617 201.091 557.516 200.533C555.033 199.874 552.648 199.739 551.315 197.554C550.405 196.067 548.604 193 545.944 192.176C542.431 191.089 534.938 191.208 531.255 193.192C528.866 194.477 525.199 197.42 523.395 199.428C522.444 200.484 521.639 201.659 520.662 202.697C519.522 203.897 518.091 204.805 516.499 205.34C515.008 205.871 513.453 206.228 511.972 206.787C511.612 206.924 511.255 207.071 510.904 207.23L510.342 207.3C505.306 207.977 500.318 209.204 495.197 209.284C489.981 209.363 449.151 204.995 444.279 205.3L443.104 205.377C437.604 204.458 434.622 204.212 428.426 204.212C422.23 205.3 419.306 209.15 416.805 214.237C414.771 218.374 411.955 230.708 411.371 233.06C409.838 239.242 404.375 254.472 406.44 254.472Z" fill="#1C1C1C"/>
<path d="M488.311 207.16C486.356 207.16 464.292 203.527 464.292 207.159C464.292 207.159 463.297 212.454 463.297 214.515C463.297 216.576 464.292 216.173 465.362 216.576C466.432 216.978 481.509 218.637 481.509 218.637C480.836 226.879 480.836 234.916 480.836 242.199V242.199C480.783 244.718 481.009 247.235 481.509 249.708C481.877 251.482 482.523 253.192 483.426 254.778C483.572 255.076 483.793 255.334 484.069 255.529C484.345 255.724 484.667 255.848 485.006 255.892C486.033 256.013 487.033 256.294 487.966 256.725C487.996 256.739 488.031 256.744 488.064 256.739C488.098 256.733 488.128 256.718 488.152 256.695C488.176 256.671 488.192 256.641 488.197 256.609C488.202 256.577 488.196 256.543 488.181 256.514C486.176 252.075 485.3 247.237 485.625 242.404L488.311 222.758C488.311 222.758 500.911 232.581 510.365 235.973C512.767 236.835 514.1 237.458 516.619 237.874C518.519 238.188 521.541 238.192 521.541 238.192C521.711 238.196 521.882 238.179 522.049 238.143C523.389 237.868 524.728 237.56 526.045 237.194C527.235 236.907 528.39 236.498 529.489 235.973C530.506 235.432 530.857 234.602 531.229 233.586C531.678 232.365 532.281 231.031 532.458 229.743C532.556 229.087 532.373 228.608 531.608 228.678C531.409 228.696 530.476 229.63 527.551 231L523.42 233.061C521.594 233.586 517.199 232.705 515.159 231L511.147 228.247L500.751 220.522C500.871 220.128 500.988 219.732 501.114 219.338C501.761 217.16 502.628 215.049 503.701 213.035C504.26 212.021 504.919 211.062 505.669 210.172C506.318 209.5 507.028 208.887 507.792 208.341L508.671 208.078C508.981 208.027 509.283 207.936 509.568 207.807C509.912 207.523 509.568 207.12 509.252 206.97C508.856 206.831 508.433 206.776 508.013 206.808L505.973 206.757C503.149 206.683 498.802 207.233 495.977 207.159C490.329 207.013 491.104 207.16 488.311 207.16Z" fill="#F9B34A"/>
<path d="M464.231 160.376L454.978 167.318L458.417 171.964L467.67 165.022L464.231 160.376Z" fill="#C4C4C4"/>
<path d="M508.918 207.701L465.262 162.13L462.697 164.229L504.788 207.701L508.918 207.701Z" fill="black"/>
<path d="M501.172 212.298L454.977 167.318L452.412 169.417L498.591 213.883L501.172 212.298Z" fill="black"/>
<path d="M464.641 164.027C464.279 163.701 463.919 163.347 463.519 163.04C463.077 162.7 462.588 162.418 461.998 162.292C461.217 162.144 460.451 162.209 459.683 162.115C459.26 161.809 458.818 161.525 458.4 161.187C447.352 152.962 444.201 148.602 436.712 137.2C432.588 130.917 434.223 130.88 428.788 123.709C427.68 122.833 426.554 122.313 425.429 122.214C425.284 122.202 425.134 122.215 424.986 122.252C424.838 122.29 424.696 122.352 424.568 122.435C424.439 122.517 424.328 122.619 424.239 122.733C424.15 122.848 424.085 122.974 424.049 123.103C420.931 134.324 424.705 140.843 426.98 144.019C430.318 148.681 445.399 160.553 450.179 162.797C451.678 163.667 453.187 164.537 454.703 165.405C454.824 165.497 454.938 165.596 455.042 165.702C455.88 166.619 455.881 167.909 456.658 168.852C457.152 169.421 457.713 169.941 458.335 170.405C459.086 171.483 459.987 172.358 461.076 172.531C462.787 172.794 466.415 170.483 467.35 169.107C468.861 166.924 465.978 165.239 464.641 164.027Z" fill="#D95F5F"/>
<defs>
<clipPath id="clip0_387_1232">
<rect width="433.068" height="164.742" fill="white" transform="matrix(-1 0 0 1 1319.97 131.682)"/>
</clipPath>
</defs>
</svg>
