<svg width="183" height="230" viewBox="0 0 183 230" fill="none" xmlns="http://www.w3.org/2000/svg">
<path d="M48.9589 3.34215C49.1792 2.94405 48.5006 2.47306 47.9207 2.36653C42.4863 1.41334 37.3305 2.36653 32.9691 5.73074C26.8793 10.4855 27.6912 18.7278 22.28 23.976C20.0587 26.1347 17.4605 28.0018 15.651 30.5306C13.6327 33.3341 13.3311 36.659 12.496 39.9223C11.4172 44.2173 7.92578 46.7292 5.98866 50.5757C4.51626 53.5605 3.84788 56.8567 4.04569 60.158C4.04721 60.3568 4.12952 60.5471 4.27494 60.6877C4.42035 60.8283 4.61726 60.9079 4.82291 60.9094C10.1526 60.7661 15.4856 61.0304 20.7722 61.7C23.5097 62.042 26.2993 62.513 28.8918 61.2626C31.6177 59.9394 33.5316 57.2312 35.2715 54.8875C37.7538 51.4538 39.8901 47.7981 41.6513 43.9706C45.0441 36.7768 47.7061 29.1737 50.1362 21.6266C52.0385 15.6327 53.9234 8.30996 48.9589 3.34215Z" fill="black"/>
<path d="M42.5748 2.57185C43.3216 2.18175 44.1074 1.87127 44.9194 1.64551C45.2494 2.21122 45.6493 2.73322 46.1099 3.1992C47.6147 4.66989 49.6288 5.50569 51.7342 5.53334H53.1951C53.8822 5.524 54.5651 5.42345 55.2256 5.23429C57.0673 7.51323 58.2472 10.2533 58.6366 13.1559C58.7389 13.9291 58.8411 15.9642 58.9068 16.803C59.7541 18.9913 60.6307 19.9542 61.2004 22.1862C61.6241 23.842 59.966 24.2506 58.6513 24.6299C58.3737 26.4534 58.454 29.1304 57.7382 30.7279C56.1971 34.1562 53.1731 34.2 48.9732 34.375C39.7188 34.8054 35.7818 29.8452 34.6058 22.9521C32.1808 15.5338 34.6205 6.80255 42.5748 2.57185Z" fill="#D95F5F"/>
<path d="M38.9129 25.4311C38.7303 28.9542 37.2913 46.8544 38.1459 48.3935C38.4746 48.977 50.8552 51.2675 50.7895 50.6693C50.1613 44.8339 50.1759 32.8129 50.5484 26.9337C50.6068 25.7812 38.9567 24.5558 38.9129 25.4311Z" fill="#D95F5F"/>
<path d="M53.3174 162.686C59.5332 170.775 65.4642 178.996 67.6919 189.011C69.8174 198.574 71.9796 208.406 73.4623 218.086C73.5427 218.618 72.0015 219.041 72.5201 219.136L77.2166 220.055C78.0201 220.209 78.4875 219.392 78.451 218.728C77.5818 203.322 77.8009 187.362 75.3248 172.103C73.1335 158.528 67.1223 145.982 61.2278 133.691C60.5924 132.371 58.5179 133.319 59.1534 134.646C59.7889 135.974 60.4244 137.294 61.0525 138.622C55.348 139.701 48.387 143.217 46.1738 149.053C44.2163 154.239 50.5491 159.082 53.3174 162.686Z" fill="#D95F5F"/>
<path d="M80.2702 219.552C79.8733 219.444 79.5149 219.227 79.2359 218.925C78.9569 218.623 78.7686 218.249 78.6926 217.845C78.5976 217.517 78.5903 216.204 78.3347 216.029C78.079 215.854 78.2031 215.883 77.7503 215.869C76.231 215.825 73.6893 216.022 72.7324 216.102C72.3088 216.102 72.2284 216.197 72.1992 217.065C72.1992 217.116 72.294 220.187 72.4109 221.813C72.557 223.725 72.8637 224.242 74.6021 224.483C78.7509 225.059 83.623 225.293 87.8959 225.621C88.0896 225.621 88.2753 225.544 88.4123 225.407C88.5493 225.271 88.6263 225.085 88.6263 224.892C88.9988 222.164 88.8162 222.353 86.5446 221.609C85.2152 221.244 81.3731 219.888 80.2702 219.552Z" fill="#F9B34A"/>
<path d="M23.3124 155.466C23.0421 165.678 22.4578 175.78 17.8708 184.957C13.4883 193.71 8.967 202.718 3.99285 211.172C3.7226 211.632 2.28375 211.012 2.60513 211.398L5.67285 215.046C5.79912 215.166 5.9512 215.257 6.11759 215.31C6.28399 215.364 6.46027 215.379 6.63331 215.354C6.80635 215.329 6.97152 215.266 7.11639 215.168C7.26126 215.071 7.3821 214.941 7.46965 214.79C16.5049 202.273 26.7526 189.99 34.4439 176.612C41.2953 164.686 44.5457 151.169 47.7157 137.908C48.0517 136.486 45.8459 135.917 45.5245 137.347C45.2031 138.776 44.8378 140.199 44.4872 141.628C39.3743 138.879 31.7488 137.252 26.351 140.374C21.5668 143.197 23.4365 150.929 23.3124 155.466Z" fill="#D95F5F"/>
<path d="M8.38287 216.592C8.13787 216.26 7.99382 215.865 7.96791 215.454C7.942 215.042 8.03538 214.632 8.23682 214.272C8.361 213.959 9.19363 212.937 9.10598 212.638C9.01833 212.339 9.10599 212.441 8.74808 212.15C7.60133 211.158 5.49769 209.713 4.70154 209.174C4.35094 208.933 4.24875 208.933 3.67902 209.582C3.67902 209.633 1.78716 212.069 0.852222 213.404C-0.236101 214.98 -0.331055 215.593 0.852222 216.84C3.71546 219.896 7.34575 223.142 10.4646 226.089C10.6109 226.2 10.7935 226.252 10.9762 226.234C11.159 226.217 11.3282 226.131 11.4506 225.994C13.4592 224.112 13.2037 224.149 11.9035 222.143C11.1658 221.005 9.03294 217.547 8.38287 216.592Z" fill="#F9B34A"/>
<path d="M15.9003 173.181C18.3567 174.866 22.1973 175.697 29.8689 175.854C34.5765 176.326 35.5178 175.747 40.2432 176.066C50.0314 176.728 64.5205 172.345 77.5523 168.886C83.9468 168.785 74.1456 137.15 68.4028 122.142C64.5742 112.137 60.8084 103.735 55.2272 89.2337C55.2299 89.1036 55.2978 89.0109 55.3378 88.8526C56.3796 84.9821 59.6417 79.8744 59.4158 75.8334C58.9385 67.2084 59.42 60.925 56.8344 52.633C55.0286 46.8092 48.1004 42.1106 47.8883 42.0628C39.3351 40.2895 33.3681 41.0429 29.0939 46.6775C28.5821 47.3651 28.1343 48.0968 27.7559 48.8636C25.3548 52.3736 24.7705 56.8609 24.434 61.093C24.0272 66.2495 23.8766 71.4547 23.8368 76.6259C23.813 80.3001 23.2457 84.6794 23.9865 88.333C18.1823 99.7794 14.8537 112.288 14.2112 125.068C13.9877 129.165 11.72 170.289 15.9003 173.181Z" fill="#F9B34A"/>
<path d="M56.14 6.02183C55.1488 4.56272 53.8305 2.77376 52.1302 2.01764C50.4298 1.26153 45.9953 -0.164665 44.1106 0.015599C38.0959 0.590861 36.091 2.01771 32.0812 6.02183C26.0665 14.0301 26.1437 23.0539 28.0715 30.0466C28.5087 31.6265 34.114 33.4221 36.091 34.0507C38.339 34.7684 40.2631 27.5701 40.8421 26.2016C41.6181 24.3602 41.8829 22.4021 42.3325 20.4828C42.6897 18.9753 44.1106 18.0342 44.1106 18.0342C45.8343 16.4929 46.6731 17.1614 48.1204 16.0322C49.229 15.1588 49.8335 14.6955 50.1253 14.0301C51.5234 10.8425 50.8566 8.53228 55.5374 7.79797C56.2456 7.67558 56.608 6.38343 56.14 6.02183Z" fill="black"/>
<path d="M27.0127 182.987C29.0176 182.987 37.0741 166.76 38.3305 162.184C39.587 157.607 40.3354 154.175 40.3354 154.175L42.3403 150.171V154.175C42.3403 158.98 41.3297 163.324 40.8245 164.894C39.2572 167.348 37.8944 169.918 36.749 172.581C35.5311 175.395 33.8607 178.006 31.7997 180.315C29.6408 182.741 26.8104 184.998 25.4764 187.88C24.8171 189.324 24.3909 190.846 23.8972 192.329C23.5108 193.479 19.8308 204.205 17.6474 210.822C17.2922 211.163 16.8959 211.462 16.4669 211.711C15.6543 212.174 14.6453 212.358 14.0749 213.194C13.5045 214.03 13.2868 215.181 13.155 216.16C13.0813 216.696 12.9343 217.533 13.7132 217.586C14.2098 217.566 14.701 217.479 15.1728 217.328C15.8295 217.185 16.4719 216.987 17.0925 216.735C18.0259 216.37 18.8463 215.778 19.4751 215.018C19.9627 214.392 20.9747 211.925 21.0422 211.483C21.0407 211.471 21.0407 211.459 21.0422 211.447C21.3887 210.492 26.4914 196.178 27.0127 195.19C27.7211 193.841 28.4878 192.471 29.5917 191.314C31.588 189.224 34.4828 188.325 37.0741 187.186C39.917 185.945 42.6817 184.543 45.3538 182.987C48.4019 181.199 54.9031 176.463 59.3434 172.806C59.7833 175.015 60.3693 177.194 61.0976 179.331C62.0703 182.154 62.5258 185.119 62.4437 188.094C62.3547 191.157 61.5881 194.44 62.508 197.438C62.9742 198.939 63.7101 200.371 64.348 201.809C65.0134 203.307 72.8945 221.435 74.3971 224.401C74.8172 225.21 75.4765 226.097 76.3505 226.423C76.5925 226.571 76.8508 226.692 77.1203 226.785C77.663 226.94 78.2257 227.019 78.7915 227.019C79.4569 227.055 80.104 227.159 80.7633 227.239C81.2294 227.292 82.226 227.44 82.3394 226.827C82.4774 226.085 82.0544 224.923 81.6435 224.306C81.1191 223.532 80.2727 223.292 79.4969 222.844C78.5125 222.28 77.85 221.355 77.2858 220.421C76.8534 219.703 76.4457 218.971 76.0409 218.238C73.5263 212.808 69.2851 203.503 69.0245 202.465C68.6565 201.009 68.3285 199.517 68.4327 198.016C68.629 195.303 70.4352 193.07 71.8059 190.807C73.3153 188.338 74.6473 185.772 75.7925 183.127C77.2846 179.717 78.3302 176.141 78.905 172.48C79.2454 172.596 79.5858 172.72 79.92 172.857C83.1675 174.206 85.4213 176.973 88.3959 178.738C91.7047 180.698 95.636 180.538 99.23 181.664C101.729 182.447 103.968 183.8 106.366 184.758C106.151 185.208 105.946 185.662 105.753 186.119C104.882 188.18 105.023 190.27 105.283 192.438C105.875 197.234 101.821 215.359 100.969 219.772C100.588 221.696 100.297 223.772 100.589 225.723C100.791 227.12 101.493 228.665 103.042 229.03C104.112 229.285 105.52 228.953 105.909 227.844C106.501 226.162 104.486 224.7 104.127 223.17C103.597 220.898 104.919 218.582 105.857 216.584C106.706 214.786 110.926 203.319 112.226 199.407C113.821 194.582 115.504 189.749 117.728 185.173C118.966 184.873 120.187 184.505 121.377 184.099C124.636 182.99 127.786 181.691 131.076 180.73L132.505 183.043C133.769 185.084 134.897 187.394 136.547 189.173C138.096 190.843 140.307 191.427 142.407 192.177C145.33 193.221 152.751 198.102 153.042 200.264C153.548 204.022 150.334 208.159 149.193 209.457C148.169 210.623 146.664 211.341 145.744 212.58C145.118 213.413 144.888 214.698 145.593 215.563C146.372 216.533 147.813 216.118 148.825 215.765C150.127 215.297 151.328 214.6 152.367 213.71C154.765 211.705 156.427 208.98 157.832 206.272C158.574 204.84 159.298 203.34 159.46 201.726C159.575 200.18 159.224 198.635 158.448 197.278C157.001 194.573 144.425 183.307 140.607 175.579C140.855 175.229 141.092 174.87 141.315 174.506C143.312 171.241 144.722 167.56 146.099 164.02C146.776 162.258 147.421 160.479 148.034 158.682C148.396 158.112 148.776 157.555 149.184 157.015C150.69 155.013 152.53 153.545 154.621 152.152C155.519 151.588 156.356 150.94 157.121 150.215C157.906 149.39 158.517 148.425 158.921 147.374C159.256 146.487 159.65 145.621 160.098 144.782C161.449 144.5 162.781 144.135 164.085 143.691C165.849 143.114 167.71 142.863 169.571 142.95C172.288 143.101 174.897 143.442 177.421 142.211C177.568 142.14 177.74 142.048 177.86 141.983C177.977 141.918 178.092 141.851 178.207 141.784L178.212 141.781C179.901 140.766 181.232 139.279 182.027 137.517L182.028 137.513C182.071 137.417 182.113 137.32 182.153 137.22C182.521 136.322 182.797 135.29 182.61 134.346C182.41 133.347 181.625 132.718 180.69 132.345C180.435 132.244 180.178 132.149 179.914 132.063C177.903 131.396 175.704 131.123 173.664 130.58C171.254 129.94 168.939 129.809 167.645 127.686C166.762 126.242 165.014 123.261 162.432 122.461C159.022 121.405 151.748 121.521 148.172 123.448C145.854 124.697 142.294 127.555 140.543 129.507C139.62 130.533 138.838 131.675 137.89 132.683C136.783 133.849 135.395 134.731 133.848 135.251C132.401 135.767 130.892 136.114 129.454 136.657C129.104 136.79 128.758 136.932 128.418 137.087L127.872 137.155C122.984 137.813 118.141 139.005 113.171 139.082C108.108 139.16 68.4726 134.916 63.7439 135.212L62.6031 135.287C57.2643 134.394 54.3697 134.155 48.355 134.155C42.3403 135.212 39.5024 138.952 37.0741 143.895C35.0997 147.915 32.3662 159.898 31.7997 162.184C30.3109 168.19 25.0078 182.987 27.0127 182.987Z" fill="#1C1C1C"/>
<path d="M106.486 137.019C104.587 137.019 83.1694 133.489 83.1694 137.019C83.1694 137.019 82.2035 142.163 82.2035 144.165C82.2035 146.168 83.1694 145.777 84.2084 146.168C85.2474 146.559 99.8825 148.17 99.8825 148.17C99.2292 156.178 99.2292 163.987 99.2292 171.063C99.1776 173.51 99.3967 175.956 99.8825 178.358C100.24 180.082 100.867 181.744 101.744 183.284C101.886 183.574 102.1 183.825 102.368 184.014C102.636 184.203 102.948 184.324 103.277 184.367C104.274 184.484 105.244 184.757 106.151 185.176C106.18 185.19 106.213 185.195 106.246 185.19C106.278 185.184 106.308 185.169 106.331 185.147C106.354 185.124 106.37 185.095 106.375 185.063C106.38 185.032 106.374 185 106.359 184.972C104.413 180.658 103.562 175.958 103.878 171.262L106.486 152.174C106.486 152.174 118.717 161.718 127.893 165.013C130.226 165.851 131.519 166.457 133.964 166.861C135.809 167.166 138.742 167.169 138.742 167.169C138.908 167.173 139.074 167.157 139.235 167.122C140.536 166.855 141.836 166.556 143.115 166.2C144.27 165.922 145.39 165.524 146.457 165.013C147.445 164.489 147.785 163.682 148.147 162.694C148.582 161.508 149.168 160.212 149.34 158.961C149.435 158.323 149.257 157.858 148.515 157.926C148.322 157.944 147.416 158.851 144.576 160.182L140.567 162.184C138.794 162.694 134.527 161.838 132.548 160.182L128.653 157.508L118.561 150.002C118.677 149.619 118.791 149.234 118.913 148.851C119.541 146.735 120.383 144.684 121.425 142.728C121.967 141.743 122.607 140.811 123.335 139.946C123.965 139.293 124.654 138.697 125.396 138.166L126.249 137.912C126.55 137.862 126.843 137.773 127.12 137.648C127.454 137.372 127.12 136.98 126.813 136.835C126.429 136.7 126.019 136.646 125.611 136.678L123.63 136.627C120.888 136.556 116.669 137.09 113.927 137.019C108.444 136.877 109.196 137.019 106.486 137.019Z" fill="#F9B34A"/>
<path d="M83.1082 91.5627L74.1265 98.308L77.4645 102.822L86.4463 96.0766L83.1082 91.5627Z" fill="#C4C4C4"/>
<path d="M126.488 137.544L84.1105 93.2684L81.6203 95.3078L122.478 137.544L126.488 137.544Z" fill="#C4C4C4"/>
<path d="M118.968 142.012L74.1261 98.3099L71.6359 100.349L116.463 143.552L118.968 142.012Z" fill="#C4C4C4"/>
<path d="M83.5066 95.1112C83.156 94.7948 82.8059 94.4509 82.4178 94.1522C81.9893 93.8223 81.5144 93.5476 80.9415 93.4261C80.183 93.2822 79.4401 93.3455 78.6942 93.2533C78.2832 92.956 77.8549 92.6803 77.4487 92.3524C66.724 84.3605 63.6659 80.1249 56.3959 69.0466C52.3928 62.9416 53.9802 62.9063 48.7036 55.9384C47.6281 55.0873 46.5357 54.5829 45.4429 54.4866C45.3025 54.4743 45.1565 54.4868 45.0131 54.5236C44.8697 54.5603 44.7317 54.6206 44.6072 54.7008C44.4828 54.781 44.3743 54.8796 44.2879 54.991C44.2014 55.1024 44.1389 55.2243 44.1037 55.3498C41.0766 66.2523 44.7409 72.5858 46.9487 75.6723C50.1891 80.2017 64.8288 91.7362 69.4684 93.9163C70.9241 94.762 72.3882 95.6066 73.8606 96.45C73.9779 96.5396 74.0878 96.6361 74.1895 96.7391C75.0026 97.6297 75.004 98.8833 75.7575 99.799C76.2374 100.352 76.7824 100.858 77.3853 101.309C78.1144 102.356 78.9893 103.206 80.0461 103.374C81.7071 103.63 85.229 101.384 86.1369 100.047C87.6039 97.9259 84.8052 96.2891 83.5066 95.1112Z" fill="#D95F5F"/>
</svg>
