<svg xmlns="http://www.w3.org/2000/svg" width="96" height="96" viewBox="0 0 96 96">
  <g id="Group_of_people" data-name="Group of people" transform="translate(7.667 14)">
    <rect id="Rectangle_1" data-name="Rectangle 1" width="96" height="96" transform="translate(-7.667 -14)" fill="#fff"/>
    <path id="Path_1" data-name="Path 1" d="M74.036,58.121c-.107,1.195.02,4.124-.033,5.327-.022.5-.109,1.5.452,1.658.435.118.6-.45.68-.867.226-1.175.8-6.376.876-7.589C76.024,56.422,74.058,57.888,74.036,58.121Z" fill="#d95f5f"/>
    <path id="Path_2" data-name="Path 2" d="M75.647,64.481a.465.465,0,0,1-.284-.41c-.011-.073.027-.353-.022-.4s-.025-.033-.12-.049c-.322-.055-.869-.088-1.075-.1-.091,0-.109,0-.142.182,0,.011-.073.668-.095,1.016-.025.412.024.532.383.632.867.246,1.894.439,2.794.634a.155.155,0,0,0,.182-.126c.159-.57.117-.535-.346-.76C76.65,64.983,75.872,64.585,75.647,64.481Z" fill="#1c1c1c"/>
    <path id="Path_3" data-name="Path 3" d="M65.479,56.893C64.83,57.9,63.593,60.56,62.99,61.6c-.253.437-.791,1.275-.364,1.678.332.306.74-.122,1-.455.745-.938,3.658-5.283,4.281-6.329A5.829,5.829,0,0,0,65.479,56.893Z" fill="#d95f5f"/>
    <path id="Path_4" data-name="Path 4" d="M63.972,63.278a.467.467,0,0,1-.064-.5c.024-.069.182-.3.164-.364s0-.042-.084-.1a10.076,10.076,0,0,0-.911-.583c-.078-.047-.1-.046-.213.1,0,.011-.364.559-.547.86-.213.353-.224.481.047.729.656.618,1.479,1.264,2.186,1.853a.155.155,0,0,0,.211-.033c.4-.432.35-.421.044-.834C64.63,64.187,64.125,63.475,63.972,63.278Z" fill="#1c1c1c"/>
    <path id="Path_5" data-name="Path 5" d="M63.859,58.872a24.532,24.532,0,0,0,1.61-8.291c.047-2.186.118-8.854.827-10.93.321-.938.807,1.479,1.821,1.173a3.369,3.369,0,0,1,2.55.787,8.906,8.906,0,0,1,3.481.1.383.383,0,0,1,.65.25c1,6.294,3.255,12.464,1.871,18.913a.45.45,0,0,1-.421.364c-.858-.117-1.7-.26-2.55-.441a.492.492,0,0,1-.321-.472,24.391,24.391,0,0,0-1.947-8.2c-.191-.444-.386-.876-.576-1.308-.876,3.684-1.984,7.247-4.281,10.236a.4.4,0,0,1-.519.1c-.718-.546-1.41-1.106-2.093-1.7a.547.547,0,0,1-.1-.59Z" fill="#58c5af"/>
    <path id="Path_6" data-name="Path 6" d="M71.084,27.114c-.011-.075-.02-.147-.035-.22a.147.147,0,0,0-.056-.093.182.182,0,0,0-.282-.133c.011-.14.016-.281.029-.421a.193.193,0,0,0-.377-.049v.071a.2.2,0,0,0-.341.062v-.093a.193.193,0,0,0-.384,0v.035a.2.2,0,0,0-.2.182.776.776,0,0,1-.011.158.181.181,0,0,0-.12.049.2.2,0,0,0-.324.142q-.06,1.137-.118,2.275c-.018.364-.2,1-.016,1.333a.509.509,0,0,0,.375.191V30.8a.191.191,0,1,0,.382,0v-.108h.011v.335a.182.182,0,0,0,.266.171.2.2,0,0,0,.266.049.192.192,0,0,0,.31,0,.193.193,0,0,0,.364-.066v-.115a.193.193,0,0,0,.222-.036l.257.056c.109.025.255-.056.24-.182a22.146,22.146,0,0,1-.084-3.775C71.477,26.894,71.12,26.89,71.084,27.114Z" fill="#d95f5f"/>
    <path id="Path_7" data-name="Path 7" d="M59.1,33.811a1.359,1.359,0,0,0,.393.246,1.061,1.061,0,0,1,.506.364c.086.118.147.26.226.384.454.72.895,1.5,1.792.962a.213.213,0,0,0,.042-.328.16.16,0,0,0,.033-.224c-.162-.253-.324-.51-.508-.75a4.217,4.217,0,0,1-.364-.507,2.115,2.115,0,0,1-.182-.84,1.245,1.245,0,0,0-.413-.869.909.909,0,0,0-.973-.2,2.121,2.121,0,0,0-.738.874.847.847,0,0,0,.186.887Z" fill="#d95f5f"/>
    <path id="Path_8" data-name="Path 8" d="M78.836,47.535a1.323,1.323,0,0,0-.3-.353,1.06,1.06,0,0,1-.364-.5c-.042-.138-.058-.292-.093-.434-.208-.827-.382-1.709-1.4-1.474a.213.213,0,0,0-.142.3.16.16,0,0,0-.1.2c.075.291.149.585.248.871a4.279,4.279,0,0,1,.193.6,1.98,1.98,0,0,1-.1.853,1.252,1.252,0,0,0,.122.956.922.922,0,0,0,.862.494,2.151,2.151,0,0,0,.975-.6.849.849,0,0,0,.1-.9Z" fill="#d95f5f"/>
    <path id="Path_9" data-name="Path 9" d="M69.75,21.9a2.529,2.529,0,0,1,.5-.2,1.67,1.67,0,0,0,1.463.834h.321a1.621,1.621,0,0,0,.435-.064,3.436,3.436,0,0,1,.729,1.705c.022.166.044.6.058.778a9.291,9.291,0,0,1,.492,1.157c.091.364-.264.444-.546.526a5.826,5.826,0,0,1-.2,1.312c-.33.729-.98.747-1.88.789a2.668,2.668,0,0,1-3.084-2.456A3.6,3.6,0,0,1,69.75,21.9Z" fill="#d95f5f"/>
    <path id="Path_10" data-name="Path 10" d="M59.961,35.816c.92,2.135,2.763,3.826,5.151,3.536a40.364,40.364,0,0,0,.182,4.43c.084.6.073.654.623.838a7.122,7.122,0,0,0,1.414.209,34.436,34.436,0,0,0,5.989,0,18.718,18.718,0,0,0,2.255-.308c.113.412.233.823.364,1.233a.253.253,0,0,0,.3.171c.63-.115,1.61-.035,1.935-.634.182-.344-.108-.638.011-1.015.109-.341.512-.858.488-1.228a15.523,15.523,0,0,0-1.935-5.512c-.834-2.133-1.834-4.645-3.516-6.321-.219-.778-.627-1.822-1.364-2a2.867,2.867,0,0,0-1.916.474l-.133-.015c-.348-.328-.714-.638-1.093-.938a2.221,2.221,0,0,0-1.142-.65c-.86-.053-1.592.976-2.027,1.585-.465.65-1.04,1.549-.27,2.2a2.847,2.847,0,0,0,.652.381q-.208.417-.406.84a10.578,10.578,0,0,1-.778,1.486,1.6,1.6,0,0,1-1.913.765,3.558,3.558,0,0,1-.891-1.049.244.244,0,0,0-.333-.087,18.194,18.194,0,0,0-1.623,1.319.255.255,0,0,0-.026.3Z" fill="#f9b34a"/>
    <path id="Path_11" data-name="Path 11" d="M66.391,25.617a5.02,5.02,0,0,1,.823,1.027A2.357,2.357,0,0,0,68.7,27.89a.271.271,0,0,0,.259.082,1.378,1.378,0,0,0,.785-.752c.364-.771-.049-1.188.585-1.956.213-.261.339-.253.388-.632.067-.5-.279-.674.364-1.168a2.381,2.381,0,0,1,1.457-.3.217.217,0,0,0,.182-.087.587.587,0,0,0,.547-.8c-.086-.279-.255-.364-.483-.516a12.381,12.381,0,0,0-1.2-.765,1.6,1.6,0,0,0-1.093-.1c-.525.129-.729.364-1.275.353a1.519,1.519,0,0,0-1.654.862c-.219.468,0,.25-.452.567a3.327,3.327,0,0,0-.771.7A1.688,1.688,0,0,0,66.391,25.617Z" fill="#1c1c1c"/>
    <path id="Path_12" data-name="Path 12" d="M60.538,31.829a1.663,1.663,0,0,1,.39.707c.169.441.612,1.16.124,1.545a1.774,1.774,0,0,1-1.556.195,1.247,1.247,0,0,1-.442-.775c-.05-.277.009-.44-.044-.633A3.3,3.3,0,0,1,59.055,32a.973.973,0,0,0-.044-.109c-.234-.374-.225-1.018-.456-1.391l1.348.678c.057.127.122.244.182.364C60.232,31.646,60.393,31.71,60.538,31.829Z" fill="#d95f5f"/>
    <path id="Path_13" data-name="Path 13" d="M59.055,28a31.867,31.867,0,0,1,1,3.5s-.855.543-1,.5a9.274,9.274,0,0,1-.95-1.281c-.78-1.057-3.113-5.188-3.4-6.695-.526-2.769-.612-6.221.956-8.682a.255.255,0,0,1,.261-.113.253.253,0,0,1,.093.037,11.455,11.455,0,0,0-1.093-2.472c-.162-.266.248-.536.41-.266,1.639,2.74,1.707,7.345,2.186,10.427C58.055,25,59.055,28,59.055,28Z"/>
    <path id="Path_14" data-name="Path 14" d="M49.88,53.707c-.084,1.609.661,7.418.654,9.036,0,.676-.069,2.022.692,2.2.59.137.78-.636.865-1.2.242-1.589.506-8.163.546-9.788C52.636,53.638,49.895,53.4,49.88,53.707Z"/>
    <path id="Path_15" data-name="Path 15" d="M52.793,64.04a.626.626,0,0,1-.4-.536c-.018-.1.018-.474-.051-.532s-.035-.044-.164-.062c-.433-.056-1.169-.071-1.446-.075-.122,0-.148.014-.182.262,0,.015-.062.9-.073,1.368-.013.547.06.712.547.829,1.175.282,2.565.488,3.782.7a.206.206,0,0,0,.224-.182c.182-.772.127-.729-.5-1C54.165,64.661,53.1,64.167,52.793,64.04Z" fill="#58c5af"/>
    <path id="Path_16" data-name="Path 16" d="M40.528,52.8c-.451,1.546-1.239,7.093-1.62,8.664-.159.659-.532,1.953.168,2.3.543.269.8-.489,1.117-.966.762-1.166,3.6-8.485,3.36-11.382C43.527,51.109,40.615,52.5,40.528,52.8Z"/>
    <path id="Path_17" data-name="Path 17" d="M40.806,63.249a.627.627,0,0,1-.27-.614c.006-.1.128-.457.074-.529s-.017-.054-.145-.1c-.41-.156-1.121-.339-1.39-.407-.118-.03-.146-.021-.236.214,0,.014-.266.861-.386,1.315-.139.536-.1.705.341.932,1.078.545,2.382,1.067,3.518,1.556a.208.208,0,0,0,.26-.122c.35-.708.292-.676-.259-1.091C42,64.168,41.077,63.444,40.806,63.249Z" fill="#58c5af"/>
    <path id="Path_18" data-name="Path 18" d="M54.9,6.376a15.638,15.638,0,0,0-.688-1.782c-.015-.222-.033-.443-.056-.654C53.93,1.949,52.332-.215,49.964,1a4.589,4.589,0,0,0-2.255,5.554,3.4,3.4,0,0,0,3.886,3.192c1.148-.035,1.976-.035,2.412-.969A7.4,7.4,0,0,0,54.281,7.1C54.653,7,55.008,6.831,54.9,6.376Z" fill="#d95f5f"/>
    <path id="Path_19" data-name="Path 19" d="M51.531,7.653c0-.095-.011-.182-.02-.284a.2.2,0,0,0-.062-.122.231.231,0,0,0-.346-.2c.029-.182.051-.364.082-.53a.246.246,0,0,0-.475-.1.109.109,0,0,1-.013.062V6.5a.251.251,0,0,0-.441.042V6.425a.246.246,0,0,0-.488-.042.354.354,0,0,1,0,.044.257.257,0,0,0-.273.211c-.013.067-.018.133-.029.2a.224.224,0,0,0-.158.049c-.124-.122-.6-.457-.636-.23a27.718,27.718,0,0,0-.346,4.946.653.653,0,0,0,.455.286c0,.082-.015.164-.02.246a.246.246,0,0,0,.488.042.854.854,0,0,1,.018-.135h.013a4.281,4.281,0,0,1-.029.428.24.24,0,0,0,.319.246.251.251,0,0,0,.333.089.345.345,0,0,1,.494.156.246.246,0,0,0,.379-.172.961.961,0,0,1,.016-.146.246.246,0,0,0,.286-.024l.319.1a.246.246,0,0,0,.214-.025.244.244,0,0,0,.077-.079.246.246,0,0,0,.035-.1,28.1,28.1,0,0,1,.3-4.806C52.05,7.414,51.6,7.367,51.531,7.653Z" fill="#d95f5f"/>
    <path id="Path_20" data-name="Path 20" d="M55.132,12.417a4.766,4.766,0,0,0-1.6-.878,1.512,1.512,0,0,1-1.306.7,31.19,31.19,0,0,1-4.9,0,1.407,1.407,0,0,1-1.058-.949c-1.762.328-3.328,1.184-3.614,3.128-.056.386.816,1,.891,1.843.266,2.969.31,8.056.428,9.655,0,.1-.577.3-.47.275a18.24,18.24,0,0,1,5.175-.086,20.714,20.714,0,0,0,4.2.377.612.612,0,0,0,.547-.273c.426-.523,2.6-9.145,2.683-10.586A3.626,3.626,0,0,0,55.132,12.417Z" fill="#58c5af"/>
    <path id="Path_21" data-name="Path 21" d="M48.694,23.487A.236.236,0,0,0,48.7,23.4c-.086-.889-1.2-.847-1.889-1a40.27,40.27,0,0,1-4.771-1.414,28.638,28.638,0,0,1,2.283-5.254c.2-.364.488-.794.765-1.239a1.8,1.8,0,0,1-1.166-1.15,4.1,4.1,0,0,1-.182-1.006c-2.71,1.988-3.8,5.742-4.563,8.844-.124.5-.406,1.567-.1,2.06.348.563,1.479.5,2.013.546a50.8,50.8,0,0,0,7.481-.1C48.771,23.675,48.74,23.626,48.694,23.487Z"/>
    <path id="Path_22" data-name="Path 22" d="M55.394,34.658a11.309,11.309,0,0,1,.7,3.37c.008.9-.065,1.743-.137,2.577-.031.36-.062.717-.085,1.075a8.367,8.367,0,0,1,.222,1.782c0,.555-.02,1.093-.055,1.621q.033.158.073.318a8.011,8.011,0,0,1,.241,4.308,5.471,5.471,0,0,1-.353.84q.048.263.112.532a8.542,8.542,0,0,1,.241,4.452,5.824,5.824,0,0,1-.358.878,4.82,4.82,0,0,0-.4,1.065,4.541,4.541,0,0,0,.01,1.081,4.529,4.529,0,0,1-.025,1.433c-.017.061-.032.128-.048.2a1.187,1.187,0,0,1-.257.611c-.81.737-8.194-.761-10.336-1.2a32.9,32.9,0,0,0-5.185-.534c-.892-.044-1.8-.088-2.743-.173-.211-.019-.334-.272-.365-.458a13.549,13.549,0,0,1,.68-5.448L37,52.96c-.211-.018-.334-.263-.365-.443a13.132,13.132,0,0,1,.726-5.439c.22-.795.437-1.575.576-2.329.132-.716.2-1.437.263-2.155a12,12,0,0,1,.85-4.055,13.377,13.377,0,0,1,.863-1.512,12.619,12.619,0,0,0,.906-1.607,11.316,11.316,0,0,0,.738-4.17c.011-.224.022-.449.035-.675a9.291,9.291,0,0,1,2.628-5.544,13.818,13.818,0,0,1,2.85.243c1.31.165,2.824.355,3.977.423a1.857,1.857,0,0,0,1.1-.363c.426-.258.747-.452,1.129.217.778,1.356,1.2,4.545,1.432,6.255.016.12.031.233.045.337A14.917,14.917,0,0,0,55.394,34.658Z" fill="#58c5af" fill-rule="evenodd"/>
    <path id="Path_23" data-name="Path 23" d="M45.989,14.311A8.851,8.851,0,0,0,46,11.617c-.022-.142-.182-.182-.3-.171a4.469,4.469,0,0,0-2.162.911.364.364,0,0,0-.211.333q.246,3.075.49,6.15c.026.312.515.315.49,0q-.1-1.31-.21-2.616a.233.233,0,0,0,.23,0,.606.606,0,0,0,.182-.217.248.248,0,0,0,.169.022c.182-.051.219-.135.3-.3v-.009a.182.182,0,0,0,.206-.093.184.184,0,0,0,.02-.078,9.575,9.575,0,0,0,.086-1.275.242.242,0,0,0,.182-.222.709.709,0,0,1,.013-.164c0,.142.009.284.009.428,0,.264.435.346.481.066a.164.164,0,0,1,.009-.066Z" fill="#58c5af"/>
    <path id="Path_24" data-name="Path 24" d="M53.751,2.035A2.967,2.967,0,0,0,50.91.636a6,6,0,0,0-2.55,1.122c-2,1.683-1.821,4.408-1.251,6.7A1.313,1.313,0,0,0,48.055,9.5a1.176,1.176,0,0,0,1.5-.5c.23-.6.068-.394.2-1.023a5.319,5.319,0,0,1,.457-1.5,4.279,4.279,0,0,1,1.157-1.12c.328-.286.364-.107.565-.6.413-1.044.342-2,1.727-2.244C53.871,2.472,53.89,2.153,53.751,2.035Z" fill="#301824"/>
    <path id="Path_25" data-name="Path 25" d="M48.421,22.31a1.571,1.571,0,0,1,.8.067c.457.109,1.306.133,1.359.761.027.39-.317,1.268-.7,1.4A1.294,1.294,0,0,1,49,24.405a3.278,3.278,0,0,1-.583-.138c-.306-.108-.514-.375-.827-.472a.842.842,0,0,0-.117-.026l.085-1.269.378.029C48.1,22.463,48.239,22.367,48.421,22.31Z" fill="#d95f5f"/>
    <path id="Path_26" data-name="Path 26" d="M49.055,5c1.888-.987,4-2,5-2.5s-1-2.5-3-2.5c-2.221,0-4.473.394-5,2.5-.5,2,.1,3.169.89,5.5C46.788,7.177,47.167,5.987,49.055,5Z"/>
    <path id="Path_27" data-name="Path 27" d="M52.555,9.5c-.5-.5-1.5-2.5,0-6.5a31.966,31.966,0,0,0-4,0c-.5,0-3-.5-2.5,2.5.2,1.184,1.5,3,1,5-.667.333-1.5,0-2,1-.556.5.479,2.2,3.444,2.5,2.549.257,6.5,0,7-1.5C55,11,52.058,11.5,52.555,9.5Z"/>
    <path id="Path_28" data-name="Path 28" d="M14.974,11.611c-.089-.3-.572-.215-.483.087a42.1,42.1,0,0,1,1.191,18.753c-.051.31.437.353.486.044A42.448,42.448,0,0,0,14.974,11.611Z" fill="#9e4d4d"/>
    <path id="Path_29" data-name="Path 29" d="M20.368,35.521a1.545,1.545,0,0,0-.077-.815c-.09-.171-.22-.3-.316-.458-.015-.3-.034-.6-.07-.893a2.483,2.483,0,0,0-.124-.793c-.167-.329-.68-.23-.98-.134-.039-.263-.465-.231-.424.035l.23,1.52a.728.728,0,0,1-.005.122c-.042.328-.281.576-.335.9a3.224,3.224,0,0,0-.035.605,1.265,1.265,0,0,0,.021.908,1.944,1.944,0,0,0,1.574.492C20.476,36.852,20.344,36,20.368,35.521Z" fill="#794343"/>
    <path id="Path_30" data-name="Path 30" d="M15.606,58.983v.51q-.062-.546-.133-1.093a.191.191,0,0,0-.272-.165.19.19,0,0,0-.06.044.191.191,0,0,0-.05.138c-.009.226-.011.454-.016.679a.43.43,0,0,0-.016-.056,1.6,1.6,0,0,0-.02-.16.195.195,0,0,0-.3-.162c0-.124-.013-.246-.02-.364a8.662,8.662,0,0,0-1.093-2.294c.086,1.609.82,5.465.98,7.083.067.674.142,2.018.911,2.115.6.075.709-.714.729-1.275a38.06,38.06,0,0,0-.249-4.919C15.97,58.726,15.613,58.668,15.606,58.983Z" fill="#794343"/>
    <path id="Path_31" data-name="Path 31" d="M16.976,64.184a.625.625,0,0,1-.457-.49c-.029-.095-.031-.474-.106-.525s-.04-.04-.169-.044c-.437-.011-1.169.051-1.446.075-.122.011-.144.029-.151.28,0,.013.031.9.069,1.368.045.547.133.7.63.767,1.2.159,2.6.219,3.825.3a.208.208,0,0,0,.206-.2c.1-.787.051-.729-.607-.942C18.406,64.657,17.293,64.279,16.976,64.184Z" fill="#1c1c1c"/>
    <path id="Path_32" data-name="Path 32" d="M4.724,57.185c-.087.146-.171.293-.259.439.144-.341.286-.681.426-1.026a.194.194,0,0,0-.342-.182c-.118.193-.231.39-.348.585a.366.366,0,0,0,.015-.056c.02-.051.04-.1.062-.151A.2.2,0,0,0,4.1,56.5c.056-.111.111-.222.166-.333a8.951,8.951,0,0,0,.182-2.532c-.718,1.443-1.978,5.17-2.63,6.651-.273.619-.867,1.822-.239,2.292.486.364.967-.273,1.275-.754a38.338,38.338,0,0,0,2.2-4.414C5.172,57.139,4.89,56.917,4.724,57.185Z" fill="#794343"/>
    <path id="Path_33" data-name="Path 33" d="M3.365,62.382a.629.629,0,0,1-.158-.652c.022-.095.206-.428.166-.508s-.015-.055-.126-.122c-.375-.224-1.044-.53-1.3-.645-.111-.049-.14-.046-.27.169,0,.014-.414.8-.612,1.226-.231.5-.228.678.171.978.965.729,2.159,1.468,3.19,2.15a.208.208,0,0,0,.277-.075c.475-.636.4-.612-.064-1.118C4.376,63.5,3.6,62.624,3.365,62.382Z" fill="#1c1c1c"/>
    <path id="Path_34" data-name="Path 34" d="M19.761,7.292a16.164,16.164,0,0,0-.244-1.907c.027-.222.053-.441.069-.652.166-2-1.157-4.49-3.707-3.756A4.572,4.572,0,0,0,12.6,5.99a3.406,3.406,0,0,0,3.2,3.882c1.133.182,1.946.348,2.55-.485A7.456,7.456,0,0,0,18.939,7.8C19.311,7.775,19.779,7.76,19.761,7.292Z" fill="#794343"/>
    <path id="Path_35" data-name="Path 35" d="M16.305,7.83V7.544a.193.193,0,0,0-.053-.126.23.23,0,0,0-.332-.222c.04-.182.075-.352.115-.525a.246.246,0,0,0-.466-.135.2.2,0,0,1-.016.062.177.177,0,0,0,0,.029.251.251,0,0,0-.443.013.536.536,0,0,1,.009-.12.246.246,0,0,0-.485-.073v.044a.259.259,0,0,0-.288.193c-.016.066-.027.131-.042.2a.228.228,0,0,0-.162.038.255.255,0,0,0-.435.118q-.293,1.423-.581,2.845c-.093.448-.444,1.228-.275,1.68a.652.652,0,0,0,.437.313c-.011.082-.026.164-.036.246a.246.246,0,0,0,.485.073c.009-.044.016-.087.025-.133h.015c-.018.142-.035.284-.058.426a.24.24,0,0,0,.3.266.25.25,0,0,0,.326.111.244.244,0,0,0,.392.053.246.246,0,0,0,.481-.013.658.658,0,0,1,.026-.144.244.244,0,0,0,.286,0l.313.12a.246.246,0,0,0,.213-.009.246.246,0,0,0,.125-.173A28.281,28.281,0,0,1,16.8,7.924C16.843,7.626,16.393,7.549,16.305,7.83Z" fill="#794343"/>
    <path id="Path_36" data-name="Path 36" d="M16.724,60.768c-.35-4.1-.4-8.178-.386-12.287a24.334,24.334,0,0,0-1.692-8c-1.093-3.3-2.171-6.615-3.279-9.91-.867-2.563-2.625-2.519-5.179-2.645.08-.4.182-.794.284-1.186.171-.6-.745-.951-.911-.346A16.111,16.111,0,0,0,5.31,34.61c.738,3.06,2.944,5.429,3.239,8.562A5.2,5.2,0,0,0,9.5,46.244c.437.546,1.093.927,1.5,1.5.852,1.21.547,2.611.53,3.928a25.752,25.752,0,0,0,1.862,9.712.474.474,0,0,0,.4.279,9.2,9.2,0,0,0,2.55-.331.508.508,0,0,0,.386-.565Z" fill="#f9b34a"/>
    <path id="Path_37" data-name="Path 37" d="M4.318,59.879c2.089-3.545,4.406-6.9,6.8-10.243a24.359,24.359,0,0,0,3.251-7.5c1.02-3.328,2.06-6.649,3.06-9.983.776-2.592-.681-3.572-2.69-5.155.3-.277.6-.546.911-.8.488-.393-.057-1.208-.547-.812a16.081,16.081,0,0,0-4.962,6.558C8.972,34.856,9.4,38.072,7.822,40.8a5.2,5.2,0,0,0-1,3.055c.038.7.352,1.388.348,2.091,0,1.483-1.067,2.443-1.842,3.51a25.721,25.721,0,0,0-4.1,9,.477.477,0,0,0,.162.459,9.251,9.251,0,0,0,2.273,1.206.506.506,0,0,0,.659-.239Z" fill="#f9b34a"/>
    <path id="Path_38" data-name="Path 38" d="M20.265,16.638c.151-1.884-.789-2.966-2.186-4.19a10.9,10.9,0,0,0-1.209-.911,2.71,2.71,0,0,1-.709.242,4.575,4.575,0,0,1-.986.06,9.606,9.606,0,0,1-1.02-.124A2.164,2.164,0,0,1,12.467,10.6c-2.226.831-4.372,1.481-6.179,3.1A19.364,19.364,0,0,0,2.11,19.469,26.251,26.251,0,0,0,.456,23.037a1.651,1.651,0,0,0,.308,1.771,3.675,3.675,0,0,0,2.062.856,19.918,19.918,0,0,0,2.186.239c-.095.752-.182,1.5-.255,2.259a12.713,12.713,0,0,0-.235,3.55.8.8,0,0,0,.57.683,13.561,13.561,0,0,0,3.477.561,39.007,39.007,0,0,0,7.006.317c.665-.035,1.933.1,2.467-.384.441-.4.364-1.3.421-1.822C19.061,26.28,19.878,21.458,20.265,16.638Z" fill="#58c5af"/>
    <path id="Path_39" data-name="Path 39" d="M19.515,2.631c.051-.785-.614-2.915-1.592-2.064A1.7,1.7,0,0,0,16.579.02c-.486.056-.7.364-1.173.364-.942,0-2.25-.259-2.235.929a1.577,1.577,0,0,0-1.663,2.024,18.912,18.912,0,0,0,1.275,4.436,5.518,5.518,0,0,0,.57.933c.122.038.665-.716.911-1.106.264-.432.452-1.06.951-1.35.377-.217.76.035,1.082-.149a1.049,1.049,0,0,0,.515-.594c.527-1.222.822-2.4,2.581-2.312C19.633,3.2,19.51,2.689,19.515,2.631Z" fill="#c4c4c4"/>
    <path id="Path_40" data-name="Path 40" d="M20.324,24.869a18.315,18.315,0,0,0,.38,7.451c.126.388.442,1.2.136,1.3a24.35,24.35,0,0,1-2.782.492.257.257,0,0,1-.249-.165c-2.7-5.661-3.529-14.106,1.627-18.744a.248.248,0,0,1,.25-.051l.372.051C21.058,18.5,20.718,20.881,20.324,24.869Z" fill="#58c5af"/>
    <path id="Path_41" data-name="Path 41" d="M7.869,26.475h.007a2.159,2.159,0,0,1,1.832,1.116,3.815,3.815,0,0,1,.342.706c.035.1.06.176.077.234.008.029.015.052.019.069l.005.021,0,.006v0h0l-.443.1.443-.1a.455.455,0,0,1-.886.21M7.878,27.385a1.135,1.135,0,0,0-.956.555l-.011.017a2.168,2.168,0,0,0-.355,1.215V65.545a.455.455,0,1,1-.911,0V29.181a3.079,3.079,0,0,1,.5-1.714,2.045,2.045,0,0,1,1.724-.992" fill="#442232" fill-rule="evenodd"/>
    <path id="Path_42" data-name="Path 42" d="M8.309,27.981c.39-.035.683-.639.827-.934.5-1.005-2.026-1.581-2.237-1.563l-.062-.02a5.647,5.647,0,0,1-1.384-.526.246.246,0,0,0-.364.115c-.093.386-.293.521-.02.843a3.29,3.29,0,0,0,1.253.6,2.552,2.552,0,0,0,.029.572A5.508,5.508,0,0,0,8.309,27.981Z" fill="#794343"/>
    <path id="Path_43" data-name="Path 43" d="M3.593,26.956a2.369,2.369,0,0,0,1.215.364,1.263,1.263,0,0,0,.41-.024c.559-.148.924-1,1.153-1.468.3-.614.415-.956-.042-1.477-.259-.293-.532-.577-.816-.856a.191.191,0,0,0-.091-.169c-.071-.044-.146-.086-.22-.126-.758-.729-1.557-1.415-2.284-2.146-.22-.221-.6.084-.381.308q.681.683,1.373,1.359a3.531,3.531,0,0,0-3,.5c-1.25,1.006,1.21,2.882,2.015,3.35l.262.148a1.657,1.657,0,0,0,.4.239ZM1.379,23.928c.231-1.182,2.064-.911,3.179-.481a14.666,14.666,0,0,1-1.7-.095.259.259,0,0,0-.224.4H2.614a.246.246,0,0,0-.058.486c.23.04.457.073.687.1q-.546,0-1.093.055c-.131,0-.262.009-.4.018a.181.181,0,0,0-.111.044h-.06a.233.233,0,0,0-.142.069,1.093,1.093,0,0,1-.062-.6Z" fill="#58c5af"/>
    <path id="Path_44" data-name="Path 44" d="M32.209,10.331c.055-.1-.114-.217-.259-.244a4.593,4.593,0,0,0-3.729.84c-1.519,1.187-1.316,3.246-2.666,4.557A13.107,13.107,0,0,0,23.9,17.121a6.512,6.512,0,0,0-.787,2.346c-.269,1.073-1.14,1.7-1.623,2.661a4.766,4.766,0,0,0-.485,2.393.187.187,0,0,0,.057.132.2.2,0,0,0,.137.055,26.032,26.032,0,0,1,3.978.2A3.51,3.51,0,0,0,27.2,24.8,4.836,4.836,0,0,0,28.8,23.2a16.25,16.25,0,0,0,1.591-2.726A46.464,46.464,0,0,0,32.5,14.9C32.977,13.4,33.447,11.572,32.209,10.331Z"/>
    <path id="Path_45" data-name="Path 45" d="M30.617,10.138a2.988,2.988,0,0,1,.585-.231,1.949,1.949,0,0,0,.3.388,2.044,2.044,0,0,0,1.4.583h.364a1.938,1.938,0,0,0,.506-.075,4,4,0,0,1,.851,1.978c.026.193.051.7.067.911a10.485,10.485,0,0,1,.572,1.344c.106.413-.308.516-.636.61A6.807,6.807,0,0,1,34.4,17.17c-.384.856-1.139.867-2.186.911a3.1,3.1,0,0,1-3.583-2.853A4.189,4.189,0,0,1,30.617,10.138Z" fill="#d95f5f"/>
    <path id="Path_46" data-name="Path 46" d="M29.7,15.847c-.045.88-.4,5.35-.191,5.735a12.575,12.575,0,0,0,3.153.568,46.98,46.98,0,0,1-.06-5.928C32.621,15.935,29.715,15.629,29.7,15.847Z" fill="#d95f5f"/>
    <path id="Path_47" data-name="Path 47" d="M33.3,50.126A17.145,17.145,0,0,1,36.881,56.7c.53,2.388,1.069,4.844,1.439,7.261.02.133-.364.239-.235.262l1.171.229c.2.038.317-.166.308-.332a112.94,112.94,0,0,0-.78-11.644,35.783,35.783,0,0,0-3.516-9.593.285.285,0,0,0-.517.239c.159.332.317.661.474.993-1.423.27-3.159,1.148-3.711,2.6C31.027,48.016,32.606,49.226,33.3,50.126Z" fill="#d95f5f"/>
    <path id="Path_48" data-name="Path 48" d="M40.018,64.328a.547.547,0,0,1-.394-.426c-.024-.082-.026-.41-.089-.454s-.033-.036-.146-.04c-.379-.011-1.013.038-1.251.058-.106,0-.126.024-.133.241,0,.013.024.78.053,1.186.036.477.113.607.546.667,1.035.144,2.25.2,3.315.284a.182.182,0,0,0,.182-.182c.093-.681.047-.634-.519-.82C41.251,64.75,40.293,64.411,40.018,64.328Z" fill="#f9b34a"/>
    <path id="Path_49" data-name="Path 49" d="M25.813,48.322a17.116,17.116,0,0,1-1.357,7.365c-1.093,2.186-2.221,4.436-3.461,6.547-.067.115-.426-.04-.346.056l.765.911a.288.288,0,0,0,.448-.064A114.178,114.178,0,0,0,28.59,53.6a35.812,35.812,0,0,0,3.31-9.666.282.282,0,0,0-.546-.14c-.08.357-.171.712-.259,1.069a4.943,4.943,0,0,0-4.523-.313C25.378,45.258,25.844,47.189,25.813,48.322Z" fill="#d95f5f"/>
    <path id="Path_50" data-name="Path 50" d="M22.09,63.588a.536.536,0,0,1-.037-.579c.031-.078.239-.333.217-.408s0-.049-.089-.122c-.286-.248-.811-.608-1.009-.743-.087-.06-.113-.06-.255.1,0,.013-.472.621-.705.954-.271.394-.3.547,0,.858.714.763,1.619,1.574,2.4,2.31a.182.182,0,0,0,.246-.024c.5-.47.437-.461.113-.962C22.784,64.69,22.252,63.827,22.09,63.588Z" fill="#f9b34a"/>
    <path id="Path_51" data-name="Path 51" d="M23.965,52.747c.613.421,1.57.628,3.484.667,1.174.118,1.409-.027,2.587.053,2.441.166,6.054-.929,9.3-1.793,1.595-.025-.85-7.926-2.282-11.674-.955-2.5-1.894-4.6-3.286-8.219a.468.468,0,0,1,.028-.1c.26-.967,1.073-2.242,1.017-3.252a21.4,21.4,0,0,0-.644-5.794A5.933,5.933,0,0,0,31.942,20c-2.133-.443-3.621-.255-4.687,1.153a3.522,3.522,0,0,0-.334.546,6.237,6.237,0,0,0-.828,3.054c-.1,1.288-.139,2.588-.149,3.879a14.984,14.984,0,0,0,.037,2.924,22.839,22.839,0,0,0-2.438,9.174C23.488,41.754,22.922,52.025,23.965,52.747Z" fill="#f9b34a"/>
    <path id="Path_52" data-name="Path 52" d="M34,11a2.722,2.722,0,0,0-1-1,6,6,0,0,0-2-.5A3.975,3.975,0,0,0,28,11a6.78,6.78,0,0,0-1,6c.109.395,1.507.843,2,1,.561.179,1.041-1.618,1.185-1.96a8.7,8.7,0,0,0,.372-1.428A1.153,1.153,0,0,1,31,14c.43-.385.639-.218,1-.5.277-.218.427-.334.5-.5.349-.8.182-1.373,1.35-1.556C34.026,11.413,34.117,11.09,34,11Z"/>
    <path id="Path_53" data-name="Path 53" d="M26.736,55.2c.5,0,2.509-4.053,2.823-5.2s.5-2,.5-2l.5-1v1a9.817,9.817,0,0,1-.378,2.677,13.424,13.424,0,0,0-1.016,1.92,7.193,7.193,0,0,1-1.234,1.931,8.779,8.779,0,0,0-1.577,1.889,11.023,11.023,0,0,0-.394,1.111c-.1.287-1.014,2.966-1.559,4.618a1.546,1.546,0,0,1-.294.222c-.2.116-.454.162-.6.37a1.764,1.764,0,0,0-.229.741c-.018.134-.055.343.139.356a1.372,1.372,0,0,0,.364-.064,2.918,2.918,0,0,0,.479-.148,1.46,1.46,0,0,0,.594-.429,4.021,4.021,0,0,0,.391-.883.044.044,0,0,1,0-.009c.087-.238,1.359-3.813,1.489-4.06a4.163,4.163,0,0,1,.643-.968,5.467,5.467,0,0,1,1.866-1.031A20,20,0,0,0,31.31,55.2,35.691,35.691,0,0,0,34.8,52.653a12.808,12.808,0,0,0,.438,1.629,6.2,6.2,0,0,1,.336,2.188,7.257,7.257,0,0,0,.016,2.334,10.261,10.261,0,0,0,.459,1.092c.166.374,2.131,4.9,2.506,5.642a1.024,1.024,0,0,0,.487.505.984.984,0,0,0,.192.09,1.52,1.52,0,0,0,.417.059c.166.009.327.035.492.055.116.013.365.05.393-.1a1.04,1.04,0,0,0-.174-.629,1.382,1.382,0,0,0-.535-.365,1.624,1.624,0,0,1-.551-.605c-.108-.179-.21-.362-.311-.545-.627-1.356-1.685-3.68-1.75-3.939a3.563,3.563,0,0,1-.148-1.111,4.265,4.265,0,0,1,.841-1.8A15.412,15.412,0,0,0,38.9,55.23a10.827,10.827,0,0,0,.776-2.659c.085.029.17.06.253.094a17.83,17.83,0,0,1,2.114,1.469,11.947,11.947,0,0,0,2.7.731c.623.2,1.182.533,1.78.772-.054.113-.1.226-.153.34a3,3,0,0,0-.117,1.578c.148,1.2-.863,5.724-1.076,6.826a4.447,4.447,0,0,0-.095,1.486.911.911,0,0,0,.612.826.6.6,0,0,0,.715-.3c.148-.42-.355-.785-.444-1.167a2.664,2.664,0,0,1,.431-1.645c.212-.449,1.264-3.313,1.588-4.29a28.726,28.726,0,0,1,1.372-3.555c.309-.075.613-.167.91-.268.813-.277,1.6-.6,2.419-.841l.356.578a9.655,9.655,0,0,0,1.008,1.531,3.418,3.418,0,0,0,1.462.75c.729.261,2.579,1.48,2.652,2.02a3.421,3.421,0,0,1-.96,2.3c-.255.291-.631.47-.86.78a.621.621,0,0,0-.038.745c.194.242.554.139.806.05A2.83,2.83,0,0,0,58,62.868a5.886,5.886,0,0,0,1.363-1.858,3.234,3.234,0,0,0,.406-1.135,1.948,1.948,0,0,0-.252-1.111c-.361-.675-3.5-3.489-4.449-5.419q.093-.131.177-.268a16.359,16.359,0,0,0,1.193-2.619q.253-.66.483-1.333c.09-.142.185-.282.287-.416a5.284,5.284,0,0,1,1.356-1.215,3.974,3.974,0,0,0,.623-.484,2.144,2.144,0,0,0,.449-.709,5.526,5.526,0,0,1,.294-.647,8.4,8.4,0,0,0,.994-.272,3.825,3.825,0,0,1,1.368-.185,3.768,3.768,0,0,0,1.958-.184c.037-.018.079-.041.109-.057l.087-.05h0a2.4,2.4,0,0,0,.951-1.065h0c.011-.024.021-.048.031-.073a1.3,1.3,0,0,0,.114-.718.709.709,0,0,0-.479-.5c-.063-.025-.128-.049-.193-.07-.5-.167-1.05-.235-1.559-.37-.6-.16-1.179-.193-1.5-.723-.22-.361-.656-1.1-1.3-1.3a5.857,5.857,0,0,0-3.556.247,8.778,8.778,0,0,0-1.9,1.513c-.23.256-.425.541-.661.793a2.475,2.475,0,0,1-1.008.641c-.361.129-.737.216-1.1.351-.087.033-.174.069-.258.107l-.136.017a31.1,31.1,0,0,1-3.666.481c-1.263.019-11.147-1.04-12.326-.966l-.285.019A18.007,18.007,0,0,0,32.058,43a3.743,3.743,0,0,0-2.813,2.433A34.423,34.423,0,0,0,27.93,50C27.558,51.5,26.236,55.2,26.736,55.2Z" fill="#1c1c1c"/>
    <path id="Path_54" data-name="Path 54" d="M46.556,43.715c-.473,0-5.815-.882-5.815,0A15.491,15.491,0,0,0,40.5,45.5c0,.5.241.4.5.5s3.909.5,3.909.5c-.163,2-.163,3.95-.163,5.717a8.314,8.314,0,0,0,.163,1.822,4.219,4.219,0,0,0,.464,1.23.483.483,0,0,0,.156.182.5.5,0,0,0,.227.088,2.366,2.366,0,0,1,.717.2.04.04,0,0,0,.024,0,.04.04,0,0,0,.021-.011.037.037,0,0,0,.011-.021.036.036,0,0,0,0-.023,7.162,7.162,0,0,1-.619-3.424l.65-4.767a25.2,25.2,0,0,0,5.339,3.207,7.488,7.488,0,0,0,1.514.461,9.408,9.408,0,0,0,1.191.077.52.52,0,0,0,.123-.012c.324-.067.648-.141.967-.23a4.212,4.212,0,0,0,.834-.3.917.917,0,0,0,.421-.579,4.74,4.74,0,0,0,.3-.932c.024-.159-.021-.276-.206-.258a7.439,7.439,0,0,1-.982.563l-1,.5a2.849,2.849,0,0,1-2-.5l-.971-.668-2.517-1.875c.029-.1.057-.192.088-.287a8.249,8.249,0,0,1,.626-1.529,4.3,4.3,0,0,1,.477-.695A3.719,3.719,0,0,1,51.272,44l.213-.064a.863.863,0,0,0,.217-.066c.083-.069,0-.167-.076-.2a.73.73,0,0,0-.3-.039l-.494-.013c-.684-.018-1.736.115-2.42.1C47.044,43.68,47.232,43.715,46.556,43.715Z" fill="#f9b34a"/>
    <path id="Path_55" data-name="Path 55" d="M40.726,32.363l-2.24,1.685.832,1.127,2.24-1.685Z" fill="#c4c4c4"/>
    <path id="Path_56" data-name="Path 56" d="M51.544,43.847,40.976,32.789l-.621.509,10.19,10.548Z"/>
    <path id="Path_57" data-name="Path 57" d="M49.669,44.962,38.486,34.048l-.621.509L49.044,45.347Z"/>
    <path id="Path_58" data-name="Path 58" d="M40.825,33.249c-.087-.079-.175-.165-.272-.239a.909.909,0,0,0-.368-.181c-.189-.036-.375-.02-.561-.043-.1-.074-.209-.143-.311-.225a17.933,17.933,0,0,1-5.25-5.82c-1-1.525-.6-1.534-1.918-3.274a1.546,1.546,0,0,0-.813-.362.319.319,0,0,0-.107.009.347.347,0,0,0-.1.044.322.322,0,0,0-.08.073.263.263,0,0,0-.046.09,5.564,5.564,0,0,0,.709,5.075,25.932,25.932,0,0,0,5.616,4.556q.545.317,1.1.633a.8.8,0,0,1,.082.072c.2.222.2.535.391.764a2.6,2.6,0,0,0,.406.377,1.091,1.091,0,0,0,.664.516,2.357,2.357,0,0,0,1.519-.831C41.847,33.952,41.149,33.543,40.825,33.249Z" fill="#d95f5f"/>
  </g>
</svg>
