<svg width="161" height="248" viewBox="0 0 161 248" fill="none" xmlns="http://www.w3.org/2000/svg">
<path d="M142.792 216.292C142.391 220.739 142.866 231.64 142.669 236.115C142.588 237.993 142.262 241.714 144.353 242.284C145.975 242.725 146.586 240.609 146.885 239.057C147.727 234.684 149.879 215.33 150.15 210.815C150.198 209.967 142.873 215.425 142.792 216.292Z" fill="#D95F5F"/>
<path d="M148.79 239.959C148.487 239.831 148.226 239.62 148.039 239.35C147.851 239.08 147.744 238.762 147.731 238.433C147.691 238.162 147.833 237.118 147.65 236.949C147.466 236.779 147.555 236.826 147.202 236.765C146 236.562 143.964 236.44 143.196 236.399C142.857 236.399 142.789 236.399 142.667 237.077C142.667 237.118 142.396 239.565 142.314 240.86C142.219 242.392 142.402 242.84 143.74 243.213C146.971 244.128 150.8 244.846 154.153 245.572C154.229 245.586 154.306 245.586 154.381 245.57C154.457 245.554 154.528 245.524 154.591 245.48C154.654 245.437 154.708 245.381 154.749 245.316C154.791 245.252 154.819 245.18 154.832 245.104C155.423 242.982 155.266 243.111 153.542 242.277C152.531 241.83 149.632 240.345 148.79 239.959Z" fill="#1C1C1C"/>
<path d="M110.897 211.723C108.481 215.479 103.871 225.37 101.624 229.254C100.681 230.881 98.6782 234 100.267 235.498C101.502 236.637 103.023 235.044 104 233.803C106.777 230.312 117.632 214.143 119.953 210.252C120.388 209.527 111.366 210.991 110.897 211.723Z" fill="#D95F5F"/>
<path d="M105.285 235.485C105.074 235.231 104.94 234.924 104.898 234.597C104.856 234.271 104.908 233.939 105.047 233.641C105.136 233.383 105.726 232.522 105.658 232.285C105.59 232.048 105.658 232.129 105.346 231.912C104.382 231.173 102.631 230.129 101.952 229.743C101.66 229.566 101.579 229.573 101.158 230.122C101.158 230.163 99.8 232.203 99.1212 233.322C98.3269 234.637 98.286 235.112 99.2975 236.034C101.741 238.332 104.81 240.739 107.444 242.928C107.565 243.013 107.715 243.048 107.862 243.025C108.009 243.002 108.141 242.924 108.231 242.806C109.738 241.2 109.535 241.24 108.394 239.701C107.736 238.867 105.855 236.217 105.285 235.485Z" fill="#1C1C1C"/>
<path d="M104.863 219.086C108.634 209.225 110.665 198.786 110.864 188.233C111.04 180.098 111.305 155.286 113.946 147.557C115.141 144.066 116.953 153.062 120.734 151.923C123.558 151.076 127.081 152.757 130.238 154.852C134.311 153.679 139.891 154.73 143.211 155.238C144.073 154.56 145.404 154.71 145.634 156.167C149.361 179.59 157.765 202.551 152.606 226.549C152.535 226.918 152.342 227.253 152.057 227.499C151.773 227.745 151.414 227.888 151.038 227.905C147.841 227.471 144.691 226.936 141.534 226.265C141.177 226.132 140.87 225.892 140.656 225.577C140.442 225.263 140.331 224.889 140.339 224.509C139.711 213.997 137.255 203.674 133.082 194.002C132.37 192.348 131.643 190.741 130.937 189.135C127.672 202.842 123.545 216.103 114.985 227.227C114.763 227.513 114.445 227.71 114.089 227.781C113.734 227.852 113.365 227.792 113.05 227.614C110.375 225.58 107.795 223.499 105.25 221.282C104.978 220.993 104.797 220.632 104.728 220.241C104.659 219.851 104.706 219.449 104.863 219.086Z" fill="#58C5AF"/>
<path d="M131.786 100.903C131.745 100.625 131.711 100.354 131.656 100.083C131.633 99.945 131.558 99.8213 131.446 99.737C131.434 99.6207 131.392 99.5095 131.325 99.4142C131.257 99.3188 131.166 99.2425 131.06 99.1927C130.954 99.1429 130.837 99.1213 130.72 99.1299C130.604 99.1386 130.491 99.1773 130.394 99.2421C130.435 98.7201 130.455 98.1981 130.503 97.6761C130.495 97.5075 130.428 97.3468 130.313 97.2225C130.199 97.0982 130.045 97.0181 129.877 96.9963C129.709 96.9744 129.539 97.0123 129.397 97.1031C129.254 97.194 129.148 97.332 129.097 97.4931C129.097 97.5541 129.097 97.6151 129.097 97.6761C129.097 97.6761 129.097 97.7304 129.097 97.7575C129.015 97.6544 128.906 97.5755 128.782 97.5292C128.658 97.4829 128.524 97.471 128.394 97.4946C128.264 97.5182 128.142 97.5766 128.043 97.6634C127.943 97.7503 127.869 97.8624 127.828 97.988C127.828 97.8727 127.828 97.7575 127.828 97.6423C127.811 97.4646 127.728 97.2997 127.595 97.1797C127.463 97.0598 127.291 96.9933 127.112 96.9933C126.933 96.9933 126.761 97.0598 126.628 97.1797C126.496 97.2997 126.413 97.4646 126.395 97.6423V97.7711C126.21 97.7735 126.032 97.8439 125.896 97.969C125.759 98.094 125.674 98.2649 125.656 98.449C125.656 98.6456 125.656 98.8422 125.615 99.0388C125.448 99.0427 125.289 99.1079 125.167 99.2218C125.061 99.1377 124.933 99.0841 124.799 99.0668C124.664 99.0494 124.528 99.069 124.403 99.1233C124.279 99.1777 124.172 99.2647 124.094 99.3753C124.015 99.4858 123.969 99.6155 123.959 99.7506C123.809 102.571 123.662 105.393 123.517 108.218C123.449 109.574 122.771 111.946 123.456 113.18C123.625 113.392 123.837 113.565 124.078 113.688C124.319 113.81 124.584 113.88 124.854 113.892C124.854 114.136 124.854 114.38 124.854 114.618C124.854 114.806 124.93 114.987 125.063 115.121C125.197 115.254 125.378 115.329 125.567 115.329C125.757 115.329 125.938 115.254 126.071 115.121C126.205 114.987 126.28 114.806 126.28 114.618V114.218H126.321C126.321 114.631 126.321 115.051 126.321 115.465C126.315 115.584 126.34 115.703 126.394 115.81C126.449 115.916 126.531 116.006 126.631 116.071C126.732 116.135 126.848 116.172 126.968 116.178C127.087 116.183 127.206 116.157 127.312 116.102C127.421 116.255 127.586 116.359 127.771 116.393C127.956 116.427 128.146 116.389 128.303 116.285C128.369 116.376 128.456 116.45 128.556 116.501C128.657 116.553 128.768 116.579 128.88 116.579C128.993 116.579 129.104 116.553 129.204 116.501C129.304 116.45 129.391 116.376 129.457 116.285C129.527 116.423 129.64 116.536 129.778 116.605C129.917 116.674 130.075 116.696 130.227 116.669C130.38 116.641 130.519 116.566 130.625 116.452C130.731 116.339 130.798 116.195 130.815 116.041C130.815 115.899 130.815 115.756 130.815 115.614C130.95 115.681 131.102 115.704 131.251 115.679C131.399 115.655 131.536 115.585 131.643 115.478L132.6 115.689C133.007 115.784 133.55 115.478 133.496 115.011C132.992 110.346 132.887 105.647 133.184 100.964C133.252 100.083 131.922 100.069 131.786 100.903Z" fill="#D95F5F"/>
<path d="M87.1387 125.823C87.5714 126.21 88.0673 126.519 88.6049 126.738C89.3856 127.152 89.8947 127.24 90.4921 128.094C90.8112 128.535 91.042 129.064 91.3339 129.525C93.0242 132.202 94.6671 135.118 98.0138 133.104C98.114 133.042 98.199 132.958 98.2627 132.859C98.3264 132.76 98.3672 132.648 98.3822 132.531C98.3972 132.414 98.386 132.295 98.3492 132.184C98.3125 132.072 98.2512 131.969 98.1699 131.884C98.2967 131.789 98.3808 131.648 98.4037 131.492C98.4267 131.336 98.3864 131.177 98.292 131.05C97.6879 130.108 97.0838 129.152 96.3982 128.257C95.8998 127.663 95.446 127.033 95.0405 126.372C94.4431 125.288 94.5314 124.427 94.3617 123.247C94.3327 122.633 94.1814 122.031 93.9168 121.475C93.6523 120.92 93.2797 120.423 92.8207 120.013C91.8703 119.207 90.3564 118.624 89.1956 119.268C87.9979 120.08 87.0468 121.206 86.4462 122.522C86.2367 123.081 86.1906 123.688 86.3132 124.273C86.4357 124.857 86.722 125.395 87.1387 125.823Z" fill="#D95F5F"/>
<path d="M160.679 176.898C160.39 176.399 160.015 175.953 159.572 175.583C158.961 174.939 158.506 174.702 158.215 173.712C158.058 173.197 157.997 172.627 157.868 172.099C157.095 169.021 156.443 165.74 152.635 166.614C152.52 166.642 152.413 166.695 152.321 166.77C152.229 166.844 152.156 166.938 152.105 167.044C152.054 167.151 152.028 167.267 152.028 167.385C152.028 167.503 152.054 167.62 152.105 167.726C151.956 167.777 151.833 167.885 151.763 168.026C151.693 168.167 151.682 168.329 151.732 168.479C152.01 169.563 152.288 170.655 152.655 171.719C152.948 172.439 153.189 173.18 153.374 173.936C153.598 175.156 153.245 175.97 153.008 177.109C152.844 177.702 152.8 178.323 152.878 178.934C152.956 179.545 153.155 180.134 153.463 180.668C154.141 181.725 155.37 182.749 156.674 182.505C158.065 182.099 159.32 181.323 160.305 180.261C160.68 179.793 160.915 179.229 160.981 178.634C161.047 178.038 160.942 177.437 160.679 176.898Z" fill="#D95F5F"/>
<path d="M126.817 81.5079C127.415 81.1926 128.045 80.9426 128.697 80.7622C128.963 81.2144 129.282 81.6332 129.647 82.0096C130.854 83.1816 132.465 83.8465 134.148 83.8671H135.343C135.892 83.862 136.438 83.7822 136.966 83.6298C138.436 85.4564 139.375 87.6516 139.681 89.9753C139.762 90.5922 139.844 92.2192 139.898 92.87C140.577 94.5919 141.256 95.3919 141.731 97.1748C142.071 98.5307 140.747 98.8289 139.695 99.134C139.471 100.598 139.538 102.734 138.961 104.015C137.733 106.727 135.309 106.795 131.956 106.951C124.556 107.296 121.406 103.324 120.463 97.8121C118.494 91.8734 120.456 84.8908 126.817 81.5079Z" fill="#D95F5F"/>
<path d="M90.3356 133.288C93.7638 141.233 100.634 147.524 109.533 146.446C109.676 151.951 109.465 157.476 110.212 162.933C110.524 165.164 110.484 165.367 112.534 166.052C114.224 166.615 116.105 166.628 117.802 166.832C125.222 167.74 132.689 167.218 140.122 166.832C142.944 166.62 145.751 166.238 148.526 165.686C148.947 167.218 149.395 168.75 149.884 170.275C149.955 170.504 150.11 170.696 150.318 170.815C150.526 170.933 150.771 170.968 151.004 170.913C153.353 170.486 157.005 170.784 158.213 168.553C158.892 167.272 157.813 166.181 158.254 164.777C158.661 163.51 160.162 161.584 160.073 160.208C159.612 153.178 156.048 146.162 152.864 139.694C149.755 131.756 146.028 122.407 139.762 116.17C138.948 113.275 137.427 109.391 134.678 108.713C132.58 108.198 129.79 109.167 127.536 110.476L127.041 110.421C125.744 109.201 124.38 108.049 122.968 106.93C121.719 105.94 120.395 104.611 118.711 104.51C115.507 104.313 112.778 108.143 111.156 110.408C109.425 112.828 107.28 116.17 110.151 118.583C110.895 119.161 111.712 119.638 112.581 120C112.065 121.035 111.561 122.077 111.068 123.126C110.249 125.043 109.28 126.893 108.169 128.657C106.777 131.227 104.394 132.169 101.041 131.505C99.6906 130.431 98.5631 129.105 97.7215 127.6C97.5997 127.393 97.4005 127.242 97.1676 127.181C96.9348 127.12 96.6872 127.154 96.4792 127.274C94.3704 128.793 92.3509 130.432 90.4307 132.183C90.3009 132.334 90.2217 132.522 90.2047 132.72C90.1876 132.918 90.2334 133.117 90.3356 133.288Z" fill="#F9B34A"/>
<path d="M114.3 95.3303C115.486 96.4648 116.518 97.7503 117.368 99.1538C118.868 101.621 120.036 102.882 122.894 103.791C123.014 103.922 123.166 104.019 123.335 104.072C123.504 104.126 123.685 104.134 123.858 104.096C125.134 103.798 126.227 102.442 126.784 101.296C128.141 98.4284 126.6 96.8759 128.963 94.0151C129.757 93.0457 130.225 93.0728 130.409 91.6627C130.66 89.7848 129.37 89.1544 131.766 87.3172C133.226 86.1986 135.5 86.1579 137.197 86.1986C137.328 86.2035 137.459 86.1764 137.577 86.1197C137.695 86.063 137.798 85.9784 137.876 85.8732C139.356 85.6969 140.435 84.6258 139.913 82.9039C139.593 81.8666 138.962 81.548 138.114 80.9854C136.674 79.9508 135.176 79.0001 133.627 78.1381C132.355 77.5402 130.912 77.4105 129.554 77.772C127.598 78.2533 126.838 79.1278 124.802 79.0871C121.903 79.0261 119.887 79.6363 118.638 82.2938C117.823 84.036 118.638 83.2225 116.954 84.4021C115.866 85.1162 114.896 85.9969 114.082 87.0121C112.229 89.6153 111.951 92.9304 114.3 95.3303Z" fill="#1C1C1C"/>
<path d="M92.4884 118.447C93.2623 119.105 93.5813 120.149 93.9411 121.078C94.5724 122.718 96.222 125.396 94.4027 126.827C93.269 127.735 89.8136 128.46 88.6053 127.552C87.8382 126.969 87.1897 125.955 86.9589 124.667C86.7743 123.637 86.9916 123.031 86.796 122.312C86.6678 121.078 86.796 120.437 86.9589 119.085C86.9129 118.946 86.8585 118.81 86.796 118.678C85.9226 117.286 85.9556 114.89 85.0957 113.503L90.1193 116.027C90.3297 116.502 90.5741 116.936 90.7981 117.383C91.348 117.769 91.9454 118.007 92.4884 118.447Z" fill="#D95F5F"/>
<path d="M86.9594 104.199C86.9594 104.199 90.6858 115.364 90.6858 117.224C90.6858 117.224 87.5006 119.244 86.9594 119.085C86.4181 118.926 83.4194 114.319 83.4194 114.319C80.5139 110.387 71.818 95.0114 70.7522 89.4049C68.7903 79.1005 68.4713 66.2538 74.3161 57.095C74.3837 56.9897 74.4714 56.8987 74.5742 56.8274C74.677 56.7561 74.7929 56.7057 74.9153 56.6792C75.0376 56.6528 75.1642 56.6507 75.2873 56.6732C75.4105 56.6957 75.528 56.7423 75.6331 56.8102C74.6437 53.5939 73.2765 50.506 71.56 47.6108C70.9558 46.621 72.4832 45.6177 73.0874 46.621C79.197 56.817 79.4482 73.955 81.2335 85.4255C83.2329 93.0352 86.9594 104.199 86.9594 104.199Z" fill="black"/>
<path d="M52.7686 199.866C52.4564 205.852 55.2328 227.471 55.2056 233.491C55.2056 236.006 54.9477 241.016 57.7852 241.667C59.9847 242.175 60.6907 239.301 61.0098 237.206C61.9126 231.295 62.897 206.828 63.0463 200.781C63.0395 199.608 52.8229 198.707 52.7686 199.866Z" fill="black"/>
<path d="M63.624 238.318C63.2095 238.163 62.8476 237.893 62.5807 237.54C62.3139 237.187 62.1532 236.766 62.117 236.325C62.0491 235.966 62.1849 234.563 61.9269 234.346C61.669 234.129 61.7979 234.183 61.3159 234.115C59.7002 233.905 56.9577 233.851 55.9259 233.837C55.4711 233.837 55.376 233.892 55.2471 234.814C55.2471 234.868 55.0163 238.163 54.9756 239.905C54.9281 241.939 55.1996 242.556 57.0121 242.989C61.3907 244.04 66.5702 244.806 71.1049 245.599C71.3053 245.618 71.5051 245.558 71.6613 245.431C71.8175 245.304 71.9176 245.121 71.9399 244.922C72.6187 242.047 72.415 242.21 70.0662 241.2C68.7357 240.63 64.7713 238.793 63.624 238.318Z" fill="#58C5AF"/>
<path d="M17.9154 196.491C16.2327 202.243 13.2975 222.886 11.8794 228.732C11.2858 231.186 9.89829 235.999 12.5042 237.291C14.5268 238.291 15.4895 235.472 16.6663 233.696C19.5057 229.357 30.0703 202.119 29.1873 191.339C29.0908 190.196 18.2394 195.374 17.9154 196.491Z" fill="black"/>
<path d="M18.9515 235.373C18.5844 235.126 18.2952 234.78 18.1174 234.376C17.9396 233.971 17.8805 233.524 17.9471 233.088C17.9683 232.726 18.4227 231.389 18.2234 231.118C18.024 230.846 18.1602 230.917 17.682 230.755C16.1546 230.175 13.5062 229.493 12.5014 229.24C12.061 229.13 11.9573 229.162 11.6204 230.036C11.6367 230.088 10.6296 233.239 10.18 234.93C9.66282 236.926 9.78951 237.554 11.4498 238.397C15.4687 240.425 20.3286 242.367 24.5593 244.187C24.748 244.25 24.9539 244.238 25.1341 244.154C25.3142 244.069 25.4548 243.919 25.5268 243.734C26.8321 241.099 26.6132 241.218 24.5612 239.673C23.3954 238.796 19.9632 236.1 18.9515 235.373Z" fill="#58C5AF"/>
<path d="M71.4707 23.7276C70.9208 21.443 69.7398 19.3143 68.9048 17.0975C68.8505 16.2704 68.7826 15.4501 68.6943 14.6637C67.8593 7.25396 61.9059 -0.799788 53.0809 3.70842C44.9348 7.90479 42.2668 16.7721 44.6767 24.3784C45.7629 31.4288 49.707 36.581 59.1565 36.2556C63.4332 36.1268 66.522 36.1268 68.1444 32.6491C68.9047 31.0288 68.8572 28.3036 69.1695 26.4393C70.5543 26.0596 71.878 25.4224 71.4707 23.7276Z" fill="#D95F5F"/>
<path d="M58.9192 28.48C58.9192 28.1275 58.8786 27.8021 58.8446 27.4224C58.8246 27.2483 58.7427 27.0872 58.6138 26.9682C58.6135 26.8176 58.5736 26.6697 58.4981 26.5392C58.4226 26.4088 58.3142 26.3004 58.1837 26.225C58.0531 26.1495 57.905 26.1095 57.7541 26.1091C57.6033 26.1087 57.455 26.1478 57.324 26.2225C57.4327 25.5446 57.5141 24.8667 57.6295 24.2497C57.6448 24.0305 57.5806 23.8131 57.4487 23.6372C57.3167 23.4614 57.1258 23.3388 56.9109 23.2919C56.6959 23.245 56.4711 23.277 56.2778 23.3819C56.0844 23.4868 55.9352 23.6577 55.8576 23.8633C55.8576 23.9379 55.8577 24.0192 55.8102 24.0938V24.1955C55.7163 24.0549 55.586 23.9422 55.4332 23.8696C55.2803 23.797 55.1106 23.7672 54.9421 23.7832C54.7736 23.7992 54.6126 23.8604 54.4762 23.9605C54.3398 24.0605 54.233 24.1956 54.1673 24.3514C54.1673 24.209 54.1673 24.0599 54.1673 23.9108C54.167 23.6818 54.0808 23.4612 53.9257 23.2926C53.7705 23.1239 53.5578 23.0195 53.3294 22.9999C53.1009 22.9804 52.8733 23.047 52.6916 23.1868C52.51 23.3266 52.3874 23.5292 52.348 23.7548C52.3514 23.809 52.3514 23.8634 52.348 23.9176C52.1108 23.8988 51.875 23.9689 51.6868 24.1143C51.4985 24.2597 51.3712 24.4699 51.3298 24.7039C51.2823 24.9548 51.262 25.1988 51.2212 25.4496C51.0082 25.4329 50.7967 25.4984 50.6305 25.6327C50.1689 25.1785 48.3768 23.9311 48.2614 24.7785C47.7726 28.3512 46.2249 41.5504 46.9716 43.1842C47.1625 43.4719 47.4125 43.7157 47.7052 43.8992C47.9978 44.0827 48.3264 44.2018 48.6688 44.2486C48.6688 44.5536 48.6144 44.8587 48.594 45.1637C48.5943 45.3927 48.6805 45.6133 48.8356 45.782C48.9908 45.9506 49.2037 46.055 49.4321 46.0746C49.6606 46.0942 49.888 46.0275 50.0697 45.8877C50.2514 45.748 50.3741 45.5453 50.4134 45.3197C50.4134 45.1502 50.4541 44.9875 50.4812 44.818H50.5288C50.5288 45.3468 50.4744 45.8756 50.4201 46.4111C50.4084 46.5594 50.4341 46.7083 50.4945 46.8442C50.5549 46.9802 50.6482 47.0989 50.7661 47.1898C50.884 47.2806 51.0228 47.3407 51.1698 47.3645C51.3169 47.3884 51.4674 47.3752 51.608 47.3263C51.7336 47.5296 51.9323 47.6772 52.1633 47.7389C52.3942 47.8007 52.64 47.7719 52.8504 47.6585C52.9273 47.7797 53.0319 47.8812 53.1553 47.9547C53.2788 48.0282 53.4178 48.0716 53.5612 48.0815C53.7046 48.0914 53.8483 48.0675 53.9807 48.0117C54.1131 47.9559 54.2305 47.8697 54.3234 47.7602C54.3882 47.9568 54.5179 48.1257 54.6912 48.2392C54.8645 48.3528 55.0712 48.4043 55.2776 48.3855C55.484 48.3666 55.6779 48.2784 55.8276 48.1353C55.9774 47.9922 56.0741 47.8026 56.1021 47.5975C56.1021 47.4145 56.1361 47.2314 56.1632 47.0551C56.3278 47.1537 56.5191 47.1983 56.7103 47.1825C56.9015 47.1667 57.0829 47.0913 57.2289 46.9671L58.4169 47.3399C58.5483 47.3858 58.6885 47.4012 58.8267 47.3849C58.965 47.3687 59.0978 47.3212 59.2149 47.246C59.332 47.1709 59.4305 47.0701 59.5028 46.9512C59.5751 46.8324 59.6192 46.6987 59.632 46.5603C59.4877 40.5784 59.858 34.5952 60.7386 28.6766C60.8541 27.5919 59.1772 27.4156 58.9192 28.48Z" fill="#D95F5F"/>
<path d="M72.3407 46.2072C70.5792 44.7432 68.5507 43.6337 66.367 42.9396C65.8484 43.7554 65.1281 44.4241 64.2756 44.8812C63.4231 45.3384 62.467 45.5685 61.4995 45.5496C55.3899 45.6513 49.3211 46.4038 43.2387 45.5496C41.3515 45.2852 39.987 43.7802 39.2945 42.0176C32.7301 43.2378 26.892 46.4241 25.8262 53.6576C25.6157 55.0948 28.8675 57.3862 29.1458 60.5182C30.1369 71.5684 30.2998 90.4961 30.741 96.4483C30.741 96.8076 28.5892 97.5465 28.9897 97.472C35.4048 96.2788 41.813 96.5161 48.2756 97.1533C53.2176 97.6346 58.9743 99.1464 63.9298 98.5566C65.0499 98.4278 65.2875 98.3532 65.9664 97.5397C67.5549 95.5941 75.6671 63.5079 75.9657 58.1455C76.183 53.8067 75.9657 49.1561 72.3407 46.2072Z" fill="#58C5AF"/>
<path d="M48.3499 87.4055C48.3823 87.2979 48.3937 87.1852 48.3837 87.0733C48.0647 83.765 43.9034 83.9209 41.3442 83.3447C35.3149 81.9589 29.3773 80.202 23.5653 78.084C25.7391 71.2993 28.5887 64.7494 32.0712 58.5326C32.8112 57.1767 33.8905 55.5768 34.9223 53.9227C33.9108 53.604 32.9894 53.05 32.2341 52.3063C31.4788 51.5627 30.9111 50.6505 30.5776 49.645C30.196 48.4307 29.9679 47.1736 29.8988 45.9028C19.7976 53.299 15.745 67.2711 12.8938 78.8161C12.4322 80.6669 11.38 84.6463 12.5272 86.4835C13.8238 88.5783 18.0395 88.341 20.0285 88.5173C29.1182 89.3443 38.7985 88.68 47.9086 88.1376C48.6349 88.1037 48.5196 87.9207 48.3499 87.4055Z" fill="black"/>
<path fill-rule="evenodd" clip-rule="evenodd" d="M73.3168 128.975C74.5982 133.008 75.8747 137.026 75.9147 141.517C75.9435 144.85 75.6723 148.004 75.4055 151.108C75.2903 152.447 75.176 153.777 75.0869 155.108C75.5682 157.239 75.8948 159.429 75.9147 161.74C75.932 163.807 75.8412 165.808 75.7081 167.771C75.7906 168.163 75.8805 168.558 75.9786 168.956C77.3121 174.324 78.486 179.545 76.8782 184.987C76.5635 186.057 76.0642 187.085 75.5625 188.113C75.6814 188.767 75.8193 189.427 75.9786 190.094C77.3121 195.641 78.486 201.036 76.8782 206.66C76.5597 207.778 76.0521 208.853 75.5443 209.928C74.9329 211.222 74.3213 212.517 74.039 213.89C73.8385 214.87 73.9544 216.352 74.0766 217.914C74.2265 219.831 74.3858 221.869 73.9815 223.247C73.917 223.472 73.861 223.723 73.8028 223.984C73.619 224.808 73.4128 225.733 72.846 226.259C69.8282 229.002 42.3105 223.427 34.329 221.792C27.6622 220.422 21.4363 220.118 15.006 219.804C11.6825 219.642 8.30432 219.477 4.78245 219.16C3.99769 219.091 3.5384 218.149 3.42355 217.457C2.40149 210.758 4.17123 203.845 5.95854 197.182C5.56823 197.152 5.17624 197.119 4.78245 197.085C3.99769 197.018 3.5384 196.106 3.42355 195.436C2.36875 188.746 4.28744 181.835 6.13022 175.197C6.95143 172.239 7.75757 169.335 8.27876 166.53C8.7709 163.865 9.01554 161.181 9.259 158.51C9.72885 153.356 10.1943 148.25 12.4259 143.42C13.3364 141.449 14.4889 139.621 15.6412 137.794C16.8628 135.856 18.0842 133.919 19.0166 131.812C21.2503 126.76 21.5054 121.607 21.7685 116.294C21.8097 115.461 21.8512 114.624 21.9004 113.783C22.2641 107.577 26.3858 97.7111 31.694 93.1535C32.1334 92.7779 36.7264 93.3552 42.3157 94.0576C47.1977 94.6712 52.8397 95.3803 57.138 95.6334C58.8298 95.7323 60.1229 94.9508 61.226 94.2842C62.8145 93.3243 64.0089 92.6025 65.4322 95.0905C68.3297 100.138 69.918 112.004 70.7698 118.367C70.8295 118.813 70.8857 119.233 70.9384 119.621C71.3825 122.887 72.3511 125.935 73.3168 128.975Z" fill="#58C5AF"/>
<path d="M38.2687 53.2585C38.7992 49.9387 38.8176 46.5573 38.323 43.232C38.2416 42.7032 37.6441 42.554 37.2028 42.5947C34.1209 43.0082 32.2745 43.8692 29.145 45.9843C28.9083 46.0937 28.7081 46.2689 28.5684 46.4889C28.4288 46.7089 28.3555 46.9644 28.3575 47.2249C28.9684 54.8538 29.5772 62.4828 30.1837 70.1117C30.2787 71.271 32.1048 71.2845 32.0097 70.1117C31.7518 66.8622 31.4916 63.6172 31.2291 60.3767C31.3596 60.4504 31.5068 60.4891 31.6567 60.4891C31.8066 60.4891 31.954 60.4504 32.0845 60.3767C32.3713 60.165 32.6039 59.8886 32.7633 59.57C32.9575 59.671 33.1812 59.6998 33.3946 59.6513C34.0735 59.4615 34.2092 59.1497 34.5282 58.5328C34.5282 58.5328 34.5282 58.5327 34.5282 58.4988C34.6265 58.5232 34.729 58.5252 34.8282 58.5048C34.9274 58.4845 35.0208 58.4422 35.1015 58.3811C35.1822 58.32 35.2483 58.2416 35.2947 58.1517C35.3412 58.0618 35.3669 57.9627 35.37 57.8616C35.5822 56.2886 35.6888 54.7033 35.689 53.1161C35.8757 53.0686 36.0424 52.9627 36.1645 52.8139C36.2867 52.6651 36.3579 52.4812 36.3679 52.289C36.3679 52.0857 36.3679 51.8823 36.4154 51.6789C36.4154 52.2077 36.4494 52.7365 36.4494 53.272C36.4494 54.255 38.0718 54.5601 38.2415 53.5161C38.2415 53.4347 38.2415 53.3534 38.2755 53.272L38.2687 53.2585Z" fill="#58C5AF"/>
<path d="M67.1942 7.57256C66.1017 5.79443 64.5271 4.36172 62.6529 3.44029C60.7787 2.51886 58.6815 2.14641 56.6041 2.36609C53.7394 2.61692 48.9332 4.96935 47.1003 6.54214C39.633 12.8062 40.3119 22.9479 42.4367 31.4695C42.9187 33.3948 43.7884 34.5874 45.9675 35.3535C48.4453 36.228 50.919 35.1605 51.5571 33.4928C52.4125 31.2489 51.8114 32.0254 52.307 29.6865C52.7007 27.8493 53.0673 25.7817 54.0109 24.114C55.1174 22.1548 56.7263 21.3209 58.3216 19.9447C59.5436 18.8804 59.6794 19.5447 60.4261 17.7008C61.9671 13.8163 61.7023 10.2436 66.8616 9.34872C67.6422 9.19958 67.7101 8.01321 67.1942 7.57256Z" fill="#301824"/>
<path d="M47.3326 83.0254C48.3237 82.7204 49.3555 83.0593 50.3263 83.2763C52.0302 83.683 55.1936 83.7712 55.3904 86.11C55.4922 87.5608 54.2093 90.8284 52.777 91.33C51.8673 91.6487 50.6793 91.3436 49.4777 90.8216C48.7394 90.7164 48.0123 90.5439 47.3054 90.3064C46.165 89.9064 45.3911 88.9098 44.2235 88.5505C44.0811 88.5085 43.936 88.4768 43.7891 88.4556L44.1058 83.7315L45.5132 83.8389C46.1309 83.5949 46.6538 83.2356 47.3326 83.0254Z" fill="#D95F5F"/>
<path d="M49.6953 18.607C56.7327 14.9336 64.6013 11.1642 68.3277 9.30351C72.0542 7.44281 64.6011 0 57.1484 0C48.8712 0 40.4782 1.46626 38.5161 9.30368C36.6528 16.7463 38.9015 21.0981 41.8338 29.7713C41.2473 26.7102 42.658 22.2804 49.6953 18.607Z" fill="black"/>
<path d="M62.7363 35.3531C60.8852 33.4924 57.1467 26.0495 62.7363 11.1638C62.1153 10.5436 49.3211 11.1638 47.8306 11.1638C45.9673 11.1638 36.6618 9.30323 38.5144 20.4674C39.2455 24.873 44.1152 31.6317 42.2409 39.0744C39.7566 40.3148 36.6512 39.0744 34.788 42.7959C32.7175 44.6566 36.572 50.9852 47.6244 52.0994C57.1231 53.0569 71.8479 52.0994 73.7111 46.5173C71.8479 40.9352 60.8852 42.7959 62.7363 35.3531Z" fill="black"/>
</svg>
