<svg width="170" height="262" viewBox="0 0 170 262" fill="none" xmlns="http://www.w3.org/2000/svg">
<path d="M150.775 228.383C150.352 233.079 150.854 244.589 150.646 249.314C150.56 251.297 150.216 255.227 152.423 255.828C154.136 256.293 154.782 254.06 155.097 252.421C155.986 247.803 158.258 227.367 158.545 222.599C158.595 221.705 150.861 227.467 150.775 228.383Z" fill="#D95F5F"/>
<path d="M157.111 253.372C156.79 253.238 156.515 253.015 156.317 252.73C156.119 252.444 156.006 252.109 155.992 251.762C155.949 251.475 156.1 250.373 155.906 250.194C155.713 250.015 155.806 250.065 155.433 250.001C154.165 249.786 152.014 249.657 151.204 249.614C150.846 249.614 150.774 249.614 150.645 250.33C150.645 250.373 150.358 252.957 150.272 254.324C150.172 255.942 150.366 256.415 151.778 256.808C155.19 257.775 159.232 258.533 162.773 259.299C162.853 259.315 162.935 259.314 163.014 259.298C163.094 259.281 163.169 259.249 163.235 259.203C163.302 259.157 163.359 259.098 163.403 259.03C163.446 258.961 163.476 258.885 163.49 258.805C164.114 256.565 163.949 256.701 162.128 255.82C161.06 255.348 157.999 253.78 157.111 253.372Z" fill="#1C1C1C"/>
<path d="M117.099 223.558C114.547 227.524 109.68 237.968 107.308 242.069C106.311 243.787 104.197 247.08 105.874 248.662C107.179 249.865 108.784 248.182 109.816 246.872C112.748 243.186 124.21 226.114 126.661 222.005C127.12 221.239 117.594 222.785 117.099 223.558Z" fill="#D95F5F"/>
<path d="M111.17 248.647C110.948 248.38 110.806 248.055 110.762 247.71C110.717 247.365 110.772 247.015 110.92 246.7C111.013 246.428 111.636 245.519 111.565 245.269C111.493 245.018 111.565 245.104 111.235 244.875C110.217 244.095 108.368 242.992 107.651 242.584C107.343 242.398 107.257 242.405 106.812 242.985C106.812 243.028 105.379 245.183 104.662 246.364C103.823 247.752 103.78 248.254 104.848 249.227C107.429 251.654 110.669 254.195 113.45 256.507C113.578 256.596 113.737 256.633 113.891 256.609C114.046 256.585 114.186 256.502 114.281 256.378C115.873 254.682 115.658 254.725 114.453 253.1C113.758 252.219 111.772 249.42 111.17 248.647Z" fill="#1C1C1C"/>
<path d="M110.726 231.332C114.708 220.92 116.852 209.898 117.062 198.755C117.248 190.165 117.528 163.966 120.316 155.805C121.578 152.119 123.492 161.618 127.484 160.415C130.466 159.521 134.186 161.296 137.519 163.508C141.82 162.269 147.712 163.379 151.217 163.916C152.127 163.2 153.533 163.357 153.776 164.896C157.712 189.628 166.585 213.873 161.138 239.213C161.063 239.603 160.859 239.956 160.558 240.215C160.258 240.475 159.879 240.626 159.482 240.645C156.106 240.187 152.78 239.621 149.447 238.912C149.07 238.773 148.745 238.519 148.519 238.187C148.293 237.855 148.176 237.46 148.185 237.058C147.522 225.959 144.929 215.059 140.523 204.846C139.77 203.1 139.003 201.403 138.258 199.707C134.81 214.181 130.452 228.182 121.413 239.929C121.179 240.231 120.843 240.438 120.468 240.513C120.093 240.588 119.703 240.526 119.37 240.337C116.546 238.189 113.822 235.992 111.134 233.651C110.847 233.346 110.656 232.964 110.583 232.552C110.511 232.14 110.56 231.716 110.726 231.332Z" fill="#58C5AF"/>
<path d="M139.153 106.543C139.11 106.25 139.074 105.963 139.017 105.677C138.992 105.532 138.913 105.401 138.795 105.312C138.782 105.189 138.738 105.072 138.666 104.971C138.595 104.87 138.499 104.79 138.387 104.737C138.275 104.685 138.152 104.662 138.028 104.671C137.905 104.68 137.786 104.721 137.684 104.789C137.727 104.238 137.748 103.687 137.798 103.136C137.79 102.958 137.719 102.788 137.598 102.657C137.478 102.526 137.315 102.441 137.138 102.418C136.96 102.395 136.781 102.435 136.63 102.531C136.48 102.627 136.368 102.773 136.314 102.943C136.314 103.007 136.314 103.071 136.314 103.136C136.314 103.136 136.314 103.193 136.314 103.222C136.227 103.113 136.112 103.03 135.981 102.981C135.851 102.932 135.709 102.919 135.572 102.944C135.434 102.969 135.306 103.031 135.201 103.122C135.096 103.214 135.017 103.333 134.974 103.465C134.974 103.343 134.974 103.222 134.974 103.1C134.956 102.912 134.868 102.738 134.729 102.612C134.589 102.485 134.407 102.415 134.218 102.415C134.029 102.415 133.847 102.485 133.707 102.612C133.567 102.738 133.48 102.912 133.462 103.1V103.236C133.266 103.239 133.078 103.313 132.934 103.445C132.79 103.577 132.7 103.758 132.68 103.952C132.68 104.16 132.68 104.367 132.637 104.575C132.461 104.579 132.293 104.648 132.164 104.768C132.052 104.679 131.918 104.623 131.776 104.604C131.634 104.586 131.489 104.607 131.358 104.664C131.227 104.721 131.114 104.813 131.031 104.93C130.948 105.047 130.899 105.184 130.888 105.326C130.731 108.304 130.575 111.284 130.423 114.267C130.351 115.699 129.634 118.204 130.358 119.507C130.536 119.73 130.76 119.913 131.015 120.042C131.269 120.172 131.549 120.246 131.834 120.258C131.834 120.516 131.834 120.774 131.834 121.024C131.834 121.224 131.914 121.415 132.055 121.556C132.196 121.697 132.388 121.776 132.587 121.776C132.787 121.776 132.978 121.697 133.119 121.556C133.26 121.415 133.34 121.224 133.34 121.024V120.602H133.383C133.383 121.039 133.383 121.482 133.383 121.919C133.376 122.045 133.403 122.171 133.46 122.283C133.518 122.395 133.604 122.49 133.711 122.559C133.817 122.627 133.939 122.666 134.066 122.672C134.192 122.678 134.317 122.65 134.429 122.592C134.545 122.753 134.719 122.863 134.914 122.899C135.109 122.935 135.31 122.894 135.476 122.785C135.546 122.881 135.637 122.96 135.743 123.013C135.849 123.067 135.966 123.096 136.085 123.096C136.204 123.096 136.321 123.067 136.427 123.013C136.533 122.96 136.625 122.881 136.694 122.785C136.768 122.931 136.887 123.05 137.034 123.123C137.18 123.196 137.346 123.219 137.507 123.19C137.669 123.161 137.816 123.081 137.928 122.962C138.04 122.842 138.11 122.69 138.128 122.527C138.128 122.377 138.128 122.227 138.128 122.077C138.27 122.147 138.431 122.171 138.588 122.145C138.745 122.12 138.89 122.046 139.002 121.933L140.013 122.155C140.443 122.255 141.016 121.933 140.959 121.439C140.427 116.514 140.316 111.552 140.629 106.608C140.701 105.677 139.297 105.663 139.153 106.543Z" fill="#D95F5F"/>
<path d="M92.0108 132.857C92.4677 133.265 92.9914 133.592 93.559 133.823C94.3834 134.26 94.921 134.353 95.5517 135.255C95.8886 135.72 96.1323 136.279 96.4406 136.765C98.2254 139.593 99.9601 142.671 103.494 140.545C103.6 140.479 103.689 140.391 103.757 140.286C103.824 140.181 103.867 140.063 103.883 139.94C103.899 139.816 103.887 139.691 103.848 139.573C103.809 139.455 103.745 139.346 103.659 139.256C103.793 139.157 103.881 139.008 103.906 138.843C103.93 138.678 103.887 138.51 103.788 138.376C103.15 137.381 102.512 136.372 101.788 135.427C101.262 134.8 100.783 134.134 100.354 133.437C99.7236 132.291 99.8168 131.382 99.6376 130.137C99.607 129.488 99.4473 128.852 99.1679 128.266C98.8885 127.68 98.4951 127.155 98.0105 126.722C97.007 125.87 95.4085 125.255 94.1827 125.935C92.9181 126.793 91.9139 127.981 91.2797 129.371C91.0584 129.961 91.0097 130.603 91.1392 131.22C91.2686 131.837 91.5708 132.405 92.0108 132.857Z" fill="#D95F5F"/>
<path d="M169.661 186.786C169.356 186.259 168.961 185.789 168.493 185.398C167.848 184.718 167.367 184.467 167.059 183.422C166.894 182.878 166.83 182.277 166.694 181.718C165.877 178.469 165.188 175.004 161.167 175.927C161.046 175.957 160.933 176.013 160.836 176.091C160.739 176.17 160.662 176.269 160.608 176.382C160.554 176.494 160.526 176.617 160.526 176.742C160.526 176.866 160.554 176.989 160.608 177.101C160.451 177.155 160.321 177.269 160.247 177.418C160.173 177.566 160.161 177.738 160.214 177.896C160.508 179.041 160.802 180.194 161.189 181.318C161.499 182.078 161.753 182.861 161.948 183.658C162.185 184.947 161.812 185.806 161.561 187.008C161.389 187.635 161.342 188.29 161.425 188.935C161.507 189.581 161.717 190.203 162.042 190.766C162.758 191.883 164.056 192.964 165.432 192.706C166.901 192.277 168.227 191.458 169.267 190.337C169.663 189.843 169.91 189.247 169.98 188.619C170.05 187.99 169.939 187.355 169.661 186.786Z" fill="#D95F5F"/>
<path d="M133.908 86.0623C134.54 85.7294 135.205 85.4654 135.894 85.2749C136.174 85.7524 136.511 86.1946 136.897 86.592C138.171 87.8295 139.873 88.5316 141.65 88.5534H142.911C143.491 88.548 144.067 88.4637 144.624 88.3028C146.177 90.2316 147.169 92.5494 147.492 95.003C147.578 95.6544 147.663 97.3723 147.721 98.0595C148.438 99.8777 149.154 100.722 149.656 102.605C150.015 104.037 148.617 104.352 147.506 104.674C147.269 106.22 147.341 108.475 146.732 109.828C145.434 112.691 142.875 112.763 139.334 112.927C131.521 113.292 128.195 109.098 127.199 103.278C125.12 97.0073 127.192 89.6342 133.908 86.0623Z" fill="#D95F5F"/>
<path d="M95.3861 140.738C99.0059 149.127 106.26 155.77 115.657 154.632C115.808 160.444 115.585 166.278 116.374 172.041C116.704 174.396 116.66 174.61 118.825 175.333C120.61 175.927 122.596 175.942 124.388 176.157C132.222 177.116 140.107 176.565 147.956 176.157C150.936 175.934 153.899 175.53 156.83 174.947C157.274 176.565 157.747 178.182 158.263 179.793C158.338 180.034 158.502 180.238 158.722 180.363C158.941 180.487 159.2 180.524 159.446 180.466C161.926 180.015 165.782 180.33 167.058 177.975C167.775 176.622 166.635 175.469 167.101 173.988C167.531 172.649 169.116 170.616 169.022 169.163C168.535 161.74 164.772 154.331 161.41 147.502C158.127 139.12 154.192 129.249 147.576 122.663C146.716 119.607 145.11 115.505 142.207 114.789C139.992 114.245 137.046 115.269 134.666 116.65L134.143 116.593C132.774 115.304 131.333 114.088 129.842 112.906C128.523 111.861 127.126 110.458 125.348 110.351C121.965 110.143 119.083 114.188 117.37 116.579C115.542 119.134 113.277 122.663 116.309 125.211C117.095 125.822 117.957 126.325 118.875 126.708C118.331 127.8 117.798 128.9 117.277 130.007C116.413 132.032 115.39 133.986 114.216 135.849C112.747 138.562 110.231 139.557 106.69 138.855C105.264 137.721 104.073 136.321 103.185 134.732C103.056 134.513 102.846 134.354 102.6 134.289C102.354 134.225 102.093 134.261 101.873 134.388C99.6464 135.992 97.5141 137.722 95.4865 139.571C95.3494 139.73 95.2658 139.929 95.2478 140.138C95.2298 140.347 95.2782 140.557 95.3861 140.738Z" fill="#2B6DB3"/>
<path d="M120.691 100.658C121.943 101.856 123.033 103.214 123.931 104.696C125.515 107.301 126.748 108.633 129.765 109.592C129.892 109.73 130.052 109.833 130.231 109.889C130.41 109.946 130.6 109.954 130.783 109.914C132.131 109.599 133.285 108.167 133.873 106.958C135.306 103.93 133.679 102.291 136.174 99.2698C137.012 98.2461 137.507 98.2748 137.7 96.7859C137.965 94.803 136.604 94.1373 139.134 92.1974C140.675 91.0163 143.076 90.9734 144.868 91.0163C145.007 91.0215 145.144 90.9929 145.269 90.933C145.394 90.8732 145.502 90.7838 145.585 90.6727C147.148 90.4866 148.287 89.3556 147.735 87.5374C147.398 86.4422 146.732 86.1058 145.836 85.5117C144.316 84.4193 142.734 83.4155 141.098 82.5052C139.755 81.8739 138.232 81.737 136.797 82.1187C134.733 82.6269 133.93 83.5503 131.78 83.5073C128.719 83.4429 126.59 84.0872 125.271 86.8932C124.411 88.7329 125.271 87.8739 123.494 89.1194C122.344 89.8734 121.321 90.8034 120.461 91.8753C118.504 94.6241 118.211 98.1244 120.691 100.658Z" fill="#1C1C1C"/>
<path d="M97.6595 125.068C98.4767 125.762 98.8135 126.865 99.1934 127.845C99.86 129.578 101.602 132.405 99.6807 133.916C98.4837 134.875 94.8352 135.641 93.5593 134.682C92.7493 134.066 92.0646 132.996 91.8209 131.635C91.6259 130.548 91.8554 129.907 91.6489 129.149C91.5135 127.845 91.6489 127.169 91.8209 125.741C91.7723 125.595 91.7148 125.451 91.6489 125.312C90.7266 123.842 90.7615 121.312 89.8535 119.847L95.1579 122.513C95.3801 123.014 95.6382 123.472 95.8747 123.944C96.4553 124.352 97.0861 124.603 97.6595 125.068Z" fill="#D95F5F"/>
<path d="M91.8196 110.024C91.8196 110.024 95.7543 121.813 95.7543 123.777C95.7543 123.777 92.3911 125.91 91.8196 125.742C91.2481 125.574 88.0817 120.709 88.0817 120.709C85.0138 116.558 75.8318 100.323 74.7064 94.4029C72.6349 83.5223 72.298 69.9575 78.4696 60.2867C78.5409 60.1756 78.6335 60.0795 78.7421 60.0042C78.8506 59.9289 78.973 59.8757 79.1022 59.8477C79.2314 59.8198 79.365 59.8177 79.4951 59.8414C79.6251 59.8652 79.7492 59.9143 79.8601 59.9861C78.8155 56.59 77.3719 53.3294 75.5594 50.2724C74.9214 49.2272 76.5342 48.1679 77.1722 49.2273C83.6233 59.9933 83.8885 78.0893 85.7737 90.201C87.8848 98.236 91.8196 110.024 91.8196 110.024Z" fill="black"/>
<path d="M55.7192 211.04C55.3895 217.36 58.3211 240.188 58.2924 246.544C58.2924 249.2 58.0201 254.49 61.0163 255.177C63.3387 255.714 64.0842 252.679 64.421 250.467C65.3744 244.225 66.4137 218.391 66.5714 212.006C66.5643 210.767 55.7766 209.815 55.7192 211.04Z" fill="black"/>
<path d="M67.18 251.64C66.7423 251.476 66.3602 251.191 66.0784 250.818C65.7967 250.446 65.6269 250.001 65.5888 249.535C65.5171 249.156 65.6604 247.674 65.3881 247.445C65.1157 247.216 65.2518 247.273 64.7428 247.202C63.0369 246.98 60.1411 246.923 59.0516 246.908C58.5713 246.908 58.471 246.965 58.3348 247.939C58.3348 247.996 58.0911 251.475 58.0481 253.315C57.998 255.462 58.2847 256.114 60.1985 256.572C64.8218 257.681 70.2909 258.49 75.0791 259.328C75.2907 259.348 75.5016 259.284 75.6665 259.15C75.8315 259.016 75.9372 258.823 75.9607 258.612C76.6775 255.577 76.4625 255.749 73.9824 254.682C72.5775 254.081 68.3914 252.141 67.18 251.64Z" fill="#58C5AF"/>
<path d="M18.9169 207.476C17.1402 213.55 14.0409 235.346 12.5435 241.519C11.9167 244.11 10.4516 249.192 13.2032 250.557C15.3389 251.612 16.3554 248.636 17.598 246.76C20.5961 242.179 31.7513 213.418 30.8189 202.035C30.717 200.829 19.259 206.296 18.9169 207.476Z" fill="black"/>
<path d="M20.011 248.532C19.6234 248.271 19.318 247.906 19.1303 247.479C18.9425 247.051 18.8801 246.58 18.9505 246.118C18.9729 245.736 19.4526 244.325 19.2421 244.038C19.0317 243.752 19.1754 243.827 18.6705 243.655C17.0578 243.043 14.2613 242.323 13.2003 242.056C12.7353 241.939 12.6259 241.974 12.2701 242.896C12.2873 242.951 11.2239 246.279 10.7491 248.063C10.2031 250.171 10.3368 250.834 12.0899 251.725C16.3335 253.866 21.465 255.917 25.9323 257.838C26.1315 257.905 26.3489 257.892 26.5392 257.803C26.7294 257.714 26.8779 257.555 26.9539 257.36C28.3321 254.578 28.101 254.703 25.9343 253.072C24.7033 252.146 21.0793 249.299 20.011 248.532Z" fill="#58C5AF"/>
<path d="M75.4673 25.0533C74.8867 22.641 73.6396 20.3933 72.758 18.0526C72.7006 17.1793 72.6289 16.3131 72.5357 15.4827C71.6541 7.65879 65.3678 -0.845164 56.0495 3.91506C47.448 8.346 44.6309 17.709 47.1756 25.7405C48.3224 33.1851 52.487 38.6253 62.4648 38.2817C66.9806 38.1457 70.242 38.1457 71.9551 34.4735C72.7579 32.7627 72.7077 29.8851 73.0375 27.9166C74.4997 27.5157 75.8974 26.8428 75.4673 25.0533Z" fill="#D95F5F"/>
<path d="M62.2135 30.0712C62.2135 29.699 62.1706 29.3554 62.1348 28.9545C62.1136 28.7707 62.0271 28.6005 61.891 28.4749C61.8907 28.3158 61.8486 28.1596 61.7689 28.0219C61.6891 27.8842 61.5747 27.7698 61.4369 27.6901C61.299 27.6104 61.1426 27.5682 60.9833 27.5678C60.824 27.5673 60.6675 27.6086 60.5292 27.6875C60.6439 26.9717 60.7298 26.2559 60.8517 25.6045C60.8679 25.373 60.8001 25.1434 60.6608 24.9577C60.5214 24.772 60.3199 24.6426 60.0929 24.5931C59.8659 24.5436 59.6286 24.5773 59.4244 24.6881C59.2202 24.7989 59.0627 24.9793 58.9808 25.1964C58.9808 25.2752 58.9809 25.361 58.9307 25.4398V25.5472C58.8316 25.3987 58.694 25.2798 58.5326 25.2031C58.3712 25.1265 58.192 25.0949 58.0141 25.1118C57.8362 25.1287 57.6662 25.1934 57.5222 25.299C57.3781 25.4047 57.2653 25.5473 57.196 25.7118C57.196 25.5615 57.196 25.404 57.196 25.2465C57.1957 25.0047 57.1047 24.7718 56.9408 24.5938C56.777 24.4157 56.5524 24.3055 56.3112 24.2848C56.0699 24.2641 55.8296 24.3345 55.6378 24.4821C55.446 24.6297 55.3165 24.8437 55.275 25.0819C55.2786 25.1391 55.2786 25.1965 55.275 25.2537C55.0245 25.2339 54.7756 25.3079 54.5768 25.4614C54.378 25.6149 54.2436 25.8369 54.1998 26.084C54.1496 26.3489 54.1282 26.6066 54.0852 26.8714C53.8602 26.8538 53.6369 26.923 53.4615 27.0647C52.9741 26.5851 51.0818 25.268 50.9599 26.1628C50.4438 29.9352 48.8096 43.8722 49.5981 45.5974C49.7996 45.9012 50.0636 46.1586 50.3726 46.3523C50.6816 46.5461 51.0285 46.6719 51.39 46.7212C51.39 47.0433 51.3326 47.3655 51.3111 47.6876C51.3114 47.9294 51.4024 48.1623 51.5663 48.3403C51.7301 48.5184 51.9548 48.6287 52.1961 48.6493C52.4373 48.67 52.6775 48.5996 52.8693 48.452C53.0611 48.3045 53.1907 48.0904 53.2323 47.8522C53.2323 47.6732 53.2752 47.5014 53.3038 47.3225H53.3541C53.3541 47.8808 53.2966 48.4392 53.2393 49.0047C53.2269 49.1613 53.254 49.3184 53.3178 49.462C53.3816 49.6055 53.4801 49.7309 53.6047 49.8269C53.7292 49.9228 53.8757 49.9862 54.0309 50.0114C54.1862 50.0366 54.3451 50.0227 54.4936 49.971C54.6262 50.1856 54.836 50.3415 55.0799 50.4067C55.3238 50.4719 55.5833 50.4415 55.8054 50.3218C55.8867 50.4498 55.9971 50.5569 56.1274 50.6345C56.2578 50.7121 56.4046 50.7579 56.556 50.7684C56.7074 50.7788 56.8591 50.7536 56.9989 50.6947C57.1387 50.6358 57.2627 50.5448 57.3608 50.4292C57.4292 50.6368 57.5662 50.8151 57.7491 50.935C57.9321 51.0549 58.1503 51.1093 58.3683 51.0894C58.5862 51.0695 58.791 50.9763 58.9491 50.8252C59.1072 50.6741 59.2094 50.474 59.2389 50.2574C59.2389 50.0641 59.2748 49.8708 59.3035 49.6847C59.4772 49.7888 59.6792 49.8358 59.8811 49.8191C60.083 49.8024 60.2745 49.7229 60.4287 49.5917L61.6831 49.9854C61.8219 50.0338 61.9699 50.0501 62.1159 50.0329C62.2619 50.0157 62.402 49.9656 62.5257 49.8862C62.6494 49.8069 62.7534 49.7005 62.8297 49.575C62.906 49.4495 62.9527 49.3083 62.9662 49.1622C62.8138 42.8459 63.2048 36.5282 64.1347 30.2788C64.2565 29.1334 62.4859 28.9473 62.2135 30.0712Z" fill="#D95F5F"/>
<path d="M76.3847 48.79C74.5248 47.2442 72.3829 46.0726 70.0771 45.3398C69.5295 46.2012 68.769 46.9072 67.8688 47.3899C66.9687 47.8726 65.9591 48.1157 64.9376 48.0957C58.4865 48.203 52.0784 48.9976 45.6559 48.0957C43.6632 47.8165 42.2225 46.2273 41.4913 44.3662C34.5599 45.6547 28.3955 49.0191 27.2701 56.6569C27.0479 58.1745 30.4814 60.5939 30.7753 63.901C31.8218 75.5689 31.9938 95.5547 32.4597 101.84C32.4597 102.219 30.1876 102.999 30.6105 102.921C37.3842 101.661 44.1506 101.911 50.9745 102.584C56.1927 103.092 62.2712 104.689 67.5038 104.066C68.6865 103.93 68.9373 103.851 69.6541 102.992C71.3314 100.938 79.8971 67.0578 80.2125 61.3957C80.4419 56.8144 80.2124 51.9038 76.3847 48.79Z" fill="#58C5AF"/>
<path d="M51.0532 92.2914C51.0874 92.1778 51.0995 92.0588 51.0889 91.9407C50.752 88.4474 46.3582 88.6121 43.6559 88.0036C37.2896 86.5404 31.02 84.6852 24.8831 82.4488C27.1784 75.2849 30.1873 68.3689 33.8645 61.8045C34.6458 60.3729 35.7855 58.6835 36.875 56.9369C35.807 56.6004 34.8341 56.0155 34.0366 55.2302C33.239 54.445 32.6395 53.4818 32.2875 52.4201C31.8845 51.1379 31.6437 49.8106 31.5707 48.4688C20.9048 56.2784 16.6257 71.0315 13.6151 83.2219C13.1277 85.1761 12.0167 89.378 13.228 91.3179C14.5971 93.5298 19.0484 93.2792 21.1486 93.4654C30.7465 94.3387 40.9678 93.6372 50.5872 93.0645C51.3542 93.0287 51.2324 92.8354 51.0532 92.2914Z" fill="black"/>
<path fill-rule="evenodd" clip-rule="evenodd" d="M77.4145 136.185C78.7675 140.443 80.1154 144.686 80.1577 149.428C80.188 152.947 79.9017 156.278 79.6199 159.555C79.4984 160.969 79.3777 162.373 79.2836 163.778C79.7917 166.028 80.1366 168.34 80.1577 170.781C80.1759 172.963 80.08 175.076 79.9395 177.149C80.0265 177.564 80.1216 177.981 80.2251 178.4C81.6331 184.069 82.8726 189.582 81.1749 195.328C80.8427 196.458 80.3156 197.543 79.7859 198.628C79.9113 199.318 80.057 200.015 80.2251 200.719C81.6331 206.577 82.8726 212.273 81.1749 218.211C80.8387 219.393 80.3027 220.527 79.7665 221.662C79.121 223.029 78.4752 224.396 78.1771 225.846C77.9653 226.88 78.0877 228.445 78.2167 230.095C78.375 232.119 78.5433 234.271 78.1164 235.725C78.0483 235.963 77.9892 236.228 77.9276 236.504C77.7336 237.374 77.5159 238.351 76.9174 238.906C73.7309 241.802 44.675 235.916 36.2472 234.19C29.2078 232.743 22.6338 232.422 15.8441 232.09C12.3347 231.919 8.76776 231.745 5.04904 231.411C4.22041 231.338 3.73544 230.343 3.61418 229.612C2.53502 222.539 4.40351 215.24 6.29067 208.205C5.8786 208.172 5.46477 208.138 5.04904 208.102C4.22041 208.031 3.73544 207.069 3.61418 206.361C2.50042 199.297 4.52636 192 6.47215 184.991C7.33927 181.867 8.19047 178.801 8.7408 175.839C9.26044 173.025 9.51876 170.191 9.77583 167.371C10.2719 161.929 10.7634 156.537 13.1197 151.437C14.0811 149.356 15.2981 147.426 16.5148 145.496C17.8047 143.451 19.0943 141.405 20.0789 139.18C22.4375 133.846 22.7068 128.405 22.9846 122.795C23.0281 121.916 23.0719 121.032 23.1239 120.144C23.5079 113.59 27.86 103.173 33.465 98.3608C33.9289 97.9642 38.7786 98.5737 44.6804 99.3155C49.8353 99.9633 55.7928 100.712 60.3313 100.979C62.1176 101.084 63.4831 100.259 64.6478 99.5547C66.3251 98.5412 67.5863 97.779 69.0891 100.406C72.1486 105.736 73.8257 118.265 74.7251 124.984C74.7882 125.455 74.8475 125.898 74.9031 126.307C75.3721 129.756 76.3948 132.975 77.4145 136.185Z" fill="#58C5AF"/>
<path d="M40.4087 56.2348C40.9689 52.7294 40.9883 49.159 40.4661 45.6478C40.38 45.0895 39.7492 44.932 39.2832 44.9749C36.029 45.4116 34.0794 46.3207 30.775 48.5541C30.525 48.6696 30.3136 48.8545 30.1662 49.0869C30.0187 49.3192 29.9413 49.5889 29.9434 49.864C30.5885 57.9194 31.2314 65.9748 31.8717 74.0302C31.9721 75.2542 33.9002 75.2685 33.7998 74.0302C33.5275 70.599 33.2528 67.1726 32.9756 63.751C33.1134 63.8287 33.2688 63.8696 33.4271 63.8696C33.5853 63.8696 33.741 63.8287 33.8788 63.751C34.1816 63.5275 34.4273 63.2356 34.5956 62.8991C34.8005 63.0058 35.0368 63.0362 35.2621 62.985C35.9789 62.7846 36.1222 62.4553 36.4591 61.8039C36.4591 61.8039 36.4591 61.8039 36.4591 61.7681C36.5629 61.7938 36.6711 61.796 36.7759 61.7745C36.8806 61.7529 36.9792 61.7083 37.0644 61.6438C37.1497 61.5793 37.2194 61.4965 37.2685 61.4016C37.3175 61.3067 37.3447 61.202 37.3479 61.0952C37.572 59.4344 37.6846 57.7604 37.6848 56.0845C37.882 56.0343 38.0579 55.9225 38.1869 55.7654C38.3158 55.6083 38.3911 55.4141 38.4016 55.2112C38.4016 54.9965 38.4016 54.7817 38.4518 54.5669C38.4518 55.1253 38.4877 55.6837 38.4877 56.2492C38.4877 57.2871 40.2008 57.6092 40.38 56.5068C40.38 56.4209 40.38 56.335 40.4158 56.2492L40.4087 56.2348Z" fill="#58C5AF"/>
<path d="M70.951 7.99497C69.7974 6.11744 68.1348 4.60463 66.1559 3.6317C64.1769 2.65876 61.9625 2.2655 59.7689 2.49745C56.7441 2.76231 51.6692 5.24624 49.7338 6.90695C41.8491 13.5211 42.566 24.2298 44.8095 33.2277C45.3185 35.2607 46.2368 36.52 48.5377 37.3289C51.154 38.2523 53.766 37.1251 54.4398 35.3642C55.343 32.9948 54.7083 33.8147 55.2316 31.3451C55.6473 29.4052 56.0344 27.222 57.0307 25.4611C58.1991 23.3923 59.898 22.5119 61.5825 21.0587C62.8727 19.9349 63.0161 20.6364 63.8046 18.6894C65.4317 14.5877 65.1521 10.8153 70.5998 9.87042C71.4241 9.71294 71.4958 8.46025 70.951 7.99497Z" fill="#301824"/>
<path d="M49.978 87.6675C51.0245 87.3454 52.1139 87.7033 53.139 87.9323C54.9381 88.3618 58.2783 88.4549 58.4862 90.9245C58.5937 92.4563 57.2391 95.9066 55.7267 96.4363C54.7662 96.7728 53.5117 96.4506 52.243 95.8995C51.4634 95.7884 50.6956 95.6063 49.9493 95.3554C48.7451 94.9331 47.9279 93.8808 46.695 93.5014C46.5447 93.4571 46.3915 93.4236 46.2363 93.4012L46.5707 88.413L48.0568 88.5264C48.7091 88.2688 49.2612 87.8894 49.978 87.6675Z" fill="#D95F5F"/>
<path d="M52.4735 19.6472C59.9042 15.7684 68.2127 11.7883 72.1475 9.82358C76.0822 7.85887 68.2125 0 60.3432 0C51.6033 0 42.7411 1.54822 40.6693 9.82376C38.7019 17.6824 41.0763 22.2774 44.1725 31.4356C43.5533 28.2033 45.0428 23.5259 52.4735 19.6472Z" fill="black"/>
<path d="M66.2446 37.3295C64.29 35.3648 60.3425 27.5059 66.2446 11.7881C65.5889 11.1332 52.0795 11.7881 50.5056 11.7881C48.5382 11.7881 38.7125 9.82351 40.6687 21.6117C41.4407 26.2636 46.5825 33.4001 44.6035 41.2589C41.9803 42.5687 38.7013 41.2589 36.734 45.1884C34.5478 47.1531 38.6177 53.8355 50.2879 55.012C60.3176 56.0231 75.8656 55.012 77.8329 49.1178C75.8656 43.2237 64.29 45.1884 66.2446 37.3295Z" fill="black"/>
</svg>
