<svg width="925" height="242" viewBox="0 0 925 242" fill="none" xmlns="http://www.w3.org/2000/svg">
<path d="M870.469 42.4848C870.799 41.3974 872.581 41.6977 872.252 42.8051C865.589 65.0748 864.086 88.55 867.854 111.477C868.042 112.611 866.239 112.771 866.058 111.637C862.264 88.5508 863.772 64.9127 870.469 42.4848Z" fill="#9E4D4D"/>
<path d="M850.554 130.043C850.376 129.049 850.474 128.02 850.839 127.059C851.173 126.432 851.652 125.976 852.005 125.382C852.06 124.282 852.132 123.185 852.263 122.113C852.255 121.133 852.409 120.153 852.72 119.211C853.339 118.006 855.232 118.367 856.337 118.721C856.482 117.756 858.054 117.874 857.904 118.848L857.055 124.416C857.049 124.565 857.055 124.714 857.074 124.862C857.231 126.061 858.111 126.972 858.312 128.155C858.426 128.887 858.47 129.629 858.443 130.372C858.762 131.625 858.859 132.846 858.364 133.697C857.598 135.025 854.011 135.829 852.554 135.497C850.156 134.918 850.641 131.791 850.554 130.043Z" fill="#CF6A5C"/>
<path d="M868.134 215.96C868.134 216.587 868.134 217.207 868.134 217.828C868.287 216.494 868.45 215.159 868.625 213.825C868.629 213.733 868.651 213.643 868.691 213.559C868.73 213.476 868.785 213.401 868.853 213.339C868.922 213.276 869.002 213.228 869.089 213.197C869.176 213.165 869.269 213.151 869.362 213.155C869.454 213.159 869.545 213.181 869.63 213.22C869.714 213.258 869.789 213.313 869.852 213.381C869.915 213.449 869.964 213.528 869.995 213.615C870.027 213.701 870.042 213.793 870.038 213.885C870.071 214.712 870.078 215.546 870.098 216.374C870.113 216.303 870.134 216.234 870.159 216.167C870.159 215.973 870.212 215.773 870.232 215.58C870.232 215.45 870.267 215.322 870.334 215.211C870.402 215.099 870.498 215.008 870.614 214.947C870.729 214.886 870.859 214.857 870.99 214.864C871.121 214.871 871.247 214.913 871.356 214.986C871.356 214.532 871.403 214.085 871.429 213.652C871.49 212.511 875.512 204.105 875.464 205.253C875.148 211.143 872.438 225.266 871.847 231.19C871.598 233.658 871.322 238.581 868.484 238.935C866.265 239.209 865.868 236.32 865.794 234.265C865.512 228.388 866.211 222.151 866.715 216.253C866.789 215.019 868.107 214.806 868.134 215.96Z" fill="#CF6A5C"/>
<path d="M863.077 235.006C863.502 234.897 863.886 234.67 864.185 234.352C864.483 234.035 864.685 233.639 864.765 233.212C864.873 232.865 864.88 231.477 865.156 231.29C865.431 231.103 865.303 231.144 865.781 231.13C867.395 231.09 870.098 231.317 871.12 231.404C871.571 231.444 871.652 231.51 871.679 232.431C871.679 232.478 871.564 235.727 871.423 237.441C871.255 239.442 870.932 240.009 869.096 240.25C864.678 240.83 859.5 241.05 854.974 241.364C854.776 241.362 854.587 241.285 854.445 241.148C854.304 241.011 854.221 240.826 854.214 240.63C853.837 237.748 854.026 237.961 856.453 237.181C857.798 236.741 861.907 235.353 863.077 235.006Z" fill="#1C1C1C"/>
<path d="M908.311 209.376C908.633 209.91 908.943 210.45 909.265 210.984C908.734 209.736 908.21 208.489 907.692 207.228C907.603 207.061 907.584 206.867 907.639 206.687C907.695 206.507 907.82 206.356 907.988 206.267C908.155 206.179 908.352 206.16 908.533 206.215C908.715 206.27 908.867 206.394 908.956 206.561C909.393 207.268 909.81 207.988 910.241 208.702C910.217 208.635 910.199 208.566 910.187 208.495C910.113 208.309 910.039 208.128 909.958 207.942C909.897 207.829 909.868 207.703 909.872 207.576C909.876 207.449 909.915 207.325 909.983 207.217C910.052 207.109 910.147 207.021 910.261 206.962C910.375 206.903 910.502 206.875 910.631 206.881C910.422 206.474 910.22 206.067 910.019 205.66C909.508 204.639 908.842 195.36 909.346 196.387C911.996 201.671 916.649 215.32 919.057 220.743C920.066 223.011 922.258 227.414 919.938 229.135C918.142 230.47 916.367 228.135 915.231 226.374C912.077 221.39 909.595 215.62 907.1 210.21C906.656 209.209 907.699 208.395 908.311 209.376Z" fill="#CF6A5C"/>
<path d="M913.328 228.408C913.643 228.106 913.865 227.721 913.969 227.298C914.073 226.875 914.053 226.432 913.913 226.02C913.833 225.673 913.153 224.452 913.301 224.159C913.449 223.865 913.355 223.959 913.765 223.712C915.151 222.891 917.619 221.771 918.553 221.35C918.964 221.17 919.071 221.184 919.549 221.971C919.549 222.024 921.075 224.899 921.808 226.46C922.662 228.302 922.649 228.942 921.176 230.043C917.612 232.711 913.207 235.42 909.401 237.914C909.228 238.008 909.025 238.032 908.834 237.981C908.644 237.93 908.481 237.808 908.379 237.641C906.623 235.313 906.886 235.4 908.614 233.545C909.596 232.504 912.474 229.296 913.328 228.408Z" fill="#1C1C1C"/>
<path d="M852.795 26.6683C852.956 24.3244 853.257 21.9921 853.697 19.6837C853.596 18.8698 853.502 18.0692 853.441 17.2954C852.829 9.95718 857.711 0.851128 867.126 3.53958C875.869 6.03457 880.132 14.0999 879.231 21.8985C879.52 28.9165 876.669 34.5736 867.429 36.1146C863.246 36.7817 860.247 37.3888 858.014 34.3401C856.965 32.9125 856.487 30.2707 855.828 28.5362C854.457 28.4361 852.728 28.3828 852.795 26.6683Z" fill="#CF6A5C"/>
<path d="M865.553 28.6359C865.553 28.2823 865.553 27.9687 865.553 27.5885C865.56 27.4166 865.629 27.253 865.748 27.1282C865.737 26.9801 865.766 26.8317 865.831 26.6981C865.897 26.5646 865.997 26.4507 866.121 26.368C866.246 26.2853 866.39 26.2368 866.54 26.2273C866.689 26.2179 866.838 26.2479 866.972 26.3143C866.824 25.6472 866.696 25.0268 866.548 24.3931C866.313 23.4124 867.941 22.9388 868.27 23.8994C868.27 23.9728 868.304 24.0529 868.331 24.1263C868.334 24.1618 868.334 24.1975 868.331 24.233C868.414 24.0888 868.536 23.9698 868.682 23.8886C868.828 23.8074 868.994 23.767 869.162 23.7718C869.329 23.7766 869.493 23.8264 869.634 23.9158C869.775 24.0052 869.89 24.131 869.965 24.2797C869.965 24.1329 869.965 23.9861 869.931 23.8394C869.917 23.6144 869.988 23.3924 870.131 23.2171C870.274 23.0417 870.478 22.9259 870.702 22.8923C870.927 22.8588 871.156 22.9101 871.345 23.036C871.533 23.162 871.667 23.3534 871.72 23.5726V23.7327C871.954 23.6992 872.192 23.753 872.388 23.8836C872.585 24.0142 872.725 24.2124 872.783 24.4398C872.843 24.6799 872.883 24.9201 872.937 25.1603C873.147 25.1303 873.361 25.1803 873.536 25.3003C873.653 25.176 873.802 25.0858 873.966 25.0392C874.131 24.9927 874.306 24.9917 874.471 25.0363C874.637 25.0809 874.787 25.1694 874.905 25.2924C875.023 25.4153 875.106 25.568 875.143 25.734C875.865 29.2074 876.58 32.6808 877.288 36.1541C877.631 37.7952 878.929 40.6504 878.304 42.3049C878.132 42.599 877.9 42.8534 877.622 43.0513C877.343 43.2492 877.026 43.3859 876.69 43.4523C876.73 43.7525 876.784 44.0526 876.824 44.3528C876.839 44.5778 876.767 44.7999 876.624 44.9752C876.482 45.1505 876.278 45.2664 876.053 45.2999C875.829 45.3334 875.599 45.2822 875.411 45.1562C875.223 45.0303 875.089 44.8389 875.035 44.6197C875.002 44.4596 874.975 44.2995 874.941 44.1327H874.888C874.955 44.6531 875.015 45.1734 875.103 45.6937C875.124 45.8386 875.108 45.9865 875.057 46.1239C875.006 46.2612 874.921 46.3838 874.81 46.4805C874.7 46.5772 874.566 46.645 874.422 46.6777C874.278 46.7103 874.129 46.7069 873.986 46.6677C873.877 46.876 873.691 47.0345 873.467 47.1103C873.242 47.186 872.997 47.1733 872.783 47.0746C872.715 47.199 872.619 47.3057 872.502 47.3861C872.385 47.4665 872.25 47.5183 872.109 47.5371C871.968 47.556 871.825 47.5415 871.691 47.4947C871.556 47.448 871.435 47.3703 871.337 47.2681C871.288 47.4687 871.171 47.6466 871.006 47.7722C870.841 47.8977 870.638 47.9632 870.43 47.9578C870.222 47.9523 870.022 47.8761 869.864 47.7421C869.706 47.6081 869.599 47.4243 869.561 47.2214C869.561 47.048 869.508 46.8678 869.467 46.6944C869.314 46.8045 869.129 46.8639 868.939 46.8639C868.75 46.8639 868.565 46.8045 868.411 46.6944L867.255 47.1347C867.129 47.188 866.993 47.2126 866.857 47.2066C866.721 47.2006 866.587 47.1642 866.467 47.1001C866.347 47.036 866.243 46.9458 866.163 46.8363C866.082 46.7268 866.028 46.6008 866.004 46.4676C865.753 40.5862 864.997 34.7367 863.744 28.9828C863.569 27.8887 865.23 27.6085 865.553 28.6359Z" fill="#CF6A5C"/>
<path d="M864.007 222.497C865.298 207.481 865.493 192.551 865.433 177.501C865.393 166.981 868.378 158.081 871.68 148.208C875.715 136.114 879.696 123.986 883.785 111.918C886.986 102.531 893.476 102.691 902.904 102.231C902.608 100.777 902.232 99.3226 901.855 97.8883C901.223 95.6802 904.606 94.406 905.218 96.6208C908.029 106.507 908.58 116.681 906.146 126.707C903.422 137.915 895.278 146.587 894.189 158.061C893.785 162.338 893.449 165.847 890.672 169.309C889.058 171.31 886.637 172.704 885.15 174.812C882.003 179.242 883.133 184.372 883.193 189.195C883.24 201.379 880.906 213.456 876.321 224.759C876.191 225.045 875.986 225.291 875.727 225.471C875.467 225.651 875.163 225.757 874.848 225.779C871.668 225.814 868.498 225.406 865.433 224.565C864.978 224.459 864.58 224.187 864.317 223.805C864.053 223.422 863.943 222.956 864.007 222.497Z" fill="black"/>
<path d="M909.81 219.242C902.097 206.26 893.543 193.972 884.706 181.73C878.539 173.185 875.775 164.212 872.702 154.265C868.936 142.077 865.096 129.916 861.404 117.708C858.539 108.215 863.919 104.626 871.337 98.8288C870.247 97.8148 869.118 96.8274 867.974 95.8935C866.172 94.4525 868.183 91.4706 869.992 92.9182C878.062 99.3691 884.444 107.341 888.311 116.934C892.628 127.608 891.054 139.382 896.871 149.375C899.037 153.091 900.812 156.147 900.57 160.563C900.429 163.131 899.272 165.646 899.286 168.221C899.286 173.652 903.226 177.167 906.085 181.076C913.235 190.982 918.381 202.169 921.236 214.018C921.297 214.326 921.274 214.644 921.169 214.94C921.064 215.236 920.88 215.498 920.637 215.699C918.061 217.552 915.236 219.039 912.245 220.116C911.804 220.31 911.304 220.327 910.85 220.164C910.397 220.001 910.024 219.671 909.81 219.242Z" fill="black"/>
<path d="M850.933 60.8909C850.375 53.993 853.845 50.0303 859.003 45.5474C860.412 44.3342 861.904 43.2196 863.469 42.2118C864.295 42.6262 865.176 42.9248 866.085 43.0991C867.286 43.3024 868.506 43.3763 869.723 43.3192C870.994 43.3192 872.231 42.999 873.489 42.8656C874.786 42.7391 876.032 42.2997 877.119 41.5857C878.205 40.8718 879.099 39.9049 879.723 38.7695C887.941 41.8115 895.863 44.1931 902.534 50.1104C909.205 56.0276 913.966 63.4992 917.961 71.2577C920.12 75.4538 922.581 79.8567 924.067 84.3264C924.834 86.6479 924.74 88.9561 922.931 90.8106C921.007 92.812 917.974 93.4791 915.318 93.9461C912.646 94.3846 909.952 94.6763 907.248 94.82C907.598 97.5751 907.921 100.33 908.19 103.092C908.56 106.961 909.925 112.272 909.057 116.094C908.994 116.67 908.76 117.215 908.386 117.66C908.011 118.105 907.513 118.431 906.952 118.596C903.395 120.177 897.974 120.157 894.114 120.65C885.546 121.807 876.889 122.195 868.25 121.811C865.796 121.684 861.115 122.171 859.145 120.404C857.517 118.949 857.8 115.647 857.591 113.732C855.379 96.2009 852.366 78.5425 850.933 60.8909Z" fill="#F9B34A"/>
<path d="M853.704 9.59694C853.516 6.72171 855.97 -1.07679 859.582 2.0386C860.967 0.804455 862.567 -0.209548 864.544 0.0372813C866.34 0.244085 867.127 1.3715 868.875 1.3715C872.352 1.3715 877.181 0.424228 877.127 4.77377C881.202 4.60699 884.37 7.85579 883.267 12.1853C881.626 18.6296 881.572 22.2453 878.559 28.4294C878.371 28.8096 876.77 31.7649 876.454 31.8449C876.004 31.985 874 29.2233 873.092 27.7956C872.117 26.2146 871.424 23.9131 869.581 22.8524C868.189 22.0585 866.777 22.9791 865.587 22.3053C864.692 21.8526 864.01 21.0728 863.684 20.1305C861.74 15.6543 860.651 11.3247 854.154 11.665C853.267 11.665 853.724 9.81041 853.704 9.59694Z" fill="black"/>
<path d="M850.717 91.0372C851.622 100.093 852.178 109.529 849.312 118.322C848.848 119.742 847.681 122.73 848.809 123.083C851.116 123.802 856.854 124.586 859.079 124.885C859.277 124.892 859.472 124.837 859.637 124.729C859.802 124.62 859.929 124.463 860 124.28C869.98 103.548 873.028 72.6253 853.994 55.6392C853.872 55.5282 853.722 55.4522 853.56 55.4192C853.398 55.3862 853.229 55.3976 853.073 55.452L851.699 55.6393C848.007 67.7123 849.264 76.4306 850.717 91.0372Z" fill="#F9B34A"/>
<path d="M895.075 102.431C893.636 102.304 892.553 100.089 892.022 99.0087C890.193 95.3263 899.5 93.2182 900.28 93.2849L900.508 93.2116C902.405 92.6045 903.871 92.3443 905.619 91.2836C905.732 91.2097 905.86 91.1617 905.994 91.143C906.128 91.1244 906.264 91.1356 906.393 91.1759C906.522 91.2162 906.64 91.2845 906.739 91.3758C906.838 91.4671 906.915 91.5792 906.964 91.7039C907.307 93.1182 908.047 93.6118 907.039 94.7926C906.03 95.9734 903.958 96.3603 902.412 96.994C902.365 97.3476 902.506 98.8153 902.304 99.0888C901.733 99.8826 896.205 102.531 895.075 102.431Z" fill="#CF6A5C"/>
<path d="M912.487 98.6764C911.142 99.5175 909.591 99.9788 908.002 100.011C907.496 100.064 906.985 100.034 906.489 99.9239C904.424 99.3835 903.079 96.2748 902.232 94.547C901.142 92.2989 900.698 91.0447 902.386 89.1367C903.341 88.0627 904.35 87.022 905.399 86.0014C905.395 85.8777 905.424 85.7551 905.483 85.6462C905.542 85.5372 905.629 85.4457 905.735 85.3809C905.998 85.2208 906.273 85.0674 906.549 84.9206C909.347 82.2522 912.299 79.7372 914.982 77.0621C915.796 76.2549 917.208 77.369 916.388 78.1895C914.711 79.8573 913.021 81.5162 911.317 83.1662C915.164 82.3056 919.387 82.5991 922.393 85.0073C927.006 88.6898 917.928 95.561 914.955 97.2755L913.987 97.8158C913.544 98.1732 913.053 98.4674 912.528 98.6897L912.487 98.6764ZM920.658 87.589C919.804 83.2595 913.039 84.2535 908.923 85.8279C911.014 85.968 913.57 85.5544 915.184 85.481C915.359 85.4757 915.532 85.518 915.684 85.6034C915.836 85.6889 915.962 85.8142 916.047 85.9656C916.132 86.117 916.174 86.2887 916.168 86.4621C916.161 86.6354 916.107 86.8038 916.011 86.9487H916.099C916.325 86.942 916.546 87.0197 916.718 87.1665C916.889 87.3132 917 87.5184 917.027 87.7417C917.054 87.965 916.995 88.1902 916.864 88.373C916.732 88.5559 916.535 88.6831 916.314 88.7298C915.466 88.8766 914.626 88.9967 913.778 89.0967C915.123 89.0967 916.468 89.1634 917.813 89.2968C918.298 89.2968 918.782 89.3302 919.273 89.3636C919.424 89.3697 919.568 89.4261 919.683 89.5237H919.905C920.104 89.545 920.29 89.6347 920.429 89.7772C920.714 89.0772 920.793 88.3118 920.658 87.5691V87.589Z" fill="#F9B34A"/>
<path fill-rule="evenodd" clip-rule="evenodd" d="M27.8841 38.7833C19.5173 26.3877 5.29367 1.28682 15.3338 0.0472678C25.374 -1.19228 47.7552 22.2559 57.6907 34.1349C58.0395 34.1349 58.3632 34.1379 58.668 34.1406C61.1052 34.1627 62.3352 34.1739 65.5346 32.5855C65.5346 27.9372 67.5861 26.8513 71.8097 26.3878C83.1049 25.1482 106.846 25.8713 117.304 26.3878C113.121 22.7724 105.382 15.2318 107.892 13.9922C110.402 12.7527 119.396 19.6735 123.579 23.2889C126.194 19.6735 132.051 12.1329 134.561 10.8934C137.698 9.34392 137.698 13.9922 134.561 20.19C134.095 21.1096 133.63 21.9268 133.205 22.6721C130.769 26.9499 129.682 28.8567 137.698 34.1349C147.111 40.3327 139.267 43.4316 131.423 38.7833C123.579 34.1349 84.36 44.981 79.6536 49.6293C74.9473 54.2777 74.9473 57.3765 84.36 66.6732C93.7726 75.9698 117.304 103.86 111.029 110.057C108.6 112.457 103.378 110.357 97.746 106.672L62.8728 110.388L54.2836 123.974L95.2079 127.464C96.0224 127.533 96.6877 128.074 96.951 128.798L97.05 128.807L96.9522 128.802C97.0393 129.043 97.0819 129.304 97.0708 129.576C97.0243 130.709 96.059 131.583 94.9238 131.544C88.1115 131.306 79.5017 131.735 71.3911 135.633C66.0845 138.183 61.0259 141.622 56.8312 146.03L54.2836 240.5L47.5 241.5C47.5 241.5 42.6364 241.867 42.6364 240.5V149.477C41.7874 148.193 40.9751 146.945 40.1884 145.736L40.1866 145.733C39.868 145.244 39.5537 144.761 39.2428 144.285C36.7851 140.519 34.5534 137.185 32.1492 134.296C27.4017 128.591 21.9862 127.098 12.8895 125.29L2.30978 124.388C0.983407 124.275 -0.0271203 123.152 0.000555029 121.823C0.0101701 121.361 0.143739 120.929 0.369113 120.562L0.0518458 120.535C0.163468 120.535 0.274712 120.535 0.385588 120.535C0.832815 119.826 1.62486 119.361 2.52468 119.385C6.54491 119.49 10.0773 119.856 13.2203 120.472L45.1093 123.191L37.1566 113.128L14.4845 115.544C13.1853 115.682 12.0197 114.742 11.8811 113.445C11.7426 112.147 12.6834 110.982 13.9827 110.844L92.0175 102.528C87.9014 99.3008 83.9939 95.751 81.2224 93.0136L42.003 55.8271C38.8655 55.8271 31.6492 55.2073 27.8841 52.7282C27.0997 52.2118 26.1846 51.7383 25.2695 51.2649C20.6939 48.8977 16.1183 46.5305 27.8841 38.7833Z" fill="black"/>
</svg>
