<svg width="84" height="242" viewBox="0 0 84 242" fill="none" xmlns="http://www.w3.org/2000/svg">
<path d="M29.4685 42.4848C29.798 41.3974 31.5801 41.6977 31.2506 42.8051C24.588 65.0748 23.0847 88.55 26.8526 111.477C27.0409 112.611 25.2385 112.771 25.0569 111.637C21.2634 88.5508 22.7715 64.9127 29.4685 42.4848Z" fill="#9E4D4D"/>
<path d="M9.55355 130.043C9.37552 129.049 9.47384 128.02 9.83883 127.059C10.1726 126.432 10.6516 125.976 11.0054 125.382C11.06 124.282 11.1318 123.185 11.2634 122.113C11.2551 121.133 11.4094 120.153 11.7205 119.211C12.3388 118.006 14.2319 118.367 15.3373 118.721C15.4823 117.756 17.0538 117.874 16.904 118.848L16.0548 124.416C16.0487 124.565 16.0551 124.714 16.0737 124.862C16.2306 126.061 17.1106 126.972 17.3119 128.155C17.4258 128.887 17.4697 129.629 17.4432 130.372C17.7616 131.625 17.8594 132.846 17.3642 133.697C16.5983 135.025 13.0114 135.829 11.5544 135.497C9.15638 134.918 9.64106 131.791 9.55355 130.043Z" fill="#CF6A5C"/>
<path d="M27.1344 215.96C27.1344 216.587 27.1344 217.207 27.1344 217.828C27.2868 216.494 27.4504 215.159 27.6253 213.825C27.6292 213.733 27.6514 213.643 27.6906 213.559C27.7298 213.476 27.7851 213.401 27.8535 213.339C27.9219 213.276 28.0019 213.228 28.0891 213.197C28.1763 213.165 28.2689 213.151 28.3616 213.155C28.4543 213.159 28.5454 213.181 28.6296 213.22C28.7137 213.258 28.7893 213.313 28.852 213.381C28.9148 213.449 28.9635 213.528 28.9954 213.615C29.0272 213.701 29.0415 213.793 29.0376 213.885C29.0712 214.712 29.0778 215.546 29.098 216.374C29.1132 216.303 29.1335 216.234 29.1586 216.167C29.1586 215.973 29.2123 215.773 29.2324 215.58C29.2319 215.45 29.2672 215.322 29.3344 215.211C29.4016 215.099 29.4981 215.008 29.6137 214.947C29.7292 214.886 29.8594 214.857 29.9901 214.864C30.1209 214.871 30.2472 214.913 30.3556 214.986C30.3556 214.532 30.4026 214.085 30.4295 213.652C30.49 212.511 34.5115 204.105 34.4644 205.253C34.1484 211.143 31.4383 225.266 30.8465 231.19C30.5977 233.658 30.322 238.581 27.4841 238.935C25.2648 239.209 24.8681 236.32 24.7941 234.265C24.5117 228.388 25.211 222.151 25.7153 216.253C25.7893 215.019 27.1075 214.806 27.1344 215.96Z" fill="#CF6A5C"/>
<path d="M22.0784 235.006C22.5026 234.897 22.8866 234.67 23.1855 234.352C23.4845 234.035 23.6859 233.639 23.7664 233.212C23.874 232.865 23.8808 231.477 24.1565 231.29C24.4322 231.103 24.3044 231.144 24.7819 231.13C26.3959 231.09 29.0993 231.317 30.1215 231.404C30.572 231.444 30.6528 231.51 30.6797 232.431C30.6797 232.478 30.5653 235.727 30.4241 237.441C30.2559 239.442 29.9332 240.009 28.0972 240.25C23.6789 240.83 18.5007 241.05 13.9748 241.364C13.7772 241.362 13.5879 241.285 13.4463 241.148C13.3047 241.011 13.2219 240.826 13.215 240.63C12.8384 237.748 13.0266 237.961 15.4543 237.181C16.7993 236.741 20.9083 235.353 22.0784 235.006Z" fill="#1C1C1C"/>
<path d="M67.3115 209.376C67.6343 209.91 67.9436 210.45 68.2664 210.984C67.7352 209.736 67.2107 208.489 66.6929 207.228C66.6037 207.061 66.5847 206.867 66.6402 206.687C66.6957 206.507 66.8211 206.356 66.9887 206.267C67.1564 206.179 67.3526 206.16 67.5342 206.215C67.7158 206.27 67.8679 206.394 67.9571 206.561C68.3942 207.268 68.8113 207.988 69.2417 208.702C69.2182 208.635 69.2002 208.566 69.1878 208.495C69.1138 208.309 69.0398 208.128 68.9591 207.942C68.8984 207.829 68.8687 207.703 68.8731 207.576C68.8775 207.449 68.9159 207.325 68.9842 207.217C69.0526 207.109 69.1485 207.021 69.2622 206.962C69.3759 206.903 69.5034 206.875 69.6316 206.881C69.4231 206.474 69.2214 206.067 69.0197 205.66C68.5086 204.639 67.8428 195.36 68.3472 196.387C70.9968 201.671 75.6505 215.32 78.058 220.743C79.0667 223.011 81.2591 227.414 78.939 229.135C77.1434 230.47 75.3681 228.135 74.2315 226.374C71.0775 221.39 68.596 215.62 66.101 210.21C65.6572 209.209 66.6996 208.395 67.3115 209.376Z" fill="#CF6A5C"/>
<path d="M72.3291 228.408C72.6442 228.106 72.8664 227.721 72.9699 227.298C73.0735 226.875 73.0543 226.432 72.9143 226.02C72.8336 225.673 72.1543 224.452 72.3022 224.159C72.4502 223.865 72.3561 223.959 72.7664 223.712C74.1517 222.891 76.6197 221.771 77.5544 221.35C77.9647 221.17 78.0722 221.184 78.5497 221.971C78.5497 222.024 80.0764 224.899 80.8094 226.46C81.6634 228.302 81.6499 228.942 80.1771 230.043C76.6129 232.711 72.2082 235.42 68.4019 237.914C68.2287 238.008 68.0258 238.032 67.8354 237.981C67.6451 237.93 67.4819 237.808 67.3797 237.641C65.6245 235.313 65.8866 235.4 67.6149 233.545C68.5968 232.504 71.4751 229.296 72.3291 228.408Z" fill="#1C1C1C"/>
<path d="M11.7955 26.6683C11.9558 24.3244 12.2568 21.9921 12.6967 19.6837C12.5958 18.8698 12.5016 18.0692 12.441 17.2954C11.8291 9.95718 16.7114 0.851128 26.1263 3.53958C34.8688 6.03457 39.1324 14.0999 38.2312 21.8985C38.5204 28.9165 35.669 34.5736 26.4289 36.1146C22.246 36.7817 19.2467 37.3888 17.014 34.3401C15.9649 32.9125 15.4875 30.2707 14.8284 28.5362C13.4565 28.4361 11.7282 28.3828 11.7955 26.6683Z" fill="#CF6A5C"/>
<path d="M24.5522 28.6359C24.5522 28.2823 24.5522 27.9687 24.5522 27.5885C24.5586 27.4166 24.628 27.253 24.7473 27.1282C24.7362 26.9801 24.7649 26.8317 24.8305 26.6981C24.8961 26.5646 24.9961 26.4507 25.1205 26.368C25.2448 26.2853 25.3892 26.2368 25.5386 26.2273C25.6881 26.2179 25.8373 26.2479 25.9713 26.3143C25.8233 25.6472 25.6955 25.0268 25.5475 24.3931C25.3121 23.4124 26.9396 22.9388 27.2691 23.8994C27.2691 23.9728 27.3028 24.0529 27.3297 24.1263C27.3328 24.1618 27.3328 24.1975 27.3297 24.233C27.4133 24.0888 27.5347 23.9698 27.6811 23.8886C27.8274 23.8074 27.9932 23.767 28.1608 23.7718C28.3284 23.7766 28.4916 23.8264 28.633 23.9158C28.7744 24.0052 28.8887 24.131 28.9638 24.2797C28.9638 24.1329 28.9638 23.9861 28.9302 23.8394C28.9159 23.6144 28.9872 23.3924 29.13 23.2171C29.2728 23.0417 29.4767 22.9259 29.7014 22.8923C29.926 22.8588 30.1552 22.9101 30.3436 23.036C30.5321 23.162 30.6661 23.3534 30.7191 23.5726V23.7327C30.9531 23.6992 31.1911 23.753 31.3874 23.8836C31.5836 24.0142 31.7241 24.2124 31.7816 24.4398C31.8421 24.6799 31.8824 24.9201 31.9362 25.1603C32.1464 25.1303 32.3603 25.1803 32.5348 25.3003C32.6518 25.176 32.8006 25.0858 32.9655 25.0392C33.1304 24.9927 33.305 24.9917 33.4704 25.0363C33.6358 25.0809 33.7856 25.1694 33.904 25.2924C34.0224 25.4153 34.1047 25.568 34.142 25.734C34.8639 29.2074 35.5791 32.6808 36.2874 36.1541C36.6304 37.7952 37.9282 40.6504 37.3028 42.3049C37.1315 42.599 36.8989 42.8534 36.6206 43.0513C36.3422 43.2492 36.0246 43.3859 35.6888 43.4523C35.7292 43.7525 35.7829 44.0526 35.8233 44.3528C35.8375 44.5778 35.7662 44.7999 35.6235 44.9752C35.4807 45.1505 35.277 45.2664 35.0523 45.2999C34.8276 45.3334 34.5984 45.2822 34.41 45.1562C34.2216 45.0303 34.0876 44.8389 34.0345 44.6197C34.0009 44.4596 33.9739 44.2995 33.9403 44.1327H33.8866C33.9538 44.6531 34.0144 45.1734 34.1018 45.6937C34.1229 45.8386 34.1071 45.9865 34.056 46.1239C34.005 46.2612 33.9202 46.3838 33.8094 46.4805C33.6986 46.5772 33.5651 46.645 33.4213 46.6777C33.2774 46.7103 33.1276 46.7069 32.9854 46.6677C32.8759 46.876 32.6897 47.0345 32.4656 47.1103C32.2414 47.186 31.9965 47.1733 31.7816 47.0746C31.7142 47.199 31.618 47.3057 31.501 47.3861C31.384 47.4665 31.2495 47.5183 31.1084 47.5371C30.9674 47.556 30.8239 47.5415 30.6896 47.4947C30.5553 47.448 30.434 47.3703 30.3358 47.2681C30.2871 47.4687 30.1705 47.6466 30.0054 47.7722C29.8404 47.8977 29.6369 47.9632 29.429 47.9578C29.2211 47.9523 29.0213 47.8761 28.8632 47.7421C28.7051 47.6081 28.5981 47.4243 28.5603 47.2214C28.5603 47.048 28.5066 46.8678 28.4662 46.6944C28.3126 46.8045 28.1279 46.8639 27.9383 46.8639C27.7488 46.8639 27.564 46.8045 27.4103 46.6944L26.2537 47.1347C26.1282 47.188 25.9923 47.2126 25.856 47.2066C25.7197 47.2006 25.5864 47.1642 25.4662 47.1001C25.346 47.036 25.2419 46.9458 25.1617 46.8363C25.0814 46.7268 25.0273 46.6008 25.0029 46.4676C24.752 40.5862 23.996 34.7367 22.7432 28.9828C22.5684 27.8887 24.2294 27.6085 24.5522 28.6359Z" fill="#CF6A5C"/>
<path d="M23.0073 222.497C24.2985 207.481 24.4934 192.551 24.4329 177.501C24.3925 166.981 27.3784 158.081 30.6804 148.208C34.7153 136.114 38.6965 123.986 42.7853 111.918C45.9863 102.531 52.4758 102.691 61.9042 102.231C61.6083 100.777 61.2316 99.3226 60.8551 97.8883C60.2229 95.6802 63.6055 94.406 64.2175 96.6208C67.0285 106.507 67.5801 116.681 65.1456 126.707C62.422 137.915 54.2781 146.587 53.1887 158.061C52.7852 162.338 52.449 165.847 49.6716 169.309C48.0576 171.31 45.6366 172.704 44.1504 174.812C41.0032 179.242 42.1328 184.372 42.1934 189.195C42.24 201.379 39.906 213.456 35.3205 224.759C35.1911 225.045 34.9859 225.291 34.7265 225.471C34.4671 225.651 34.1634 225.757 33.8478 225.779C30.6677 225.814 27.4984 225.406 24.4329 224.565C23.9784 224.459 23.5804 224.187 23.3168 223.805C23.0531 223.422 22.9428 222.956 23.0073 222.497Z" fill="black"/>
<path d="M68.8102 219.242C61.0967 206.26 52.5426 193.972 43.706 181.73C37.5392 173.185 34.7754 164.212 31.7021 154.265C27.9361 142.077 24.0961 129.916 20.4041 117.708C17.5393 108.215 22.9193 104.626 30.3369 98.8288C29.2474 97.8148 28.1176 96.8274 26.9744 95.8935C25.1721 94.4525 27.1829 91.4706 28.9919 92.9182C37.0618 99.3691 43.4438 107.341 47.3106 116.934C51.628 127.608 50.0544 139.382 55.8715 149.375C58.0369 153.091 59.8123 156.147 59.5702 160.563C59.429 163.131 58.2723 165.646 58.2858 168.221C58.2858 173.652 62.2265 177.167 65.0846 181.076C72.2352 190.982 77.3807 202.169 80.2359 214.018C80.2974 214.326 80.2742 214.644 80.1689 214.94C80.0636 215.236 79.8801 215.498 79.6375 215.699C77.061 217.552 74.2361 219.039 71.2447 220.116C70.8037 220.31 70.3041 220.327 69.8503 220.164C69.3966 220.001 69.0239 219.671 68.8102 219.242Z" fill="black"/>
<path d="M9.93345 60.8909C9.37528 53.993 12.8454 50.0303 18.0034 45.5474C19.4121 44.3342 20.9042 43.2196 22.4688 42.2118C23.2952 42.6262 24.1756 42.9248 25.0848 43.0991C26.2859 43.3024 27.5059 43.3763 28.7231 43.3192C29.9941 43.3192 31.2314 42.999 32.4889 42.8656C33.786 42.7391 35.0322 42.2997 36.1189 41.5857C37.2055 40.8718 38.0995 39.9049 38.723 38.7695C46.9408 41.8115 54.8628 44.1931 61.5339 50.1104C68.205 56.0276 72.9664 63.4992 76.961 71.2577C79.1198 75.4538 81.581 79.8567 83.0672 84.3264C83.8338 86.6479 83.7397 88.9561 81.9307 90.8106C80.0074 92.812 76.9744 93.4791 74.318 93.9461C71.6463 94.3846 68.9522 94.6763 66.2481 94.82C66.5978 97.5751 66.9207 100.33 67.1897 103.092C67.5596 106.961 68.9248 112.272 68.0572 116.094C67.9939 116.67 67.7602 117.215 67.3857 117.66C67.0112 118.105 66.5125 118.431 65.9522 118.596C62.3947 120.177 56.9744 120.157 53.1143 120.65C44.5455 121.807 35.8892 122.195 27.2502 121.811C24.7956 121.684 20.115 122.171 18.1446 120.404C16.5171 118.949 16.7997 115.647 16.5912 113.732C14.3787 96.2009 11.3659 78.5425 9.93345 60.8909Z" fill="#F9B34A"/>
<path d="M12.704 9.59694C12.5157 6.72171 14.9703 -1.07679 18.5816 2.0386C19.9669 0.804455 21.5674 -0.209548 23.5445 0.0372813C25.3401 0.244085 26.127 1.3715 27.8755 1.3715C31.3523 1.3715 36.1806 0.424228 36.1268 4.77377C40.2022 4.60699 43.3697 7.85579 42.2668 12.1853C40.6259 18.6296 40.5721 22.2453 37.5593 28.4294C37.371 28.8096 35.7704 31.7649 35.4543 31.8449C35.0038 31.985 32.9997 29.2233 32.0919 27.7956C31.1168 26.2146 30.4241 23.9131 28.5815 22.8524C27.1894 22.0585 25.7772 22.9791 24.5869 22.3053C23.6923 21.8526 23.0099 21.0728 22.6837 20.1305C20.7402 15.6543 19.6508 11.3247 13.1545 11.665C12.2668 11.665 12.7241 9.81041 12.704 9.59694Z" fill="black"/>
<path d="M9.71766 91.0372C10.6231 100.093 11.1786 109.529 8.31284 118.322C7.84933 119.742 6.68166 122.73 7.81046 123.083C10.1171 123.802 15.8548 124.586 18.0805 124.885C18.2783 124.892 18.4734 124.837 18.6384 124.729C18.8034 124.62 18.9301 124.463 19.0006 124.28C28.981 103.548 32.0287 72.6253 12.9952 55.6392C12.8731 55.5282 12.723 55.4522 12.5609 55.4192C12.3987 55.3862 12.2304 55.3976 12.0742 55.452L10.6995 55.6393C7.00767 67.7123 8.26531 76.4306 9.71766 91.0372Z" fill="#F9B34A"/>
<path d="M54.0748 102.431C52.6357 102.304 51.553 100.089 51.0217 99.0087C49.1925 95.3263 58.4998 93.2182 59.2799 93.2849L59.5085 93.2116C61.4049 92.6045 62.871 92.3443 64.6195 91.2836C64.7322 91.2097 64.8602 91.1617 64.994 91.143C65.1278 91.1244 65.2641 91.1356 65.393 91.1759C65.5218 91.2162 65.64 91.2845 65.7389 91.3758C65.8378 91.4671 65.9148 91.5792 65.9645 91.7039C66.3075 93.1182 67.0473 93.6118 66.0385 94.7926C65.0298 95.9734 62.9584 96.3603 61.4117 96.994C61.3646 97.3476 61.5059 98.8153 61.3041 99.0888C60.7325 99.8826 55.2046 102.531 54.0748 102.431Z" fill="#CF6A5C"/>
<path d="M71.4862 98.6764C70.1412 99.5175 68.5904 99.9788 67.0007 100.011C66.495 100.064 65.9839 100.034 65.4876 99.9239C63.4231 99.3835 62.078 96.2748 61.2307 94.547C60.1412 92.2989 59.6974 91.0447 61.3854 89.1367C62.3403 88.0627 63.349 87.022 64.3981 86.0014C64.3939 85.8777 64.4229 85.7551 64.482 85.6462C64.5411 85.5372 64.6281 85.4457 64.7344 85.3809C64.9966 85.2208 65.2723 85.0674 65.5481 84.9206C68.3456 82.2522 71.2979 79.7372 73.9812 77.0621C74.7949 76.2549 76.2072 77.369 75.3867 78.1895C73.71 79.8573 72.0197 81.5162 70.3161 83.1662C74.1628 82.3056 78.386 82.5991 81.3921 85.0073C86.0054 88.6898 76.9267 95.561 73.9542 97.2755L72.9859 97.8158C72.5429 98.1732 72.0518 98.4674 71.5266 98.6897L71.4862 98.6764ZM79.6571 87.589C78.8031 83.2595 72.0376 84.2535 67.922 85.8279C70.0134 85.968 72.569 85.5544 74.1829 85.481C74.3577 85.4757 74.5307 85.518 74.6829 85.6034C74.8351 85.6889 74.9605 85.8142 75.0459 85.9656C75.1312 86.117 75.173 86.2887 75.1667 86.4621C75.1604 86.6354 75.1062 86.8038 75.0101 86.9487H75.0976C75.3242 86.942 75.545 87.0197 75.7167 87.1665C75.8885 87.3132 75.9988 87.5184 76.0257 87.7417C76.0527 87.965 75.9945 88.1902 75.8625 88.373C75.7306 88.5559 75.5344 88.6831 75.3127 88.7298C74.4653 88.8766 73.6247 88.9967 72.7774 89.0967C74.1224 89.0967 75.4673 89.1634 76.8123 89.2968C77.2965 89.2968 77.7808 89.3302 78.2718 89.3636C78.4227 89.3697 78.5672 89.4261 78.6819 89.5237H78.9039C79.1031 89.545 79.2887 89.6347 79.4284 89.7772C79.713 89.0772 79.7923 88.3118 79.6571 87.5691V87.589Z" fill="#F9B34A"/>
</svg>
