<svg width="1121" height="345" viewBox="0 0 1121 345" fill="none" xmlns="http://www.w3.org/2000/svg">
<path d="M1066.47 145.485C1066.8 144.397 1068.58 144.698 1068.25 145.805C1061.59 168.075 1060.09 191.55 1063.85 214.477C1064.04 215.611 1062.24 215.771 1062.06 214.637C1058.26 191.551 1059.77 167.913 1066.47 145.485Z" fill="#9E4D4D"/>
<path d="M1046.55 233.043C1046.38 232.049 1046.47 231.02 1046.84 230.059C1047.17 229.432 1047.65 228.976 1048.01 228.382C1048.06 227.282 1048.13 226.185 1048.26 225.113C1048.26 224.133 1048.41 223.153 1048.72 222.211C1049.34 221.006 1051.23 221.367 1052.34 221.721C1052.48 220.756 1054.05 220.874 1053.9 221.848L1053.05 227.416C1053.05 227.565 1053.06 227.714 1053.07 227.862C1053.23 229.061 1054.11 229.972 1054.31 231.155C1054.43 231.887 1054.47 232.629 1054.44 233.372C1054.76 234.625 1054.86 235.846 1054.36 236.697C1053.6 238.025 1050.01 238.829 1048.55 238.497C1046.16 237.918 1046.64 234.791 1046.55 233.043Z" fill="#CF6A5C"/>
<path d="M1064.13 318.96C1064.13 319.587 1064.13 320.207 1064.13 320.828C1064.29 319.494 1064.45 318.159 1064.63 316.825C1064.63 316.733 1064.65 316.643 1064.69 316.559C1064.73 316.476 1064.79 316.401 1064.85 316.339C1064.92 316.276 1065 316.228 1065.09 316.197C1065.18 316.165 1065.27 316.151 1065.36 316.155C1065.45 316.159 1065.55 316.181 1065.63 316.22C1065.71 316.258 1065.79 316.313 1065.85 316.381C1065.91 316.449 1065.96 316.528 1066 316.615C1066.03 316.701 1066.04 316.793 1066.04 316.885C1066.07 317.712 1066.08 318.546 1066.1 319.374C1066.11 319.303 1066.13 319.234 1066.16 319.167C1066.16 318.973 1066.21 318.773 1066.23 318.58C1066.23 318.45 1066.27 318.322 1066.33 318.211C1066.4 318.099 1066.5 318.008 1066.61 317.947C1066.73 317.886 1066.86 317.857 1066.99 317.864C1067.12 317.871 1067.25 317.913 1067.36 317.986C1067.36 317.532 1067.4 317.085 1067.43 316.652C1067.49 315.511 1071.51 307.105 1071.46 308.253C1071.15 314.143 1068.44 328.266 1067.85 334.19C1067.6 336.658 1067.32 341.581 1064.48 341.935C1062.26 342.209 1061.87 339.32 1061.79 337.265C1061.51 331.388 1062.21 325.151 1062.72 319.253C1062.79 318.019 1064.11 317.806 1064.13 318.96Z" fill="#CF6A5C"/>
<path d="M1059.08 338.006C1059.5 337.897 1059.89 337.67 1060.18 337.352C1060.48 337.035 1060.68 336.639 1060.77 336.212C1060.87 335.865 1060.88 334.477 1061.16 334.29C1061.43 334.103 1061.3 334.144 1061.78 334.13C1063.39 334.09 1066.1 334.317 1067.12 334.404C1067.57 334.444 1067.65 334.51 1067.68 335.431C1067.68 335.478 1067.56 338.727 1067.42 340.441C1067.25 342.442 1066.93 343.009 1065.1 343.25C1060.68 343.83 1055.5 344.05 1050.97 344.364C1050.78 344.362 1050.59 344.285 1050.45 344.148C1050.3 344.011 1050.22 343.826 1050.21 343.63C1049.84 340.748 1050.03 340.961 1052.45 340.181C1053.8 339.741 1057.91 338.353 1059.08 338.006Z" fill="#1C1C1C"/>
<path d="M1104.31 312.376C1104.63 312.91 1104.94 313.45 1105.27 313.984C1104.73 312.736 1104.21 311.489 1103.69 310.228C1103.6 310.061 1103.58 309.867 1103.64 309.687C1103.69 309.507 1103.82 309.356 1103.99 309.267C1104.16 309.179 1104.35 309.16 1104.53 309.215C1104.71 309.27 1104.87 309.394 1104.96 309.561C1105.39 310.268 1105.81 310.988 1106.24 311.702C1106.22 311.635 1106.2 311.566 1106.19 311.495C1106.11 311.309 1106.04 311.128 1105.96 310.942C1105.9 310.829 1105.87 310.703 1105.87 310.576C1105.88 310.449 1105.91 310.325 1105.98 310.217C1106.05 310.109 1106.15 310.021 1106.26 309.962C1106.37 309.903 1106.5 309.875 1106.63 309.881C1106.42 309.474 1106.22 309.067 1106.02 308.66C1105.51 307.639 1104.84 298.36 1105.35 299.387C1108 304.671 1112.65 318.32 1115.06 323.743C1116.07 326.011 1118.26 330.414 1115.94 332.135C1114.14 333.47 1112.37 331.135 1111.23 329.374C1108.08 324.39 1105.59 318.62 1103.1 313.21C1102.66 312.209 1103.7 311.395 1104.31 312.376Z" fill="#CF6A5C"/>
<path d="M1109.33 331.408C1109.64 331.106 1109.87 330.721 1109.97 330.298C1110.07 329.875 1110.05 329.432 1109.91 329.02C1109.83 328.673 1109.15 327.452 1109.3 327.159C1109.45 326.865 1109.36 326.959 1109.77 326.712C1111.15 325.891 1113.62 324.771 1114.55 324.35C1114.96 324.17 1115.07 324.184 1115.55 324.971C1115.55 325.024 1117.08 327.899 1117.81 329.46C1118.66 331.302 1118.65 331.942 1117.18 333.043C1113.61 335.711 1109.21 338.42 1105.4 340.914C1105.23 341.008 1105.02 341.032 1104.83 340.981C1104.64 340.93 1104.48 340.808 1104.38 340.641C1102.62 338.313 1102.89 338.4 1104.61 336.545C1105.6 335.504 1108.47 332.296 1109.33 331.408Z" fill="#1C1C1C"/>
<path d="M1048.8 129.668C1048.96 127.324 1049.26 124.992 1049.7 122.684C1049.6 121.87 1049.5 121.069 1049.44 120.295C1048.83 112.957 1053.71 103.851 1063.13 106.54C1071.87 109.035 1076.13 117.1 1075.23 124.898C1075.52 131.916 1072.67 137.574 1063.43 139.115C1059.25 139.782 1056.25 140.389 1054.01 137.34C1052.96 135.912 1052.49 133.271 1051.83 131.536C1050.46 131.436 1048.73 131.383 1048.8 129.668Z" fill="#CF6A5C"/>
<path d="M1061.55 131.636C1061.55 131.282 1061.55 130.969 1061.55 130.588C1061.56 130.417 1061.63 130.253 1061.75 130.128C1061.74 129.98 1061.77 129.832 1061.83 129.698C1061.9 129.565 1062 129.451 1062.12 129.368C1062.25 129.285 1062.39 129.237 1062.54 129.227C1062.69 129.218 1062.84 129.248 1062.97 129.314C1062.82 128.647 1062.7 128.027 1062.55 127.393C1062.31 126.412 1063.94 125.939 1064.27 126.899C1064.27 126.973 1064.3 127.053 1064.33 127.126C1064.33 127.162 1064.33 127.197 1064.33 127.233C1064.41 127.089 1064.54 126.97 1064.68 126.889C1064.83 126.807 1064.99 126.767 1065.16 126.772C1065.33 126.777 1065.49 126.826 1065.63 126.916C1065.78 127.005 1065.89 127.131 1065.96 127.28C1065.96 127.133 1065.96 126.986 1065.93 126.839C1065.92 126.614 1065.99 126.392 1066.13 126.217C1066.27 126.042 1066.48 125.926 1066.7 125.892C1066.93 125.859 1067.16 125.91 1067.34 126.036C1067.53 126.162 1067.67 126.353 1067.72 126.573V126.733C1067.95 126.699 1068.19 126.753 1068.39 126.884C1068.58 127.014 1068.73 127.212 1068.78 127.44C1068.84 127.68 1068.88 127.92 1068.94 128.16C1069.15 128.13 1069.36 128.18 1069.54 128.3C1069.65 128.176 1069.8 128.086 1069.97 128.039C1070.13 127.993 1070.31 127.992 1070.47 128.036C1070.64 128.081 1070.79 128.169 1070.9 128.292C1071.02 128.415 1071.11 128.568 1071.14 128.734C1071.86 132.207 1072.58 135.681 1073.29 139.154C1073.63 140.795 1074.93 143.65 1074.3 145.305C1074.13 145.599 1073.9 145.853 1073.62 146.051C1073.34 146.249 1073.03 146.386 1072.69 146.452C1072.73 146.752 1072.78 147.053 1072.82 147.353C1072.84 147.578 1072.77 147.8 1072.62 147.975C1072.48 148.151 1072.28 148.266 1072.05 148.3C1071.83 148.333 1071.6 148.282 1071.41 148.156C1071.22 148.03 1071.09 147.839 1071.04 147.62C1071 147.46 1070.97 147.3 1070.94 147.133H1070.89C1070.95 147.653 1071.02 148.173 1071.1 148.694C1071.12 148.839 1071.11 148.986 1071.06 149.124C1071.01 149.261 1070.92 149.384 1070.81 149.481C1070.7 149.577 1070.57 149.645 1070.42 149.678C1070.28 149.71 1070.13 149.707 1069.99 149.668C1069.88 149.876 1069.69 150.035 1069.47 150.11C1069.24 150.186 1069 150.173 1068.78 150.075C1068.72 150.199 1068.62 150.306 1068.5 150.386C1068.38 150.467 1068.25 150.518 1068.11 150.537C1067.97 150.556 1067.82 150.541 1067.69 150.495C1067.56 150.448 1067.43 150.37 1067.34 150.268C1067.29 150.469 1067.17 150.647 1067.01 150.772C1066.84 150.898 1066.64 150.963 1066.43 150.958C1066.22 150.952 1066.02 150.876 1065.86 150.742C1065.71 150.608 1065.6 150.424 1065.56 150.221C1065.56 150.048 1065.51 149.868 1065.47 149.694C1065.31 149.805 1065.13 149.864 1064.94 149.864C1064.75 149.864 1064.56 149.805 1064.41 149.694L1063.25 150.135C1063.13 150.188 1062.99 150.213 1062.86 150.207C1062.72 150.201 1062.59 150.164 1062.47 150.1C1062.35 150.036 1062.24 149.946 1062.16 149.836C1062.08 149.727 1062.03 149.601 1062 149.468C1061.75 143.586 1061 137.737 1059.74 131.983C1059.57 130.889 1061.23 130.609 1061.55 131.636Z" fill="#CF6A5C"/>
<path d="M1060.01 325.497C1061.3 310.481 1061.49 295.551 1061.43 280.501C1061.39 269.981 1064.38 261.081 1067.68 251.208C1071.72 239.114 1075.7 226.986 1079.79 214.918C1082.99 205.531 1089.48 205.691 1098.9 205.231C1098.61 203.777 1098.23 202.323 1097.86 200.888C1097.22 198.68 1100.61 197.406 1101.22 199.621C1104.03 209.507 1104.58 219.681 1102.15 229.707C1099.42 240.915 1091.28 249.587 1090.19 261.061C1089.79 265.338 1089.45 268.847 1086.67 272.309C1085.06 274.31 1082.64 275.704 1081.15 277.812C1078 282.242 1079.13 287.372 1079.19 292.195C1079.24 304.379 1076.91 316.456 1072.32 327.759C1072.19 328.045 1071.99 328.291 1071.73 328.471C1071.47 328.651 1071.16 328.757 1070.85 328.779C1067.67 328.814 1064.5 328.406 1061.43 327.565C1060.98 327.459 1060.58 327.187 1060.32 326.805C1060.05 326.422 1059.94 325.956 1060.01 325.497Z" fill="black"/>
<path d="M1105.81 322.242C1098.1 309.26 1089.54 296.972 1080.71 284.73C1074.54 276.185 1071.78 267.212 1068.7 257.265C1064.94 245.077 1061.1 232.916 1057.4 220.708C1054.54 211.215 1059.92 207.626 1067.34 201.829C1066.25 200.815 1065.12 199.827 1063.97 198.893C1062.17 197.453 1064.18 194.471 1065.99 195.918C1074.06 202.369 1080.44 210.341 1084.31 219.934C1088.63 230.608 1087.05 242.382 1092.87 252.375C1095.04 256.091 1096.81 259.147 1096.57 263.563C1096.43 266.131 1095.27 268.646 1095.29 271.221C1095.29 276.652 1099.23 280.167 1102.08 284.076C1109.24 293.982 1114.38 305.169 1117.24 317.018C1117.3 317.326 1117.27 317.644 1117.17 317.94C1117.06 318.236 1116.88 318.498 1116.64 318.699C1114.06 320.552 1111.24 322.039 1108.24 323.116C1107.8 323.31 1107.3 323.327 1106.85 323.164C1106.4 323.001 1106.02 322.671 1105.81 322.242Z" fill="black"/>
<path d="M1046.93 163.891C1046.38 156.993 1049.85 153.03 1055 148.547C1056.41 147.334 1057.9 146.22 1059.47 145.212C1060.3 145.626 1061.18 145.925 1062.08 146.099C1063.29 146.302 1064.51 146.376 1065.72 146.319C1066.99 146.319 1068.23 145.999 1069.49 145.866C1070.79 145.739 1072.03 145.3 1073.12 144.586C1074.21 143.872 1075.1 142.905 1075.72 141.77C1083.94 144.812 1091.86 147.193 1098.53 153.11C1105.21 159.028 1109.97 166.499 1113.96 174.258C1116.12 178.454 1118.58 182.857 1120.07 187.326C1120.83 189.648 1120.74 191.956 1118.93 193.811C1117.01 195.812 1113.97 196.479 1111.32 196.946C1108.65 197.385 1105.95 197.676 1103.25 197.82C1103.6 200.575 1103.92 203.33 1104.19 206.092C1104.56 209.961 1105.92 215.272 1105.06 219.094C1104.99 219.67 1104.76 220.215 1104.39 220.66C1104.01 221.105 1103.51 221.431 1102.95 221.596C1099.39 223.177 1093.97 223.157 1090.11 223.65C1081.55 224.807 1072.89 225.195 1064.25 224.811C1061.8 224.684 1057.11 225.171 1055.14 223.404C1053.52 221.949 1053.8 218.647 1053.59 216.732C1051.38 199.201 1048.37 181.543 1046.93 163.891Z" fill="#F9B34A"/>
<path d="M1049.7 112.597C1049.52 109.722 1051.97 101.923 1055.58 105.039C1056.97 103.804 1058.57 102.79 1060.54 103.037C1062.34 103.244 1063.13 104.371 1064.88 104.371C1068.35 104.371 1073.18 103.424 1073.13 107.774C1077.2 107.607 1080.37 110.856 1079.27 115.185C1077.63 121.63 1077.57 125.245 1074.56 131.429C1074.37 131.81 1072.77 134.765 1072.45 134.845C1072 134.985 1070 132.223 1069.09 130.796C1068.12 129.215 1067.42 126.913 1065.58 125.852C1064.19 125.058 1062.78 125.979 1061.59 125.305C1060.69 124.853 1060.01 124.073 1059.68 123.131C1057.74 118.654 1056.65 114.325 1050.15 114.665C1049.27 114.665 1049.72 112.81 1049.7 112.597Z" fill="black"/>
<path d="M1046.72 194.037C1047.62 203.093 1048.18 212.529 1045.31 221.322C1044.85 222.742 1043.68 225.73 1044.81 226.083C1047.12 226.802 1052.85 227.586 1055.08 227.885C1055.28 227.892 1055.47 227.837 1055.64 227.729C1055.8 227.62 1055.93 227.463 1056 227.28C1065.98 206.548 1069.03 175.625 1049.99 158.639C1049.87 158.528 1049.72 158.452 1049.56 158.419C1049.4 158.386 1049.23 158.398 1049.07 158.452L1047.7 158.639C1044.01 170.712 1045.26 179.431 1046.72 194.037Z" fill="#F9B34A"/>
<path d="M1091.07 205.431C1089.64 205.304 1088.55 203.089 1088.02 202.009C1086.19 198.326 1095.5 196.218 1096.28 196.285L1096.51 196.212C1098.4 195.605 1099.87 195.344 1101.62 194.284C1101.73 194.21 1101.86 194.162 1101.99 194.143C1102.13 194.124 1102.26 194.136 1102.39 194.176C1102.52 194.216 1102.64 194.284 1102.74 194.376C1102.84 194.467 1102.91 194.579 1102.96 194.704C1103.31 196.118 1104.05 196.612 1103.04 197.793C1102.03 198.973 1099.96 199.36 1098.41 199.994C1098.36 200.348 1098.51 201.815 1098.3 202.089C1097.73 202.883 1092.2 205.531 1091.07 205.431Z" fill="#CF6A5C"/>
<path d="M1108.49 201.676C1107.14 202.517 1105.59 202.979 1104 203.011C1103.5 203.064 1102.98 203.034 1102.49 202.924C1100.42 202.384 1099.08 199.275 1098.23 197.547C1097.14 195.299 1096.7 194.045 1098.39 192.137C1099.34 191.063 1100.35 190.022 1101.4 189.001C1101.39 188.878 1101.42 188.755 1101.48 188.646C1101.54 188.537 1101.63 188.446 1101.74 188.381C1102 188.221 1102.27 188.067 1102.55 187.921C1105.35 185.252 1108.3 182.737 1110.98 180.062C1111.8 179.255 1113.21 180.369 1112.39 181.19C1110.71 182.857 1109.02 184.516 1107.32 186.166C1111.16 185.306 1115.39 185.599 1118.39 188.007C1123.01 191.69 1113.93 198.561 1110.96 200.275L1109.99 200.816C1109.54 201.173 1109.05 201.467 1108.53 201.69L1108.49 201.676ZM1116.66 190.589C1115.8 186.26 1109.04 187.254 1104.92 188.828C1107.01 188.968 1109.57 188.554 1111.18 188.481C1111.36 188.476 1111.53 188.518 1111.68 188.603C1111.84 188.689 1111.96 188.814 1112.05 188.966C1112.13 189.117 1112.17 189.289 1112.17 189.462C1112.16 189.635 1112.11 189.804 1112.01 189.949H1112.1C1112.33 189.942 1112.55 190.02 1112.72 190.166C1112.89 190.313 1113 190.518 1113.03 190.742C1113.05 190.965 1113 191.19 1112.86 191.373C1112.73 191.556 1112.54 191.683 1112.31 191.73C1111.47 191.877 1110.63 191.997 1109.78 192.097C1111.12 192.097 1112.47 192.163 1113.81 192.297C1114.3 192.297 1114.78 192.33 1115.27 192.364C1115.42 192.37 1115.57 192.426 1115.68 192.524H1115.9C1116.1 192.545 1116.29 192.635 1116.43 192.777C1116.71 192.077 1116.79 191.312 1116.66 190.569V190.589Z" fill="#F9B34A"/>
<path fill-rule="evenodd" clip-rule="evenodd" d="M27.8841 38.7833C19.5173 26.3877 5.29367 1.28682 15.3338 0.0472678C25.374 -1.19228 47.7552 22.2559 57.6907 34.1349C58.0395 34.1349 58.3632 34.1379 58.668 34.1406C61.1052 34.1628 62.3352 34.1739 65.5346 32.5855C65.5346 27.9372 67.5861 26.8513 71.8097 26.3878C83.1049 25.1482 106.846 25.8713 117.304 26.3878C113.121 22.7724 105.382 15.2318 107.892 13.9922C110.402 12.7527 119.396 19.6735 123.579 23.2889C126.194 19.6735 132.051 12.1329 134.561 10.8934C137.698 9.34392 137.698 13.9922 134.561 20.19C134.095 21.1096 133.63 21.9268 133.205 22.6721C130.769 26.9499 129.682 28.8567 137.698 34.1349C147.111 40.3327 139.267 43.4316 131.423 38.7833C123.579 34.1349 84.36 44.981 79.6536 49.6293C74.9473 54.2777 74.9473 57.3765 84.36 66.6732C93.7726 75.9698 117.304 103.86 111.029 110.057C108.6 112.457 103.378 110.357 97.746 106.672L62.8728 110.388L54.2836 123.974L95.2079 127.464C96.0224 127.533 96.6877 128.074 96.951 128.798L97.05 128.807L96.9522 128.802C97.0393 129.043 97.0819 129.304 97.0708 129.576C97.0243 130.709 96.059 131.583 94.9238 131.544C88.1115 131.306 79.5017 131.735 71.3911 135.633C66.0845 138.183 61.0259 141.622 56.8312 146.03V341.526C56.8312 342.892 55.7222 344 54.3542 344H45.1134C43.7454 344 42.6364 342.892 42.6364 341.526V149.477C41.7875 148.193 40.9751 146.945 40.1884 145.736L40.1866 145.733C39.868 145.244 39.5537 144.761 39.2428 144.285C36.7851 140.519 34.5534 137.185 32.1492 134.296C27.4017 128.591 21.9862 127.098 12.8895 125.29L2.30978 124.388C0.983407 124.275 -0.0271203 123.152 0.000555029 121.823C0.0101701 121.361 0.143739 120.929 0.369113 120.562L0.0518458 120.535C0.163468 120.535 0.274712 120.535 0.385588 120.535C0.832815 119.826 1.62486 119.361 2.52468 119.385C6.54491 119.49 10.0773 119.856 13.2203 120.472L45.1093 123.191L37.1566 113.128L14.4845 115.544C13.1853 115.682 12.0197 114.742 11.8811 113.445C11.7426 112.147 12.6834 110.982 13.9827 110.844L92.0175 102.528C87.9014 99.3008 83.9939 95.751 81.2224 93.0136L42.003 55.8271C38.8655 55.8271 31.6492 55.2073 27.8841 52.7282C27.0997 52.2118 26.1846 51.7383 25.2695 51.2649C20.6939 48.8977 16.1183 46.5305 27.8841 38.7833Z" fill="black"/>
</svg>
