<svg width="156" height="225" viewBox="0 0 156 225" fill="none" xmlns="http://www.w3.org/2000/svg">
<path d="M29.9873 94.7664C29.8502 93.5788 30.7787 92.5371 31.9741 92.5371H60.1948C60.6792 92.5371 61.1455 92.7121 61.4651 93.0761C62.913 94.7254 66.8922 100.309 66.8922 111.861C66.8922 125.983 63.176 126.726 56.4868 137.132C50.9017 145.82 32.3635 142.072 26.3957 140.599C25.3451 140.339 24.7465 139.272 25.0219 138.225L31.8639 112.226C31.9273 111.985 31.9451 111.735 31.9166 111.487L29.9873 94.7664Z" fill="#58C5AF"/>
<path d="M43.8234 11.7312C43.1151 11.3611 42.3697 11.0667 41.5996 10.8525C41.2866 11.3891 40.9073 11.8842 40.4705 12.3262C39.0431 13.7211 37.1328 14.5138 35.1359 14.5401H33.7503C33.0986 14.5312 32.4509 14.4358 31.8244 14.2564C30.0776 16.4179 28.9585 19.0168 28.5891 21.7699C28.4921 22.5032 28.3952 24.4335 28.3329 25.2291C27.5293 27.3046 26.6978 28.2179 26.1574 30.3349C25.7556 31.9054 27.3282 32.2929 28.5753 32.6527C28.8385 34.3823 28.7623 36.9213 29.4412 38.4365C30.903 41.6882 33.7711 41.7297 37.7547 41.8957C46.5322 42.3039 50.2664 37.5993 51.3818 31.0614C53.6819 24.0253 51.3679 15.7439 43.8234 11.7312Z" fill="#794343"/>
<path d="M47.2948 33.4148C47.468 36.7564 48.8328 53.7343 48.0222 55.1941C47.7105 55.7476 35.9678 57.92 36.0301 57.3527C36.6259 51.8179 36.6121 40.4163 36.2588 34.84C36.2034 33.7469 47.2532 32.5846 47.2948 33.4148Z" fill="#794343"/>
<path d="M33.6322 163.598C27.7366 171.271 22.1113 179.068 19.9983 188.567C17.9823 197.637 15.9315 206.963 14.5252 216.144C14.449 216.649 15.9108 217.05 15.4189 217.14L10.9643 218.012C10.2023 218.157 9.75893 217.382 9.79357 216.753C10.618 202.141 10.4102 187.003 12.7587 172.53C14.8371 159.655 20.5385 147.755 26.1293 136.097C26.732 134.845 28.6996 135.744 28.0969 137.003C27.4942 138.263 26.8914 139.515 26.2956 140.774C31.7062 141.798 38.3085 145.133 40.4077 150.667C42.2643 155.587 36.2579 160.18 33.6322 163.598Z" fill="#794343"/>
<path d="M8.06947 217.534C8.44592 217.432 8.78583 217.225 9.05047 216.939C9.3151 216.653 9.4937 216.298 9.56583 215.915C9.65589 215.604 9.66281 214.358 9.90529 214.192C10.1478 214.026 10.03 214.054 10.4595 214.04C11.9005 213.999 14.3113 214.185 15.2189 214.262C15.6207 214.262 15.6969 214.351 15.7246 215.175C15.7246 215.223 15.6347 218.136 15.5238 219.679C15.3853 221.491 15.0943 221.983 13.4455 222.211C9.51047 222.757 4.88946 222.979 0.836673 223.29C0.652934 223.29 0.476774 223.217 0.346852 223.087C0.216929 222.958 0.143888 222.782 0.143888 222.598C-0.209433 220.011 -0.0361691 220.191 2.11839 219.485C3.37926 219.139 7.02337 217.852 8.06947 217.534Z" fill="#F9B34A"/>
<path d="M62.0929 156.748C62.3492 166.434 62.9034 176.016 67.2541 184.719C71.4108 193.021 75.6991 201.566 80.417 209.584C80.6733 210.02 82.038 209.432 81.7332 209.799L78.8235 213.258C78.7038 213.372 78.5595 213.458 78.4017 213.509C78.2439 213.56 78.0767 213.574 77.9126 213.55C77.7484 213.527 77.5918 213.467 77.4544 213.374C77.317 213.282 77.2024 213.159 77.1193 213.016C68.5496 201.144 58.8299 189.493 51.5348 176.804C45.0365 165.493 41.9535 152.673 38.9468 140.095C38.6282 138.746 40.7204 138.206 41.0252 139.562C41.33 140.918 41.6765 142.267 42.0091 143.623C46.8586 141.015 54.0911 139.472 59.2108 142.433C63.7485 145.111 61.9751 152.445 62.0929 156.748Z" fill="#794343"/>
<path d="M7.09564 204.596C9.71137 192.468 11.4282 180.297 12.9502 168.002C14.0158 159.407 17.3685 152.45 21.0794 144.731C25.6172 135.274 30.1148 125.784 34.6935 116.354C38.2717 109.022 43.5225 109.826 51.2236 110.429C51.1352 109.211 50.9813 107.984 50.8254 106.774C50.5428 104.905 53.4215 104.216 53.687 106.088C54.9366 114.452 54.3222 122.817 51.2995 130.751C47.9187 139.62 44.8624 141.397 42.7802 150.653C42.0063 154.103 41.367 156.933 38.7512 159.472C37.2322 160.939 33.6351 166.286 32.2086 167.853C29.1916 171.143 26.6 175.449 26.1456 179.394C24.9115 189.347 21.7562 198.967 16.8542 207.72C16.7192 207.941 16.527 208.12 16.2977 208.24C16.0684 208.36 15.8107 208.416 15.5522 208.401C12.9673 208.099 10.4374 207.437 8.0369 206.432C7.67914 206.298 7.38442 206.035 7.21034 205.696C7.03625 205.356 6.99539 204.964 7.09564 204.596Z" fill="#58C5AF"/>
<path d="M48.5281 172.513C55.114 183.089 61.4565 193.681 67.0325 204.765C67.1817 205.128 67.4735 205.424 67.8467 205.592C68.2199 205.759 68.6457 205.784 69.035 205.663C71.6575 205.031 74.1694 204.056 76.4978 202.766C76.7191 202.623 76.8948 202.426 77.0065 202.195C77.1182 201.965 77.1619 201.71 77.1328 201.457L69.035 180.24C69.2174 178.161 64.6629 163.145 63.5997 156.695C62.2126 148.28 61.0198 138.071 59.4598 134.902L59.4598 115.577C59.4598 104.576 61.3713 102.097 55.0008 96.2532C49.4503 94.2917 39.3526 100.636 40.7753 101.941C41.6762 102.785 42.5618 103.671 43.411 104.576C36.6727 108.664 31.8317 111.133 33.551 119.018C35.7686 129.159 38.1154 139.275 40.3974 149.406L40.4108 149.465C42.2677 157.709 43.9433 165.148 48.5281 172.513Z" fill="#58C5AF"/>
<path d="M76.2522 214.727C76.4845 214.412 76.6212 214.037 76.6457 213.647C76.6703 213.257 76.5818 212.868 76.3907 212.527C76.2729 212.229 75.4832 211.261 75.5663 210.977C75.6495 210.694 75.5663 210.79 75.9058 210.514C76.9934 209.573 78.9887 208.203 79.7438 207.691C80.0764 207.463 80.1733 207.463 80.7137 208.078C80.7137 208.127 82.508 210.438 83.3948 211.704C84.4271 213.198 84.5171 213.779 83.3948 214.962C80.6791 217.861 77.2359 220.94 74.2777 223.735C74.139 223.84 73.9657 223.889 73.7924 223.872C73.6191 223.856 73.4586 223.775 73.3425 223.645C71.4373 221.86 71.6797 221.895 72.9129 219.992C73.6126 218.913 75.6356 215.633 76.2522 214.727Z" fill="#F9B34A"/>
<path d="M31.7166 84.6488C30.2972 94.023 31.7141 106.535 31.7166 106.658C31.7166 106.658 48.5613 108.516 54.2575 106.658C59.9537 104.8 65.4058 102.942 65.4058 102.942C66.8925 102.942 61.6172 85.4559 61.5946 81.971C61.5569 77.0662 61.4141 72.1292 61.0282 67.2384C60.709 63.2244 60.1548 58.9682 57.8774 55.6391C57.5186 54.9118 57.0938 54.2178 56.6084 53.5656C52.5544 48.2214 46.8948 47.5068 38.7823 49.1887C38.5812 49.234 32.01 53.6906 30.2972 59.2143C27.8448 67.079 28.3015 64.1198 27.8487 72.3004C27.6345 76.1332 30.7285 80.9778 31.7166 84.6488Z" fill="#58C5AF"/>
<path d="M30.9581 15.005C31.8982 13.6211 33.1485 11.9243 34.7613 11.2071C36.374 10.49 40.58 9.13728 42.3677 9.30825C48.0724 9.85387 49.974 11.2072 53.7772 15.005C59.482 22.6007 59.4088 31.1596 57.5804 37.792C57.1656 39.2904 51.8491 40.9935 49.974 41.5898C47.8418 42.2704 46.0169 35.443 45.4677 34.1451C44.7317 32.3986 44.4806 30.5413 44.0541 28.7209C43.7153 27.291 42.3676 26.3985 42.3676 26.3985C40.7327 24.9366 39.9372 25.5707 38.5644 24.4996C37.5129 23.6712 36.9396 23.2318 36.6628 22.6007C35.3367 19.5773 35.9692 17.3861 31.5296 16.6896C30.8578 16.5736 30.5141 15.348 30.9581 15.005Z" fill="#F9B34A"/>
<path d="M17.5728 114.501C17.7658 114.097 17.9484 113.669 18.1807 113.267C18.4372 112.823 18.7543 112.41 19.2127 112.096C19.8257 111.696 20.5 111.483 21.1207 111.132C21.3736 110.723 21.6495 110.326 21.8871 109.892C28.4013 99.0063 29.5512 94.1866 31.9202 81.8438C33.2229 75.0432 33.3046 68.1537 35.412 60.1361C36.0473 59.0009 36.8227 58.1636 37.7461 57.6841C37.8647 57.6225 37.9973 57.5807 38.1364 57.5611C38.2754 57.5414 38.4182 57.5443 38.5563 57.5697C38.6945 57.595 38.8252 57.6422 38.9413 57.7087C39.0574 57.7751 39.1563 57.8594 39.2325 57.9567C45.829 66.422 43.4196 80.7329 42.5997 84.2376C41.3961 89.3809 32.73 104.788 29.4501 108.378C28.4794 109.646 27.501 110.915 26.515 112.187C26.4445 112.308 26.3831 112.433 26.331 112.56C25.9401 113.635 26.3922 114.735 26.0626 115.81C25.8418 116.469 25.5467 117.109 25.1811 117.722C24.9205 118.904 24.4608 119.966 23.5949 120.495C22.2309 121.32 18.3307 120.625 17.0512 119.781C14.9978 118.451 16.86 116.004 17.5728 114.501Z" fill="#794343"/>
<path d="M44.5957 42.9685V27.1699C44.5957 25.7395 46.0536 24.7715 47.3718 25.3266L57.4934 29.5883C58.2351 29.9006 58.7173 30.6269 58.7173 31.4316V42.9685C58.7173 44.0731 57.8219 44.9685 56.7173 44.9685H46.5957C45.4911 44.9685 44.5957 44.0731 44.5957 42.9685Z" fill="#F9B34A"/>
<path d="M37.1626 55.4417C33.984 56.022 32.9294 62.6776 32.7372 67.0012C32.6984 67.8748 33.2724 68.6477 34.109 68.9022C38.7034 70.2997 41.8558 71.0512 43.8062 71.4194C45.0003 71.6448 45.9305 70.6501 45.7615 69.4467L44.6354 61.4287C44.6086 61.2377 44.556 61.0523 44.4711 60.8792C43.3798 58.6524 40.5916 54.8156 37.1626 55.4417Z" fill="#58C5AF"/>
<path d="M105.523 201.192C105.523 201.779 105.523 202.36 105.523 202.941C105.664 201.692 105.817 200.442 105.979 199.192C105.983 199.106 106.004 199.021 106.04 198.943C106.077 198.865 106.128 198.794 106.192 198.736C106.255 198.678 106.33 198.633 106.411 198.603C106.492 198.573 106.578 198.56 106.665 198.564C106.751 198.567 106.836 198.588 106.914 198.624C106.992 198.661 107.062 198.712 107.121 198.776C107.179 198.839 107.225 198.914 107.254 198.995C107.284 199.076 107.297 199.162 107.294 199.248C107.325 200.023 107.331 200.804 107.35 201.579C107.364 201.513 107.383 201.448 107.406 201.385C107.406 201.204 107.456 201.017 107.475 200.835C107.474 200.714 107.507 200.594 107.57 200.49C107.632 200.385 107.722 200.3 107.83 200.243C107.937 200.186 108.058 200.159 108.18 200.165C108.302 200.172 108.419 200.211 108.52 200.279C108.52 199.854 108.564 199.436 108.589 199.029C108.645 197.961 112.387 190.087 112.343 191.162C112.049 196.68 109.527 209.909 108.977 215.459C108.745 217.771 108.489 222.383 105.848 222.714C103.783 222.97 103.414 220.264 103.345 218.339C103.082 212.834 103.733 206.991 104.202 201.467C104.271 200.31 105.498 200.11 105.523 201.192Z" fill="#CF6A5C"/>
<path d="M142.906 195.023C143.206 195.523 143.494 196.029 143.794 196.529C143.3 195.361 142.812 194.192 142.33 193.011C142.247 192.855 142.229 192.673 142.281 192.504C142.333 192.335 142.449 192.194 142.605 192.111C142.761 192.028 142.944 192.011 143.113 192.062C143.282 192.114 143.423 192.23 143.506 192.386C143.913 193.048 144.301 193.723 144.702 194.392C144.68 194.329 144.663 194.264 144.652 194.198C144.583 194.023 144.514 193.855 144.439 193.68C144.382 193.575 144.355 193.456 144.359 193.337C144.363 193.218 144.399 193.102 144.462 193.001C144.526 192.9 144.615 192.818 144.721 192.762C144.827 192.707 144.945 192.681 145.065 192.686C144.871 192.305 144.683 191.924 144.495 191.542C144.02 190.586 143.4 181.894 143.869 182.856C146.335 187.805 150.665 200.591 152.905 205.672C153.844 207.797 155.884 211.921 153.725 213.533C152.054 214.783 150.402 212.596 149.345 210.946C146.41 206.278 144.101 200.872 141.779 195.804C141.366 194.867 142.336 194.105 142.906 195.023Z" fill="#CF6A5C"/>
<path d="M103.12 25.713C103.12 25.3818 103.12 25.088 103.12 24.7318C103.126 24.5708 103.19 24.4176 103.301 24.3007C103.291 24.1619 103.318 24.0229 103.379 23.8978C103.44 23.7727 103.533 23.666 103.649 23.5885C103.764 23.511 103.899 23.4656 104.038 23.4567C104.177 23.4479 104.316 23.476 104.44 23.5382C104.303 22.9133 104.184 22.3321 104.046 21.7385C103.827 20.8198 105.341 20.3761 105.648 21.276C105.648 21.3448 105.679 21.4198 105.704 21.4885C105.707 21.5218 105.707 21.5552 105.704 21.5885C105.782 21.4534 105.895 21.342 106.031 21.2659C106.167 21.1898 106.322 21.152 106.478 21.1565C106.634 21.161 106.785 21.2076 106.917 21.2914C107.049 21.3751 107.155 21.4929 107.225 21.6322C107.225 21.4948 107.225 21.3573 107.194 21.2198C107.18 21.0091 107.247 20.8011 107.379 20.6368C107.512 20.4726 107.702 20.364 107.911 20.3326C108.12 20.3012 108.333 20.3493 108.509 20.4672C108.684 20.5852 108.809 20.7645 108.858 20.9698V21.1198C109.076 21.0885 109.297 21.1388 109.48 21.2612C109.663 21.3836 109.793 21.5692 109.847 21.7822C109.903 22.0072 109.941 22.2322 109.991 22.4571C110.186 22.4291 110.385 22.4759 110.548 22.5884C110.657 22.4719 110.795 22.3873 110.948 22.3437C111.102 22.3002 111.264 22.2992 111.418 22.341C111.572 22.3828 111.712 22.4657 111.822 22.5809C111.932 22.6961 112.009 22.8391 112.043 22.9946C112.715 26.2483 113.38 29.5021 114.04 32.7558C114.359 34.2931 115.566 36.9678 114.984 38.5176C114.825 38.7931 114.609 39.0315 114.35 39.2168C114.091 39.4022 113.795 39.5303 113.483 39.5925C113.52 39.8737 113.57 40.1549 113.608 40.4361C113.621 40.6468 113.555 40.8548 113.422 41.0191C113.289 41.1834 113.099 41.2919 112.89 41.3233C112.681 41.3547 112.468 41.3067 112.293 41.1887C112.117 41.0707 111.993 40.8914 111.943 40.6861C111.912 40.5361 111.887 40.3861 111.856 40.2299H111.806C111.868 40.7173 111.924 41.2048 112.006 41.6922C112.025 41.8279 112.011 41.9664 111.963 42.0951C111.916 42.2238 111.837 42.3386 111.734 42.4292C111.631 42.5198 111.506 42.5833 111.373 42.6139C111.239 42.6445 111.099 42.6413 110.967 42.6046C110.865 42.7997 110.692 42.9482 110.483 43.0192C110.275 43.0901 110.047 43.0782 109.847 42.9858C109.784 43.1023 109.695 43.2023 109.586 43.2776C109.477 43.3529 109.352 43.4014 109.22 43.419C109.089 43.4367 108.956 43.4231 108.831 43.3793C108.706 43.3355 108.593 43.2627 108.501 43.167C108.456 43.3549 108.348 43.5216 108.194 43.6392C108.041 43.7568 107.851 43.8182 107.658 43.8131C107.464 43.8079 107.278 43.7366 107.131 43.6111C106.984 43.4855 106.885 43.3133 106.849 43.1233C106.849 42.9608 106.799 42.7921 106.762 42.6296C106.619 42.7328 106.447 42.7883 106.271 42.7883C106.094 42.7883 105.922 42.7328 105.779 42.6296L104.703 43.042C104.586 43.092 104.46 43.115 104.333 43.1094C104.206 43.1038 104.082 43.0697 103.97 43.0096C103.858 42.9496 103.762 42.8651 103.687 42.7625C103.612 42.66 103.562 42.5419 103.539 42.4171C103.306 36.9076 102.602 31.4281 101.437 26.0379C101.274 25.0131 102.819 24.7506 103.12 25.713Z" fill="#CF6A5C"/>
<path d="M101.681 207.315C102.882 193.248 103.064 179.262 103.007 165.164C102.97 155.309 105.748 146.972 108.821 137.724C112.575 126.394 116.28 115.033 120.085 103.728C123.063 94.9352 129.102 95.0851 137.875 94.654C137.6 93.2916 137.249 91.9293 136.899 90.5857C136.311 88.5172 139.458 87.3236 140.028 89.3984C142.644 98.6597 143.157 108.19 140.891 117.582C138.357 128.081 130.779 136.205 129.765 146.954C129.39 150.959 129.077 154.246 126.493 157.49C124.991 159.365 122.738 160.671 121.355 162.645C118.426 166.795 119.478 171.6 119.534 176.119C119.577 187.532 117.406 198.845 113.139 209.433C113.018 209.702 112.827 209.932 112.586 210.101C112.345 210.269 112.062 210.369 111.768 210.389C108.809 210.422 105.86 210.039 103.007 209.252C102.585 209.152 102.214 208.898 101.969 208.54C101.724 208.181 101.621 207.745 101.681 207.315Z" fill="black"/>
<path d="M144.302 204.266C137.124 192.105 129.164 180.594 120.942 169.127C115.204 161.121 112.632 152.716 109.772 143.399C106.268 131.981 102.694 120.589 99.259 109.153C96.5933 100.26 101.599 96.8982 108.502 91.4677C107.488 90.5178 106.437 89.5929 105.373 88.718C103.696 87.3682 105.567 84.5748 107.25 85.9309C114.759 91.9739 120.698 99.4417 124.296 108.428C128.313 118.427 126.849 129.457 132.262 138.818C134.277 142.299 135.929 145.161 135.704 149.298C135.572 151.704 134.496 154.06 134.509 156.472C134.509 161.559 138.175 164.852 140.835 168.514C147.489 177.793 152.277 188.273 154.934 199.373C154.991 199.661 154.969 199.959 154.871 200.236C154.773 200.514 154.602 200.759 154.377 200.948C151.979 202.683 149.351 204.076 146.567 205.085C146.157 205.266 145.692 205.283 145.27 205.13C144.847 204.978 144.501 204.668 144.302 204.266Z" fill="black"/>
<path d="M146.902 96.1978C145.928 89.3755 143.87 82.7611 142.21 76.0643L138.062 62.5351C136.724 56.6942 134.35 50.4114 132.81 48.3412C131.917 47.2232 131.014 46.1168 130.1 45.022C130.944 44.3206 131.692 43.4973 132.326 42.5738C134.711 38.7874 131.23 35.3971 128.513 32.9959L128.477 32.9646C125.927 30.7151 121.662 26.9522 118.193 28.1543C116.361 28.7868 115.332 30.7936 114.275 32.3681C113.08 34.1475 111.948 35.9536 110.914 37.8211L110.383 38.0366C107.454 37.1375 104.042 36.8103 101.887 38.0681C99.0645 39.7198 98.6619 44.8753 98.715 48.6208C93.8311 58.0562 100.221 70.484 99.3965 81.0204C98.0039 89.8014 96.3713 99.3612 98.1811 107.998C98.5377 109.688 101.08 111.123 104.056 111.123L112.786 111.123C116.044 110.95 119.28 110.563 122.477 109.964C130.842 108.181 131.857 106.551 139.779 103.207C141.592 102.447 143.672 101.862 145.359 100.67C147.405 99.2216 147.292 98.9882 146.902 96.1978Z" fill="#2B6DB3"/>
<path d="M111.388 123.361C111.32 122.417 111.512 121.468 111.944 120.608C112.314 120.057 112.802 119.679 113.188 119.159C113.346 118.14 113.52 117.125 113.747 116.139C113.836 115.225 114.074 114.327 114.455 113.48C115.145 112.418 116.861 112.938 117.85 113.376C118.078 112.491 119.521 112.753 119.287 113.647L117.956 118.751C117.935 118.889 117.927 119.029 117.929 119.168C117.957 120.301 118.682 121.235 118.752 122.357C118.786 123.05 118.754 123.746 118.657 124.435C118.828 125.634 118.799 126.78 118.258 127.525C117.419 128.688 114.021 129.088 112.705 128.636C110.542 127.864 111.297 124.998 111.388 123.361Z" fill="#CF6A5C"/>
<path d="M115.36 87.0377C115.31 95.5622 114.9 104.407 111.386 112.32C110.818 113.598 109.444 116.268 110.455 116.706C112.519 117.601 117.751 118.89 119.782 119.385C119.964 119.411 120.15 119.379 120.313 119.294C120.477 119.209 120.609 119.075 120.693 118.911C131.961 100.568 137.811 72.0568 121.862 54.3792C121.76 54.264 121.629 54.1785 121.482 54.132C121.335 54.0855 121.178 54.0797 121.028 54.1152L119.738 54.1559C115.138 65.0439 115.448 73.2885 115.36 87.0377Z" fill="#2B6DB3"/>
<path d="M100.815 219.033C101.209 218.931 101.567 218.718 101.845 218.421C102.123 218.123 102.311 217.752 102.385 217.352C102.486 217.027 102.492 215.727 102.748 215.552C103.005 215.377 102.886 215.415 103.33 215.402C104.832 215.365 107.348 215.577 108.299 215.659C108.718 215.696 108.793 215.759 108.818 216.621C108.818 216.665 108.712 219.708 108.58 221.314C108.424 223.189 108.124 223.72 106.415 223.945C102.304 224.489 97.4857 224.695 93.2742 224.989C93.0904 224.987 92.9142 224.915 92.7825 224.787C92.6507 224.659 92.5736 224.485 92.5672 224.301C92.2168 221.602 92.3919 221.802 94.6509 221.07C95.9024 220.658 99.7259 219.358 100.815 219.033Z" fill="#1C1C1C"/>
<path d="M147.575 212.853C147.869 212.57 148.075 212.21 148.172 211.814C148.268 211.418 148.25 211.002 148.12 210.616C148.045 210.291 147.413 209.148 147.55 208.873C147.688 208.598 147.601 208.685 147.982 208.454C149.271 207.685 151.568 206.636 152.438 206.242C152.819 206.073 152.919 206.086 153.364 206.823C153.364 206.873 154.784 209.566 155.466 211.029C156.261 212.754 156.249 213.353 154.878 214.385C151.562 216.884 147.463 219.421 143.921 221.759C143.76 221.846 143.571 221.868 143.394 221.821C143.217 221.773 143.065 221.659 142.97 221.502C141.337 219.321 141.581 219.403 143.189 217.665C144.102 216.691 146.781 213.685 147.575 212.853Z" fill="#1C1C1C"/>
<path d="M91.2479 23.8705C91.3971 21.6748 91.6771 19.4899 92.0865 17.3275C91.9926 16.5651 91.9049 15.8152 91.8486 15.0903C91.2792 8.21615 95.8223 -0.314018 104.583 2.20441C112.718 4.54162 116.685 12.0969 115.847 19.4023C116.116 25.9764 113.463 31.2757 104.865 32.7193C100.972 33.3442 98.1814 33.9129 96.1039 31.057C95.1277 29.7197 94.6834 27.245 94.0701 25.6202C92.7935 25.5265 91.1853 25.4765 91.2479 23.8705Z" fill="#CF6A5C"/>
<path d="M110.133 1.8616C97.3648 -2.59784 91.9168 5.18529 92.0921 7.8787C92.1108 8.07867 91.6853 9.81594 92.5113 9.81594C98.5562 9.49723 99.5699 13.553 101.378 17.7462C101.682 18.6289 102.317 19.3593 103.149 19.7834C104.257 20.4146 105.571 19.5522 106.866 20.2959C108.581 21.2895 109.225 23.4455 110.133 24.9266C110.978 26.2639 112.842 28.851 113.262 28.7198C113.556 28.6448 115.045 25.8764 115.22 25.5202C118.024 19.7272 117.432 16.8105 117.432 12.267C116.838 4.51775 112.318 3.0922 110.133 1.8616Z" fill="black"/>
</svg>
