<svg xmlns="http://www.w3.org/2000/svg" xmlns:xlink="http://www.w3.org/1999/xlink" width="148.261" height="53.15" viewBox="0 0 148.261 53.15">
  <defs>
    <clipPath id="clip-path">
      <rect width="148.261" height="53.15" fill="none"/>
    </clipPath>
    <clipPath id="clip-path-2">
      <rect id="Rectangle_5" data-name="Rectangle 5" width="148.261" height="53.15" transform="translate(247.214 283.465)" fill="none"/>
    </clipPath>
  </defs>
  <g id="Repeat_Grid_1" data-name="Repeat Grid 1" clip-path="url(#clip-path)">
    <g id="Group_4" data-name="Group 4" transform="translate(-247.214 -283.465)">
      <g id="Group_3" data-name="Group 3" clip-path="url(#clip-path-2)">
        <path id="Path_1" data-name="Path 1" d="M299.876,321.287h2.167v-1.634a7.807,7.807,0,0,0,4.55,1.457c4.015,0,6.681-2.418,6.681-6.042,0-3.2-1.635-5.224-6.148-7.5-2.666-1.315-3.555-2.275-3.555-3.731a2.869,2.869,0,0,1,3.022-2.665,4.688,4.688,0,0,1,3.8,1.883v2.381h2.168v-6.645h-2.168v1.528a7.756,7.756,0,0,0-4.229-1.1c-3.873,0-6.361,2.2-6.361,5.65a5.893,5.893,0,0,0,.924,3.2c.994,1.528,2.487,2.7,5.756,4.477,2.239,1.245,2.985,2.17,2.985,3.731a3.046,3.046,0,0,1-3.02,2.916,5.891,5.891,0,0,1-4.407-2.7v-2.559h-2.167Z"/>
        <path id="Path_2" data-name="Path 2" d="M331.326,319.156V305.651h-6.753v1.6h2.63v10.306a3.835,3.835,0,0,1-.995.567,4.956,4.956,0,0,1-2.2.677c-1.457,0-2.2-.889-2.2-2.63V305.651h-6.786v1.6h2.664v9.7c0,2.6,1.6,4.088,4.442,4.088a8.838,8.838,0,0,0,4.762-1.671l.319-.212v1.634h6.788v-1.634Z"/>
        <path id="Path_3" data-name="Path 3" d="M358.174,313.149c0,4.513,3.553,7.89,8.281,7.89,3.055,0,5.117-.782,6.715-2.63a8.4,8.4,0,0,0,2.025-5.295c0-4.583-3.517-7.855-8.491-7.855-5.048,0-8.53,3.2-8.53,7.89m4.513.071v-.213c0-3.659,1.565-6.077,3.945-6.077,2.524,0,3.98,2.31,3.98,6.327,0,4.086-1.314,6.253-3.8,6.253-2.629,0-4.05-2.131-4.122-6.29" fill-rule="evenodd"/>
        <path id="Path_4" data-name="Path 4" d="M379.163,319.156h-2.7v1.634h8.886v-1.634h-2.1v-10.2a6,6,0,0,1,3.268-1.209c1.528,0,2.1.747,2.167,2.951v8.458H386.52v1.634h8.956v-1.634h-2.667v-9.311c0-2.951-1.564-4.585-4.371-4.585-1.419,0-2.771.534-4.9,1.99l-.283.178v-1.777h-6.79v1.6h2.7Z"/>
        <path id="Path_5" data-name="Path 5" d="M356.72,318.053a.38.38,0,0,0-.213.071c-.071,0-.141.073-.213.108a2.9,2.9,0,0,0-.463.319,2.568,2.568,0,0,1-1.528.641c-1.243,0-2.024-1.352-2.024-3.483v-8.174h4.157v-1.884h-4.157v-4.158l-4.452,4.158H340.8v-4.158l-6.467,6.042h2.31v8.775c0,3.094,1.565,4.729,4.654,4.729a4.517,4.517,0,0,0,4.088-1.884,1.077,1.077,0,0,0,.284-.675.412.412,0,0,0-.426-.427.39.39,0,0,0-.215.071c-.07,0-.141.073-.212.108a2.849,2.849,0,0,0-.464.319,2.57,2.57,0,0,1-1.526.641c-1.243,0-2.026-1.352-2.026-3.483v-8.174h7.319v8.775c0,3.094,1.563,4.729,4.655,4.729a4.516,4.516,0,0,0,4.086-1.884,1.068,1.068,0,0,0,.285-.675.411.411,0,0,0-.427-.427"/>
        <path id="Path_6" data-name="Path 6" d="M294.329,323.282a24.458,24.458,0,1,1,1.309-24.179l1.621-1.515a26.573,26.573,0,1,0-1.349,27.171Z"/>
        <path id="Path_7" data-name="Path 7" d="M269.33,324.093a7.675,7.675,0,0,1,2.06-5.2c2.2-2.312,3.178-3.237,3.178-3.237l-.323,1.482s.828-.412,2.232-1.1c1.005-.489,1.407-.718,2.237-.459a7.9,7.9,0,0,0-5.406,6.052,7.62,7.62,0,0,0,.149,2.162s-2.855-.562-4.127.3"/>
        <path id="Path_8" data-name="Path 8" d="M284.168,294.244c-2.349.452-6.056.314-3.677-2.494a5.7,5.7,0,0,0-5,.236,7.3,7.3,0,0,1-4.651,1.593c-2.512.2-2.181,1.523-2.478,2.609a4.8,4.8,0,0,1-1.413,2.668s3.265-1.28,3.956,1.54a8.407,8.407,0,0,1,2.866-2.918c-1.2,2.137-2.436,3.558-1.865,6.864-.233-.559-1.126-5.046-3.992-5.138-2.193-.091-4.849.526-6.483-3.363-.919,2.435-.93,2.578-.681,4.056a4.95,4.95,0,0,0-1.926,1.506c1.587-.09,2.443,1.916,2.822,3.012.254.671.458,2.3-2.121,1.009a3.282,3.282,0,0,0-4.074.937c-1.062,1.25-1.437,2.717.571,4.689.679.666,1.293,1.241,1.529,1.433,4.683-2.33,6.681-3,9.043-3.139-2.166-.178-2.965-1.258-2.672-2.483a6.615,6.615,0,0,1,.7-1.861s-1.259,3.146,2.112,3.716c2.439.412,4.04,2.6,5.486,4.732-1.533-.882-3.344-3.444-6.46-3.026-4.47.6-6.823,2.624-11.1,3.378-1.968.347-2.912.817-2.593,1.579.378.9,1.684,1.374,4.964,1.2s3.69-.623,4.833.031,3.62,2.8,6.056,1.924,8.07-4.468,9.836-6.645c1.5-1.8.281-3.973-1.233-7.236a17.665,17.665,0,0,1,2.1,2.809s-.225-2.774,1.012-4.011,4.443-2.436,6.064-2.849c-.1-1.312.935-2.989.935-3.992,0-.61-.112-2.816-2.461-2.364"/>
        <path id="Path_9" data-name="Path 9" d="M295.829,307.175a3.483,3.483,0,0,1-3.849.372c-1.966-1.224-1.379-2.449-.784-4.258.76-2.3-1.552-1.674-3.45-1.311s-1.906-.769-1.906-.769c-5.71,2.166-6.135,3.39-6.654,7.265,2.143,3.588-3.427,5.906-3.427,5.906a3.4,3.4,0,0,1-.424,1.563c1.253-.965,3.691-2.1,4.214-.911.8,1.824,1.18,2.962,3.571,3.48s5.544-.306,9.867-4.607,2.842-6.73,2.842-6.73m-12.507,6.189c-1.78,1.012-2.622.544-2.622.544a5.594,5.594,0,0,0,4.076-4.428,7.451,7.451,0,0,1-.337,3.188c1.4-.252,2.45-.515,4.019,2.612-.906-1.134-3.762-2.7-5.136-1.916"/>
        <path id="Path_10" data-name="Path 10" d="M260.347,325.911a47.807,47.807,0,0,1,9.087-.947,37.761,37.761,0,0,0,8.9-.524c1.425-.445,1.877-.105,2.2.374s.268,1.2-.967,1.728-5.369.827-11.546.239-7.674-.87-7.674-.87"/>
      </g>
    </g>
  </g>
</svg>
